%TF.GenerationSoftware,KiCad,Pcbnew,6.0.7*%
%TF.CreationDate,2023-03-08T14:53:27+01:00*%
%TF.ProjectId,jbc-miniregler,6a62632d-6d69-46e6-9972-65676c65722e,22.0.0*%
%TF.SameCoordinates,PX56c8cc0PY88601c0*%
%TF.FileFunction,Paste,Top*%
%TF.FilePolarity,Positive*%
%FSLAX46Y46*%
G04 Gerber Fmt 4.6, Leading zero omitted, Abs format (unit mm)*
G04 Created by KiCad (PCBNEW 6.0.7) date 2023-03-08 14:53:27*
%MOMM*%
%LPD*%
G01*
G04 APERTURE LIST*
G04 Aperture macros list*
%AMRoundRect*
0 Rectangle with rounded corners*
0 $1 Rounding radius*
0 $2 $3 $4 $5 $6 $7 $8 $9 X,Y pos of 4 corners*
0 Add a 4 corners polygon primitive as box body*
4,1,4,$2,$3,$4,$5,$6,$7,$8,$9,$2,$3,0*
0 Add four circle primitives for the rounded corners*
1,1,$1+$1,$2,$3*
1,1,$1+$1,$4,$5*
1,1,$1+$1,$6,$7*
1,1,$1+$1,$8,$9*
0 Add four rect primitives between the rounded corners*
20,1,$1+$1,$2,$3,$4,$5,0*
20,1,$1+$1,$4,$5,$6,$7,0*
20,1,$1+$1,$6,$7,$8,$9,0*
20,1,$1+$1,$8,$9,$2,$3,0*%
G04 Aperture macros list end*
%ADD10C,0.010000*%
%ADD11RoundRect,0.199999X-0.650001X0.325001X-0.650001X-0.325001X0.650001X-0.325001X0.650001X0.325001X0*%
%ADD12RoundRect,0.199999X0.325001X0.650001X-0.325001X0.650001X-0.325001X-0.650001X0.325001X-0.650001X0*%
%ADD13RoundRect,0.199999X-0.325001X-0.650001X0.325001X-0.650001X0.325001X0.650001X-0.325001X0.650001X0*%
%ADD14RoundRect,0.199999X0.650001X-0.325001X0.650001X0.325001X-0.650001X0.325001X-0.650001X-0.325001X0*%
%ADD15RoundRect,0.200000X-1.500000X-1.000000X1.500000X-1.000000X1.500000X1.000000X-1.500000X1.000000X0*%
%ADD16RoundRect,0.200000X-0.625000X0.375000X-0.625000X-0.375000X0.625000X-0.375000X0.625000X0.375000X0*%
%ADD17R,0.700000X0.800000*%
%ADD18R,2.400000X3.200000*%
%ADD19R,2.400000X1.700000*%
%ADD20C,0.520000*%
%ADD21R,3.050000X2.750000*%
%ADD22R,2.100000X1.100000*%
%ADD23R,0.800000X0.700000*%
%ADD24RoundRect,0.199997X-0.625003X0.312503X-0.625003X-0.312503X0.625003X-0.312503X0.625003X0.312503X0*%
%ADD25RoundRect,0.199997X-0.312503X-0.625003X0.312503X-0.625003X0.312503X0.625003X-0.312503X0.625003X0*%
%ADD26RoundRect,0.199997X0.625003X-0.312503X0.625003X0.312503X-0.625003X0.312503X-0.625003X-0.312503X0*%
%ADD27RoundRect,0.400000X-0.800000X-0.450000X0.800000X-0.450000X0.800000X0.450000X-0.800000X0.450000X0*%
%ADD28RoundRect,0.125000X-1.075000X-0.175000X1.075000X-0.175000X1.075000X0.175000X-1.075000X0.175000X0*%
%ADD29RoundRect,0.199997X0.312503X0.625003X-0.312503X0.625003X-0.312503X-0.625003X0.312503X-0.625003X0*%
%ADD30R,0.900000X0.650000*%
%ADD31RoundRect,0.100000X0.150000X-0.825000X0.150000X0.825000X-0.150000X0.825000X-0.150000X-0.825000X0*%
%ADD32RoundRect,0.100000X0.825000X0.150000X-0.825000X0.150000X-0.825000X-0.150000X0.825000X-0.150000X0*%
%ADD33RoundRect,0.249999X-0.275001X-0.420001X0.275001X-0.420001X0.275001X0.420001X-0.275001X0.420001X0*%
%ADD34RoundRect,0.100000X-0.662500X-0.150000X0.662500X-0.150000X0.662500X0.150000X-0.662500X0.150000X0*%
%ADD35RoundRect,0.249999X0.420001X-0.275001X0.420001X0.275001X-0.420001X0.275001X-0.420001X-0.275001X0*%
%ADD36RoundRect,0.100000X0.150000X-0.662500X0.150000X0.662500X-0.150000X0.662500X-0.150000X-0.662500X0*%
%ADD37RoundRect,0.200000X-1.500000X-0.550000X1.500000X-0.550000X1.500000X0.550000X-1.500000X0.550000X0*%
%ADD38RoundRect,0.450000X-3.000000X1.500000X-3.000000X-1.500000X3.000000X-1.500000X3.000000X1.500000X0*%
%ADD39RoundRect,0.575000X0.117030X-1.505840X1.057586X1.078315X-0.117030X1.505840X-1.057586X-1.078315X0*%
%ADD40R,1.700000X2.400000*%
%ADD41RoundRect,0.200000X0.625000X-0.312500X0.625000X0.312500X-0.625000X0.312500X-0.625000X-0.312500X0*%
%ADD42RoundRect,0.200000X-0.312500X-0.625000X0.312500X-0.625000X0.312500X0.625000X-0.312500X0.625000X0*%
%ADD43RoundRect,0.200000X0.325000X0.650000X-0.325000X0.650000X-0.325000X-0.650000X0.325000X-0.650000X0*%
%ADD44RoundRect,0.200000X0.650000X-0.325000X0.650000X0.325000X-0.650000X0.325000X-0.650000X-0.325000X0*%
%ADD45RoundRect,0.200000X-0.625000X0.312500X-0.625000X-0.312500X0.625000X-0.312500X0.625000X0.312500X0*%
%ADD46RoundRect,0.100000X0.150000X-0.587500X0.150000X0.587500X-0.150000X0.587500X-0.150000X-0.587500X0*%
%ADD47RoundRect,0.100000X-0.825000X-0.150000X0.825000X-0.150000X0.825000X0.150000X-0.825000X0.150000X0*%
%ADD48RoundRect,0.200000X0.312500X0.625000X-0.312500X0.625000X-0.312500X-0.625000X0.312500X-0.625000X0*%
%ADD49RoundRect,0.450000X-1.500000X-3.000000X1.500000X-3.000000X1.500000X3.000000X-1.500000X3.000000X0*%
%ADD50RoundRect,0.200000X0.550000X-1.500000X0.550000X1.500000X-0.550000X1.500000X-0.550000X-1.500000X0*%
%ADD51RoundRect,0.200000X-0.650000X0.325000X-0.650000X-0.325000X0.650000X-0.325000X0.650000X0.325000X0*%
%ADD52RoundRect,0.200000X-0.325000X-0.650000X0.325000X-0.650000X0.325000X0.650000X-0.325000X0.650000X0*%
G04 APERTURE END LIST*
D10*
%TO.C,U6*%
X71500000Y82700000D02*
X74900000Y82700000D01*
X74900000Y82700000D02*
X74900000Y81100000D01*
X74900000Y81100000D02*
X71500000Y81100000D01*
X71500000Y81100000D02*
X71500000Y82700000D01*
G36*
X71500000Y82700000D02*
G01*
X74900000Y82700000D01*
X74900000Y81100000D01*
X71500000Y81100000D01*
X71500000Y82700000D01*
G37*
X91090000Y64900000D02*
X94490000Y64900000D01*
X94490000Y64900000D02*
X94490000Y63300000D01*
X94490000Y63300000D02*
X91090000Y63300000D01*
X91090000Y63300000D02*
X91090000Y64900000D01*
G36*
X91090000Y64900000D02*
G01*
X94490000Y64900000D01*
X94490000Y63300000D01*
X91090000Y63300000D01*
X91090000Y64900000D01*
G37*
X71500000Y75050000D02*
X74900000Y75050000D01*
X74900000Y75050000D02*
X74900000Y73450000D01*
X74900000Y73450000D02*
X71500000Y73450000D01*
X71500000Y73450000D02*
X71500000Y75050000D01*
G36*
X71500000Y75050000D02*
G01*
X74900000Y75050000D01*
X74900000Y73450000D01*
X71500000Y73450000D01*
X71500000Y75050000D01*
G37*
X71500000Y64900000D02*
X74900000Y64900000D01*
X74900000Y64900000D02*
X74900000Y63300000D01*
X74900000Y63300000D02*
X71500000Y63300000D01*
X71500000Y63300000D02*
X71500000Y64900000D01*
G36*
X71500000Y64900000D02*
G01*
X74900000Y64900000D01*
X74900000Y63300000D01*
X71500000Y63300000D01*
X71500000Y64900000D01*
G37*
X71500000Y59850000D02*
X74900000Y59850000D01*
X74900000Y59850000D02*
X74900000Y58250000D01*
X74900000Y58250000D02*
X71500000Y58250000D01*
X71500000Y58250000D02*
X71500000Y59850000D01*
G36*
X71500000Y59850000D02*
G01*
X74900000Y59850000D01*
X74900000Y58250000D01*
X71500000Y58250000D01*
X71500000Y59850000D01*
G37*
X71500000Y67450000D02*
X74900000Y67450000D01*
X74900000Y67450000D02*
X74900000Y65850000D01*
X74900000Y65850000D02*
X71500000Y65850000D01*
X71500000Y65850000D02*
X71500000Y67450000D01*
G36*
X71500000Y67450000D02*
G01*
X74900000Y67450000D01*
X74900000Y65850000D01*
X71500000Y65850000D01*
X71500000Y67450000D01*
G37*
X91090000Y92850000D02*
X94490000Y92850000D01*
X94490000Y92850000D02*
X94490000Y91250000D01*
X94490000Y91250000D02*
X91090000Y91250000D01*
X91090000Y91250000D02*
X91090000Y92850000D01*
G36*
X91090000Y92850000D02*
G01*
X94490000Y92850000D01*
X94490000Y91250000D01*
X91090000Y91250000D01*
X91090000Y92850000D01*
G37*
X71500000Y80150000D02*
X74900000Y80150000D01*
X74900000Y80150000D02*
X74900000Y78550000D01*
X74900000Y78550000D02*
X71500000Y78550000D01*
X71500000Y78550000D02*
X71500000Y80150000D01*
G36*
X71500000Y80150000D02*
G01*
X74900000Y80150000D01*
X74900000Y78550000D01*
X71500000Y78550000D01*
X71500000Y80150000D01*
G37*
X71510000Y97930000D02*
X74910000Y97930000D01*
X74910000Y97930000D02*
X74910000Y96330000D01*
X74910000Y96330000D02*
X71510000Y96330000D01*
X71510000Y96330000D02*
X71510000Y97930000D01*
G36*
X71510000Y97930000D02*
G01*
X74910000Y97930000D01*
X74910000Y96330000D01*
X71510000Y96330000D01*
X71510000Y97930000D01*
G37*
X91090000Y77600000D02*
X94490000Y77600000D01*
X94490000Y77600000D02*
X94490000Y76000000D01*
X94490000Y76000000D02*
X91090000Y76000000D01*
X91090000Y76000000D02*
X91090000Y77600000D01*
G36*
X91090000Y77600000D02*
G01*
X94490000Y77600000D01*
X94490000Y76000000D01*
X91090000Y76000000D01*
X91090000Y77600000D01*
G37*
X71500000Y85250000D02*
X74900000Y85250000D01*
X74900000Y85250000D02*
X74900000Y83650000D01*
X74900000Y83650000D02*
X71500000Y83650000D01*
X71500000Y83650000D02*
X71500000Y85250000D01*
G36*
X71500000Y85250000D02*
G01*
X74900000Y85250000D01*
X74900000Y83650000D01*
X71500000Y83650000D01*
X71500000Y85250000D01*
G37*
X91090000Y72550000D02*
X94490000Y72550000D01*
X94490000Y72550000D02*
X94490000Y70950000D01*
X94490000Y70950000D02*
X91090000Y70950000D01*
X91090000Y70950000D02*
X91090000Y72550000D01*
G36*
X91090000Y72550000D02*
G01*
X94490000Y72550000D01*
X94490000Y70950000D01*
X91090000Y70950000D01*
X91090000Y72550000D01*
G37*
X71500000Y72550000D02*
X74900000Y72550000D01*
X74900000Y72550000D02*
X74900000Y70950000D01*
X74900000Y70950000D02*
X71500000Y70950000D01*
X71500000Y70950000D02*
X71500000Y72550000D01*
G36*
X71500000Y72550000D02*
G01*
X74900000Y72550000D01*
X74900000Y70950000D01*
X71500000Y70950000D01*
X71500000Y72550000D01*
G37*
X71500000Y49650000D02*
X74900000Y49650000D01*
X74900000Y49650000D02*
X74900000Y48050000D01*
X74900000Y48050000D02*
X71500000Y48050000D01*
X71500000Y48050000D02*
X71500000Y49650000D01*
G36*
X71500000Y49650000D02*
G01*
X74900000Y49650000D01*
X74900000Y48050000D01*
X71500000Y48050000D01*
X71500000Y49650000D01*
G37*
X82190000Y46490000D02*
X83790000Y46490000D01*
X83790000Y46490000D02*
X83790000Y49890000D01*
X83790000Y49890000D02*
X82190000Y49890000D01*
X82190000Y49890000D02*
X82190000Y46490000D01*
G36*
X82190000Y46490000D02*
G01*
X83790000Y46490000D01*
X83790000Y49890000D01*
X82190000Y49890000D01*
X82190000Y46490000D01*
G37*
X91090000Y59850000D02*
X94490000Y59850000D01*
X94490000Y59850000D02*
X94490000Y58250000D01*
X94490000Y58250000D02*
X91090000Y58250000D01*
X91090000Y58250000D02*
X91090000Y59850000D01*
G36*
X91090000Y59850000D02*
G01*
X94490000Y59850000D01*
X94490000Y58250000D01*
X91090000Y58250000D01*
X91090000Y59850000D01*
G37*
X71500000Y52200000D02*
X74900000Y52200000D01*
X74900000Y52200000D02*
X74900000Y50600000D01*
X74900000Y50600000D02*
X71500000Y50600000D01*
X71500000Y50600000D02*
X71500000Y52200000D01*
G36*
X71500000Y52200000D02*
G01*
X74900000Y52200000D01*
X74900000Y50600000D01*
X71500000Y50600000D01*
X71500000Y52200000D01*
G37*
X91090000Y85250000D02*
X94490000Y85250000D01*
X94490000Y85250000D02*
X94490000Y83650000D01*
X94490000Y83650000D02*
X91090000Y83650000D01*
X91090000Y83650000D02*
X91090000Y85250000D01*
G36*
X91090000Y85250000D02*
G01*
X94490000Y85250000D01*
X94490000Y83650000D01*
X91090000Y83650000D01*
X91090000Y85250000D01*
G37*
X91090000Y49650000D02*
X94490000Y49650000D01*
X94490000Y49650000D02*
X94490000Y48050000D01*
X94490000Y48050000D02*
X91090000Y48050000D01*
X91090000Y48050000D02*
X91090000Y49650000D01*
G36*
X91090000Y49650000D02*
G01*
X94490000Y49650000D01*
X94490000Y48050000D01*
X91090000Y48050000D01*
X91090000Y49650000D01*
G37*
X71500000Y57300000D02*
X74900000Y57300000D01*
X74900000Y57300000D02*
X74900000Y55700000D01*
X74900000Y55700000D02*
X71500000Y55700000D01*
X71500000Y55700000D02*
X71500000Y57300000D01*
G36*
X71500000Y57300000D02*
G01*
X74900000Y57300000D01*
X74900000Y55700000D01*
X71500000Y55700000D01*
X71500000Y57300000D01*
G37*
X71500000Y90300000D02*
X74900000Y90300000D01*
X74900000Y90300000D02*
X74900000Y88700000D01*
X74900000Y88700000D02*
X71500000Y88700000D01*
X71500000Y88700000D02*
X71500000Y90300000D01*
G36*
X71500000Y90300000D02*
G01*
X74900000Y90300000D01*
X74900000Y88700000D01*
X71500000Y88700000D01*
X71500000Y90300000D01*
G37*
X91100000Y97930000D02*
X94500000Y97930000D01*
X94500000Y97930000D02*
X94500000Y96330000D01*
X94500000Y96330000D02*
X91100000Y96330000D01*
X91100000Y96330000D02*
X91100000Y97930000D01*
G36*
X91100000Y97930000D02*
G01*
X94500000Y97930000D01*
X94500000Y96330000D01*
X91100000Y96330000D01*
X91100000Y97930000D01*
G37*
X91090000Y62350000D02*
X94490000Y62350000D01*
X94490000Y62350000D02*
X94490000Y60750000D01*
X94490000Y60750000D02*
X91090000Y60750000D01*
X91090000Y60750000D02*
X91090000Y62350000D01*
G36*
X91090000Y62350000D02*
G01*
X94490000Y62350000D01*
X94490000Y60750000D01*
X91090000Y60750000D01*
X91090000Y62350000D01*
G37*
X71500000Y87750000D02*
X74900000Y87750000D01*
X74900000Y87750000D02*
X74900000Y86150000D01*
X74900000Y86150000D02*
X71500000Y86150000D01*
X71500000Y86150000D02*
X71500000Y87750000D01*
G36*
X71500000Y87750000D02*
G01*
X74900000Y87750000D01*
X74900000Y86150000D01*
X71500000Y86150000D01*
X71500000Y87750000D01*
G37*
X71500000Y77600000D02*
X74900000Y77600000D01*
X74900000Y77600000D02*
X74900000Y76000000D01*
X74900000Y76000000D02*
X71500000Y76000000D01*
X71500000Y76000000D02*
X71500000Y77600000D01*
G36*
X71500000Y77600000D02*
G01*
X74900000Y77600000D01*
X74900000Y76000000D01*
X71500000Y76000000D01*
X71500000Y77600000D01*
G37*
X91090000Y90300000D02*
X94490000Y90300000D01*
X94490000Y90300000D02*
X94490000Y88700000D01*
X94490000Y88700000D02*
X91090000Y88700000D01*
X91090000Y88700000D02*
X91090000Y90300000D01*
G36*
X91090000Y90300000D02*
G01*
X94490000Y90300000D01*
X94490000Y88700000D01*
X91090000Y88700000D01*
X91090000Y90300000D01*
G37*
X91090000Y57300000D02*
X94490000Y57300000D01*
X94490000Y57300000D02*
X94490000Y55700000D01*
X94490000Y55700000D02*
X91090000Y55700000D01*
X91090000Y55700000D02*
X91090000Y57300000D01*
G36*
X91090000Y57300000D02*
G01*
X94490000Y57300000D01*
X94490000Y55700000D01*
X91090000Y55700000D01*
X91090000Y57300000D01*
G37*
X79660000Y46500000D02*
X81260000Y46500000D01*
X81260000Y46500000D02*
X81260000Y49900000D01*
X81260000Y49900000D02*
X79660000Y49900000D01*
X79660000Y49900000D02*
X79660000Y46500000D01*
G36*
X79660000Y46500000D02*
G01*
X81260000Y46500000D01*
X81260000Y49900000D01*
X79660000Y49900000D01*
X79660000Y46500000D01*
G37*
X91090000Y87750000D02*
X94490000Y87750000D01*
X94490000Y87750000D02*
X94490000Y86150000D01*
X94490000Y86150000D02*
X91090000Y86150000D01*
X91090000Y86150000D02*
X91090000Y87750000D01*
G36*
X91090000Y87750000D02*
G01*
X94490000Y87750000D01*
X94490000Y86150000D01*
X91090000Y86150000D01*
X91090000Y87750000D01*
G37*
X91100000Y95400000D02*
X94500000Y95400000D01*
X94500000Y95400000D02*
X94500000Y93800000D01*
X94500000Y93800000D02*
X91100000Y93800000D01*
X91100000Y93800000D02*
X91100000Y95400000D01*
G36*
X91100000Y95400000D02*
G01*
X94500000Y95400000D01*
X94500000Y93800000D01*
X91100000Y93800000D01*
X91100000Y95400000D01*
G37*
X91090000Y80150000D02*
X94490000Y80150000D01*
X94490000Y80150000D02*
X94490000Y78550000D01*
X94490000Y78550000D02*
X91090000Y78550000D01*
X91090000Y78550000D02*
X91090000Y80150000D01*
G36*
X91090000Y80150000D02*
G01*
X94490000Y80150000D01*
X94490000Y78550000D01*
X91090000Y78550000D01*
X91090000Y80150000D01*
G37*
X91090000Y75050000D02*
X94490000Y75050000D01*
X94490000Y75050000D02*
X94490000Y73450000D01*
X94490000Y73450000D02*
X91090000Y73450000D01*
X91090000Y73450000D02*
X91090000Y75050000D01*
G36*
X91090000Y75050000D02*
G01*
X94490000Y75050000D01*
X94490000Y73450000D01*
X91090000Y73450000D01*
X91090000Y75050000D01*
G37*
X71510000Y95400000D02*
X74910000Y95400000D01*
X74910000Y95400000D02*
X74910000Y93800000D01*
X74910000Y93800000D02*
X71510000Y93800000D01*
X71510000Y93800000D02*
X71510000Y95400000D01*
G36*
X71510000Y95400000D02*
G01*
X74910000Y95400000D01*
X74910000Y93800000D01*
X71510000Y93800000D01*
X71510000Y95400000D01*
G37*
X91090000Y82700000D02*
X94490000Y82700000D01*
X94490000Y82700000D02*
X94490000Y81100000D01*
X94490000Y81100000D02*
X91090000Y81100000D01*
X91090000Y81100000D02*
X91090000Y82700000D01*
G36*
X91090000Y82700000D02*
G01*
X94490000Y82700000D01*
X94490000Y81100000D01*
X91090000Y81100000D01*
X91090000Y82700000D01*
G37*
X91090000Y70000000D02*
X94490000Y70000000D01*
X94490000Y70000000D02*
X94490000Y68400000D01*
X94490000Y68400000D02*
X91090000Y68400000D01*
X91090000Y68400000D02*
X91090000Y70000000D01*
G36*
X91090000Y70000000D02*
G01*
X94490000Y70000000D01*
X94490000Y68400000D01*
X91090000Y68400000D01*
X91090000Y70000000D01*
G37*
X91090000Y54750000D02*
X94490000Y54750000D01*
X94490000Y54750000D02*
X94490000Y53150000D01*
X94490000Y53150000D02*
X91090000Y53150000D01*
X91090000Y53150000D02*
X91090000Y54750000D01*
G36*
X91090000Y54750000D02*
G01*
X94490000Y54750000D01*
X94490000Y53150000D01*
X91090000Y53150000D01*
X91090000Y54750000D01*
G37*
X71500000Y54750000D02*
X74900000Y54750000D01*
X74900000Y54750000D02*
X74900000Y53150000D01*
X74900000Y53150000D02*
X71500000Y53150000D01*
X71500000Y53150000D02*
X71500000Y54750000D01*
G36*
X71500000Y54750000D02*
G01*
X74900000Y54750000D01*
X74900000Y53150000D01*
X71500000Y53150000D01*
X71500000Y54750000D01*
G37*
X71500000Y62350000D02*
X74900000Y62350000D01*
X74900000Y62350000D02*
X74900000Y60750000D01*
X74900000Y60750000D02*
X71500000Y60750000D01*
X71500000Y60750000D02*
X71500000Y62350000D01*
G36*
X71500000Y62350000D02*
G01*
X74900000Y62350000D01*
X74900000Y60750000D01*
X71500000Y60750000D01*
X71500000Y62350000D01*
G37*
X91090000Y67450000D02*
X94490000Y67450000D01*
X94490000Y67450000D02*
X94490000Y65850000D01*
X94490000Y65850000D02*
X91090000Y65850000D01*
X91090000Y65850000D02*
X91090000Y67450000D01*
G36*
X91090000Y67450000D02*
G01*
X94490000Y67450000D01*
X94490000Y65850000D01*
X91090000Y65850000D01*
X91090000Y67450000D01*
G37*
X84740000Y46500000D02*
X86340000Y46500000D01*
X86340000Y46500000D02*
X86340000Y49900000D01*
X86340000Y49900000D02*
X84740000Y49900000D01*
X84740000Y49900000D02*
X84740000Y46500000D01*
G36*
X84740000Y46500000D02*
G01*
X86340000Y46500000D01*
X86340000Y49900000D01*
X84740000Y49900000D01*
X84740000Y46500000D01*
G37*
X71500000Y92850000D02*
X74900000Y92850000D01*
X74900000Y92850000D02*
X74900000Y91250000D01*
X74900000Y91250000D02*
X71500000Y91250000D01*
X71500000Y91250000D02*
X71500000Y92850000D01*
G36*
X71500000Y92850000D02*
G01*
X74900000Y92850000D01*
X74900000Y91250000D01*
X71500000Y91250000D01*
X71500000Y92850000D01*
G37*
X91090000Y52200000D02*
X94490000Y52200000D01*
X94490000Y52200000D02*
X94490000Y50600000D01*
X94490000Y50600000D02*
X91090000Y50600000D01*
X91090000Y50600000D02*
X91090000Y52200000D01*
G36*
X91090000Y52200000D02*
G01*
X94490000Y52200000D01*
X94490000Y50600000D01*
X91090000Y50600000D01*
X91090000Y52200000D01*
G37*
X71500000Y70000000D02*
X74900000Y70000000D01*
X74900000Y70000000D02*
X74900000Y68400000D01*
X74900000Y68400000D02*
X71500000Y68400000D01*
X71500000Y68400000D02*
X71500000Y70000000D01*
G36*
X71500000Y70000000D02*
G01*
X74900000Y70000000D01*
X74900000Y68400000D01*
X71500000Y68400000D01*
X71500000Y70000000D01*
G37*
%TD*%
D11*
%TO.C,C1*%
X18750000Y63475000D03*
X18750000Y60525000D03*
%TD*%
%TO.C,C2*%
X18750000Y39475000D03*
X18750000Y36525000D03*
%TD*%
%TO.C,C4*%
X7000000Y51475000D03*
X7000000Y48525000D03*
%TD*%
D12*
%TO.C,C26*%
X5225000Y19500000D03*
X2275000Y19500000D03*
%TD*%
D11*
%TO.C,C27*%
X1750000Y41725000D03*
X1750000Y38775000D03*
%TD*%
D13*
%TO.C,C23*%
X55775000Y6250000D03*
X58725000Y6250000D03*
%TD*%
D14*
%TO.C,C24*%
X42000000Y3775000D03*
X42000000Y6725000D03*
%TD*%
%TO.C,C5*%
X45250000Y69025000D03*
X45250000Y71975000D03*
%TD*%
D13*
%TO.C,C6*%
X52775000Y50250000D03*
X55725000Y50250000D03*
%TD*%
%TO.C,C7*%
X97025000Y73500000D03*
X99975000Y73500000D03*
%TD*%
D15*
%TO.C,C9*%
X57500000Y39000000D03*
X64000000Y39000000D03*
%TD*%
D13*
%TO.C,C10*%
X53775000Y19750000D03*
X56725000Y19750000D03*
%TD*%
D14*
%TO.C,C12*%
X73750000Y10775000D03*
X73750000Y13725000D03*
%TD*%
D16*
%TO.C,D1*%
X67750000Y96900000D03*
X67750000Y94100000D03*
%TD*%
D17*
%TO.C,D14*%
X7050000Y18750000D03*
X8950000Y18750000D03*
X8000000Y20750000D03*
%TD*%
D18*
%TO.C,D2*%
X45144000Y21918200D03*
X38344000Y21918200D03*
%TD*%
D17*
%TO.C,D3*%
X23300000Y78500000D03*
X25200000Y78500000D03*
X24250000Y80500000D03*
%TD*%
D19*
%TO.C,D4*%
X59500000Y24250000D03*
X63500000Y24250000D03*
%TD*%
D16*
%TO.C,D5*%
X106000000Y14400000D03*
X106000000Y11600000D03*
%TD*%
D19*
%TO.C,D8*%
X73000000Y32000000D03*
X77000000Y32000000D03*
%TD*%
D20*
%TO.C,FID1*%
X4500000Y97250000D03*
%TD*%
%TO.C,FID2*%
X108750000Y8000000D03*
%TD*%
D21*
%TO.C,Q5*%
X31925000Y7025000D03*
X31925000Y3975000D03*
X35275000Y7025000D03*
X35275000Y3975000D03*
D22*
X27300000Y7780000D03*
X27300000Y3220000D03*
%TD*%
D23*
%TO.C,Q1*%
X16000000Y79180000D03*
X16000000Y77280000D03*
X18000000Y78230000D03*
%TD*%
%TO.C,Q2*%
X27000000Y80450000D03*
X27000000Y78550000D03*
X29000000Y79500000D03*
%TD*%
%TO.C,Q3*%
X30750000Y80450000D03*
X30750000Y78550000D03*
X32750000Y79500000D03*
%TD*%
D24*
%TO.C,R1*%
X29250000Y63462500D03*
X29250000Y60537500D03*
%TD*%
%TO.C,R2*%
X29250000Y39462500D03*
X29250000Y36537500D03*
%TD*%
D25*
%TO.C,R3*%
X35787500Y45750000D03*
X38712500Y45750000D03*
%TD*%
D24*
%TO.C,R4*%
X17000000Y51462500D03*
X17000000Y48537500D03*
%TD*%
D26*
%TO.C,R5*%
X67750000Y87537500D03*
X67750000Y90462500D03*
%TD*%
D25*
%TO.C,R49*%
X10787500Y19500000D03*
X13712500Y19500000D03*
%TD*%
D24*
%TO.C,R54*%
X1750000Y26962500D03*
X1750000Y24037500D03*
%TD*%
D26*
%TO.C,R55*%
X4250000Y24037500D03*
X4250000Y26962500D03*
%TD*%
D24*
%TO.C,R52*%
X4250000Y41712500D03*
X4250000Y38787500D03*
%TD*%
D25*
%TO.C,R40*%
X55787500Y8750000D03*
X58712500Y8750000D03*
%TD*%
%TO.C,R41*%
X55787500Y11250000D03*
X58712500Y11250000D03*
%TD*%
%TO.C,R42*%
X47537500Y10750000D03*
X50462500Y10750000D03*
%TD*%
%TO.C,R43*%
X39037500Y1500000D03*
X41962500Y1500000D03*
%TD*%
%TO.C,R45*%
X47537500Y8500000D03*
X50462500Y8500000D03*
%TD*%
D27*
%TO.C,R46*%
X32000000Y33600000D03*
X34900000Y33600000D03*
X32000000Y31400000D03*
X32000000Y28600000D03*
X32000000Y26400000D03*
X34900000Y28600000D03*
X34900000Y26400000D03*
X34900000Y31400000D03*
D28*
X34900000Y30000000D03*
X32000000Y30000000D03*
X46000000Y30000000D03*
X43100000Y30000000D03*
D27*
X46000000Y26400000D03*
X43100000Y33600000D03*
X46000000Y28600000D03*
X46000000Y33600000D03*
X43100000Y26400000D03*
X46000000Y31400000D03*
X43100000Y28600000D03*
X43100000Y31400000D03*
%TD*%
D26*
%TO.C,R6*%
X13750000Y76960000D03*
X13750000Y79885000D03*
%TD*%
D24*
%TO.C,R7*%
X20750000Y80327500D03*
X20750000Y77402500D03*
%TD*%
D25*
%TO.C,R11*%
X52787500Y53250000D03*
X55712500Y53250000D03*
%TD*%
%TO.C,R13*%
X57287500Y47250000D03*
X60212500Y47250000D03*
%TD*%
%TO.C,R14*%
X97037500Y76000000D03*
X99962500Y76000000D03*
%TD*%
D26*
%TO.C,R15*%
X53750000Y39787500D03*
X53750000Y42712500D03*
%TD*%
D29*
%TO.C,R17*%
X95212500Y3750000D03*
X92287500Y3750000D03*
%TD*%
%TO.C,R18*%
X67962500Y20750000D03*
X65037500Y20750000D03*
%TD*%
D25*
%TO.C,R19*%
X53787500Y22250000D03*
X56712500Y22250000D03*
%TD*%
%TO.C,R20*%
X60037500Y20750000D03*
X62962500Y20750000D03*
%TD*%
D26*
%TO.C,R21*%
X108250000Y11537500D03*
X108250000Y14462500D03*
%TD*%
%TO.C,R23*%
X87250000Y4537500D03*
X87250000Y7462500D03*
%TD*%
%TO.C,R24*%
X86292000Y10787500D03*
X86292000Y13712500D03*
%TD*%
D24*
%TO.C,R29*%
X69000000Y32462500D03*
X69000000Y29537500D03*
%TD*%
%TO.C,R30*%
X80000000Y32462500D03*
X80000000Y29537500D03*
%TD*%
D26*
%TO.C,R53*%
X6500000Y38787500D03*
X6500000Y41712500D03*
%TD*%
D30*
%TO.C,SW3*%
X39000000Y51875000D03*
X33000000Y51875000D03*
X33000000Y48125000D03*
X39000000Y48125000D03*
%TD*%
%TO.C,SW4*%
X15000000Y51875000D03*
X9000000Y51875000D03*
X9000000Y48125000D03*
X15000000Y48125000D03*
%TD*%
D31*
%TO.C,U9*%
X2345000Y31025000D03*
X3615000Y31025000D03*
X4885000Y31025000D03*
X6155000Y31025000D03*
X6155000Y35975000D03*
X4885000Y35975000D03*
X3615000Y35975000D03*
X2345000Y35975000D03*
%TD*%
D32*
%TO.C,U8*%
X49975000Y2595000D03*
X49975000Y3865000D03*
X49975000Y5135000D03*
X49975000Y6405000D03*
X45025000Y6405000D03*
X45025000Y5135000D03*
X45025000Y3865000D03*
X45025000Y2595000D03*
%TD*%
D33*
%TO.C,U2*%
X64130000Y30050000D03*
X62870000Y28450000D03*
X62870000Y30050000D03*
X64130000Y28450000D03*
D34*
X60862500Y31155000D03*
X60862500Y29885000D03*
X60862500Y28615000D03*
X60862500Y27345000D03*
X66137500Y27345000D03*
X66137500Y28615000D03*
X66137500Y29885000D03*
X66137500Y31155000D03*
%TD*%
D35*
%TO.C,U3*%
X78633800Y11606700D03*
X77033800Y12866700D03*
X78633800Y12866700D03*
X77033800Y11606700D03*
D36*
X75928800Y9599200D03*
X77198800Y9599200D03*
X78468800Y9599200D03*
X79738800Y9599200D03*
X79738800Y14874200D03*
X78468800Y14874200D03*
X77198800Y14874200D03*
X75928800Y14874200D03*
%TD*%
D37*
%TO.C,C11*%
X58450000Y16000000D03*
X64050000Y16000000D03*
%TD*%
D38*
%TO.C,L1*%
X53750000Y30150000D03*
X53750000Y25350000D03*
%TD*%
D14*
%TO.C,C22*%
X69250000Y63775000D03*
X69250000Y66725000D03*
%TD*%
%TO.C,C25*%
X18250000Y24025000D03*
X18250000Y26975000D03*
%TD*%
D17*
%TO.C,D10*%
X63300000Y52750000D03*
X65200000Y52750000D03*
X64250000Y54750000D03*
%TD*%
D29*
%TO.C,R33*%
X65712500Y57000000D03*
X62787500Y57000000D03*
%TD*%
%TO.C,R47*%
X18462500Y19500000D03*
X15537500Y19500000D03*
%TD*%
%TO.C,R48*%
X26212500Y27500000D03*
X23287500Y27500000D03*
%TD*%
D24*
%TO.C,R26*%
X100000000Y20462500D03*
X100000000Y17537500D03*
%TD*%
D26*
%TO.C,R27*%
X87000000Y19537500D03*
X87000000Y22462500D03*
%TD*%
%TO.C,R28*%
X90000000Y21537500D03*
X90000000Y24462500D03*
%TD*%
D25*
%TO.C,R32*%
X80537500Y36000000D03*
X83462500Y36000000D03*
%TD*%
D11*
%TO.C,C3*%
X30750000Y51475000D03*
X30750000Y48525000D03*
%TD*%
D30*
%TO.C,SW2*%
X27000000Y39875000D03*
X21000000Y39875000D03*
X21000000Y36125000D03*
X27000000Y36125000D03*
%TD*%
D13*
%TO.C,C8*%
X60775000Y33250000D03*
X63725000Y33250000D03*
%TD*%
D19*
%TO.C,D11*%
X54250000Y2750000D03*
X58250000Y2750000D03*
%TD*%
D23*
%TO.C,Q4*%
X53250000Y48200000D03*
X53250000Y46300000D03*
X55250000Y47250000D03*
%TD*%
D25*
%TO.C,R12*%
X13390000Y73785000D03*
X16315000Y73785000D03*
%TD*%
D30*
%TO.C,SW1*%
X27000000Y63875000D03*
X21000000Y63875000D03*
X27000000Y60125000D03*
X21000000Y60125000D03*
%TD*%
D17*
%TO.C,D13*%
X20300000Y23500000D03*
X22200000Y23500000D03*
X21250000Y25500000D03*
%TD*%
D25*
%TO.C,R31*%
X71537500Y36000000D03*
X74462500Y36000000D03*
%TD*%
%TO.C,R34*%
X58037500Y57000000D03*
X60962500Y57000000D03*
%TD*%
D26*
%TO.C,R8*%
X34750000Y69037500D03*
X34750000Y71962500D03*
%TD*%
%TO.C,R25*%
X108250000Y17537500D03*
X108250000Y20462500D03*
%TD*%
D39*
%TO.C,X4*%
X106000000Y4750000D03*
%TD*%
D26*
%TO.C,R16*%
X53500000Y11787500D03*
X53500000Y14712500D03*
%TD*%
D40*
%TO.C,D15*%
X102000000Y96300000D03*
X102000000Y92300000D03*
%TD*%
D30*
%TO.C,SW6*%
X38238000Y39973000D03*
X32238000Y39973000D03*
X32238000Y36223000D03*
X38238000Y36223000D03*
%TD*%
D19*
%TO.C,D9*%
X83000000Y32000000D03*
X87000000Y32000000D03*
%TD*%
D40*
%TO.C,D12*%
X22995200Y6011200D03*
X22995200Y2011200D03*
%TD*%
D41*
%TO.C,R56*%
X1964000Y43544300D03*
X1964000Y46469300D03*
%TD*%
D42*
%TO.C,R10*%
X97037500Y89500000D03*
X99962500Y89500000D03*
%TD*%
D43*
%TO.C,C20*%
X96000000Y17000000D03*
X93050000Y17000000D03*
%TD*%
D44*
%TO.C,C17*%
X85000000Y25525000D03*
X85000000Y28475000D03*
%TD*%
D41*
%TO.C,R44*%
X39505200Y3778600D03*
X39505200Y6703600D03*
%TD*%
%TO.C,R57*%
X4250000Y43555000D03*
X4250000Y46480000D03*
%TD*%
D45*
%TO.C,R60*%
X108000000Y51462500D03*
X108000000Y48537500D03*
%TD*%
D44*
%TO.C,C28*%
X1456000Y51404000D03*
X1456000Y54354000D03*
%TD*%
D41*
%TO.C,R51*%
X15781600Y24047800D03*
X15781600Y26972800D03*
%TD*%
D46*
%TO.C,U7*%
X97850000Y84362500D03*
X99750000Y84362500D03*
X98800000Y86237500D03*
%TD*%
D41*
%TO.C,R59*%
X104000000Y48537500D03*
X104000000Y51462500D03*
%TD*%
D30*
%TO.C,SW5*%
X37013200Y72383400D03*
X43013200Y72383400D03*
X37013200Y68633400D03*
X43013200Y68633400D03*
%TD*%
D47*
%TO.C,U4*%
X77525000Y27445000D03*
X77525000Y26175000D03*
X77525000Y24905000D03*
X77525000Y23635000D03*
X77525000Y22365000D03*
X77525000Y21095000D03*
X77525000Y19825000D03*
X77525000Y18555000D03*
X82475000Y18555000D03*
X82475000Y19825000D03*
X82475000Y21095000D03*
X82475000Y22365000D03*
X82475000Y23635000D03*
X82475000Y24905000D03*
X82475000Y26175000D03*
X82475000Y27445000D03*
%TD*%
D42*
%TO.C,R9*%
X23615500Y75182000D03*
X26540500Y75182000D03*
%TD*%
D41*
%TO.C,R22*%
X73287200Y4743800D03*
X73287200Y7668800D03*
%TD*%
D44*
%TO.C,C21*%
X71510800Y24298400D03*
X71510800Y27248400D03*
%TD*%
D48*
%TO.C,R36*%
X99962500Y66000000D03*
X97037500Y66000000D03*
%TD*%
D44*
%TO.C,C14*%
X84717200Y4517400D03*
X84717200Y7467400D03*
%TD*%
D49*
%TO.C,L2*%
X76830800Y4468400D03*
X81630800Y4468400D03*
%TD*%
D40*
%TO.C,D6*%
X82837600Y10139200D03*
X82837600Y14139200D03*
%TD*%
D48*
%TO.C,R38*%
X99962500Y68500000D03*
X97037500Y68500000D03*
%TD*%
%TO.C,R61*%
X99962500Y71000000D03*
X97037500Y71000000D03*
%TD*%
D16*
%TO.C,D7*%
X106002400Y20425600D03*
X106002400Y17625600D03*
%TD*%
D50*
%TO.C,C15*%
X91118000Y9339200D03*
X91118000Y14939200D03*
%TD*%
D51*
%TO.C,C18*%
X74000000Y22475000D03*
X74000000Y19525000D03*
%TD*%
D52*
%TO.C,C29*%
X10600000Y44448000D03*
X13550000Y44448000D03*
%TD*%
D51*
%TO.C,C16*%
X74000000Y27250200D03*
X74000000Y24300200D03*
%TD*%
D32*
%TO.C,U5*%
X97475000Y19095000D03*
X97475000Y20365000D03*
X97475000Y21635000D03*
X97475000Y22905000D03*
X92525000Y22905000D03*
X92525000Y21635000D03*
X92525000Y20365000D03*
X92525000Y19095000D03*
%TD*%
D50*
%TO.C,C13*%
X68766000Y8475600D03*
X68766000Y14075600D03*
%TD*%
D41*
%TO.C,R35*%
X68750000Y51537500D03*
X68750000Y54462500D03*
%TD*%
D51*
%TO.C,C19*%
X71460000Y22426000D03*
X71460000Y19476000D03*
%TD*%
D41*
%TO.C,R50*%
X13495600Y24047800D03*
X13495600Y26972800D03*
%TD*%
M02*
