%TF.GenerationSoftware,KiCad,Pcbnew,6.0.7*%
%TF.CreationDate,2023-03-08T14:53:28+01:00*%
%TF.ProjectId,jbc-miniregler,6a62632d-6d69-46e6-9972-65676c65722e,22.0.0*%
%TF.SameCoordinates,PX56c8cc0PY88601c0*%
%TF.FileFunction,Legend,Bot*%
%TF.FilePolarity,Positive*%
%FSLAX46Y46*%
G04 Gerber Fmt 4.6, Leading zero omitted, Abs format (unit mm)*
G04 Created by KiCad (PCBNEW 6.0.7) date 2023-03-08 14:53:28*
%MOMM*%
%LPD*%
G01*
G04 APERTURE LIST*
%ADD10C,0.150000*%
%ADD11C,0.100000*%
%ADD12O,2.600000X2.300000*%
G04 APERTURE END LIST*
D10*
X38723809Y62071429D02*
X38580952Y62023810D01*
X38533333Y61976191D01*
X38485714Y61880953D01*
X38485714Y61738096D01*
X38533333Y61642858D01*
X38580952Y61595239D01*
X38676190Y61547620D01*
X39057142Y61547620D01*
X39057142Y62547620D01*
X38723809Y62547620D01*
X38628571Y62500000D01*
X38580952Y62452381D01*
X38533333Y62357143D01*
X38533333Y62261905D01*
X38580952Y62166667D01*
X38628571Y62119048D01*
X38723809Y62071429D01*
X39057142Y62071429D01*
X38104761Y62452381D02*
X38057142Y62500000D01*
X37961904Y62547620D01*
X37723809Y62547620D01*
X37628571Y62500000D01*
X37580952Y62452381D01*
X37533333Y62357143D01*
X37533333Y62261905D01*
X37580952Y62119048D01*
X38152380Y61547620D01*
X37533333Y61547620D01*
X37104761Y61928572D02*
X36342857Y61928572D01*
X36723809Y61547620D02*
X36723809Y62309524D01*
X10061904Y84700000D02*
X10157142Y84747620D01*
X10300000Y84747620D01*
X10442857Y84700000D01*
X10538095Y84604762D01*
X10585714Y84509524D01*
X10633333Y84319048D01*
X10633333Y84176191D01*
X10585714Y83985715D01*
X10538095Y83890477D01*
X10442857Y83795239D01*
X10300000Y83747620D01*
X10204761Y83747620D01*
X10061904Y83795239D01*
X10014285Y83842858D01*
X10014285Y84176191D01*
X10204761Y84176191D01*
X9585714Y83747620D02*
X9585714Y84747620D01*
X9014285Y83747620D01*
X9014285Y84747620D01*
X8538095Y83747620D02*
X8538095Y84747620D01*
X8300000Y84747620D01*
X8157142Y84700000D01*
X8061904Y84604762D01*
X8014285Y84509524D01*
X7966666Y84319048D01*
X7966666Y84176191D01*
X8014285Y83985715D01*
X8061904Y83890477D01*
X8157142Y83795239D01*
X8300000Y83747620D01*
X8538095Y83747620D01*
X15547619Y15814286D02*
X16547619Y15814286D01*
X16071428Y15814286D02*
X16071428Y16385715D01*
X15547619Y16385715D02*
X16547619Y16385715D01*
X16547619Y16719048D02*
X16547619Y17290477D01*
X15547619Y17004762D02*
X16547619Y17004762D01*
X15642857Y18195239D02*
X15595238Y18147620D01*
X15547619Y18004762D01*
X15547619Y17909524D01*
X15595238Y17766667D01*
X15690476Y17671429D01*
X15785714Y17623810D01*
X15976190Y17576191D01*
X16119047Y17576191D01*
X16309523Y17623810D01*
X16404761Y17671429D01*
X16500000Y17766667D01*
X16547619Y17909524D01*
X16547619Y18004762D01*
X16500000Y18147620D01*
X16452380Y18195239D01*
X15928571Y18623810D02*
X15928571Y19385715D01*
X10590476Y88895239D02*
X10447619Y88847620D01*
X10209523Y88847620D01*
X10114285Y88895239D01*
X10066666Y88942858D01*
X10019047Y89038096D01*
X10019047Y89133334D01*
X10066666Y89228572D01*
X10114285Y89276191D01*
X10209523Y89323810D01*
X10400000Y89371429D01*
X10495238Y89419048D01*
X10542857Y89466667D01*
X10590476Y89561905D01*
X10590476Y89657143D01*
X10542857Y89752381D01*
X10495238Y89800000D01*
X10400000Y89847620D01*
X10161904Y89847620D01*
X10019047Y89800000D01*
X9019047Y88942858D02*
X9066666Y88895239D01*
X9209523Y88847620D01*
X9304761Y88847620D01*
X9447619Y88895239D01*
X9542857Y88990477D01*
X9590476Y89085715D01*
X9638095Y89276191D01*
X9638095Y89419048D01*
X9590476Y89609524D01*
X9542857Y89704762D01*
X9447619Y89800000D01*
X9304761Y89847620D01*
X9209523Y89847620D01*
X9066666Y89800000D01*
X9019047Y89752381D01*
X8114285Y88847620D02*
X8590476Y88847620D01*
X8590476Y89847620D01*
X66261904Y67500000D02*
X66357142Y67547620D01*
X66500000Y67547620D01*
X66642857Y67500000D01*
X66738095Y67404762D01*
X66785714Y67309524D01*
X66833333Y67119048D01*
X66833333Y66976191D01*
X66785714Y66785715D01*
X66738095Y66690477D01*
X66642857Y66595239D01*
X66500000Y66547620D01*
X66404761Y66547620D01*
X66261904Y66595239D01*
X66214285Y66642858D01*
X66214285Y66976191D01*
X66404761Y66976191D01*
X65785714Y66547620D02*
X65785714Y67547620D01*
X65214285Y66547620D01*
X65214285Y67547620D01*
X64738095Y66547620D02*
X64738095Y67547620D01*
X64500000Y67547620D01*
X64357142Y67500000D01*
X64261904Y67404762D01*
X64214285Y67309524D01*
X64166666Y67119048D01*
X64166666Y66976191D01*
X64214285Y66785715D01*
X64261904Y66690477D01*
X64357142Y66595239D01*
X64500000Y66547620D01*
X64738095Y66547620D01*
X38623809Y38071429D02*
X38480952Y38023810D01*
X38433333Y37976191D01*
X38385714Y37880953D01*
X38385714Y37738096D01*
X38433333Y37642858D01*
X38480952Y37595239D01*
X38576190Y37547620D01*
X38957142Y37547620D01*
X38957142Y38547620D01*
X38623809Y38547620D01*
X38528571Y38500000D01*
X38480952Y38452381D01*
X38433333Y38357143D01*
X38433333Y38261905D01*
X38480952Y38166667D01*
X38528571Y38119048D01*
X38623809Y38071429D01*
X38957142Y38071429D01*
X37433333Y37547620D02*
X38004761Y37547620D01*
X37719047Y37547620D02*
X37719047Y38547620D01*
X37814285Y38404762D01*
X37909523Y38309524D01*
X38004761Y38261905D01*
X37004761Y37928572D02*
X36242857Y37928572D01*
X38801809Y44011429D02*
X38658952Y43963810D01*
X38611333Y43916191D01*
X38563714Y43820953D01*
X38563714Y43678096D01*
X38611333Y43582858D01*
X38658952Y43535239D01*
X38754190Y43487620D01*
X39135142Y43487620D01*
X39135142Y44487620D01*
X38801809Y44487620D01*
X38706571Y44440000D01*
X38658952Y44392381D01*
X38611333Y44297143D01*
X38611333Y44201905D01*
X38658952Y44106667D01*
X38706571Y44059048D01*
X38801809Y44011429D01*
X39135142Y44011429D01*
X38182761Y44392381D02*
X38135142Y44440000D01*
X38039904Y44487620D01*
X37801809Y44487620D01*
X37706571Y44440000D01*
X37658952Y44392381D01*
X37611333Y44297143D01*
X37611333Y44201905D01*
X37658952Y44059048D01*
X38230380Y43487620D01*
X37611333Y43487620D01*
X37182761Y43868572D02*
X36420857Y43868572D01*
X6152380Y94647620D02*
X5961904Y94647620D01*
X5866666Y94600000D01*
X5771428Y94504762D01*
X5723809Y94314286D01*
X5723809Y93980953D01*
X5771428Y93790477D01*
X5866666Y93695239D01*
X5961904Y93647620D01*
X6152380Y93647620D01*
X6247619Y93695239D01*
X6342857Y93790477D01*
X6390476Y93980953D01*
X6390476Y94314286D01*
X6342857Y94504762D01*
X6247619Y94600000D01*
X6152380Y94647620D01*
X4819047Y93647620D02*
X5295238Y93647620D01*
X5295238Y94647620D01*
X4485714Y94171429D02*
X4152380Y94171429D01*
X4009523Y93647620D02*
X4485714Y93647620D01*
X4485714Y94647620D01*
X4009523Y94647620D01*
X3580952Y93647620D02*
X3580952Y94647620D01*
X3342857Y94647620D01*
X3200000Y94600000D01*
X3104761Y94504762D01*
X3057142Y94409524D01*
X3009523Y94219048D01*
X3009523Y94076191D01*
X3057142Y93885715D01*
X3104761Y93790477D01*
X3200000Y93695239D01*
X3342857Y93647620D01*
X3580952Y93647620D01*
X55261904Y93500000D02*
X55357142Y93547620D01*
X55500000Y93547620D01*
X55642857Y93500000D01*
X55738095Y93404762D01*
X55785714Y93309524D01*
X55833333Y93119048D01*
X55833333Y92976191D01*
X55785714Y92785715D01*
X55738095Y92690477D01*
X55642857Y92595239D01*
X55500000Y92547620D01*
X55404761Y92547620D01*
X55261904Y92595239D01*
X55214285Y92642858D01*
X55214285Y92976191D01*
X55404761Y92976191D01*
X54785714Y92547620D02*
X54785714Y93547620D01*
X54214285Y92547620D01*
X54214285Y93547620D01*
X53738095Y92547620D02*
X53738095Y93547620D01*
X53500000Y93547620D01*
X53357142Y93500000D01*
X53261904Y93404762D01*
X53214285Y93309524D01*
X53166666Y93119048D01*
X53166666Y92976191D01*
X53214285Y92785715D01*
X53261904Y92690477D01*
X53357142Y92595239D01*
X53500000Y92547620D01*
X53738095Y92547620D01*
X22966666Y66247620D02*
X22966666Y67247620D01*
X22633333Y66533334D01*
X22300000Y67247620D01*
X22300000Y66247620D01*
X21395238Y66247620D02*
X21395238Y66771429D01*
X21442857Y66866667D01*
X21538095Y66914286D01*
X21728571Y66914286D01*
X21823809Y66866667D01*
X21395238Y66295239D02*
X21490476Y66247620D01*
X21728571Y66247620D01*
X21823809Y66295239D01*
X21871428Y66390477D01*
X21871428Y66485715D01*
X21823809Y66580953D01*
X21728571Y66628572D01*
X21490476Y66628572D01*
X21395238Y66676191D01*
X20919047Y66247620D02*
X20919047Y67247620D01*
X20823809Y66628572D02*
X20538095Y66247620D01*
X20538095Y66914286D02*
X20919047Y66533334D01*
X20109523Y66247620D02*
X20109523Y66914286D01*
X20109523Y67247620D02*
X20157142Y67200000D01*
X20109523Y67152381D01*
X20061904Y67200000D01*
X20109523Y67247620D01*
X20109523Y67152381D01*
X19776190Y66914286D02*
X19395238Y66914286D01*
X19633333Y67247620D02*
X19633333Y66390477D01*
X19585714Y66295239D01*
X19490476Y66247620D01*
X19395238Y66247620D01*
X18633333Y66247620D02*
X18633333Y66771429D01*
X18680952Y66866667D01*
X18776190Y66914286D01*
X18966666Y66914286D01*
X19061904Y66866667D01*
X18633333Y66295239D02*
X18728571Y66247620D01*
X18966666Y66247620D01*
X19061904Y66295239D01*
X19109523Y66390477D01*
X19109523Y66485715D01*
X19061904Y66580953D01*
X18966666Y66628572D01*
X18728571Y66628572D01*
X18633333Y66676191D01*
X17395238Y66247620D02*
X17395238Y67247620D01*
X17061904Y66533334D01*
X16728571Y67247620D01*
X16728571Y66247620D01*
X16252380Y66247620D02*
X16252380Y66914286D01*
X16252380Y67247620D02*
X16300000Y67200000D01*
X16252380Y67152381D01*
X16204761Y67200000D01*
X16252380Y67247620D01*
X16252380Y67152381D01*
X15776190Y66914286D02*
X15776190Y66247620D01*
X15776190Y66819048D02*
X15728571Y66866667D01*
X15633333Y66914286D01*
X15490476Y66914286D01*
X15395238Y66866667D01*
X15347619Y66771429D01*
X15347619Y66247620D01*
X14442857Y66914286D02*
X14442857Y66247620D01*
X14871428Y66914286D02*
X14871428Y66390477D01*
X14823809Y66295239D01*
X14728571Y66247620D01*
X14585714Y66247620D01*
X14490476Y66295239D01*
X14442857Y66342858D01*
X14014285Y66295239D02*
X13919047Y66247620D01*
X13728571Y66247620D01*
X13633333Y66295239D01*
X13585714Y66390477D01*
X13585714Y66438096D01*
X13633333Y66533334D01*
X13728571Y66580953D01*
X13871428Y66580953D01*
X13966666Y66628572D01*
X14014285Y66723810D01*
X14014285Y66771429D01*
X13966666Y66866667D01*
X13871428Y66914286D01*
X13728571Y66914286D01*
X13633333Y66866667D01*
X22566666Y27447620D02*
X22566666Y28447620D01*
X22233333Y27733334D01*
X21900000Y28447620D01*
X21900000Y27447620D01*
X20995238Y27447620D02*
X20995238Y27971429D01*
X21042857Y28066667D01*
X21138095Y28114286D01*
X21328571Y28114286D01*
X21423809Y28066667D01*
X20995238Y27495239D02*
X21090476Y27447620D01*
X21328571Y27447620D01*
X21423809Y27495239D01*
X21471428Y27590477D01*
X21471428Y27685715D01*
X21423809Y27780953D01*
X21328571Y27828572D01*
X21090476Y27828572D01*
X20995238Y27876191D01*
X20519047Y27447620D02*
X20519047Y28447620D01*
X20423809Y27828572D02*
X20138095Y27447620D01*
X20138095Y28114286D02*
X20519047Y27733334D01*
X19709523Y27447620D02*
X19709523Y28114286D01*
X19709523Y28447620D02*
X19757142Y28400000D01*
X19709523Y28352381D01*
X19661904Y28400000D01*
X19709523Y28447620D01*
X19709523Y28352381D01*
X19376190Y28114286D02*
X18995238Y28114286D01*
X19233333Y28447620D02*
X19233333Y27590477D01*
X19185714Y27495239D01*
X19090476Y27447620D01*
X18995238Y27447620D01*
X18233333Y27447620D02*
X18233333Y27971429D01*
X18280952Y28066667D01*
X18376190Y28114286D01*
X18566666Y28114286D01*
X18661904Y28066667D01*
X18233333Y27495239D02*
X18328571Y27447620D01*
X18566666Y27447620D01*
X18661904Y27495239D01*
X18709523Y27590477D01*
X18709523Y27685715D01*
X18661904Y27780953D01*
X18566666Y27828572D01*
X18328571Y27828572D01*
X18233333Y27876191D01*
X16995238Y27447620D02*
X16995238Y28447620D01*
X16614285Y28447620D01*
X16519047Y28400000D01*
X16471428Y28352381D01*
X16423809Y28257143D01*
X16423809Y28114286D01*
X16471428Y28019048D01*
X16519047Y27971429D01*
X16614285Y27923810D01*
X16995238Y27923810D01*
X15852380Y27447620D02*
X15947619Y27495239D01*
X15995238Y27590477D01*
X15995238Y28447620D01*
X15042857Y28114286D02*
X15042857Y27447620D01*
X15471428Y28114286D02*
X15471428Y27590477D01*
X15423809Y27495239D01*
X15328571Y27447620D01*
X15185714Y27447620D01*
X15090476Y27495239D01*
X15042857Y27542858D01*
X14614285Y27495239D02*
X14519047Y27447620D01*
X14328571Y27447620D01*
X14233333Y27495239D01*
X14185714Y27590477D01*
X14185714Y27638096D01*
X14233333Y27733334D01*
X14328571Y27780953D01*
X14471428Y27780953D01*
X14566666Y27828572D01*
X14614285Y27923810D01*
X14614285Y27971429D01*
X14566666Y28066667D01*
X14471428Y28114286D01*
X14328571Y28114286D01*
X14233333Y28066667D01*
X67657142Y62071429D02*
X67514285Y62023810D01*
X67466666Y61976191D01*
X67419047Y61880953D01*
X67419047Y61738096D01*
X67466666Y61642858D01*
X67514285Y61595239D01*
X67609523Y61547620D01*
X67990476Y61547620D01*
X67990476Y62547620D01*
X67657142Y62547620D01*
X67561904Y62500000D01*
X67514285Y62452381D01*
X67466666Y62357143D01*
X67466666Y62261905D01*
X67514285Y62166667D01*
X67561904Y62119048D01*
X67657142Y62071429D01*
X67990476Y62071429D01*
X67038095Y61833334D02*
X66561904Y61833334D01*
X67133333Y61547620D02*
X66800000Y62547620D01*
X66466666Y61547620D01*
X66276190Y62547620D02*
X65704761Y62547620D01*
X65990476Y61547620D02*
X65990476Y62547620D01*
X65371428Y61928572D02*
X64609523Y61928572D01*
X64990476Y61547620D02*
X64990476Y62309524D01*
X11447619Y15695239D02*
X11447619Y16266667D01*
X10447619Y15980953D02*
X11447619Y15980953D01*
X10542857Y17171429D02*
X10495238Y17123810D01*
X10447619Y16980953D01*
X10447619Y16885715D01*
X10495238Y16742858D01*
X10590476Y16647620D01*
X10685714Y16600000D01*
X10876190Y16552381D01*
X11019047Y16552381D01*
X11209523Y16600000D01*
X11304761Y16647620D01*
X11400000Y16742858D01*
X11447619Y16885715D01*
X11447619Y16980953D01*
X11400000Y17123810D01*
X11352380Y17171429D01*
X10828571Y17600000D02*
X10828571Y18361905D01*
X10447619Y17980953D02*
X11209523Y17980953D01*
X38823809Y55871429D02*
X38680952Y55823810D01*
X38633333Y55776191D01*
X38585714Y55680953D01*
X38585714Y55538096D01*
X38633333Y55442858D01*
X38680952Y55395239D01*
X38776190Y55347620D01*
X39157142Y55347620D01*
X39157142Y56347620D01*
X38823809Y56347620D01*
X38728571Y56300000D01*
X38680952Y56252381D01*
X38633333Y56157143D01*
X38633333Y56061905D01*
X38680952Y55966667D01*
X38728571Y55919048D01*
X38823809Y55871429D01*
X39157142Y55871429D01*
X37633333Y55347620D02*
X38204761Y55347620D01*
X37919047Y55347620D02*
X37919047Y56347620D01*
X38014285Y56204762D01*
X38109523Y56109524D01*
X38204761Y56061905D01*
X37204761Y55728572D02*
X36442857Y55728572D01*
X36823809Y55347620D02*
X36823809Y56109524D01*
X5347619Y15895239D02*
X6347619Y15895239D01*
X5871428Y15895239D02*
X5871428Y16466667D01*
X5347619Y16466667D02*
X6347619Y16466667D01*
X5728571Y16942858D02*
X5728571Y17704762D01*
X5347619Y17323810D02*
X6109523Y17323810D01*
X56892857Y83297620D02*
X56321428Y83297620D01*
X56607142Y82297620D02*
X56607142Y83297620D01*
X56083333Y82297620D02*
X55559523Y82964286D01*
X56083333Y82964286D02*
X55559523Y82297620D01*
X55178571Y82297620D02*
X55178571Y83297620D01*
X54940476Y83297620D01*
X54797619Y83250000D01*
X54702380Y83154762D01*
X54654761Y83059524D01*
X54607142Y82869048D01*
X54607142Y82726191D01*
X54654761Y82535715D01*
X54702380Y82440477D01*
X54797619Y82345239D01*
X54940476Y82297620D01*
X55178571Y82297620D01*
X53464285Y83345239D02*
X54321428Y82059524D01*
X53178571Y82583334D02*
X52702380Y82583334D01*
X53273809Y82297620D02*
X52940476Y83297620D01*
X52607142Y82297620D01*
X9590476Y87247620D02*
X10066666Y87247620D01*
X10114285Y86771429D01*
X10066666Y86819048D01*
X9971428Y86866667D01*
X9733333Y86866667D01*
X9638095Y86819048D01*
X9590476Y86771429D01*
X9542857Y86676191D01*
X9542857Y86438096D01*
X9590476Y86342858D01*
X9638095Y86295239D01*
X9733333Y86247620D01*
X9971428Y86247620D01*
X10066666Y86295239D01*
X10114285Y86342858D01*
X9257142Y87247620D02*
X8923809Y86247620D01*
X8590476Y87247620D01*
X10514285Y91395239D02*
X10371428Y91347620D01*
X10133333Y91347620D01*
X10038095Y91395239D01*
X9990476Y91442858D01*
X9942857Y91538096D01*
X9942857Y91633334D01*
X9990476Y91728572D01*
X10038095Y91776191D01*
X10133333Y91823810D01*
X10323809Y91871429D01*
X10419047Y91919048D01*
X10466666Y91966667D01*
X10514285Y92061905D01*
X10514285Y92157143D01*
X10466666Y92252381D01*
X10419047Y92300000D01*
X10323809Y92347620D01*
X10085714Y92347620D01*
X9942857Y92300000D01*
X9514285Y91347620D02*
X9514285Y92347620D01*
X9276190Y92347620D01*
X9133333Y92300000D01*
X9038095Y92204762D01*
X8990476Y92109524D01*
X8942857Y91919048D01*
X8942857Y91776191D01*
X8990476Y91585715D01*
X9038095Y91490477D01*
X9133333Y91395239D01*
X9276190Y91347620D01*
X9514285Y91347620D01*
X8561904Y91633334D02*
X8085714Y91633334D01*
X8657142Y91347620D02*
X8323809Y92347620D01*
X7990476Y91347620D01*
X56869047Y87547620D02*
X57202380Y88023810D01*
X57440476Y87547620D02*
X57440476Y88547620D01*
X57059523Y88547620D01*
X56964285Y88500000D01*
X56916666Y88452381D01*
X56869047Y88357143D01*
X56869047Y88214286D01*
X56916666Y88119048D01*
X56964285Y88071429D01*
X57059523Y88023810D01*
X57440476Y88023810D01*
X56535714Y87547620D02*
X56011904Y88214286D01*
X56535714Y88214286D02*
X56011904Y87547620D01*
X55630952Y87547620D02*
X55630952Y88547620D01*
X55392857Y88547620D01*
X55250000Y88500000D01*
X55154761Y88404762D01*
X55107142Y88309524D01*
X55059523Y88119048D01*
X55059523Y87976191D01*
X55107142Y87785715D01*
X55154761Y87690477D01*
X55250000Y87595239D01*
X55392857Y87547620D01*
X55630952Y87547620D01*
X53916666Y88595239D02*
X54773809Y87309524D01*
X53250000Y88071429D02*
X53107142Y88023810D01*
X53059523Y87976191D01*
X53011904Y87880953D01*
X53011904Y87738096D01*
X53059523Y87642858D01*
X53107142Y87595239D01*
X53202380Y87547620D01*
X53583333Y87547620D01*
X53583333Y88547620D01*
X53250000Y88547620D01*
X53154761Y88500000D01*
X53107142Y88452381D01*
X53059523Y88357143D01*
X53059523Y88261905D01*
X53107142Y88166667D01*
X53154761Y88119048D01*
X53250000Y88071429D01*
X53583333Y88071429D01*
X71071428Y71695239D02*
X70928571Y71647620D01*
X70690476Y71647620D01*
X70595238Y71695239D01*
X70547619Y71742858D01*
X70500000Y71838096D01*
X70500000Y71933334D01*
X70547619Y72028572D01*
X70595238Y72076191D01*
X70690476Y72123810D01*
X70880952Y72171429D01*
X70976190Y72219048D01*
X71023809Y72266667D01*
X71071428Y72361905D01*
X71071428Y72457143D01*
X71023809Y72552381D01*
X70976190Y72600000D01*
X70880952Y72647620D01*
X70642857Y72647620D01*
X70500000Y72600000D01*
X70214285Y72647620D02*
X69642857Y72647620D01*
X69928571Y71647620D02*
X69928571Y72647620D01*
X69357142Y71933334D02*
X68880952Y71933334D01*
X69452380Y71647620D02*
X69119047Y72647620D01*
X68785714Y71647620D01*
X69309523Y72980953D02*
X69261904Y72933334D01*
X69309523Y72885715D01*
X69357142Y72933334D01*
X69309523Y72980953D01*
X69309523Y72885715D01*
X68928571Y72980953D02*
X68880952Y72933334D01*
X68928571Y72885715D01*
X68976190Y72933334D01*
X68928571Y72980953D01*
X68928571Y72885715D01*
X68452380Y71647620D02*
X68452380Y72647620D01*
X67880952Y71647620D01*
X67880952Y72647620D01*
X67404761Y71647620D02*
X67404761Y72647620D01*
X67166666Y72647620D01*
X67023809Y72600000D01*
X66928571Y72504762D01*
X66880952Y72409524D01*
X66833333Y72219048D01*
X66833333Y72076191D01*
X66880952Y71885715D01*
X66928571Y71790477D01*
X67023809Y71695239D01*
X67166666Y71647620D01*
X67404761Y71647620D01*
X66404761Y72171429D02*
X66071428Y72171429D01*
X65928571Y71647620D02*
X66404761Y71647620D01*
X66404761Y72647620D01*
X65928571Y72647620D01*
X64928571Y71647620D02*
X65261904Y72123810D01*
X65500000Y71647620D02*
X65500000Y72647620D01*
X65119047Y72647620D01*
X65023809Y72600000D01*
X64976190Y72552381D01*
X64928571Y72457143D01*
X64928571Y72314286D01*
X64976190Y72219048D01*
X65023809Y72171429D01*
X65119047Y72123810D01*
X65500000Y72123810D01*
D11*
%TO.C,J2*%
X46846666Y58547620D02*
X46846666Y57833334D01*
X46884761Y57690477D01*
X46960952Y57595239D01*
X47075238Y57547620D01*
X47151428Y57547620D01*
X46503809Y58452381D02*
X46465714Y58500000D01*
X46389523Y58547620D01*
X46199047Y58547620D01*
X46122857Y58500000D01*
X46084761Y58452381D01*
X46046666Y58357143D01*
X46046666Y58261905D01*
X46084761Y58119048D01*
X46541904Y57547620D01*
X46046666Y57547620D01*
%TO.C,J4*%
X13346666Y33047620D02*
X13346666Y32333334D01*
X13384761Y32190477D01*
X13460952Y32095239D01*
X13575238Y32047620D01*
X13651428Y32047620D01*
X12622857Y32714286D02*
X12622857Y32047620D01*
X12813333Y33095239D02*
X13003809Y32380953D01*
X12508571Y32380953D01*
%TO.C,J3*%
X24346666Y33047620D02*
X24346666Y32333334D01*
X24384761Y32190477D01*
X24460952Y32095239D01*
X24575238Y32047620D01*
X24651428Y32047620D01*
X24041904Y33047620D02*
X23546666Y33047620D01*
X23813333Y32666667D01*
X23699047Y32666667D01*
X23622857Y32619048D01*
X23584761Y32571429D01*
X23546666Y32476191D01*
X23546666Y32238096D01*
X23584761Y32142858D01*
X23622857Y32095239D01*
X23699047Y32047620D01*
X23927619Y32047620D01*
X24003809Y32095239D01*
X24041904Y32142858D01*
%TO.C,J5*%
X24346666Y72047620D02*
X24346666Y71333334D01*
X24384761Y71190477D01*
X24460952Y71095239D01*
X24575238Y71047620D01*
X24651428Y71047620D01*
X23584761Y72047620D02*
X23965714Y72047620D01*
X24003809Y71571429D01*
X23965714Y71619048D01*
X23889523Y71666667D01*
X23699047Y71666667D01*
X23622857Y71619048D01*
X23584761Y71571429D01*
X23546666Y71476191D01*
X23546666Y71238096D01*
X23584761Y71142858D01*
X23622857Y71095239D01*
X23699047Y71047620D01*
X23889523Y71047620D01*
X23965714Y71095239D01*
X24003809Y71142858D01*
%TO.C,J1*%
X45346666Y64547620D02*
X45346666Y63833334D01*
X45384761Y63690477D01*
X45460952Y63595239D01*
X45575238Y63547620D01*
X45651428Y63547620D01*
X44546666Y63547620D02*
X45003809Y63547620D01*
X44775238Y63547620D02*
X44775238Y64547620D01*
X44851428Y64404762D01*
X44927619Y64309524D01*
X45003809Y64261905D01*
%TO.C,J6*%
X13186666Y68047620D02*
X13186666Y67333334D01*
X13224761Y67190477D01*
X13300952Y67095239D01*
X13415238Y67047620D01*
X13491428Y67047620D01*
X12462857Y68047620D02*
X12615238Y68047620D01*
X12691428Y68000000D01*
X12729523Y67952381D01*
X12805714Y67809524D01*
X12843809Y67619048D01*
X12843809Y67238096D01*
X12805714Y67142858D01*
X12767619Y67095239D01*
X12691428Y67047620D01*
X12539047Y67047620D01*
X12462857Y67095239D01*
X12424761Y67142858D01*
X12386666Y67238096D01*
X12386666Y67476191D01*
X12424761Y67571429D01*
X12462857Y67619048D01*
X12539047Y67666667D01*
X12691428Y67666667D01*
X12767619Y67619048D01*
X12805714Y67571429D01*
X12843809Y67476191D01*
%TO.C,J8*%
X46686666Y36547620D02*
X46686666Y35833334D01*
X46724761Y35690477D01*
X46800952Y35595239D01*
X46915238Y35547620D01*
X46991428Y35547620D01*
X46191428Y36119048D02*
X46267619Y36166667D01*
X46305714Y36214286D01*
X46343809Y36309524D01*
X46343809Y36357143D01*
X46305714Y36452381D01*
X46267619Y36500000D01*
X46191428Y36547620D01*
X46039047Y36547620D01*
X45962857Y36500000D01*
X45924761Y36452381D01*
X45886666Y36357143D01*
X45886666Y36309524D01*
X45924761Y36214286D01*
X45962857Y36166667D01*
X46039047Y36119048D01*
X46191428Y36119048D01*
X46267619Y36071429D01*
X46305714Y36023810D01*
X46343809Y35928572D01*
X46343809Y35738096D01*
X46305714Y35642858D01*
X46267619Y35595239D01*
X46191428Y35547620D01*
X46039047Y35547620D01*
X45962857Y35595239D01*
X45924761Y35642858D01*
X45886666Y35738096D01*
X45886666Y35928572D01*
X45924761Y36023810D01*
X45962857Y36071429D01*
X46039047Y36119048D01*
%TO.C,J7*%
X45226666Y44547620D02*
X45226666Y43833334D01*
X45264761Y43690477D01*
X45340952Y43595239D01*
X45455238Y43547620D01*
X45531428Y43547620D01*
X44921904Y44547620D02*
X44388571Y44547620D01*
X44731428Y43547620D01*
%TO.C,J2*%
X50985000Y54730000D02*
X50985000Y57270000D01*
X42095000Y54730000D02*
X50985000Y54730000D01*
X42095000Y57270000D02*
X50985000Y57270000D01*
X42095000Y54730000D02*
X42095000Y57270000D01*
%TO.C,J4*%
X8595000Y31770000D02*
X17485000Y31770000D01*
X17485000Y29230000D02*
X17485000Y31770000D01*
X8595000Y29230000D02*
X8595000Y31770000D01*
X8595000Y29230000D02*
X17485000Y29230000D01*
%TO.C,J3*%
X28485000Y29230000D02*
X28485000Y31770000D01*
X19595000Y29230000D02*
X28485000Y29230000D01*
X19595000Y31770000D02*
X28485000Y31770000D01*
X19595000Y29230000D02*
X19595000Y31770000D01*
%TO.C,J5*%
X19595000Y68230000D02*
X19595000Y70770000D01*
X28485000Y68230000D02*
X28485000Y70770000D01*
X19595000Y70770000D02*
X28485000Y70770000D01*
X19595000Y68230000D02*
X28485000Y68230000D01*
%TO.C,J1*%
X40595000Y60730000D02*
X49485000Y60730000D01*
X49485000Y60730000D02*
X49485000Y63270000D01*
X40595000Y63270000D02*
X49485000Y63270000D01*
X40595000Y60730000D02*
X40595000Y63270000D01*
%TO.C,J6*%
X17405000Y70770000D02*
X8515000Y70770000D01*
X17405000Y68230000D02*
X8515000Y68230000D01*
X8515000Y70770000D02*
X8515000Y68230000D01*
X17405000Y70770000D02*
X17405000Y68230000D01*
%TO.C,J8*%
X42015000Y39270000D02*
X42015000Y36730000D01*
X50905000Y39270000D02*
X42015000Y39270000D01*
X50905000Y36730000D02*
X42015000Y36730000D01*
X50905000Y39270000D02*
X50905000Y36730000D01*
%TO.C,J7*%
X49405000Y42730000D02*
X40515000Y42730000D01*
X49405000Y45270000D02*
X49405000Y42730000D01*
X40515000Y45270000D02*
X40515000Y42730000D01*
X49405000Y45270000D02*
X40515000Y45270000D01*
%TD*%
D12*
%TO.C,J2*%
X49080000Y56000000D03*
X44000000Y56000000D03*
%TD*%
%TO.C,J4*%
X10500000Y30500000D03*
X15580000Y30500000D03*
%TD*%
%TO.C,J3*%
X21500000Y30500000D03*
X26580000Y30500000D03*
%TD*%
%TO.C,J5*%
X21500000Y69500000D03*
X26580000Y69500000D03*
%TD*%
%TO.C,J1*%
X42500000Y62000000D03*
X47580000Y62000000D03*
%TD*%
%TO.C,J6*%
X15500000Y69500000D03*
X10420000Y69500000D03*
%TD*%
%TO.C,J8*%
X49000000Y38000000D03*
X43920000Y38000000D03*
%TD*%
%TO.C,J7*%
X42420000Y44000000D03*
X47500000Y44000000D03*
%TD*%
M02*
