M48
; DRILL file {KiCad 6.0.7} date Wed 08 Mar 2023 02:54:02 PM CET
; FORMAT={-:-/ absolute / metric / decimal}
; #@! TF.CreationDate,2023-03-08T14:54:02+01:00
; #@! TF.GenerationSoftware,Kicad,Pcbnew,6.0.7
; #@! TF.FileFunction,Plated,1,2,PTH
FMAT,2
METRIC
; #@! TA.AperFunction,Plated,PTH,ViaDrill
T1C0.300
; #@! TA.AperFunction,Plated,PTH,ViaDrill
T2C0.400
; #@! TA.AperFunction,Plated,PTH,ViaDrill
T3C0.500
; #@! TA.AperFunction,Plated,PTH,ComponentDrill
T4C0.762
; #@! TA.AperFunction,Plated,PTH,ComponentDrill
T5C1.000
; #@! TA.AperFunction,Plated,PTH,ComponentDrill
T6C1.300
; #@! TA.AperFunction,Plated,PTH,ComponentDrill
T7C1.400
%
G90
G05
T1
X1.0Y58.25
X1.25Y78.75
X1.25Y22.25
X2.0Y44.6
X2.1Y88.0
X2.4Y32.6
X3.0Y63.9
X3.8Y63.1
X4.4Y75.6
X4.7Y65.7
X4.8Y62.2
X5.0Y22.25
X5.5Y60.0
X5.7Y65.0
X6.0Y33.0
X6.6Y63.9
X7.4Y88.6
X7.6Y81.9
X8.0Y73.0
X8.1Y63.0
X8.25Y33.75
X10.1Y97.4
X13.4Y87.6
X13.4Y57.4
X14.0Y63.0
X15.0Y41.25
X15.0Y22.0
X16.3Y46.7
X16.4Y91.2
X18.1Y59.0
X19.5Y54.0
X19.6Y50.6
X20.7Y97.4
X21.4Y45.6
X22.8Y47.2
X22.8Y39.0
X23.0Y48.8
X25.7Y44.5
X26.3Y47.2
X28.9Y91.0
X29.9Y58.9
X33.0Y77.3
X33.5Y36.9
X33.9Y75.4
X34.0Y97.4
X34.1Y76.725
X38.6Y41.9
X47.9Y1.1
X49.2Y24.0
X50.0Y13.3
X50.6Y1.1
X51.1Y55.6
X53.75Y10.25
X54.1Y55.2
X54.5Y4.5
X56.4Y12.7
X56.5Y14.0
X56.65Y21.15
X57.3Y55.0
X58.7Y12.3
X59.7Y27.35
X59.735Y28.615
X59.9Y53.0
X64.2Y12.2
X64.4Y8.1
X65.8Y1.0
X67.9Y22.75
X98.9Y1.3
X99.604Y2.791
X105.4Y9.1
X105.7Y1.9
X106.0Y15.75
X108.9Y6.6
T2
X4.75Y82.5
X5.5Y51.5
X9.0Y41.0
X17.0Y63.0
X18.75Y41.0
X18.982Y80.77
X18.982Y78.23
X22.792Y79.92
X24.062Y77.976
X24.824Y75.182
X27.618Y75.182
X28.126Y78.484
X28.4Y27.5
X29.0Y51.5
X29.396Y76.05
X30.3Y30.0
X36.5Y77.75
X36.75Y75.25
X37.0Y45.75
X37.224Y79.072
X38.0Y76.5
X39.0Y31.0
X39.0Y30.0
X39.0Y29.0
X39.25Y76.924
X39.25Y74.575
X40.572Y36.32
X45.25Y97.5
X47.0Y80.5
X51.25Y39.75
X51.5Y46.3
X51.75Y82.5
X57.0Y6.25
X57.933Y44.183
X58.25Y53.0
X60.5Y1.5
X62.0Y77.0
X62.5Y42.75
X63.0Y77.876
X63.0Y42.0
X63.5Y42.75
X64.25Y84.75
X64.25Y56.5
X65.032Y83.486
X67.0Y78.0
X67.0Y77.05
X67.5Y26.25
X68.5Y44.875
X68.625Y73.375
X69.25Y83.25
X69.375Y69.625
X70.75Y38.0
X70.75Y29.5
X71.5Y46.5
X72.322Y3.415
X72.737Y40.987
X73.846Y12.19
X74.0Y34.25
X74.1Y8.888
X75.0Y45.0
X78.0Y36.0
X78.75Y41.0
X79.0Y75.75
X79.183Y74.683
X79.25Y43.0
X79.374Y36.0
X79.933Y23.183
X80.0Y41.0
X80.25Y45.5
X80.755Y9.091
X82.25Y45.5
X83.25Y28.5
X84.25Y22.5
X84.25Y21.0
X84.75Y82.0
X85.25Y19.75
X86.0Y41.25
X86.75Y77.0
X88.5Y44.913
X88.75Y18.75
X89.75Y19.5
X95.182Y5.586
X95.5Y65.75
X95.75Y25.25
X96.96Y4.062
X97.0Y62.75
X99.0Y62.75
X99.25Y25.0
X99.25Y24.0
X100.0Y92.3
X102.0Y90.0
X102.0Y50.0
X102.25Y44.75
X106.0Y44.75
T3
X25.25Y5.25
X25.25Y4.25
X25.25Y3.25
X25.25Y2.25
X25.25Y1.25
X26.25Y5.25
X26.25Y1.25
X27.25Y5.25
X27.25Y1.25
X28.25Y5.25
X28.25Y1.25
X29.0Y6.75
X29.25Y5.25
X29.25Y4.25
X29.25Y3.25
X29.25Y2.25
X29.25Y1.25
X35.75Y1.75
X42.0Y7.75
X43.255Y2.595
X51.75Y10.75
X51.75Y8.5
X51.8Y6.4
X52.25Y2.75
X58.65Y4.6
X60.2Y7.5
X60.2Y5.3
X60.299Y10.426
T4
X4.7Y91.82
X4.7Y89.28
X4.7Y86.74
X4.7Y84.2
T5
X103.573Y38.606
X103.573Y36.066
X103.573Y33.526
X103.573Y30.986
X103.573Y28.446
X106.114Y38.606
X106.114Y36.066
X106.114Y33.526
X106.114Y30.986
X106.114Y28.446
T6
X5.84Y12.62
X5.84Y5.0
X10.92Y12.62
X10.92Y5.0
X16.0Y12.62
X16.0Y5.0
X40.0Y93.16
X40.0Y88.08
X40.0Y83.0
X47.62Y93.16
X47.62Y88.08
X47.62Y83.0
X54.0Y72.16
X54.0Y67.08
X54.0Y62.0
X61.62Y72.16
X61.62Y67.08
X61.62Y62.0
T7
X10.42Y69.5
X10.5Y30.5
X15.5Y69.5
X15.58Y30.5
X21.5Y69.5
X21.5Y30.5
X23.0Y15.0
X26.58Y69.5
X26.58Y30.5
X28.3Y15.0
X38.7Y15.0
X42.42Y44.0
X42.5Y62.0
X43.92Y38.0
X44.0Y56.0
X44.0Y15.0
X47.5Y44.0
X47.58Y62.0
X49.0Y38.0
X49.08Y56.0
T0
M30
