%TF.GenerationSoftware,KiCad,Pcbnew,5.1.10-88a1d61d58~90~ubuntu20.04.1*%
%TF.CreationDate,2021-10-09T22:51:23+02:00*%
%TF.ProjectId,jbc-miniregler,6a62632d-6d69-46e6-9972-65676c65722e,21.0.1*%
%TF.SameCoordinates,PX56c8cc0PY88601c0*%
%TF.FileFunction,Soldermask,Bot*%
%TF.FilePolarity,Negative*%
%FSLAX46Y46*%
G04 Gerber Fmt 4.6, Leading zero omitted, Abs format (unit mm)*
G04 Created by KiCad (PCBNEW 5.1.10-88a1d61d58~90~ubuntu20.04.1) date 2021-10-09 22:51:23*
%MOMM*%
%LPD*%
G01*
G04 APERTURE LIST*
%ADD10C,0.150000*%
%ADD11C,0.400000*%
%ADD12O,2.702000X2.402000*%
%ADD13C,1.626000*%
%ADD14O,2.702000X4.002000*%
%ADD15O,4.002000X2.702000*%
%ADD16C,1.702000*%
%ADD17C,4.102000*%
%ADD18C,1.802000*%
G04 APERTURE END LIST*
D10*
X91895238Y2547620D02*
X91895238Y3547620D01*
X91514285Y3547620D01*
X91419047Y3500000D01*
X91371428Y3452381D01*
X91323809Y3357143D01*
X91323809Y3214286D01*
X91371428Y3119048D01*
X91419047Y3071429D01*
X91514285Y3023810D01*
X91895238Y3023810D01*
X90895238Y2547620D02*
X90895238Y3214286D01*
X90895238Y3023810D02*
X90847619Y3119048D01*
X90800000Y3166667D01*
X90704761Y3214286D01*
X90609523Y3214286D01*
X90133333Y2547620D02*
X90228571Y2595239D01*
X90276190Y2642858D01*
X90323809Y2738096D01*
X90323809Y3023810D01*
X90276190Y3119048D01*
X90228571Y3166667D01*
X90133333Y3214286D01*
X89990476Y3214286D01*
X89895238Y3166667D01*
X89847619Y3119048D01*
X89800000Y3023810D01*
X89800000Y2738096D01*
X89847619Y2642858D01*
X89895238Y2595239D01*
X89990476Y2547620D01*
X90133333Y2547620D01*
X89514285Y3214286D02*
X89133333Y3214286D01*
X89371428Y2547620D02*
X89371428Y3404762D01*
X89323809Y3500000D01*
X89228571Y3547620D01*
X89133333Y3547620D01*
X88800000Y2642858D02*
X88752380Y2595239D01*
X88800000Y2547620D01*
X88847619Y2595239D01*
X88800000Y2642858D01*
X88800000Y2547620D01*
X87561904Y2547620D02*
X87561904Y3547620D01*
X86990476Y2547620D02*
X87419047Y3119048D01*
X86990476Y3547620D02*
X87561904Y2976191D01*
X86133333Y2547620D02*
X86133333Y3071429D01*
X86180952Y3166667D01*
X86276190Y3214286D01*
X86466666Y3214286D01*
X86561904Y3166667D01*
X86133333Y2595239D02*
X86228571Y2547620D01*
X86466666Y2547620D01*
X86561904Y2595239D01*
X86609523Y2690477D01*
X86609523Y2785715D01*
X86561904Y2880953D01*
X86466666Y2928572D01*
X86228571Y2928572D01*
X86133333Y2976191D01*
X85657142Y2547620D02*
X85657142Y3214286D01*
X85657142Y3023810D02*
X85609523Y3119048D01*
X85561904Y3166667D01*
X85466666Y3214286D01*
X85371428Y3214286D01*
X84895238Y2547620D02*
X84990476Y2595239D01*
X85038095Y2690477D01*
X85038095Y3547620D01*
X83847619Y3547620D02*
X83180952Y3547620D01*
X83847619Y2547620D01*
X83180952Y2547620D01*
X82419047Y2595239D02*
X82514285Y2547620D01*
X82704761Y2547620D01*
X82800000Y2595239D01*
X82847619Y2690477D01*
X82847619Y3071429D01*
X82800000Y3166667D01*
X82704761Y3214286D01*
X82514285Y3214286D01*
X82419047Y3166667D01*
X82371428Y3071429D01*
X82371428Y2976191D01*
X82847619Y2880953D01*
X81942857Y2547620D02*
X81942857Y3214286D01*
X81942857Y3547620D02*
X81990476Y3500000D01*
X81942857Y3452381D01*
X81895238Y3500000D01*
X81942857Y3547620D01*
X81942857Y3452381D01*
X81323809Y2547620D02*
X81419047Y2595239D01*
X81466666Y2690477D01*
X81466666Y3547620D01*
X80942857Y2547620D02*
X80942857Y3547620D01*
X80514285Y2547620D02*
X80514285Y3071429D01*
X80561904Y3166667D01*
X80657142Y3214286D01*
X80800000Y3214286D01*
X80895238Y3166667D01*
X80942857Y3119048D01*
X79895238Y2547620D02*
X79990476Y2595239D01*
X80038095Y2642858D01*
X80085714Y2738096D01*
X80085714Y3023810D01*
X80038095Y3119048D01*
X79990476Y3166667D01*
X79895238Y3214286D01*
X79752380Y3214286D01*
X79657142Y3166667D01*
X79609523Y3119048D01*
X79561904Y3023810D01*
X79561904Y2738096D01*
X79609523Y2642858D01*
X79657142Y2595239D01*
X79752380Y2547620D01*
X79895238Y2547620D01*
X79276190Y3214286D02*
X78895238Y3214286D01*
X79133333Y2547620D02*
X79133333Y3404762D01*
X79085714Y3500000D01*
X78990476Y3547620D01*
X78895238Y3547620D01*
X78180952Y2595239D02*
X78276190Y2547620D01*
X78466666Y2547620D01*
X78561904Y2595239D01*
X78609523Y2690477D01*
X78609523Y3071429D01*
X78561904Y3166667D01*
X78466666Y3214286D01*
X78276190Y3214286D01*
X78180952Y3166667D01*
X78133333Y3071429D01*
X78133333Y2976191D01*
X78609523Y2880953D01*
X77704761Y2547620D02*
X77704761Y3214286D01*
X77704761Y3023810D02*
X77657142Y3119048D01*
X77609523Y3166667D01*
X77514285Y3214286D01*
X77419047Y3214286D01*
X75942857Y2595239D02*
X76038095Y2547620D01*
X76228571Y2547620D01*
X76323809Y2595239D01*
X76371428Y2690477D01*
X76371428Y3071429D01*
X76323809Y3166667D01*
X76228571Y3214286D01*
X76038095Y3214286D01*
X75942857Y3166667D01*
X75895238Y3071429D01*
X75895238Y2976191D01*
X76371428Y2880953D01*
X75609523Y3214286D02*
X75228571Y3214286D01*
X75466666Y3547620D02*
X75466666Y2690477D01*
X75419047Y2595239D01*
X75323809Y2547620D01*
X75228571Y2547620D01*
X73704761Y2547620D02*
X73704761Y3071429D01*
X73752380Y3166667D01*
X73847619Y3214286D01*
X74038095Y3214286D01*
X74133333Y3166667D01*
X73704761Y2595239D02*
X73800000Y2547620D01*
X74038095Y2547620D01*
X74133333Y2595239D01*
X74180952Y2690477D01*
X74180952Y2785715D01*
X74133333Y2880953D01*
X74038095Y2928572D01*
X73800000Y2928572D01*
X73704761Y2976191D01*
X73085714Y2547620D02*
X73180952Y2595239D01*
X73228571Y2690477D01*
X73228571Y3547620D01*
X72704761Y2642858D02*
X72657142Y2595239D01*
X72704761Y2547620D01*
X72752380Y2595239D01*
X72704761Y2642858D01*
X72704761Y2547620D01*
D11*
X69966666Y17895239D02*
X69966666Y19895239D01*
X69966666Y18942858D02*
X68823809Y18942858D01*
X68823809Y17895239D02*
X68823809Y19895239D01*
X68157142Y19895239D02*
X67014285Y19895239D01*
X67585714Y17895239D02*
X67585714Y19895239D01*
X65395238Y17895239D02*
X66347619Y17895239D01*
X66347619Y19895239D01*
X63300000Y17990477D02*
X63014285Y17895239D01*
X62538095Y17895239D01*
X62347619Y17990477D01*
X62252380Y18085715D01*
X62157142Y18276191D01*
X62157142Y18466667D01*
X62252380Y18657143D01*
X62347619Y18752381D01*
X62538095Y18847620D01*
X62919047Y18942858D01*
X63109523Y19038096D01*
X63204761Y19133334D01*
X63300000Y19323810D01*
X63300000Y19514286D01*
X63204761Y19704762D01*
X63109523Y19800000D01*
X62919047Y19895239D01*
X62442857Y19895239D01*
X62157142Y19800000D01*
X61585714Y19228572D02*
X60823809Y19228572D01*
X61300000Y19895239D02*
X61300000Y18180953D01*
X61204761Y17990477D01*
X61014285Y17895239D01*
X60823809Y17895239D01*
X59395238Y17990477D02*
X59585714Y17895239D01*
X59966666Y17895239D01*
X60157142Y17990477D01*
X60252380Y18180953D01*
X60252380Y18942858D01*
X60157142Y19133334D01*
X59966666Y19228572D01*
X59585714Y19228572D01*
X59395238Y19133334D01*
X59300000Y18942858D01*
X59300000Y18752381D01*
X60252380Y18561905D01*
X58633333Y19228572D02*
X58157142Y17895239D01*
X57680952Y19228572D02*
X58157142Y17895239D01*
X58347619Y17419048D01*
X58442857Y17323810D01*
X58633333Y17228572D01*
X56919047Y17895239D02*
X56919047Y19228572D01*
X56919047Y18847620D02*
X56823809Y19038096D01*
X56728571Y19133334D01*
X56538095Y19228572D01*
X56347619Y19228572D01*
X78680952Y14495239D02*
X79633333Y14495239D01*
X79633333Y16495239D01*
X77728571Y14495239D02*
X77919047Y14590477D01*
X78014285Y14685715D01*
X78109523Y14876191D01*
X78109523Y15447620D01*
X78014285Y15638096D01*
X77919047Y15733334D01*
X77728571Y15828572D01*
X77442857Y15828572D01*
X77252380Y15733334D01*
X77157142Y15638096D01*
X77061904Y15447620D01*
X77061904Y14876191D01*
X77157142Y14685715D01*
X77252380Y14590477D01*
X77442857Y14495239D01*
X77728571Y14495239D01*
X77919047Y16495239D02*
X77823809Y16400000D01*
X77919047Y16304762D01*
X78014285Y16400000D01*
X77919047Y16495239D01*
X77919047Y16304762D01*
X77157142Y16495239D02*
X77061904Y16400000D01*
X77157142Y16304762D01*
X77252380Y16400000D01*
X77157142Y16495239D01*
X77157142Y16304762D01*
X76490476Y15828572D02*
X75728571Y15828572D01*
X76204761Y16495239D02*
X76204761Y14780953D01*
X76109523Y14590477D01*
X75919047Y14495239D01*
X75728571Y14495239D01*
X75061904Y14495239D02*
X75061904Y15828572D01*
X75061904Y15447620D02*
X74966666Y15638096D01*
X74871428Y15733334D01*
X74680952Y15828572D01*
X74490476Y15828572D01*
X73061904Y14590477D02*
X73252380Y14495239D01*
X73633333Y14495239D01*
X73823809Y14590477D01*
X73919047Y14780953D01*
X73919047Y15542858D01*
X73823809Y15733334D01*
X73633333Y15828572D01*
X73252380Y15828572D01*
X73061904Y15733334D01*
X72966666Y15542858D01*
X72966666Y15352381D01*
X73919047Y15161905D01*
X71252380Y15828572D02*
X71252380Y14209524D01*
X71347619Y14019048D01*
X71442857Y13923810D01*
X71633333Y13828572D01*
X71919047Y13828572D01*
X72109523Y13923810D01*
X71252380Y14590477D02*
X71442857Y14495239D01*
X71823809Y14495239D01*
X72014285Y14590477D01*
X72109523Y14685715D01*
X72204761Y14876191D01*
X72204761Y15447620D01*
X72109523Y15638096D01*
X72014285Y15733334D01*
X71823809Y15828572D01*
X71442857Y15828572D01*
X71252380Y15733334D01*
X70014285Y14495239D02*
X70204761Y14590477D01*
X70300000Y14780953D01*
X70300000Y16495239D01*
X68490476Y14590477D02*
X68680952Y14495239D01*
X69061904Y14495239D01*
X69252380Y14590477D01*
X69347619Y14780953D01*
X69347619Y15542858D01*
X69252380Y15733334D01*
X69061904Y15828572D01*
X68680952Y15828572D01*
X68490476Y15733334D01*
X68395238Y15542858D01*
X68395238Y15352381D01*
X69347619Y15161905D01*
X67538095Y14495239D02*
X67538095Y15828572D01*
X67538095Y15447620D02*
X67442857Y15638096D01*
X67347619Y15733334D01*
X67157142Y15828572D01*
X66966666Y15828572D01*
X64776190Y14495239D02*
X64776190Y16495239D01*
X64109523Y15066667D01*
X63442857Y16495239D01*
X63442857Y14495239D01*
X62490476Y14495239D02*
X62490476Y15828572D01*
X62490476Y16495239D02*
X62585714Y16400000D01*
X62490476Y16304762D01*
X62395238Y16400000D01*
X62490476Y16495239D01*
X62490476Y16304762D01*
X61538095Y15828572D02*
X61538095Y14495239D01*
X61538095Y15638096D02*
X61442857Y15733334D01*
X61252380Y15828572D01*
X60966666Y15828572D01*
X60776190Y15733334D01*
X60680952Y15542858D01*
X60680952Y14495239D01*
X59728571Y14495239D02*
X59728571Y15828572D01*
X59728571Y16495239D02*
X59823809Y16400000D01*
X59728571Y16304762D01*
X59633333Y16400000D01*
X59728571Y16495239D01*
X59728571Y16304762D01*
X57538095Y16495239D02*
X56871428Y14495239D01*
X56204761Y16495239D01*
X55633333Y16304762D02*
X55538095Y16400000D01*
X55347619Y16495239D01*
X54871428Y16495239D01*
X54680952Y16400000D01*
X54585714Y16304762D01*
X54490476Y16114286D01*
X54490476Y15923810D01*
X54585714Y15638096D01*
X55728571Y14495239D01*
X54490476Y14495239D01*
X52585714Y14495239D02*
X53728571Y14495239D01*
X53157142Y14495239D02*
X53157142Y16495239D01*
X53347619Y16209524D01*
X53538095Y16019048D01*
X53728571Y15923810D01*
X51728571Y14685715D02*
X51633333Y14590477D01*
X51728571Y14495239D01*
X51823809Y14590477D01*
X51728571Y14685715D01*
X51728571Y14495239D01*
X50395238Y16495239D02*
X50204761Y16495239D01*
X50014285Y16400000D01*
X49919047Y16304762D01*
X49823809Y16114286D01*
X49728571Y15733334D01*
X49728571Y15257143D01*
X49823809Y14876191D01*
X49919047Y14685715D01*
X50014285Y14590477D01*
X50204761Y14495239D01*
X50395238Y14495239D01*
X50585714Y14590477D01*
X50680952Y14685715D01*
X50776190Y14876191D01*
X50871428Y15257143D01*
X50871428Y15733334D01*
X50776190Y16114286D01*
X50680952Y16304762D01*
X50585714Y16400000D01*
X50395238Y16495239D01*
X48871428Y14685715D02*
X48776190Y14590477D01*
X48871428Y14495239D01*
X48966666Y14590477D01*
X48871428Y14685715D01*
X48871428Y14495239D01*
X46871428Y14495239D02*
X48014285Y14495239D01*
X47442857Y14495239D02*
X47442857Y16495239D01*
X47633333Y16209524D01*
X47823809Y16019048D01*
X48014285Y15923810D01*
D10*
X91895238Y2547620D02*
X91895238Y3547620D01*
X91514285Y3547620D01*
X91419047Y3500000D01*
X91371428Y3452381D01*
X91323809Y3357143D01*
X91323809Y3214286D01*
X91371428Y3119048D01*
X91419047Y3071429D01*
X91514285Y3023810D01*
X91895238Y3023810D01*
X90895238Y2547620D02*
X90895238Y3214286D01*
X90895238Y3023810D02*
X90847619Y3119048D01*
X90800000Y3166667D01*
X90704761Y3214286D01*
X90609523Y3214286D01*
X90133333Y2547620D02*
X90228571Y2595239D01*
X90276190Y2642858D01*
X90323809Y2738096D01*
X90323809Y3023810D01*
X90276190Y3119048D01*
X90228571Y3166667D01*
X90133333Y3214286D01*
X89990476Y3214286D01*
X89895238Y3166667D01*
X89847619Y3119048D01*
X89800000Y3023810D01*
X89800000Y2738096D01*
X89847619Y2642858D01*
X89895238Y2595239D01*
X89990476Y2547620D01*
X90133333Y2547620D01*
X89514285Y3214286D02*
X89133333Y3214286D01*
X89371428Y2547620D02*
X89371428Y3404762D01*
X89323809Y3500000D01*
X89228571Y3547620D01*
X89133333Y3547620D01*
X88800000Y2642858D02*
X88752380Y2595239D01*
X88800000Y2547620D01*
X88847619Y2595239D01*
X88800000Y2642858D01*
X88800000Y2547620D01*
X87561904Y2547620D02*
X87561904Y3547620D01*
X86990476Y2547620D02*
X87419047Y3119048D01*
X86990476Y3547620D02*
X87561904Y2976191D01*
X86133333Y2547620D02*
X86133333Y3071429D01*
X86180952Y3166667D01*
X86276190Y3214286D01*
X86466666Y3214286D01*
X86561904Y3166667D01*
X86133333Y2595239D02*
X86228571Y2547620D01*
X86466666Y2547620D01*
X86561904Y2595239D01*
X86609523Y2690477D01*
X86609523Y2785715D01*
X86561904Y2880953D01*
X86466666Y2928572D01*
X86228571Y2928572D01*
X86133333Y2976191D01*
X85657142Y2547620D02*
X85657142Y3214286D01*
X85657142Y3023810D02*
X85609523Y3119048D01*
X85561904Y3166667D01*
X85466666Y3214286D01*
X85371428Y3214286D01*
X84895238Y2547620D02*
X84990476Y2595239D01*
X85038095Y2690477D01*
X85038095Y3547620D01*
X83847619Y3547620D02*
X83180952Y3547620D01*
X83847619Y2547620D01*
X83180952Y2547620D01*
X82419047Y2595239D02*
X82514285Y2547620D01*
X82704761Y2547620D01*
X82800000Y2595239D01*
X82847619Y2690477D01*
X82847619Y3071429D01*
X82800000Y3166667D01*
X82704761Y3214286D01*
X82514285Y3214286D01*
X82419047Y3166667D01*
X82371428Y3071429D01*
X82371428Y2976191D01*
X82847619Y2880953D01*
X81942857Y2547620D02*
X81942857Y3214286D01*
X81942857Y3547620D02*
X81990476Y3500000D01*
X81942857Y3452381D01*
X81895238Y3500000D01*
X81942857Y3547620D01*
X81942857Y3452381D01*
X81323809Y2547620D02*
X81419047Y2595239D01*
X81466666Y2690477D01*
X81466666Y3547620D01*
X80942857Y2547620D02*
X80942857Y3547620D01*
X80514285Y2547620D02*
X80514285Y3071429D01*
X80561904Y3166667D01*
X80657142Y3214286D01*
X80800000Y3214286D01*
X80895238Y3166667D01*
X80942857Y3119048D01*
X79895238Y2547620D02*
X79990476Y2595239D01*
X80038095Y2642858D01*
X80085714Y2738096D01*
X80085714Y3023810D01*
X80038095Y3119048D01*
X79990476Y3166667D01*
X79895238Y3214286D01*
X79752380Y3214286D01*
X79657142Y3166667D01*
X79609523Y3119048D01*
X79561904Y3023810D01*
X79561904Y2738096D01*
X79609523Y2642858D01*
X79657142Y2595239D01*
X79752380Y2547620D01*
X79895238Y2547620D01*
X79276190Y3214286D02*
X78895238Y3214286D01*
X79133333Y2547620D02*
X79133333Y3404762D01*
X79085714Y3500000D01*
X78990476Y3547620D01*
X78895238Y3547620D01*
X78180952Y2595239D02*
X78276190Y2547620D01*
X78466666Y2547620D01*
X78561904Y2595239D01*
X78609523Y2690477D01*
X78609523Y3071429D01*
X78561904Y3166667D01*
X78466666Y3214286D01*
X78276190Y3214286D01*
X78180952Y3166667D01*
X78133333Y3071429D01*
X78133333Y2976191D01*
X78609523Y2880953D01*
X77704761Y2547620D02*
X77704761Y3214286D01*
X77704761Y3023810D02*
X77657142Y3119048D01*
X77609523Y3166667D01*
X77514285Y3214286D01*
X77419047Y3214286D01*
X75942857Y2595239D02*
X76038095Y2547620D01*
X76228571Y2547620D01*
X76323809Y2595239D01*
X76371428Y2690477D01*
X76371428Y3071429D01*
X76323809Y3166667D01*
X76228571Y3214286D01*
X76038095Y3214286D01*
X75942857Y3166667D01*
X75895238Y3071429D01*
X75895238Y2976191D01*
X76371428Y2880953D01*
X75609523Y3214286D02*
X75228571Y3214286D01*
X75466666Y3547620D02*
X75466666Y2690477D01*
X75419047Y2595239D01*
X75323809Y2547620D01*
X75228571Y2547620D01*
X73704761Y2547620D02*
X73704761Y3071429D01*
X73752380Y3166667D01*
X73847619Y3214286D01*
X74038095Y3214286D01*
X74133333Y3166667D01*
X73704761Y2595239D02*
X73800000Y2547620D01*
X74038095Y2547620D01*
X74133333Y2595239D01*
X74180952Y2690477D01*
X74180952Y2785715D01*
X74133333Y2880953D01*
X74038095Y2928572D01*
X73800000Y2928572D01*
X73704761Y2976191D01*
X73085714Y2547620D02*
X73180952Y2595239D01*
X73228571Y2690477D01*
X73228571Y3547620D01*
X72704761Y2642858D02*
X72657142Y2595239D01*
X72704761Y2547620D01*
X72752380Y2595239D01*
X72704761Y2642858D01*
X72704761Y2547620D01*
D11*
X69966666Y17895239D02*
X69966666Y19895239D01*
X69966666Y18942858D02*
X68823809Y18942858D01*
X68823809Y17895239D02*
X68823809Y19895239D01*
X68157142Y19895239D02*
X67014285Y19895239D01*
X67585714Y17895239D02*
X67585714Y19895239D01*
X65395238Y17895239D02*
X66347619Y17895239D01*
X66347619Y19895239D01*
X63300000Y17990477D02*
X63014285Y17895239D01*
X62538095Y17895239D01*
X62347619Y17990477D01*
X62252380Y18085715D01*
X62157142Y18276191D01*
X62157142Y18466667D01*
X62252380Y18657143D01*
X62347619Y18752381D01*
X62538095Y18847620D01*
X62919047Y18942858D01*
X63109523Y19038096D01*
X63204761Y19133334D01*
X63300000Y19323810D01*
X63300000Y19514286D01*
X63204761Y19704762D01*
X63109523Y19800000D01*
X62919047Y19895239D01*
X62442857Y19895239D01*
X62157142Y19800000D01*
X61585714Y19228572D02*
X60823809Y19228572D01*
X61300000Y19895239D02*
X61300000Y18180953D01*
X61204761Y17990477D01*
X61014285Y17895239D01*
X60823809Y17895239D01*
X59395238Y17990477D02*
X59585714Y17895239D01*
X59966666Y17895239D01*
X60157142Y17990477D01*
X60252380Y18180953D01*
X60252380Y18942858D01*
X60157142Y19133334D01*
X59966666Y19228572D01*
X59585714Y19228572D01*
X59395238Y19133334D01*
X59300000Y18942858D01*
X59300000Y18752381D01*
X60252380Y18561905D01*
X58633333Y19228572D02*
X58157142Y17895239D01*
X57680952Y19228572D02*
X58157142Y17895239D01*
X58347619Y17419048D01*
X58442857Y17323810D01*
X58633333Y17228572D01*
X56919047Y17895239D02*
X56919047Y19228572D01*
X56919047Y18847620D02*
X56823809Y19038096D01*
X56728571Y19133334D01*
X56538095Y19228572D01*
X56347619Y19228572D01*
X78680952Y14495239D02*
X79633333Y14495239D01*
X79633333Y16495239D01*
X77728571Y14495239D02*
X77919047Y14590477D01*
X78014285Y14685715D01*
X78109523Y14876191D01*
X78109523Y15447620D01*
X78014285Y15638096D01*
X77919047Y15733334D01*
X77728571Y15828572D01*
X77442857Y15828572D01*
X77252380Y15733334D01*
X77157142Y15638096D01*
X77061904Y15447620D01*
X77061904Y14876191D01*
X77157142Y14685715D01*
X77252380Y14590477D01*
X77442857Y14495239D01*
X77728571Y14495239D01*
X77919047Y16495239D02*
X77823809Y16400000D01*
X77919047Y16304762D01*
X78014285Y16400000D01*
X77919047Y16495239D01*
X77919047Y16304762D01*
X77157142Y16495239D02*
X77061904Y16400000D01*
X77157142Y16304762D01*
X77252380Y16400000D01*
X77157142Y16495239D01*
X77157142Y16304762D01*
X76490476Y15828572D02*
X75728571Y15828572D01*
X76204761Y16495239D02*
X76204761Y14780953D01*
X76109523Y14590477D01*
X75919047Y14495239D01*
X75728571Y14495239D01*
X75061904Y14495239D02*
X75061904Y15828572D01*
X75061904Y15447620D02*
X74966666Y15638096D01*
X74871428Y15733334D01*
X74680952Y15828572D01*
X74490476Y15828572D01*
X73061904Y14590477D02*
X73252380Y14495239D01*
X73633333Y14495239D01*
X73823809Y14590477D01*
X73919047Y14780953D01*
X73919047Y15542858D01*
X73823809Y15733334D01*
X73633333Y15828572D01*
X73252380Y15828572D01*
X73061904Y15733334D01*
X72966666Y15542858D01*
X72966666Y15352381D01*
X73919047Y15161905D01*
X71252380Y15828572D02*
X71252380Y14209524D01*
X71347619Y14019048D01*
X71442857Y13923810D01*
X71633333Y13828572D01*
X71919047Y13828572D01*
X72109523Y13923810D01*
X71252380Y14590477D02*
X71442857Y14495239D01*
X71823809Y14495239D01*
X72014285Y14590477D01*
X72109523Y14685715D01*
X72204761Y14876191D01*
X72204761Y15447620D01*
X72109523Y15638096D01*
X72014285Y15733334D01*
X71823809Y15828572D01*
X71442857Y15828572D01*
X71252380Y15733334D01*
X70014285Y14495239D02*
X70204761Y14590477D01*
X70300000Y14780953D01*
X70300000Y16495239D01*
X68490476Y14590477D02*
X68680952Y14495239D01*
X69061904Y14495239D01*
X69252380Y14590477D01*
X69347619Y14780953D01*
X69347619Y15542858D01*
X69252380Y15733334D01*
X69061904Y15828572D01*
X68680952Y15828572D01*
X68490476Y15733334D01*
X68395238Y15542858D01*
X68395238Y15352381D01*
X69347619Y15161905D01*
X67538095Y14495239D02*
X67538095Y15828572D01*
X67538095Y15447620D02*
X67442857Y15638096D01*
X67347619Y15733334D01*
X67157142Y15828572D01*
X66966666Y15828572D01*
X64776190Y14495239D02*
X64776190Y16495239D01*
X64109523Y15066667D01*
X63442857Y16495239D01*
X63442857Y14495239D01*
X62490476Y14495239D02*
X62490476Y15828572D01*
X62490476Y16495239D02*
X62585714Y16400000D01*
X62490476Y16304762D01*
X62395238Y16400000D01*
X62490476Y16495239D01*
X62490476Y16304762D01*
X61538095Y15828572D02*
X61538095Y14495239D01*
X61538095Y15638096D02*
X61442857Y15733334D01*
X61252380Y15828572D01*
X60966666Y15828572D01*
X60776190Y15733334D01*
X60680952Y15542858D01*
X60680952Y14495239D01*
X59728571Y14495239D02*
X59728571Y15828572D01*
X59728571Y16495239D02*
X59823809Y16400000D01*
X59728571Y16304762D01*
X59633333Y16400000D01*
X59728571Y16495239D01*
X59728571Y16304762D01*
X57538095Y16495239D02*
X56871428Y14495239D01*
X56204761Y16495239D01*
X55633333Y16304762D02*
X55538095Y16400000D01*
X55347619Y16495239D01*
X54871428Y16495239D01*
X54680952Y16400000D01*
X54585714Y16304762D01*
X54490476Y16114286D01*
X54490476Y15923810D01*
X54585714Y15638096D01*
X55728571Y14495239D01*
X54490476Y14495239D01*
X52585714Y14495239D02*
X53728571Y14495239D01*
X53157142Y14495239D02*
X53157142Y16495239D01*
X53347619Y16209524D01*
X53538095Y16019048D01*
X53728571Y15923810D01*
X51728571Y14685715D02*
X51633333Y14590477D01*
X51728571Y14495239D01*
X51823809Y14590477D01*
X51728571Y14685715D01*
X51728571Y14495239D01*
X50395238Y16495239D02*
X50204761Y16495239D01*
X50014285Y16400000D01*
X49919047Y16304762D01*
X49823809Y16114286D01*
X49728571Y15733334D01*
X49728571Y15257143D01*
X49823809Y14876191D01*
X49919047Y14685715D01*
X50014285Y14590477D01*
X50204761Y14495239D01*
X50395238Y14495239D01*
X50585714Y14590477D01*
X50680952Y14685715D01*
X50776190Y14876191D01*
X50871428Y15257143D01*
X50871428Y15733334D01*
X50776190Y16114286D01*
X50680952Y16304762D01*
X50585714Y16400000D01*
X50395238Y16495239D01*
X48871428Y14685715D02*
X48776190Y14590477D01*
X48871428Y14495239D01*
X48966666Y14590477D01*
X48871428Y14685715D01*
X48871428Y14495239D01*
X46871428Y14495239D02*
X48014285Y14495239D01*
X47442857Y14495239D02*
X47442857Y16495239D01*
X47633333Y16209524D01*
X47823809Y16019048D01*
X48014285Y15923810D01*
D12*
%TO.C,J6*%
X42500000Y62000000D03*
X47580000Y62000000D03*
%TD*%
%TO.C,J2*%
X21500000Y69500000D03*
X26580000Y69500000D03*
%TD*%
%TO.C,J1*%
X21500000Y30500000D03*
X26580000Y30500000D03*
%TD*%
%TO.C,J13*%
X44000000Y38000000D03*
X49080000Y38000000D03*
%TD*%
%TO.C,J12*%
X42500000Y44000000D03*
X47580000Y44000000D03*
%TD*%
%TO.C,J10*%
X10500000Y69500000D03*
X15580000Y69500000D03*
%TD*%
%TO.C,J8*%
X10500000Y30500000D03*
X15580000Y30500000D03*
%TD*%
%TO.C,J7*%
X44000000Y56000000D03*
X49080000Y56000000D03*
%TD*%
D13*
%TO.C,U1*%
X4700000Y91820000D03*
X4700000Y89280000D03*
X4700000Y86740000D03*
G36*
G01*
X3887000Y83438000D02*
X3887000Y84962000D01*
G75*
G02*
X3938000Y85013000I51000J0D01*
G01*
X5462000Y85013000D01*
G75*
G02*
X5513000Y84962000I0J-51000D01*
G01*
X5513000Y83438000D01*
G75*
G02*
X5462000Y83387000I-51000J0D01*
G01*
X3938000Y83387000D01*
G75*
G02*
X3887000Y83438000I0J51000D01*
G01*
G37*
%TD*%
D14*
%TO.C,X3*%
X16000000Y5000000D03*
X10920000Y5000000D03*
X5840000Y5000000D03*
X16000000Y12620000D03*
X10920000Y12620000D03*
X5840000Y12620000D03*
%TD*%
%TO.C,X2*%
X90000000Y97000000D03*
X95080000Y97000000D03*
X100160000Y97000000D03*
X90000000Y89380000D03*
X95080000Y89380000D03*
X100160000Y89380000D03*
%TD*%
D15*
%TO.C,X1*%
X54000000Y62000000D03*
X54000000Y67080000D03*
X54000000Y72160000D03*
X61620000Y62000000D03*
X61620000Y67080000D03*
X61620000Y72160000D03*
%TD*%
%TO.C,J4*%
G36*
G01*
X99800000Y50419000D02*
X98200000Y50419000D01*
G75*
G02*
X98149000Y50470000I0J51000D01*
G01*
X98149000Y52070000D01*
G75*
G02*
X98200000Y52121000I51000J0D01*
G01*
X99800000Y52121000D01*
G75*
G02*
X99851000Y52070000I0J-51000D01*
G01*
X99851000Y50470000D01*
G75*
G02*
X99800000Y50419000I-51000J0D01*
G01*
G37*
D16*
X99000000Y48770000D03*
X101000000Y48770000D03*
X101000000Y51270000D03*
D17*
X103860000Y44020000D03*
X103860000Y56020000D03*
%TD*%
D18*
%TO.C,J5*%
X98460000Y18080000D03*
X98460000Y15540000D03*
X98460000Y13000000D03*
X101000000Y18080000D03*
X101000000Y15540000D03*
G36*
G01*
X101901000Y13636000D02*
X101901000Y12364000D01*
G75*
G02*
X101636000Y12099000I-265000J0D01*
G01*
X100364000Y12099000D01*
G75*
G02*
X100099000Y12364000I0J265000D01*
G01*
X100099000Y13636000D01*
G75*
G02*
X100364000Y13901000I265000J0D01*
G01*
X101636000Y13901000D01*
G75*
G02*
X101901000Y13636000I0J-265000D01*
G01*
G37*
%TD*%
D17*
%TO.C,F1*%
X23000000Y15000000D03*
X28300000Y15000000D03*
X38700000Y15000000D03*
X44000000Y15000000D03*
%TD*%
M02*
