%TF.GenerationSoftware,KiCad,Pcbnew,6.0.7*%
%TF.CreationDate,2023-03-08T14:53:28+01:00*%
%TF.ProjectId,jbc-miniregler,6a62632d-6d69-46e6-9972-65676c65722e,22.0.0*%
%TF.SameCoordinates,PX56c8cc0PY88601c0*%
%TF.FileFunction,Soldermask,Bot*%
%TF.FilePolarity,Negative*%
%FSLAX46Y46*%
G04 Gerber Fmt 4.6, Leading zero omitted, Abs format (unit mm)*
G04 Created by KiCad (PCBNEW 6.0.7) date 2023-03-08 14:53:28*
%MOMM*%
%LPD*%
G01*
G04 APERTURE LIST*
G04 Aperture macros list*
%AMRoundRect*
0 Rectangle with rounded corners*
0 $1 Rounding radius*
0 $2 $3 $4 $5 $6 $7 $8 $9 X,Y pos of 4 corners*
0 Add a 4 corners polygon primitive as box body*
4,1,4,$2,$3,$4,$5,$6,$7,$8,$9,$2,$3,0*
0 Add four circle primitives for the rounded corners*
1,1,$1+$1,$2,$3*
1,1,$1+$1,$4,$5*
1,1,$1+$1,$6,$7*
1,1,$1+$1,$8,$9*
0 Add four rect primitives between the rounded corners*
20,1,$1+$1,$2,$3,$4,$5,0*
20,1,$1+$1,$4,$5,$6,$7,0*
20,1,$1+$1,$6,$7,$8,$9,0*
20,1,$1+$1,$8,$9,$2,$3,0*%
G04 Aperture macros list end*
%ADD10C,0.400000*%
%ADD11C,0.150000*%
%ADD12C,4.102000*%
%ADD13O,4.002000X2.702000*%
%ADD14RoundRect,0.051000X-0.762000X-0.762000X0.762000X-0.762000X0.762000X0.762000X-0.762000X0.762000X0*%
%ADD15C,1.626000*%
%ADD16O,2.702000X4.002000*%
%ADD17O,1.902000X1.902000*%
%ADD18O,1.602000X1.602000*%
%ADD19RoundRect,0.301000X-0.600000X-0.600000X0.600000X-0.600000X0.600000X0.600000X-0.600000X0.600000X0*%
%ADD20C,1.802000*%
%ADD21O,2.702000X2.402000*%
G04 APERTURE END LIST*
D10*
X69966666Y17805239D02*
X69966666Y19805239D01*
X69966666Y18852858D02*
X68823809Y18852858D01*
X68823809Y17805239D02*
X68823809Y19805239D01*
X68157142Y19805239D02*
X67014285Y19805239D01*
X67585714Y17805239D02*
X67585714Y19805239D01*
X65395238Y17805239D02*
X66347619Y17805239D01*
X66347619Y19805239D01*
X63300000Y17900477D02*
X63014285Y17805239D01*
X62538095Y17805239D01*
X62347619Y17900477D01*
X62252380Y17995715D01*
X62157142Y18186191D01*
X62157142Y18376667D01*
X62252380Y18567143D01*
X62347619Y18662381D01*
X62538095Y18757620D01*
X62919047Y18852858D01*
X63109523Y18948096D01*
X63204761Y19043334D01*
X63300000Y19233810D01*
X63300000Y19424286D01*
X63204761Y19614762D01*
X63109523Y19710000D01*
X62919047Y19805239D01*
X62442857Y19805239D01*
X62157142Y19710000D01*
X61585714Y19138572D02*
X60823809Y19138572D01*
X61300000Y19805239D02*
X61300000Y18090953D01*
X61204761Y17900477D01*
X61014285Y17805239D01*
X60823809Y17805239D01*
X59395238Y17900477D02*
X59585714Y17805239D01*
X59966666Y17805239D01*
X60157142Y17900477D01*
X60252380Y18090953D01*
X60252380Y18852858D01*
X60157142Y19043334D01*
X59966666Y19138572D01*
X59585714Y19138572D01*
X59395238Y19043334D01*
X59300000Y18852858D01*
X59300000Y18662381D01*
X60252380Y18471905D01*
X58633333Y19138572D02*
X58157142Y17805239D01*
X57680952Y19138572D02*
X58157142Y17805239D01*
X58347619Y17329048D01*
X58442857Y17233810D01*
X58633333Y17138572D01*
X56919047Y17805239D02*
X56919047Y19138572D01*
X56919047Y18757620D02*
X56823809Y18948096D01*
X56728571Y19043334D01*
X56538095Y19138572D01*
X56347619Y19138572D01*
X78680952Y14585239D02*
X79633333Y14585239D01*
X79633333Y16585239D01*
X77728571Y14585239D02*
X77919047Y14680477D01*
X78014285Y14775715D01*
X78109523Y14966191D01*
X78109523Y15537620D01*
X78014285Y15728096D01*
X77919047Y15823334D01*
X77728571Y15918572D01*
X77442857Y15918572D01*
X77252380Y15823334D01*
X77157142Y15728096D01*
X77061904Y15537620D01*
X77061904Y14966191D01*
X77157142Y14775715D01*
X77252380Y14680477D01*
X77442857Y14585239D01*
X77728571Y14585239D01*
X77919047Y16585239D02*
X77823809Y16490000D01*
X77919047Y16394762D01*
X78014285Y16490000D01*
X77919047Y16585239D01*
X77919047Y16394762D01*
X77157142Y16585239D02*
X77061904Y16490000D01*
X77157142Y16394762D01*
X77252380Y16490000D01*
X77157142Y16585239D01*
X77157142Y16394762D01*
X76490476Y15918572D02*
X75728571Y15918572D01*
X76204761Y16585239D02*
X76204761Y14870953D01*
X76109523Y14680477D01*
X75919047Y14585239D01*
X75728571Y14585239D01*
X75061904Y14585239D02*
X75061904Y15918572D01*
X75061904Y15537620D02*
X74966666Y15728096D01*
X74871428Y15823334D01*
X74680952Y15918572D01*
X74490476Y15918572D01*
X73061904Y14680477D02*
X73252380Y14585239D01*
X73633333Y14585239D01*
X73823809Y14680477D01*
X73919047Y14870953D01*
X73919047Y15632858D01*
X73823809Y15823334D01*
X73633333Y15918572D01*
X73252380Y15918572D01*
X73061904Y15823334D01*
X72966666Y15632858D01*
X72966666Y15442381D01*
X73919047Y15251905D01*
X71252380Y15918572D02*
X71252380Y14299524D01*
X71347619Y14109048D01*
X71442857Y14013810D01*
X71633333Y13918572D01*
X71919047Y13918572D01*
X72109523Y14013810D01*
X71252380Y14680477D02*
X71442857Y14585239D01*
X71823809Y14585239D01*
X72014285Y14680477D01*
X72109523Y14775715D01*
X72204761Y14966191D01*
X72204761Y15537620D01*
X72109523Y15728096D01*
X72014285Y15823334D01*
X71823809Y15918572D01*
X71442857Y15918572D01*
X71252380Y15823334D01*
X70014285Y14585239D02*
X70204761Y14680477D01*
X70300000Y14870953D01*
X70300000Y16585239D01*
X68490476Y14680477D02*
X68680952Y14585239D01*
X69061904Y14585239D01*
X69252380Y14680477D01*
X69347619Y14870953D01*
X69347619Y15632858D01*
X69252380Y15823334D01*
X69061904Y15918572D01*
X68680952Y15918572D01*
X68490476Y15823334D01*
X68395238Y15632858D01*
X68395238Y15442381D01*
X69347619Y15251905D01*
X67538095Y14585239D02*
X67538095Y15918572D01*
X67538095Y15537620D02*
X67442857Y15728096D01*
X67347619Y15823334D01*
X67157142Y15918572D01*
X66966666Y15918572D01*
X64776190Y14585239D02*
X64776190Y16585239D01*
X64109523Y15156667D01*
X63442857Y16585239D01*
X63442857Y14585239D01*
X62490476Y14585239D02*
X62490476Y15918572D01*
X62490476Y16585239D02*
X62585714Y16490000D01*
X62490476Y16394762D01*
X62395238Y16490000D01*
X62490476Y16585239D01*
X62490476Y16394762D01*
X61538095Y15918572D02*
X61538095Y14585239D01*
X61538095Y15728096D02*
X61442857Y15823334D01*
X61252380Y15918572D01*
X60966666Y15918572D01*
X60776190Y15823334D01*
X60680952Y15632858D01*
X60680952Y14585239D01*
X59728571Y14585239D02*
X59728571Y15918572D01*
X59728571Y16585239D02*
X59823809Y16490000D01*
X59728571Y16394762D01*
X59633333Y16490000D01*
X59728571Y16585239D01*
X59728571Y16394762D01*
X57538095Y16585239D02*
X56871428Y14585239D01*
X56204761Y16585239D01*
X55633333Y16394762D02*
X55538095Y16490000D01*
X55347619Y16585239D01*
X54871428Y16585239D01*
X54680952Y16490000D01*
X54585714Y16394762D01*
X54490476Y16204286D01*
X54490476Y16013810D01*
X54585714Y15728096D01*
X55728571Y14585239D01*
X54490476Y14585239D01*
X53728571Y16394762D02*
X53633333Y16490000D01*
X53442857Y16585239D01*
X52966666Y16585239D01*
X52776190Y16490000D01*
X52680952Y16394762D01*
X52585714Y16204286D01*
X52585714Y16013810D01*
X52680952Y15728096D01*
X53823809Y14585239D01*
X52585714Y14585239D01*
X51728571Y14775715D02*
X51633333Y14680477D01*
X51728571Y14585239D01*
X51823809Y14680477D01*
X51728571Y14775715D01*
X51728571Y14585239D01*
X50395238Y16585239D02*
X50204761Y16585239D01*
X50014285Y16490000D01*
X49919047Y16394762D01*
X49823809Y16204286D01*
X49728571Y15823334D01*
X49728571Y15347143D01*
X49823809Y14966191D01*
X49919047Y14775715D01*
X50014285Y14680477D01*
X50204761Y14585239D01*
X50395238Y14585239D01*
X50585714Y14680477D01*
X50680952Y14775715D01*
X50776190Y14966191D01*
X50871428Y15347143D01*
X50871428Y15823334D01*
X50776190Y16204286D01*
X50680952Y16394762D01*
X50585714Y16490000D01*
X50395238Y16585239D01*
X48871428Y14775715D02*
X48776190Y14680477D01*
X48871428Y14585239D01*
X48966666Y14680477D01*
X48871428Y14775715D01*
X48871428Y14585239D01*
X47538095Y16585239D02*
X47347619Y16585239D01*
X47157142Y16490000D01*
X47061904Y16394762D01*
X46966666Y16204286D01*
X46871428Y15823334D01*
X46871428Y15347143D01*
X46966666Y14966191D01*
X47061904Y14775715D01*
X47157142Y14680477D01*
X47347619Y14585239D01*
X47538095Y14585239D01*
X47728571Y14680477D01*
X47823809Y14775715D01*
X47919047Y14966191D01*
X48014285Y15347143D01*
X48014285Y15823334D01*
X47919047Y16204286D01*
X47823809Y16394762D01*
X47728571Y16490000D01*
X47538095Y16585239D01*
D11*
X91895238Y2547620D02*
X91895238Y3547620D01*
X91514285Y3547620D01*
X91419047Y3500000D01*
X91371428Y3452381D01*
X91323809Y3357143D01*
X91323809Y3214286D01*
X91371428Y3119048D01*
X91419047Y3071429D01*
X91514285Y3023810D01*
X91895238Y3023810D01*
X90895238Y2547620D02*
X90895238Y3214286D01*
X90895238Y3023810D02*
X90847619Y3119048D01*
X90800000Y3166667D01*
X90704761Y3214286D01*
X90609523Y3214286D01*
X90133333Y2547620D02*
X90228571Y2595239D01*
X90276190Y2642858D01*
X90323809Y2738096D01*
X90323809Y3023810D01*
X90276190Y3119048D01*
X90228571Y3166667D01*
X90133333Y3214286D01*
X89990476Y3214286D01*
X89895238Y3166667D01*
X89847619Y3119048D01*
X89800000Y3023810D01*
X89800000Y2738096D01*
X89847619Y2642858D01*
X89895238Y2595239D01*
X89990476Y2547620D01*
X90133333Y2547620D01*
X89514285Y3214286D02*
X89133333Y3214286D01*
X89371428Y2547620D02*
X89371428Y3404762D01*
X89323809Y3500000D01*
X89228571Y3547620D01*
X89133333Y3547620D01*
X88800000Y2642858D02*
X88752380Y2595239D01*
X88800000Y2547620D01*
X88847619Y2595239D01*
X88800000Y2642858D01*
X88800000Y2547620D01*
X87561904Y2547620D02*
X87561904Y3547620D01*
X86990476Y2547620D02*
X87419047Y3119048D01*
X86990476Y3547620D02*
X87561904Y2976191D01*
X86133333Y2547620D02*
X86133333Y3071429D01*
X86180952Y3166667D01*
X86276190Y3214286D01*
X86466666Y3214286D01*
X86561904Y3166667D01*
X86133333Y2595239D02*
X86228571Y2547620D01*
X86466666Y2547620D01*
X86561904Y2595239D01*
X86609523Y2690477D01*
X86609523Y2785715D01*
X86561904Y2880953D01*
X86466666Y2928572D01*
X86228571Y2928572D01*
X86133333Y2976191D01*
X85657142Y2547620D02*
X85657142Y3214286D01*
X85657142Y3023810D02*
X85609523Y3119048D01*
X85561904Y3166667D01*
X85466666Y3214286D01*
X85371428Y3214286D01*
X84895238Y2547620D02*
X84990476Y2595239D01*
X85038095Y2690477D01*
X85038095Y3547620D01*
X83847619Y3547620D02*
X83180952Y3547620D01*
X83847619Y2547620D01*
X83180952Y2547620D01*
X82419047Y2595239D02*
X82514285Y2547620D01*
X82704761Y2547620D01*
X82800000Y2595239D01*
X82847619Y2690477D01*
X82847619Y3071429D01*
X82800000Y3166667D01*
X82704761Y3214286D01*
X82514285Y3214286D01*
X82419047Y3166667D01*
X82371428Y3071429D01*
X82371428Y2976191D01*
X82847619Y2880953D01*
X81942857Y2547620D02*
X81942857Y3214286D01*
X81942857Y3547620D02*
X81990476Y3500000D01*
X81942857Y3452381D01*
X81895238Y3500000D01*
X81942857Y3547620D01*
X81942857Y3452381D01*
X81323809Y2547620D02*
X81419047Y2595239D01*
X81466666Y2690477D01*
X81466666Y3547620D01*
X80942857Y2547620D02*
X80942857Y3547620D01*
X80514285Y2547620D02*
X80514285Y3071429D01*
X80561904Y3166667D01*
X80657142Y3214286D01*
X80800000Y3214286D01*
X80895238Y3166667D01*
X80942857Y3119048D01*
X79895238Y2547620D02*
X79990476Y2595239D01*
X80038095Y2642858D01*
X80085714Y2738096D01*
X80085714Y3023810D01*
X80038095Y3119048D01*
X79990476Y3166667D01*
X79895238Y3214286D01*
X79752380Y3214286D01*
X79657142Y3166667D01*
X79609523Y3119048D01*
X79561904Y3023810D01*
X79561904Y2738096D01*
X79609523Y2642858D01*
X79657142Y2595239D01*
X79752380Y2547620D01*
X79895238Y2547620D01*
X79276190Y3214286D02*
X78895238Y3214286D01*
X79133333Y2547620D02*
X79133333Y3404762D01*
X79085714Y3500000D01*
X78990476Y3547620D01*
X78895238Y3547620D01*
X78180952Y2595239D02*
X78276190Y2547620D01*
X78466666Y2547620D01*
X78561904Y2595239D01*
X78609523Y2690477D01*
X78609523Y3071429D01*
X78561904Y3166667D01*
X78466666Y3214286D01*
X78276190Y3214286D01*
X78180952Y3166667D01*
X78133333Y3071429D01*
X78133333Y2976191D01*
X78609523Y2880953D01*
X77704761Y2547620D02*
X77704761Y3214286D01*
X77704761Y3023810D02*
X77657142Y3119048D01*
X77609523Y3166667D01*
X77514285Y3214286D01*
X77419047Y3214286D01*
X75942857Y2595239D02*
X76038095Y2547620D01*
X76228571Y2547620D01*
X76323809Y2595239D01*
X76371428Y2690477D01*
X76371428Y3071429D01*
X76323809Y3166667D01*
X76228571Y3214286D01*
X76038095Y3214286D01*
X75942857Y3166667D01*
X75895238Y3071429D01*
X75895238Y2976191D01*
X76371428Y2880953D01*
X75609523Y3214286D02*
X75228571Y3214286D01*
X75466666Y3547620D02*
X75466666Y2690477D01*
X75419047Y2595239D01*
X75323809Y2547620D01*
X75228571Y2547620D01*
X73704761Y2547620D02*
X73704761Y3071429D01*
X73752380Y3166667D01*
X73847619Y3214286D01*
X74038095Y3214286D01*
X74133333Y3166667D01*
X73704761Y2595239D02*
X73800000Y2547620D01*
X74038095Y2547620D01*
X74133333Y2595239D01*
X74180952Y2690477D01*
X74180952Y2785715D01*
X74133333Y2880953D01*
X74038095Y2928572D01*
X73800000Y2928572D01*
X73704761Y2976191D01*
X73085714Y2547620D02*
X73180952Y2595239D01*
X73228571Y2690477D01*
X73228571Y3547620D01*
X72704761Y2642858D02*
X72657142Y2595239D01*
X72704761Y2547620D01*
X72752380Y2595239D01*
X72704761Y2642858D01*
X72704761Y2547620D01*
D10*
X69966666Y17805239D02*
X69966666Y19805239D01*
X69966666Y18852858D02*
X68823809Y18852858D01*
X68823809Y17805239D02*
X68823809Y19805239D01*
X68157142Y19805239D02*
X67014285Y19805239D01*
X67585714Y17805239D02*
X67585714Y19805239D01*
X65395238Y17805239D02*
X66347619Y17805239D01*
X66347619Y19805239D01*
X63300000Y17900477D02*
X63014285Y17805239D01*
X62538095Y17805239D01*
X62347619Y17900477D01*
X62252380Y17995715D01*
X62157142Y18186191D01*
X62157142Y18376667D01*
X62252380Y18567143D01*
X62347619Y18662381D01*
X62538095Y18757620D01*
X62919047Y18852858D01*
X63109523Y18948096D01*
X63204761Y19043334D01*
X63300000Y19233810D01*
X63300000Y19424286D01*
X63204761Y19614762D01*
X63109523Y19710000D01*
X62919047Y19805239D01*
X62442857Y19805239D01*
X62157142Y19710000D01*
X61585714Y19138572D02*
X60823809Y19138572D01*
X61300000Y19805239D02*
X61300000Y18090953D01*
X61204761Y17900477D01*
X61014285Y17805239D01*
X60823809Y17805239D01*
X59395238Y17900477D02*
X59585714Y17805239D01*
X59966666Y17805239D01*
X60157142Y17900477D01*
X60252380Y18090953D01*
X60252380Y18852858D01*
X60157142Y19043334D01*
X59966666Y19138572D01*
X59585714Y19138572D01*
X59395238Y19043334D01*
X59300000Y18852858D01*
X59300000Y18662381D01*
X60252380Y18471905D01*
X58633333Y19138572D02*
X58157142Y17805239D01*
X57680952Y19138572D02*
X58157142Y17805239D01*
X58347619Y17329048D01*
X58442857Y17233810D01*
X58633333Y17138572D01*
X56919047Y17805239D02*
X56919047Y19138572D01*
X56919047Y18757620D02*
X56823809Y18948096D01*
X56728571Y19043334D01*
X56538095Y19138572D01*
X56347619Y19138572D01*
X78680952Y14585239D02*
X79633333Y14585239D01*
X79633333Y16585239D01*
X77728571Y14585239D02*
X77919047Y14680477D01*
X78014285Y14775715D01*
X78109523Y14966191D01*
X78109523Y15537620D01*
X78014285Y15728096D01*
X77919047Y15823334D01*
X77728571Y15918572D01*
X77442857Y15918572D01*
X77252380Y15823334D01*
X77157142Y15728096D01*
X77061904Y15537620D01*
X77061904Y14966191D01*
X77157142Y14775715D01*
X77252380Y14680477D01*
X77442857Y14585239D01*
X77728571Y14585239D01*
X77919047Y16585239D02*
X77823809Y16490000D01*
X77919047Y16394762D01*
X78014285Y16490000D01*
X77919047Y16585239D01*
X77919047Y16394762D01*
X77157142Y16585239D02*
X77061904Y16490000D01*
X77157142Y16394762D01*
X77252380Y16490000D01*
X77157142Y16585239D01*
X77157142Y16394762D01*
X76490476Y15918572D02*
X75728571Y15918572D01*
X76204761Y16585239D02*
X76204761Y14870953D01*
X76109523Y14680477D01*
X75919047Y14585239D01*
X75728571Y14585239D01*
X75061904Y14585239D02*
X75061904Y15918572D01*
X75061904Y15537620D02*
X74966666Y15728096D01*
X74871428Y15823334D01*
X74680952Y15918572D01*
X74490476Y15918572D01*
X73061904Y14680477D02*
X73252380Y14585239D01*
X73633333Y14585239D01*
X73823809Y14680477D01*
X73919047Y14870953D01*
X73919047Y15632858D01*
X73823809Y15823334D01*
X73633333Y15918572D01*
X73252380Y15918572D01*
X73061904Y15823334D01*
X72966666Y15632858D01*
X72966666Y15442381D01*
X73919047Y15251905D01*
X71252380Y15918572D02*
X71252380Y14299524D01*
X71347619Y14109048D01*
X71442857Y14013810D01*
X71633333Y13918572D01*
X71919047Y13918572D01*
X72109523Y14013810D01*
X71252380Y14680477D02*
X71442857Y14585239D01*
X71823809Y14585239D01*
X72014285Y14680477D01*
X72109523Y14775715D01*
X72204761Y14966191D01*
X72204761Y15537620D01*
X72109523Y15728096D01*
X72014285Y15823334D01*
X71823809Y15918572D01*
X71442857Y15918572D01*
X71252380Y15823334D01*
X70014285Y14585239D02*
X70204761Y14680477D01*
X70300000Y14870953D01*
X70300000Y16585239D01*
X68490476Y14680477D02*
X68680952Y14585239D01*
X69061904Y14585239D01*
X69252380Y14680477D01*
X69347619Y14870953D01*
X69347619Y15632858D01*
X69252380Y15823334D01*
X69061904Y15918572D01*
X68680952Y15918572D01*
X68490476Y15823334D01*
X68395238Y15632858D01*
X68395238Y15442381D01*
X69347619Y15251905D01*
X67538095Y14585239D02*
X67538095Y15918572D01*
X67538095Y15537620D02*
X67442857Y15728096D01*
X67347619Y15823334D01*
X67157142Y15918572D01*
X66966666Y15918572D01*
X64776190Y14585239D02*
X64776190Y16585239D01*
X64109523Y15156667D01*
X63442857Y16585239D01*
X63442857Y14585239D01*
X62490476Y14585239D02*
X62490476Y15918572D01*
X62490476Y16585239D02*
X62585714Y16490000D01*
X62490476Y16394762D01*
X62395238Y16490000D01*
X62490476Y16585239D01*
X62490476Y16394762D01*
X61538095Y15918572D02*
X61538095Y14585239D01*
X61538095Y15728096D02*
X61442857Y15823334D01*
X61252380Y15918572D01*
X60966666Y15918572D01*
X60776190Y15823334D01*
X60680952Y15632858D01*
X60680952Y14585239D01*
X59728571Y14585239D02*
X59728571Y15918572D01*
X59728571Y16585239D02*
X59823809Y16490000D01*
X59728571Y16394762D01*
X59633333Y16490000D01*
X59728571Y16585239D01*
X59728571Y16394762D01*
X57538095Y16585239D02*
X56871428Y14585239D01*
X56204761Y16585239D01*
X55633333Y16394762D02*
X55538095Y16490000D01*
X55347619Y16585239D01*
X54871428Y16585239D01*
X54680952Y16490000D01*
X54585714Y16394762D01*
X54490476Y16204286D01*
X54490476Y16013810D01*
X54585714Y15728096D01*
X55728571Y14585239D01*
X54490476Y14585239D01*
X53728571Y16394762D02*
X53633333Y16490000D01*
X53442857Y16585239D01*
X52966666Y16585239D01*
X52776190Y16490000D01*
X52680952Y16394762D01*
X52585714Y16204286D01*
X52585714Y16013810D01*
X52680952Y15728096D01*
X53823809Y14585239D01*
X52585714Y14585239D01*
X51728571Y14775715D02*
X51633333Y14680477D01*
X51728571Y14585239D01*
X51823809Y14680477D01*
X51728571Y14775715D01*
X51728571Y14585239D01*
X50395238Y16585239D02*
X50204761Y16585239D01*
X50014285Y16490000D01*
X49919047Y16394762D01*
X49823809Y16204286D01*
X49728571Y15823334D01*
X49728571Y15347143D01*
X49823809Y14966191D01*
X49919047Y14775715D01*
X50014285Y14680477D01*
X50204761Y14585239D01*
X50395238Y14585239D01*
X50585714Y14680477D01*
X50680952Y14775715D01*
X50776190Y14966191D01*
X50871428Y15347143D01*
X50871428Y15823334D01*
X50776190Y16204286D01*
X50680952Y16394762D01*
X50585714Y16490000D01*
X50395238Y16585239D01*
X48871428Y14775715D02*
X48776190Y14680477D01*
X48871428Y14585239D01*
X48966666Y14680477D01*
X48871428Y14775715D01*
X48871428Y14585239D01*
X47538095Y16585239D02*
X47347619Y16585239D01*
X47157142Y16490000D01*
X47061904Y16394762D01*
X46966666Y16204286D01*
X46871428Y15823334D01*
X46871428Y15347143D01*
X46966666Y14966191D01*
X47061904Y14775715D01*
X47157142Y14680477D01*
X47347619Y14585239D01*
X47538095Y14585239D01*
X47728571Y14680477D01*
X47823809Y14775715D01*
X47919047Y14966191D01*
X48014285Y15347143D01*
X48014285Y15823334D01*
X47919047Y16204286D01*
X47823809Y16394762D01*
X47728571Y16490000D01*
X47538095Y16585239D01*
D11*
X91895238Y2547620D02*
X91895238Y3547620D01*
X91514285Y3547620D01*
X91419047Y3500000D01*
X91371428Y3452381D01*
X91323809Y3357143D01*
X91323809Y3214286D01*
X91371428Y3119048D01*
X91419047Y3071429D01*
X91514285Y3023810D01*
X91895238Y3023810D01*
X90895238Y2547620D02*
X90895238Y3214286D01*
X90895238Y3023810D02*
X90847619Y3119048D01*
X90800000Y3166667D01*
X90704761Y3214286D01*
X90609523Y3214286D01*
X90133333Y2547620D02*
X90228571Y2595239D01*
X90276190Y2642858D01*
X90323809Y2738096D01*
X90323809Y3023810D01*
X90276190Y3119048D01*
X90228571Y3166667D01*
X90133333Y3214286D01*
X89990476Y3214286D01*
X89895238Y3166667D01*
X89847619Y3119048D01*
X89800000Y3023810D01*
X89800000Y2738096D01*
X89847619Y2642858D01*
X89895238Y2595239D01*
X89990476Y2547620D01*
X90133333Y2547620D01*
X89514285Y3214286D02*
X89133333Y3214286D01*
X89371428Y2547620D02*
X89371428Y3404762D01*
X89323809Y3500000D01*
X89228571Y3547620D01*
X89133333Y3547620D01*
X88800000Y2642858D02*
X88752380Y2595239D01*
X88800000Y2547620D01*
X88847619Y2595239D01*
X88800000Y2642858D01*
X88800000Y2547620D01*
X87561904Y2547620D02*
X87561904Y3547620D01*
X86990476Y2547620D02*
X87419047Y3119048D01*
X86990476Y3547620D02*
X87561904Y2976191D01*
X86133333Y2547620D02*
X86133333Y3071429D01*
X86180952Y3166667D01*
X86276190Y3214286D01*
X86466666Y3214286D01*
X86561904Y3166667D01*
X86133333Y2595239D02*
X86228571Y2547620D01*
X86466666Y2547620D01*
X86561904Y2595239D01*
X86609523Y2690477D01*
X86609523Y2785715D01*
X86561904Y2880953D01*
X86466666Y2928572D01*
X86228571Y2928572D01*
X86133333Y2976191D01*
X85657142Y2547620D02*
X85657142Y3214286D01*
X85657142Y3023810D02*
X85609523Y3119048D01*
X85561904Y3166667D01*
X85466666Y3214286D01*
X85371428Y3214286D01*
X84895238Y2547620D02*
X84990476Y2595239D01*
X85038095Y2690477D01*
X85038095Y3547620D01*
X83847619Y3547620D02*
X83180952Y3547620D01*
X83847619Y2547620D01*
X83180952Y2547620D01*
X82419047Y2595239D02*
X82514285Y2547620D01*
X82704761Y2547620D01*
X82800000Y2595239D01*
X82847619Y2690477D01*
X82847619Y3071429D01*
X82800000Y3166667D01*
X82704761Y3214286D01*
X82514285Y3214286D01*
X82419047Y3166667D01*
X82371428Y3071429D01*
X82371428Y2976191D01*
X82847619Y2880953D01*
X81942857Y2547620D02*
X81942857Y3214286D01*
X81942857Y3547620D02*
X81990476Y3500000D01*
X81942857Y3452381D01*
X81895238Y3500000D01*
X81942857Y3547620D01*
X81942857Y3452381D01*
X81323809Y2547620D02*
X81419047Y2595239D01*
X81466666Y2690477D01*
X81466666Y3547620D01*
X80942857Y2547620D02*
X80942857Y3547620D01*
X80514285Y2547620D02*
X80514285Y3071429D01*
X80561904Y3166667D01*
X80657142Y3214286D01*
X80800000Y3214286D01*
X80895238Y3166667D01*
X80942857Y3119048D01*
X79895238Y2547620D02*
X79990476Y2595239D01*
X80038095Y2642858D01*
X80085714Y2738096D01*
X80085714Y3023810D01*
X80038095Y3119048D01*
X79990476Y3166667D01*
X79895238Y3214286D01*
X79752380Y3214286D01*
X79657142Y3166667D01*
X79609523Y3119048D01*
X79561904Y3023810D01*
X79561904Y2738096D01*
X79609523Y2642858D01*
X79657142Y2595239D01*
X79752380Y2547620D01*
X79895238Y2547620D01*
X79276190Y3214286D02*
X78895238Y3214286D01*
X79133333Y2547620D02*
X79133333Y3404762D01*
X79085714Y3500000D01*
X78990476Y3547620D01*
X78895238Y3547620D01*
X78180952Y2595239D02*
X78276190Y2547620D01*
X78466666Y2547620D01*
X78561904Y2595239D01*
X78609523Y2690477D01*
X78609523Y3071429D01*
X78561904Y3166667D01*
X78466666Y3214286D01*
X78276190Y3214286D01*
X78180952Y3166667D01*
X78133333Y3071429D01*
X78133333Y2976191D01*
X78609523Y2880953D01*
X77704761Y2547620D02*
X77704761Y3214286D01*
X77704761Y3023810D02*
X77657142Y3119048D01*
X77609523Y3166667D01*
X77514285Y3214286D01*
X77419047Y3214286D01*
X75942857Y2595239D02*
X76038095Y2547620D01*
X76228571Y2547620D01*
X76323809Y2595239D01*
X76371428Y2690477D01*
X76371428Y3071429D01*
X76323809Y3166667D01*
X76228571Y3214286D01*
X76038095Y3214286D01*
X75942857Y3166667D01*
X75895238Y3071429D01*
X75895238Y2976191D01*
X76371428Y2880953D01*
X75609523Y3214286D02*
X75228571Y3214286D01*
X75466666Y3547620D02*
X75466666Y2690477D01*
X75419047Y2595239D01*
X75323809Y2547620D01*
X75228571Y2547620D01*
X73704761Y2547620D02*
X73704761Y3071429D01*
X73752380Y3166667D01*
X73847619Y3214286D01*
X74038095Y3214286D01*
X74133333Y3166667D01*
X73704761Y2595239D02*
X73800000Y2547620D01*
X74038095Y2547620D01*
X74133333Y2595239D01*
X74180952Y2690477D01*
X74180952Y2785715D01*
X74133333Y2880953D01*
X74038095Y2928572D01*
X73800000Y2928572D01*
X73704761Y2976191D01*
X73085714Y2547620D02*
X73180952Y2595239D01*
X73228571Y2690477D01*
X73228571Y3547620D01*
X72704761Y2642858D02*
X72657142Y2595239D01*
X72704761Y2547620D01*
X72752380Y2595239D01*
X72704761Y2642858D01*
X72704761Y2547620D01*
D12*
%TO.C,F1*%
X44000000Y15000000D03*
X38700000Y15000000D03*
X28300000Y15000000D03*
X23000000Y15000000D03*
%TD*%
D13*
%TO.C,X2*%
X40000000Y83000000D03*
X47620000Y83000000D03*
X47620000Y88080000D03*
X40000000Y88080000D03*
X40000000Y93160000D03*
X47620000Y93160000D03*
%TD*%
%TO.C,X1*%
X61620000Y62000000D03*
X54000000Y62000000D03*
X54000000Y67080000D03*
X61620000Y67080000D03*
X54000000Y72160000D03*
X61620000Y72160000D03*
%TD*%
D14*
%TO.C,U1*%
X4700000Y84200000D03*
D15*
X4700000Y86740000D03*
X4700000Y89280000D03*
X4700000Y91820000D03*
%TD*%
D16*
%TO.C,X3*%
X16000000Y5000000D03*
X16000000Y12620000D03*
X10920000Y5000000D03*
X10920000Y12620000D03*
X5840000Y12620000D03*
X5840000Y5000000D03*
%TD*%
D17*
%TO.C,U6*%
X85725000Y97000000D03*
D18*
X85425000Y93970000D03*
X80575000Y93970000D03*
D17*
X80275000Y97000000D03*
%TD*%
D19*
%TO.C,J9*%
X103573500Y38606000D03*
D20*
X106113500Y38606000D03*
X103573500Y36066000D03*
X106113500Y36066000D03*
X103573500Y33526000D03*
X106113500Y33526000D03*
X103573500Y30986000D03*
X106113500Y30986000D03*
X103573500Y28446000D03*
X106113500Y28446000D03*
%TD*%
D21*
%TO.C,J2*%
X49080000Y56000000D03*
X44000000Y56000000D03*
%TD*%
%TO.C,J4*%
X10500000Y30500000D03*
X15580000Y30500000D03*
%TD*%
%TO.C,J3*%
X21500000Y30500000D03*
X26580000Y30500000D03*
%TD*%
%TO.C,J5*%
X21500000Y69500000D03*
X26580000Y69500000D03*
%TD*%
%TO.C,J1*%
X42500000Y62000000D03*
X47580000Y62000000D03*
%TD*%
%TO.C,J6*%
X15500000Y69500000D03*
X10420000Y69500000D03*
%TD*%
%TO.C,J8*%
X49000000Y38000000D03*
X43920000Y38000000D03*
%TD*%
%TO.C,J7*%
X42420000Y44000000D03*
X47500000Y44000000D03*
%TD*%
M02*
