M48
; DRILL file {KiCad 5.1.10-88a1d61d58~88~ubuntu20.04.1} date Tue Jun  1 08:53:36 2021
; FORMAT={-:-/ absolute / metric / decimal}
; #@! TF.CreationDate,2021-06-01T08:53:36+02:00
; #@! TF.GenerationSoftware,Kicad,Pcbnew,5.1.10-88a1d61d58~88~ubuntu20.04.1
; #@! TF.FileFunction,Plated,1,2,PTH
FMAT,2
METRIC
T1C0.300
T2C0.400
T3C0.500
T4C0.762
T5C0.950
T6C1.000
T7C1.300
T8C1.400
T9C2.300
%
G90
G05
T1
X92.0Y-84.75
X92.25Y-64.25
X92.25Y-120.75
X92.5Y-94.75
X93.0Y-98.4
X93.1Y-55.0
X93.4Y-110.4
X94.0Y-79.1
X94.8Y-79.9
X95.4Y-67.4
X95.7Y-77.3
X95.8Y-80.8
X96.0Y-120.75
X96.5Y-83.0
X96.7Y-78.0
X97.0Y-96.2
X97.0Y-110.0
X97.6Y-79.1
X98.4Y-54.4
X98.6Y-61.1
X99.0Y-70.0
X99.1Y-80.0
X99.25Y-109.25
X101.1Y-45.6
X103.4Y-62.2
X104.4Y-55.4
X104.4Y-85.6
X105.0Y-80.0
X105.6Y-70.0
X105.9Y-62.2
X106.0Y-101.75
X106.0Y-121.0
X107.0Y-108.75
X107.3Y-96.3
X107.4Y-51.8
X107.75Y-104.0
X107.9Y-69.8
X109.1Y-84.0
X109.9Y-61.9
X110.1Y-59.7
X110.1Y-56.8
X110.5Y-89.0
X110.5Y-108.3
X110.6Y-92.4
X110.633Y-96.134
X111.6Y-93.6
X111.7Y-45.6
X112.4Y-97.4
X113.0Y-62.1
X113.8Y-95.8
X113.8Y-104.0
X114.0Y-94.2
X115.6Y-61.7
X116.7Y-98.5
X117.3Y-95.8
X119.9Y-52.0
X120.9Y-61.7
X120.9Y-84.1
X122.5Y-55.4
X123.2Y-58.0
X123.5Y-61.4
X123.6Y-56.0
X124.0Y-65.7
X124.3Y-57.1
X124.5Y-106.1
X124.9Y-67.6
X125.0Y-45.6
X125.0Y-65.0
X125.1Y-66.275
X125.6Y-58.3
X125.7Y-102.0
X125.795Y-56.205
X127.7Y-66.275
X127.7Y-67.6
X127.8Y-65.0
X128.511Y-65.411
X128.8Y-62.8
X129.6Y-101.1
X129.7Y-54.8
X132.2Y-66.5
X136.0Y-57.7
X137.3Y-45.9
X137.6Y-65.6
X137.8Y-55.0
X138.9Y-141.9
X140.2Y-119.0
X141.0Y-129.7
X141.6Y-141.9
X141.9Y-55.3
X142.1Y-44.3
X142.1Y-87.4
X145.1Y-87.8
X145.5Y-138.5
X146.9Y-130.5
X147.65Y-121.85
X148.25Y-132.0
X148.3Y-88.0
X149.0Y-55.4
X149.7Y-130.7
X150.7Y-115.65
X150.735Y-114.385
X150.9Y-90.0
X151.7Y-44.2
X152.482Y-59.525
X152.5Y-61.075
X152.6Y-88.4
X152.7Y-63.425
X154.0Y-60.25
X154.8Y-60.7
X155.2Y-130.8
X155.4Y-134.9
X156.5Y-59.4
X156.8Y-142.0
X157.961Y-64.544
X158.0Y-138.5
X158.14Y-67.148
X158.141Y-66.398
X158.261Y-65.657
X158.3Y-59.8
X158.314Y-67.877
X158.4Y-69.3
X158.9Y-120.25
X159.3Y-90.2
X159.5Y-97.1
X160.1Y-96.5
X160.443Y-101.892
X161.35Y-88.589
X161.4Y-103.3
X161.9Y-100.4
X161.9Y-113.5
X162.2Y-103.4
X163.0Y-64.5
X163.275Y-66.6
X163.275Y-67.8
X163.293Y-100.893
X163.419Y-62.781
X163.8Y-69.3
X164.0Y-100.151
X164.0Y-51.7
X164.3Y-64.6
X164.775Y-67.525
X165.4Y-72.5
X165.4Y-78.0
X165.4Y-107.9
X165.5Y-83.7
X165.6Y-68.1
X165.9Y-44.0
X166.5Y-106.4
X166.6Y-94.2
X166.707Y-101.793
X166.9Y-103.5
X167.575Y-101.425
X168.0Y-64.0
X168.2Y-76.5
X168.348Y-69.477
X169.0Y-115.2
X169.3Y-107.9
X169.45Y-132.55
X170.3Y-84.9
X170.65Y-132.55
X170.9Y-73.5
X171.4Y-96.9
X171.45Y-123.15
X171.7Y-106.2
X171.9Y-80.3
X171.9Y-117.4
X172.6Y-81.0
X172.8Y-62.0
X173.2Y-98.9
X173.2Y-120.3
X173.7Y-100.4
X173.8Y-103.4
X173.8Y-110.2
X173.9Y-101.5
X174.0Y-102.5
X174.1Y-79.0
X174.2Y-77.7
X174.6Y-123.0
X175.4Y-104.1
X175.6Y-72.0
X175.75Y-121.0
X175.8Y-100.7
X175.8Y-115.1
X175.9Y-44.3
X176.1Y-74.8
X176.25Y-116.5
X176.4Y-61.9
X177.0Y-86.3
X177.0Y-135.55
X177.1Y-53.6
X177.2Y-98.8
X177.3Y-66.5
X177.8Y-79.3
X178.368Y-84.932
X178.7Y-60.4
X178.7Y-82.7
X179.4Y-64.4
X179.6Y-95.2
X179.7Y-105.7
X180.6Y-81.2
X180.6Y-110.8
X180.7Y-85.0
X181.1Y-116.4
X181.2Y-77.6
X181.2Y-87.4
X181.4Y-83.8
X182.1Y-67.3
X183.0Y-63.5
X183.5Y-60.7
X183.9Y-74.9
X183.9Y-85.4
X184.5Y-122.6
X185.3Y-84.3
X185.4Y-96.0
X185.5Y-127.8
X185.5Y-131.8
X185.7Y-107.6
X186.4Y-66.5
X186.4Y-93.0
X186.7Y-72.0
X187.1Y-84.8
X187.1Y-90.1
X187.3Y-133.8
X187.5Y-139.5
X187.6Y-130.0
X187.9Y-111.8
X188.3Y-93.0
X188.6Y-70.8
X188.9Y-63.2
X188.9Y-137.0
X189.1Y-66.5
X189.9Y-141.7
X190.2Y-86.8
X190.5Y-117.1
X190.6Y-97.9
X190.604Y-140.209
X190.7Y-100.2
X190.9Y-49.7
X191.3Y-69.0
X191.4Y-132.9
X192.0Y-139.2
X192.3Y-120.4
X192.4Y-114.1
X192.7Y-122.5
X193.1Y-117.2
X193.5Y-73.4
X193.7Y-58.2
X193.9Y-121.0
X194.3Y-133.1
X196.1Y-93.3
X196.4Y-133.9
X196.7Y-141.1
X196.9Y-44.3
X196.9Y-79.1
X197.0Y-121.4
X197.0Y-127.25
X197.1Y-62.3
X197.3Y-117.6
X198.6Y-111.7
X199.4Y-49.2
X199.5Y-55.1
X199.5Y-66.6
X199.5Y-98.3
X199.6Y-90.8
X199.8Y-79.1
X199.9Y-115.6
X199.9Y-118.3
X199.9Y-136.4
T2
X95.75Y-60.5
X96.5Y-91.5
X100.0Y-102.0
X108.0Y-80.0
X109.75Y-102.0
X119.4Y-115.5
X120.0Y-91.5
X121.3Y-113.0
X124.75Y-63.25
X126.75Y-63.75
X128.0Y-97.25
X130.0Y-112.0
X130.0Y-113.0
X130.0Y-114.0
X142.4Y-49.2
X142.4Y-51.1
X142.5Y-96.7
X148.0Y-136.75
X149.25Y-90.0
X151.5Y-141.5
X153.7Y-100.0
X153.7Y-101.0
X153.7Y-101.0
X154.7Y-100.0
X155.2Y-137.5
X155.25Y-86.5
X159.2Y-57.3
X159.5Y-100.25
X159.7Y-50.4
X161.75Y-46.25
X162.25Y-118.75
X162.25Y-120.0
X163.4Y-61.2
X163.5Y-120.0
X164.75Y-120.0
X164.8Y-57.1
X165.5Y-88.75
X167.25Y-56.75
X167.75Y-89.5
X168.0Y-117.175
X169.25Y-113.15
X169.75Y-93.5
X171.5Y-113.25
X172.0Y-88.8
X172.25Y-58.75
X173.75Y-113.25
X174.2Y-88.8
X175.25Y-116.0
X175.25Y-118.5
X175.35Y-94.979
X176.0Y-113.25
X176.25Y-107.0
X176.5Y-88.8
X176.5Y-91.7
X177.075Y-95.25
X178.25Y-113.25
X178.75Y-67.25
X180.25Y-65.75
X180.75Y-69.75
X181.5Y-97.0
X181.5Y-102.2
X183.0Y-87.5
X183.0Y-111.1
X184.0Y-79.25
X184.8Y-141.4
X185.0Y-102.25
X185.75Y-79.25
X186.25Y-106.5
X186.5Y-113.5
X187.0Y-81.5
X187.0Y-96.25
X189.0Y-72.0
X189.5Y-105.3
X189.5Y-119.9
X190.4Y-76.2
X190.5Y-65.75
X193.0Y-104.25
X195.0Y-72.5
X195.0Y-121.7
X196.3Y-112.6
X196.3Y-113.9
X197.8Y-68.0
X198.4Y-104.3
X198.6Y-70.8
X199.5Y-82.0
X199.7Y-105.8
T3
X116.25Y-137.75
X116.25Y-138.75
X116.25Y-139.75
X116.25Y-140.75
X116.25Y-141.75
X117.25Y-137.75
X117.25Y-141.75
X118.25Y-137.75
X118.25Y-141.75
X119.25Y-137.75
X119.25Y-141.75
X120.0Y-136.25
X120.25Y-137.75
X120.25Y-138.75
X120.25Y-139.75
X120.25Y-140.75
X120.25Y-141.75
X126.75Y-141.25
X133.0Y-135.25
X134.255Y-140.405
X142.75Y-132.25
X142.75Y-134.5
X142.8Y-136.6
X143.25Y-140.25
X149.65Y-138.4
X151.2Y-135.5
X151.2Y-137.7
X151.263Y-132.625
T4
X95.7Y-51.18
X95.7Y-53.72
X95.7Y-56.26
X95.7Y-58.8
T5
X190.0Y-91.73
X190.0Y-94.23
X192.0Y-91.73
X192.0Y-94.23
T6
X189.46Y-124.92
X189.46Y-127.46
X189.46Y-130.0
X192.0Y-124.92
X192.0Y-127.46
X192.0Y-130.0
T7
X96.84Y-130.38
X96.84Y-138.0
X101.92Y-130.38
X101.92Y-138.0
X107.0Y-130.38
X107.0Y-138.0
X145.0Y-70.84
X145.0Y-75.92
X145.0Y-81.0
X152.62Y-70.84
X152.62Y-75.92
X152.62Y-81.0
X181.0Y-46.0
X181.0Y-53.62
X186.08Y-46.0
X186.08Y-53.62
X191.16Y-46.0
X191.16Y-53.62
T8
X101.5Y-73.5
X101.5Y-112.5
X106.58Y-73.5
X106.58Y-112.5
X112.5Y-73.5
X112.5Y-112.5
X114.0Y-128.0
X117.58Y-73.5
X117.58Y-112.5
X119.3Y-128.0
X129.7Y-128.0
X133.5Y-81.0
X133.5Y-87.0
X133.5Y-99.0
X133.5Y-105.0
X135.0Y-128.0
X138.58Y-81.0
X138.58Y-87.0
X138.58Y-99.0
X138.58Y-105.0
T9
X194.86Y-86.98
X194.86Y-98.98
T0
M30
