%TF.GenerationSoftware,KiCad,Pcbnew,6.0.7*%
%TF.CreationDate,2023-03-08T14:53:28+01:00*%
%TF.ProjectId,jbc-miniregler,6a62632d-6d69-46e6-9972-65676c65722e,22.0.0*%
%TF.SameCoordinates,PX56c8cc0PY88601c0*%
%TF.FileFunction,Soldermask,Top*%
%TF.FilePolarity,Negative*%
%FSLAX46Y46*%
G04 Gerber Fmt 4.6, Leading zero omitted, Abs format (unit mm)*
G04 Created by KiCad (PCBNEW 6.0.7) date 2023-03-08 14:53:28*
%MOMM*%
%LPD*%
G01*
G04 APERTURE LIST*
G04 Aperture macros list*
%AMRoundRect*
0 Rectangle with rounded corners*
0 $1 Rounding radius*
0 $2 $3 $4 $5 $6 $7 $8 $9 X,Y pos of 4 corners*
0 Add a 4 corners polygon primitive as box body*
4,1,4,$2,$3,$4,$5,$6,$7,$8,$9,$2,$3,0*
0 Add four circle primitives for the rounded corners*
1,1,$1+$1,$2,$3*
1,1,$1+$1,$4,$5*
1,1,$1+$1,$6,$7*
1,1,$1+$1,$8,$9*
0 Add four rect primitives between the rounded corners*
20,1,$1+$1,$2,$3,$4,$5,0*
20,1,$1+$1,$4,$5,$6,$7,0*
20,1,$1+$1,$6,$7,$8,$9,0*
20,1,$1+$1,$8,$9,$2,$3,0*%
%AMFreePoly0*
4,1,16,0.536062,0.786062,0.542435,0.778290,1.042435,0.028290,1.050010,-0.010002,1.042435,-0.028290,0.542435,-0.778290,0.510002,-0.800010,0.500000,-0.801000,-0.500000,-0.801000,-0.536062,-0.786062,-0.551000,-0.750000,-0.551000,0.750000,-0.536062,0.786062,-0.500000,0.801000,0.500000,0.801000,0.536062,0.786062,0.536062,0.786062,$1*%
G04 Aperture macros list end*
%ADD10RoundRect,0.300999X-0.650001X0.325001X-0.650001X-0.325001X0.650001X-0.325001X0.650001X0.325001X0*%
%ADD11RoundRect,0.300999X0.325001X0.650001X-0.325001X0.650001X-0.325001X-0.650001X0.325001X-0.650001X0*%
%ADD12RoundRect,0.300999X-0.325001X-0.650001X0.325001X-0.650001X0.325001X0.650001X-0.325001X0.650001X0*%
%ADD13RoundRect,0.300999X0.650001X-0.325001X0.650001X0.325001X-0.650001X0.325001X-0.650001X-0.325001X0*%
%ADD14RoundRect,0.301000X-1.500000X-1.000000X1.500000X-1.000000X1.500000X1.000000X-1.500000X1.000000X0*%
%ADD15RoundRect,0.301000X-0.625000X0.375000X-0.625000X-0.375000X0.625000X-0.375000X0.625000X0.375000X0*%
%ADD16RoundRect,0.051000X0.400000X-0.450000X0.400000X0.450000X-0.400000X0.450000X-0.400000X-0.450000X0*%
%ADD17RoundRect,0.051000X-1.250000X1.650000X-1.250000X-1.650000X1.250000X-1.650000X1.250000X1.650000X0*%
%ADD18RoundRect,0.051000X-1.250000X-0.900000X1.250000X-0.900000X1.250000X0.900000X-1.250000X0.900000X0*%
%ADD19C,4.102000*%
%ADD20C,0.602000*%
%ADD21O,4.002000X2.702000*%
%ADD22RoundRect,0.051000X-1.100000X-0.600000X1.100000X-0.600000X1.100000X0.600000X-1.100000X0.600000X0*%
%ADD23RoundRect,0.051000X-3.200000X-2.900000X3.200000X-2.900000X3.200000X2.900000X-3.200000X2.900000X0*%
%ADD24RoundRect,0.051000X-0.450000X-0.400000X0.450000X-0.400000X0.450000X0.400000X-0.450000X0.400000X0*%
%ADD25RoundRect,0.300997X-0.625003X0.312503X-0.625003X-0.312503X0.625003X-0.312503X0.625003X0.312503X0*%
%ADD26RoundRect,0.300997X-0.312503X-0.625003X0.312503X-0.625003X0.312503X0.625003X-0.312503X0.625003X0*%
%ADD27RoundRect,0.300997X0.625003X-0.312503X0.625003X0.312503X-0.625003X0.312503X-0.625003X-0.312503X0*%
%ADD28RoundRect,1.051000X-1.700000X-1.000000X1.700000X-1.000000X1.700000X1.000000X-1.700000X1.000000X0*%
%ADD29RoundRect,0.226000X-2.525000X-0.175000X2.525000X-0.175000X2.525000X0.175000X-2.525000X0.175000X0*%
%ADD30RoundRect,0.300997X0.312503X0.625003X-0.312503X0.625003X-0.312503X-0.625003X0.312503X-0.625003X0*%
%ADD31RoundRect,0.051000X-0.500000X-0.375000X0.500000X-0.375000X0.500000X0.375000X-0.500000X0.375000X0*%
%ADD32RoundRect,0.201000X0.150000X-0.825000X0.150000X0.825000X-0.150000X0.825000X-0.150000X-0.825000X0*%
%ADD33RoundRect,0.201000X0.825000X0.150000X-0.825000X0.150000X-0.825000X-0.150000X0.825000X-0.150000X0*%
%ADD34RoundRect,0.201000X-0.662500X-0.150000X0.662500X-0.150000X0.662500X0.150000X-0.662500X0.150000X0*%
%ADD35RoundRect,0.051000X-1.150000X-1.600000X1.150000X-1.600000X1.150000X1.600000X-1.150000X1.600000X0*%
%ADD36RoundRect,0.201000X0.150000X-0.662500X0.150000X0.662500X-0.150000X0.662500X-0.150000X-0.662500X0*%
%ADD37RoundRect,0.051000X1.600000X-1.150000X1.600000X1.150000X-1.600000X1.150000X-1.600000X-1.150000X0*%
%ADD38RoundRect,0.301000X-1.500000X-0.550000X1.500000X-0.550000X1.500000X0.550000X-1.500000X0.550000X0*%
%ADD39RoundRect,0.551000X-3.000000X1.500000X-3.000000X-1.500000X3.000000X-1.500000X3.000000X1.500000X0*%
%ADD40RoundRect,0.301000X3.750000X-0.250000X3.750000X0.250000X-3.750000X0.250000X-3.750000X-0.250000X0*%
%ADD41RoundRect,0.301000X-3.750000X0.250000X-3.750000X-0.250000X3.750000X-0.250000X3.750000X0.250000X0*%
%ADD42RoundRect,0.051000X-0.762000X-0.762000X0.762000X-0.762000X0.762000X0.762000X-0.762000X0.762000X0*%
%ADD43C,1.626000*%
%ADD44O,2.702000X4.002000*%
%ADD45RoundRect,0.676000X0.117030X-1.505840X1.057586X1.078315X-0.117030X1.505840X-1.057586X-1.078315X0*%
%ADD46R,1.500000X1.500000*%
%ADD47FreePoly0,180.000000*%
%ADD48FreePoly0,0.000000*%
%ADD49RoundRect,0.051000X-0.900000X1.250000X-0.900000X-1.250000X0.900000X-1.250000X0.900000X1.250000X0*%
%ADD50RoundRect,0.301000X0.625000X-0.312500X0.625000X0.312500X-0.625000X0.312500X-0.625000X-0.312500X0*%
%ADD51RoundRect,0.301000X-0.312500X-0.625000X0.312500X-0.625000X0.312500X0.625000X-0.312500X0.625000X0*%
%ADD52RoundRect,0.301000X0.325000X0.650000X-0.325000X0.650000X-0.325000X-0.650000X0.325000X-0.650000X0*%
%ADD53RoundRect,0.301000X0.650000X-0.325000X0.650000X0.325000X-0.650000X0.325000X-0.650000X-0.325000X0*%
%ADD54O,1.902000X1.902000*%
%ADD55O,1.602000X1.602000*%
%ADD56RoundRect,0.051000X-1.750000X-0.850000X1.750000X-0.850000X1.750000X0.850000X-1.750000X0.850000X0*%
%ADD57RoundRect,0.051000X0.850000X-1.750000X0.850000X1.750000X-0.850000X1.750000X-0.850000X-1.750000X0*%
%ADD58RoundRect,0.301000X-0.625000X0.312500X-0.625000X-0.312500X0.625000X-0.312500X0.625000X0.312500X0*%
%ADD59FreePoly0,270.000000*%
%ADD60FreePoly0,90.000000*%
%ADD61RoundRect,0.201000X0.150000X-0.587500X0.150000X0.587500X-0.150000X0.587500X-0.150000X-0.587500X0*%
%ADD62RoundRect,0.201000X-0.825000X-0.150000X0.825000X-0.150000X0.825000X0.150000X-0.825000X0.150000X0*%
%ADD63RoundRect,0.301000X0.312500X0.625000X-0.312500X0.625000X-0.312500X-0.625000X0.312500X-0.625000X0*%
%ADD64RoundRect,0.551000X-1.500000X-3.000000X1.500000X-3.000000X1.500000X3.000000X-1.500000X3.000000X0*%
%ADD65RoundRect,0.051000X0.900000X-1.250000X0.900000X1.250000X-0.900000X1.250000X-0.900000X-1.250000X0*%
%ADD66RoundRect,0.301000X0.550000X-1.500000X0.550000X1.500000X-0.550000X1.500000X-0.550000X-1.500000X0*%
%ADD67RoundRect,0.301000X-0.650000X0.325000X-0.650000X-0.325000X0.650000X-0.325000X0.650000X0.325000X0*%
%ADD68RoundRect,0.301000X-0.325000X-0.650000X0.325000X-0.650000X0.325000X0.650000X-0.325000X0.650000X0*%
%ADD69RoundRect,0.301000X-0.600000X-0.600000X0.600000X-0.600000X0.600000X0.600000X-0.600000X0.600000X0*%
%ADD70C,1.802000*%
%ADD71O,2.702000X2.402000*%
G04 APERTURE END LIST*
D10*
%TO.C,C1*%
X18750000Y63475000D03*
X18750000Y60525000D03*
%TD*%
%TO.C,C2*%
X18750000Y39475000D03*
X18750000Y36525000D03*
%TD*%
%TO.C,C4*%
X7000000Y51475000D03*
X7000000Y48525000D03*
%TD*%
D11*
%TO.C,C26*%
X5225000Y19500000D03*
X2275000Y19500000D03*
%TD*%
D10*
%TO.C,C27*%
X1750000Y41725000D03*
X1750000Y38775000D03*
%TD*%
D12*
%TO.C,C23*%
X55775000Y6250000D03*
X58725000Y6250000D03*
%TD*%
D13*
%TO.C,C24*%
X42000000Y3775000D03*
X42000000Y6725000D03*
%TD*%
%TO.C,C5*%
X45250000Y69025000D03*
X45250000Y71975000D03*
%TD*%
D12*
%TO.C,C6*%
X52775000Y50250000D03*
X55725000Y50250000D03*
%TD*%
%TO.C,C7*%
X97025000Y73500000D03*
X99975000Y73500000D03*
%TD*%
D14*
%TO.C,C9*%
X57500000Y39000000D03*
X64000000Y39000000D03*
%TD*%
D12*
%TO.C,C10*%
X53775000Y19750000D03*
X56725000Y19750000D03*
%TD*%
D13*
%TO.C,C12*%
X73750000Y10775000D03*
X73750000Y13725000D03*
%TD*%
D15*
%TO.C,D1*%
X67750000Y96900000D03*
X67750000Y94100000D03*
%TD*%
D16*
%TO.C,D14*%
X7050000Y18750000D03*
X8950000Y18750000D03*
X8000000Y20750000D03*
%TD*%
D17*
%TO.C,D2*%
X45144000Y21918200D03*
X38344000Y21918200D03*
%TD*%
D16*
%TO.C,D3*%
X23300000Y78500000D03*
X25200000Y78500000D03*
X24250000Y80500000D03*
%TD*%
D18*
%TO.C,D4*%
X59500000Y24250000D03*
X63500000Y24250000D03*
%TD*%
D15*
%TO.C,D5*%
X106000000Y14400000D03*
X106000000Y11600000D03*
%TD*%
D18*
%TO.C,D8*%
X73000000Y32000000D03*
X77000000Y32000000D03*
%TD*%
D19*
%TO.C,F1*%
X44000000Y15000000D03*
X38700000Y15000000D03*
X28300000Y15000000D03*
X23000000Y15000000D03*
%TD*%
D20*
%TO.C,FID1*%
X4500000Y97250000D03*
%TD*%
%TO.C,FID2*%
X108750000Y8000000D03*
%TD*%
D21*
%TO.C,X2*%
X40000000Y83000000D03*
X47620000Y83000000D03*
X47620000Y88080000D03*
X40000000Y88080000D03*
X40000000Y93160000D03*
X47620000Y93160000D03*
%TD*%
D22*
%TO.C,Q5*%
X27300000Y7780000D03*
D23*
X33600000Y5500000D03*
D22*
X27300000Y3220000D03*
%TD*%
D24*
%TO.C,Q1*%
X16000000Y79180000D03*
X16000000Y77280000D03*
X18000000Y78230000D03*
%TD*%
%TO.C,Q2*%
X27000000Y80450000D03*
X27000000Y78550000D03*
X29000000Y79500000D03*
%TD*%
%TO.C,Q3*%
X30750000Y80450000D03*
X30750000Y78550000D03*
X32750000Y79500000D03*
%TD*%
D25*
%TO.C,R1*%
X29250000Y63462500D03*
X29250000Y60537500D03*
%TD*%
%TO.C,R2*%
X29250000Y39462500D03*
X29250000Y36537500D03*
%TD*%
D26*
%TO.C,R3*%
X35787500Y45750000D03*
X38712500Y45750000D03*
%TD*%
D25*
%TO.C,R4*%
X17000000Y51462500D03*
X17000000Y48537500D03*
%TD*%
D27*
%TO.C,R5*%
X67750000Y87537500D03*
X67750000Y90462500D03*
%TD*%
D26*
%TO.C,R49*%
X10787500Y19500000D03*
X13712500Y19500000D03*
%TD*%
D25*
%TO.C,R54*%
X1750000Y26962500D03*
X1750000Y24037500D03*
%TD*%
D27*
%TO.C,R55*%
X4250000Y24037500D03*
X4250000Y26962500D03*
%TD*%
D25*
%TO.C,R52*%
X4250000Y41712500D03*
X4250000Y38787500D03*
%TD*%
D26*
%TO.C,R40*%
X55787500Y8750000D03*
X58712500Y8750000D03*
%TD*%
%TO.C,R41*%
X55787500Y11250000D03*
X58712500Y11250000D03*
%TD*%
%TO.C,R42*%
X47537500Y10750000D03*
X50462500Y10750000D03*
%TD*%
%TO.C,R43*%
X39037500Y1500000D03*
X41962500Y1500000D03*
%TD*%
%TO.C,R45*%
X47537500Y8500000D03*
X50462500Y8500000D03*
%TD*%
D28*
%TO.C,R46*%
X33450000Y27500000D03*
X33450000Y32500000D03*
D29*
X33450000Y30000000D03*
X44550000Y30000000D03*
D28*
X44550000Y32500000D03*
X44550000Y27500000D03*
%TD*%
D27*
%TO.C,R6*%
X13750000Y76960000D03*
X13750000Y79885000D03*
%TD*%
D25*
%TO.C,R7*%
X20750000Y80327500D03*
X20750000Y77402500D03*
%TD*%
D26*
%TO.C,R11*%
X52787500Y53250000D03*
X55712500Y53250000D03*
%TD*%
%TO.C,R13*%
X57287500Y47250000D03*
X60212500Y47250000D03*
%TD*%
%TO.C,R14*%
X97037500Y76000000D03*
X99962500Y76000000D03*
%TD*%
D27*
%TO.C,R15*%
X53750000Y39787500D03*
X53750000Y42712500D03*
%TD*%
D30*
%TO.C,R17*%
X95212500Y3750000D03*
X92287500Y3750000D03*
%TD*%
%TO.C,R18*%
X67962500Y20750000D03*
X65037500Y20750000D03*
%TD*%
D26*
%TO.C,R19*%
X53787500Y22250000D03*
X56712500Y22250000D03*
%TD*%
%TO.C,R20*%
X60037500Y20750000D03*
X62962500Y20750000D03*
%TD*%
D27*
%TO.C,R21*%
X108250000Y11537500D03*
X108250000Y14462500D03*
%TD*%
%TO.C,R23*%
X87250000Y4537500D03*
X87250000Y7462500D03*
%TD*%
%TO.C,R24*%
X86292000Y10787500D03*
X86292000Y13712500D03*
%TD*%
D25*
%TO.C,R29*%
X69000000Y32462500D03*
X69000000Y29537500D03*
%TD*%
%TO.C,R30*%
X80000000Y32462500D03*
X80000000Y29537500D03*
%TD*%
D27*
%TO.C,R53*%
X6500000Y38787500D03*
X6500000Y41712500D03*
%TD*%
D31*
%TO.C,SW3*%
X39000000Y51875000D03*
X33000000Y51875000D03*
X33000000Y48125000D03*
X39000000Y48125000D03*
%TD*%
%TO.C,SW4*%
X15000000Y51875000D03*
X9000000Y51875000D03*
X9000000Y48125000D03*
X15000000Y48125000D03*
%TD*%
D32*
%TO.C,U9*%
X2345000Y31025000D03*
X3615000Y31025000D03*
X4885000Y31025000D03*
X6155000Y31025000D03*
X6155000Y35975000D03*
X4885000Y35975000D03*
X3615000Y35975000D03*
X2345000Y35975000D03*
%TD*%
D33*
%TO.C,U8*%
X49975000Y2595000D03*
X49975000Y3865000D03*
X49975000Y5135000D03*
X49975000Y6405000D03*
X45025000Y6405000D03*
X45025000Y5135000D03*
X45025000Y3865000D03*
X45025000Y2595000D03*
%TD*%
D34*
%TO.C,U2*%
X60862500Y31155000D03*
X60862500Y29885000D03*
X60862500Y28615000D03*
X60862500Y27345000D03*
X66137500Y27345000D03*
X66137500Y28615000D03*
X66137500Y29885000D03*
X66137500Y31155000D03*
D35*
X63500000Y29250000D03*
%TD*%
D36*
%TO.C,U3*%
X75928800Y9599200D03*
X77198800Y9599200D03*
X78468800Y9599200D03*
X79738800Y9599200D03*
X79738800Y14874200D03*
X78468800Y14874200D03*
X77198800Y14874200D03*
X75928800Y14874200D03*
D37*
X77833800Y12236700D03*
%TD*%
D38*
%TO.C,C11*%
X58450000Y16000000D03*
X64050000Y16000000D03*
%TD*%
D39*
%TO.C,L1*%
X53750000Y30150000D03*
X53750000Y25350000D03*
%TD*%
D13*
%TO.C,C22*%
X69250000Y63775000D03*
X69250000Y66725000D03*
%TD*%
%TO.C,C25*%
X18250000Y24025000D03*
X18250000Y26975000D03*
%TD*%
D16*
%TO.C,D10*%
X63300000Y52750000D03*
X65200000Y52750000D03*
X64250000Y54750000D03*
%TD*%
D40*
%TO.C,JP1*%
X45144000Y58580000D03*
X45144000Y59780000D03*
%TD*%
D41*
%TO.C,JP2*%
X45000000Y50600000D03*
X45000000Y49400000D03*
%TD*%
D30*
%TO.C,R33*%
X65712500Y57000000D03*
X62787500Y57000000D03*
%TD*%
%TO.C,R47*%
X18462500Y19500000D03*
X15537500Y19500000D03*
%TD*%
%TO.C,R48*%
X26212500Y27500000D03*
X23287500Y27500000D03*
%TD*%
D21*
%TO.C,X1*%
X61620000Y62000000D03*
X54000000Y62000000D03*
X54000000Y67080000D03*
X61620000Y67080000D03*
X54000000Y72160000D03*
X61620000Y72160000D03*
%TD*%
D25*
%TO.C,R26*%
X100000000Y20462500D03*
X100000000Y17537500D03*
%TD*%
D27*
%TO.C,R27*%
X87000000Y19537500D03*
X87000000Y22462500D03*
%TD*%
%TO.C,R28*%
X90000000Y21537500D03*
X90000000Y24462500D03*
%TD*%
D26*
%TO.C,R32*%
X80537500Y36000000D03*
X83462500Y36000000D03*
%TD*%
D10*
%TO.C,C3*%
X30750000Y51475000D03*
X30750000Y48525000D03*
%TD*%
D42*
%TO.C,U1*%
X4700000Y84200000D03*
D43*
X4700000Y86740000D03*
X4700000Y89280000D03*
X4700000Y91820000D03*
%TD*%
D31*
%TO.C,SW2*%
X27000000Y39875000D03*
X21000000Y39875000D03*
X21000000Y36125000D03*
X27000000Y36125000D03*
%TD*%
D12*
%TO.C,C8*%
X60775000Y33250000D03*
X63725000Y33250000D03*
%TD*%
D44*
%TO.C,X3*%
X16000000Y5000000D03*
X16000000Y12620000D03*
X10920000Y5000000D03*
X10920000Y12620000D03*
X5840000Y12620000D03*
X5840000Y5000000D03*
%TD*%
D40*
%TO.C,JP3*%
X44991600Y40546000D03*
X44991600Y41746000D03*
%TD*%
D18*
%TO.C,D11*%
X54250000Y2750000D03*
X58250000Y2750000D03*
%TD*%
D24*
%TO.C,Q4*%
X53250000Y48200000D03*
X53250000Y46300000D03*
X55250000Y47250000D03*
%TD*%
D26*
%TO.C,R12*%
X13390000Y73785000D03*
X16315000Y73785000D03*
%TD*%
D31*
%TO.C,SW1*%
X27000000Y63875000D03*
X21000000Y63875000D03*
X27000000Y60125000D03*
X21000000Y60125000D03*
%TD*%
D16*
%TO.C,D13*%
X20300000Y23500000D03*
X22200000Y23500000D03*
X21250000Y25500000D03*
%TD*%
D26*
%TO.C,R31*%
X71537500Y36000000D03*
X74462500Y36000000D03*
%TD*%
%TO.C,R34*%
X58037500Y57000000D03*
X60962500Y57000000D03*
%TD*%
D27*
%TO.C,R8*%
X34750000Y69037500D03*
X34750000Y71962500D03*
%TD*%
%TO.C,R25*%
X108250000Y17537500D03*
X108250000Y20462500D03*
%TD*%
D45*
%TO.C,X4*%
X106000000Y4750000D03*
%TD*%
D27*
%TO.C,R16*%
X53500000Y11787500D03*
X53500000Y14712500D03*
%TD*%
D46*
%TO.C,JP7*%
X82800000Y39000000D03*
X85200000Y39000000D03*
D47*
X86000000Y39000000D03*
D48*
X82000000Y39000000D03*
%TD*%
D49*
%TO.C,D15*%
X102000000Y96300000D03*
X102000000Y92300000D03*
%TD*%
D31*
%TO.C,SW6*%
X38238000Y39973000D03*
X32238000Y39973000D03*
X32238000Y36223000D03*
X38238000Y36223000D03*
%TD*%
D18*
%TO.C,D9*%
X83000000Y32000000D03*
X87000000Y32000000D03*
%TD*%
D49*
%TO.C,D12*%
X22995200Y6011200D03*
X22995200Y2011200D03*
%TD*%
D46*
%TO.C,JP6*%
X76200000Y39000000D03*
X73800000Y39000000D03*
D47*
X77000000Y39000000D03*
D48*
X73000000Y39000000D03*
%TD*%
D50*
%TO.C,R56*%
X1964000Y43544300D03*
X1964000Y46469300D03*
%TD*%
D51*
%TO.C,R10*%
X97037500Y89500000D03*
X99962500Y89500000D03*
%TD*%
D52*
%TO.C,C20*%
X96000000Y17000000D03*
X93050000Y17000000D03*
%TD*%
D53*
%TO.C,C17*%
X85000000Y25525000D03*
X85000000Y28475000D03*
%TD*%
D50*
%TO.C,R44*%
X39505200Y3778600D03*
X39505200Y6703600D03*
%TD*%
D54*
%TO.C,U6*%
X85725000Y97000000D03*
D55*
X85425000Y93970000D03*
X80575000Y93970000D03*
D54*
X80275000Y97000000D03*
D56*
X73210000Y97130000D03*
X73210000Y94590000D03*
X73210000Y92050000D03*
X73210000Y89510000D03*
X73210000Y86970000D03*
X73210000Y84430000D03*
X73210000Y81890000D03*
X73210000Y79350000D03*
X73210000Y76810000D03*
X73210000Y74270000D03*
X73210000Y71730000D03*
X73210000Y69190000D03*
X73210000Y66650000D03*
X73210000Y64110000D03*
X73210000Y61570000D03*
X73210000Y59030000D03*
X73210000Y56490000D03*
X73210000Y53950000D03*
X73210000Y51410000D03*
X73210000Y48870000D03*
X92790000Y48870000D03*
X92790000Y51410000D03*
X92790000Y53950000D03*
X92790000Y56490000D03*
X92790000Y59030000D03*
X92790000Y61570000D03*
X92790000Y64110000D03*
X92790000Y66650000D03*
X92790000Y69190000D03*
X92790000Y71730000D03*
X92790000Y74270000D03*
X92790000Y76810000D03*
X92790000Y79350000D03*
X92790000Y81890000D03*
X92790000Y84430000D03*
X92790000Y86970000D03*
X92790000Y89510000D03*
X92790000Y92050000D03*
X92790000Y94590000D03*
X92790000Y97130000D03*
D57*
X80460000Y48200000D03*
X83000000Y48200000D03*
X85540000Y48200000D03*
%TD*%
D50*
%TO.C,R57*%
X4250000Y43555000D03*
X4250000Y46480000D03*
%TD*%
D58*
%TO.C,R60*%
X108000000Y51462500D03*
X108000000Y48537500D03*
%TD*%
D46*
%TO.C,JP8*%
X9736400Y26718800D03*
X9736400Y24318800D03*
D59*
X9736400Y27518800D03*
D60*
X9736400Y23518800D03*
%TD*%
D53*
%TO.C,C28*%
X1456000Y51404000D03*
X1456000Y54354000D03*
%TD*%
D50*
%TO.C,R51*%
X15781600Y24047800D03*
X15781600Y26972800D03*
%TD*%
D61*
%TO.C,U7*%
X97850000Y84362500D03*
X99750000Y84362500D03*
X98800000Y86237500D03*
%TD*%
D46*
%TO.C,JP9*%
X6993200Y26699600D03*
X6993200Y24299600D03*
D60*
X6993200Y23499600D03*
D59*
X6993200Y27499600D03*
%TD*%
D50*
%TO.C,R59*%
X104000000Y48537500D03*
X104000000Y51462500D03*
%TD*%
D31*
%TO.C,SW5*%
X37013200Y72383400D03*
X43013200Y72383400D03*
X37013200Y68633400D03*
X43013200Y68633400D03*
%TD*%
D62*
%TO.C,U4*%
X77525000Y27445000D03*
X77525000Y26175000D03*
X77525000Y24905000D03*
X77525000Y23635000D03*
X77525000Y22365000D03*
X77525000Y21095000D03*
X77525000Y19825000D03*
X77525000Y18555000D03*
X82475000Y18555000D03*
X82475000Y19825000D03*
X82475000Y21095000D03*
X82475000Y22365000D03*
X82475000Y23635000D03*
X82475000Y24905000D03*
X82475000Y26175000D03*
X82475000Y27445000D03*
%TD*%
D51*
%TO.C,R9*%
X23615500Y75182000D03*
X26540500Y75182000D03*
%TD*%
D46*
%TO.C,JP4*%
X73800000Y43000000D03*
X76200000Y43000000D03*
D48*
X73000000Y43000000D03*
D47*
X77000000Y43000000D03*
%TD*%
D50*
%TO.C,R22*%
X73287200Y4743800D03*
X73287200Y7668800D03*
%TD*%
D53*
%TO.C,C21*%
X71510800Y24298400D03*
X71510800Y27248400D03*
%TD*%
D63*
%TO.C,R36*%
X99962500Y66000000D03*
X97037500Y66000000D03*
%TD*%
D53*
%TO.C,C14*%
X84717200Y4517400D03*
X84717200Y7467400D03*
%TD*%
D46*
%TO.C,JP5*%
X82800000Y43000000D03*
X85200000Y43000000D03*
D48*
X82000000Y43000000D03*
D47*
X86000000Y43000000D03*
%TD*%
D64*
%TO.C,L2*%
X76830800Y4468400D03*
X81630800Y4468400D03*
%TD*%
D65*
%TO.C,D6*%
X82837600Y10139200D03*
X82837600Y14139200D03*
%TD*%
D63*
%TO.C,R38*%
X99962500Y68500000D03*
X97037500Y68500000D03*
%TD*%
%TO.C,R61*%
X99962500Y71000000D03*
X97037500Y71000000D03*
%TD*%
D15*
%TO.C,D7*%
X106002400Y20425600D03*
X106002400Y17625600D03*
%TD*%
D66*
%TO.C,C15*%
X91118000Y9339200D03*
X91118000Y14939200D03*
%TD*%
D67*
%TO.C,C18*%
X74000000Y22475000D03*
X74000000Y19525000D03*
%TD*%
D68*
%TO.C,C29*%
X10600000Y44448000D03*
X13550000Y44448000D03*
%TD*%
D67*
%TO.C,C16*%
X74000000Y27250200D03*
X74000000Y24300200D03*
%TD*%
D33*
%TO.C,U5*%
X97475000Y19095000D03*
X97475000Y20365000D03*
X97475000Y21635000D03*
X97475000Y22905000D03*
X92525000Y22905000D03*
X92525000Y21635000D03*
X92525000Y20365000D03*
X92525000Y19095000D03*
%TD*%
D66*
%TO.C,C13*%
X68766000Y8475600D03*
X68766000Y14075600D03*
%TD*%
D50*
%TO.C,R35*%
X68750000Y51537500D03*
X68750000Y54462500D03*
%TD*%
D69*
%TO.C,J9*%
X103573500Y38606000D03*
D70*
X106113500Y38606000D03*
X103573500Y36066000D03*
X106113500Y36066000D03*
X103573500Y33526000D03*
X106113500Y33526000D03*
X103573500Y30986000D03*
X106113500Y30986000D03*
X103573500Y28446000D03*
X106113500Y28446000D03*
%TD*%
D67*
%TO.C,C19*%
X71460000Y22426000D03*
X71460000Y19476000D03*
%TD*%
D50*
%TO.C,R50*%
X13495600Y24047800D03*
X13495600Y26972800D03*
%TD*%
D71*
%TO.C,J2*%
X49080000Y56000000D03*
X44000000Y56000000D03*
%TD*%
%TO.C,J4*%
X10500000Y30500000D03*
X15580000Y30500000D03*
%TD*%
%TO.C,J3*%
X21500000Y30500000D03*
X26580000Y30500000D03*
%TD*%
%TO.C,J5*%
X21500000Y69500000D03*
X26580000Y69500000D03*
%TD*%
%TO.C,J1*%
X42500000Y62000000D03*
X47580000Y62000000D03*
%TD*%
%TO.C,J6*%
X15500000Y69500000D03*
X10420000Y69500000D03*
%TD*%
%TO.C,J8*%
X49000000Y38000000D03*
X43920000Y38000000D03*
%TD*%
%TO.C,J7*%
X42420000Y44000000D03*
X47500000Y44000000D03*
%TD*%
G36*
X83803934Y4976100D02*
G01*
X83804104Y4974174D01*
X83776225Y4911115D01*
X83768200Y4842280D01*
X83768200Y4192514D01*
X83776344Y4123181D01*
X83804340Y4060153D01*
X83804129Y4058164D01*
X83802301Y4057352D01*
X83800717Y4058460D01*
X83775060Y4110718D01*
X83747255Y4135189D01*
X83710717Y4132859D01*
X83686362Y4105185D01*
X83683773Y4089593D01*
X83682503Y4088049D01*
X83680530Y4088376D01*
X83679800Y4089921D01*
X83679800Y4944655D01*
X83680800Y4946387D01*
X83682800Y4946387D01*
X83683648Y4945420D01*
X83697974Y4910833D01*
X83731798Y4896823D01*
X83765858Y4910930D01*
X83774994Y4923728D01*
X83800478Y4975861D01*
X83802137Y4976978D01*
X83803934Y4976100D01*
G37*
G36*
X83767704Y7588190D02*
G01*
X83768200Y7586871D01*
X83768200Y7142514D01*
X83776344Y7073181D01*
X83804342Y7010149D01*
X83804131Y7008160D01*
X83802303Y7007348D01*
X83800719Y7008456D01*
X83775059Y7060719D01*
X83747253Y7085190D01*
X83710716Y7082860D01*
X83686361Y7055185D01*
X83683773Y7039600D01*
X83682503Y7038056D01*
X83680530Y7038383D01*
X83679800Y7039928D01*
X83679800Y7468276D01*
X83666697Y7576549D01*
X83667482Y7578388D01*
X83669468Y7578629D01*
X83670415Y7577789D01*
X83687081Y7548923D01*
X83722444Y7539446D01*
X83754215Y7557789D01*
X83764306Y7587514D01*
X83765810Y7588833D01*
X83767704Y7588190D01*
G37*
G36*
X35485904Y29600000D02*
G01*
X35485904Y29598000D01*
X35484937Y29597152D01*
X35450350Y29582826D01*
X35436340Y29549002D01*
X35450397Y29515063D01*
X35466687Y29506171D01*
X35467728Y29504464D01*
X35467637Y29503989D01*
X35561062Y29464043D01*
X35562262Y29462443D01*
X35561475Y29460604D01*
X35559507Y29460358D01*
X35456698Y29503153D01*
X35255955Y29543631D01*
X35149958Y29549000D01*
X31750042Y29549000D01*
X31644045Y29543631D01*
X31443302Y29503153D01*
X31340193Y29460233D01*
X31338209Y29460490D01*
X31337441Y29462337D01*
X31338634Y29463917D01*
X31430778Y29503506D01*
X31430951Y29504977D01*
X31431411Y29505422D01*
X31456934Y29523191D01*
X31463388Y29559230D01*
X31442398Y29589377D01*
X31416098Y29597081D01*
X31414717Y29598527D01*
X31415279Y29600447D01*
X31416660Y29601000D01*
X35484172Y29601000D01*
X35485904Y29600000D01*
G37*
G36*
X46585904Y29600000D02*
G01*
X46585904Y29598000D01*
X46584937Y29597152D01*
X46550350Y29582826D01*
X46536340Y29549002D01*
X46550397Y29515063D01*
X46566687Y29506171D01*
X46567728Y29504464D01*
X46567637Y29503989D01*
X46661062Y29464043D01*
X46662262Y29462443D01*
X46661475Y29460604D01*
X46659507Y29460358D01*
X46556698Y29503153D01*
X46355955Y29543631D01*
X46249958Y29549000D01*
X42850042Y29549000D01*
X42744045Y29543631D01*
X42543302Y29503153D01*
X42440193Y29460233D01*
X42438209Y29460490D01*
X42437441Y29462337D01*
X42438634Y29463917D01*
X42530778Y29503506D01*
X42530951Y29504977D01*
X42531411Y29505422D01*
X42556934Y29523191D01*
X42563388Y29559230D01*
X42542398Y29589377D01*
X42516098Y29597081D01*
X42514717Y29598527D01*
X42515279Y29600447D01*
X42516660Y29601000D01*
X46584172Y29601000D01*
X46585904Y29600000D01*
G37*
G36*
X46661791Y30539510D02*
G01*
X46662559Y30537663D01*
X46661366Y30536083D01*
X46569222Y30496494D01*
X46569049Y30495023D01*
X46568589Y30494578D01*
X46543066Y30476809D01*
X46536612Y30440770D01*
X46557602Y30410623D01*
X46583902Y30402919D01*
X46585283Y30401473D01*
X46584721Y30399553D01*
X46583340Y30399000D01*
X42515828Y30399000D01*
X42514096Y30400000D01*
X42514096Y30402000D01*
X42515063Y30402848D01*
X42549650Y30417174D01*
X42563660Y30450998D01*
X42549603Y30484937D01*
X42533313Y30493829D01*
X42532272Y30495536D01*
X42532363Y30496011D01*
X42438938Y30535957D01*
X42437738Y30537557D01*
X42438525Y30539396D01*
X42440493Y30539642D01*
X42543302Y30496847D01*
X42744045Y30456369D01*
X42850042Y30451000D01*
X46249958Y30451000D01*
X46355955Y30456369D01*
X46556698Y30496847D01*
X46659807Y30539767D01*
X46661791Y30539510D01*
G37*
G36*
X35561791Y30539510D02*
G01*
X35562559Y30537663D01*
X35561366Y30536083D01*
X35469222Y30496494D01*
X35469049Y30495023D01*
X35468589Y30494578D01*
X35443066Y30476809D01*
X35436612Y30440770D01*
X35457602Y30410623D01*
X35483902Y30402919D01*
X35485283Y30401473D01*
X35484721Y30399553D01*
X35483340Y30399000D01*
X31415828Y30399000D01*
X31414096Y30400000D01*
X31414096Y30402000D01*
X31415063Y30402848D01*
X31449650Y30417174D01*
X31463660Y30450998D01*
X31449603Y30484937D01*
X31433313Y30493829D01*
X31432272Y30495536D01*
X31432363Y30496011D01*
X31338938Y30535957D01*
X31337738Y30537557D01*
X31338525Y30539396D01*
X31340493Y30539642D01*
X31443302Y30496847D01*
X31644045Y30456369D01*
X31750042Y30451000D01*
X35149958Y30451000D01*
X35255955Y30456369D01*
X35456698Y30496847D01*
X35559807Y30539767D01*
X35561791Y30539510D01*
G37*
G36*
X48742103Y41196000D02*
G01*
X48742103Y41194000D01*
X48741397Y41193283D01*
X48710046Y41174557D01*
X48701096Y41139059D01*
X48719954Y41107486D01*
X48740832Y41098848D01*
X48742050Y41097262D01*
X48741285Y41095414D01*
X48740067Y41095000D01*
X41242829Y41095000D01*
X41241097Y41096000D01*
X41241097Y41098000D01*
X41241803Y41098717D01*
X41273154Y41117443D01*
X41282104Y41152941D01*
X41263246Y41184514D01*
X41242368Y41193152D01*
X41241150Y41194738D01*
X41241915Y41196586D01*
X41243133Y41197000D01*
X48740371Y41197000D01*
X48742103Y41196000D01*
G37*
G36*
X48750503Y50050000D02*
G01*
X48750503Y50048000D01*
X48749797Y50047283D01*
X48718446Y50028557D01*
X48709496Y49993059D01*
X48728354Y49961486D01*
X48749232Y49952848D01*
X48750450Y49951262D01*
X48749685Y49949414D01*
X48748467Y49949000D01*
X41251229Y49949000D01*
X41249497Y49950000D01*
X41249497Y49952000D01*
X41250203Y49952717D01*
X41281554Y49971443D01*
X41290504Y50006941D01*
X41271646Y50038514D01*
X41250768Y50047152D01*
X41249550Y50048738D01*
X41250315Y50050586D01*
X41251533Y50051000D01*
X48748771Y50051000D01*
X48750503Y50050000D01*
G37*
G36*
X48894503Y59230000D02*
G01*
X48894503Y59228000D01*
X48893797Y59227283D01*
X48862446Y59208557D01*
X48853496Y59173059D01*
X48872354Y59141486D01*
X48893232Y59132848D01*
X48894450Y59131262D01*
X48893685Y59129414D01*
X48892467Y59129000D01*
X41395229Y59129000D01*
X41393497Y59130000D01*
X41393497Y59132000D01*
X41394203Y59132717D01*
X41425554Y59151443D01*
X41434504Y59186941D01*
X41415646Y59218514D01*
X41394768Y59227152D01*
X41393550Y59228738D01*
X41394315Y59230586D01*
X41395533Y59231000D01*
X48892771Y59231000D01*
X48894503Y59230000D01*
G37*
M02*
