%TF.GenerationSoftware,KiCad,Pcbnew,5.1.10-88a1d61d58~90~ubuntu20.04.1*%
%TF.CreationDate,2021-10-09T22:51:23+02:00*%
%TF.ProjectId,jbc-miniregler,6a62632d-6d69-46e6-9972-65676c65722e,21.0.1*%
%TF.SameCoordinates,PX56c8cc0PY88601c0*%
%TF.FileFunction,Paste,Top*%
%TF.FilePolarity,Positive*%
%FSLAX46Y46*%
G04 Gerber Fmt 4.6, Leading zero omitted, Abs format (unit mm)*
G04 Created by KiCad (PCBNEW 5.1.10-88a1d61d58~90~ubuntu20.04.1) date 2021-10-09 22:51:23*
%MOMM*%
%LPD*%
G01*
G04 APERTURE LIST*
%ADD10R,0.700000X0.800000*%
%ADD11R,1.700000X2.400000*%
%ADD12R,0.800000X0.700000*%
%ADD13R,0.900000X0.650000*%
%ADD14R,1.300000X1.100000*%
%ADD15R,1.500000X0.450000*%
%ADD16R,0.450000X1.500000*%
%ADD17R,0.960000X0.550000*%
%ADD18R,3.050000X2.750000*%
%ADD19R,2.100000X1.100000*%
%ADD20C,0.520000*%
%ADD21R,2.400000X3.200000*%
%ADD22R,2.400000X1.700000*%
G04 APERTURE END LIST*
D10*
%TO.C,D9*%
X24250000Y85000000D03*
X25200000Y83000000D03*
X23300000Y83000000D03*
%TD*%
%TO.C,R66*%
G36*
G01*
X77050000Y61597225D02*
X77050000Y60402775D01*
G75*
G02*
X76822225Y60175000I-227775J0D01*
G01*
X76252775Y60175000D01*
G75*
G02*
X76025000Y60402775I0J227775D01*
G01*
X76025000Y61597225D01*
G75*
G02*
X76252775Y61825000I227775J0D01*
G01*
X76822225Y61825000D01*
G75*
G02*
X77050000Y61597225I0J-227775D01*
G01*
G37*
G36*
G01*
X79975000Y61597225D02*
X79975000Y60402775D01*
G75*
G02*
X79747225Y60175000I-227775J0D01*
G01*
X79177775Y60175000D01*
G75*
G02*
X78950000Y60402775I0J227775D01*
G01*
X78950000Y61597225D01*
G75*
G02*
X79177775Y61825000I227775J0D01*
G01*
X79747225Y61825000D01*
G75*
G02*
X79975000Y61597225I0J-227775D01*
G01*
G37*
%TD*%
%TO.C,R16*%
G36*
G01*
X74652775Y31300000D02*
X75847225Y31300000D01*
G75*
G02*
X76075000Y31072225I0J-227775D01*
G01*
X76075000Y30502775D01*
G75*
G02*
X75847225Y30275000I-227775J0D01*
G01*
X74652775Y30275000D01*
G75*
G02*
X74425000Y30502775I0J227775D01*
G01*
X74425000Y31072225D01*
G75*
G02*
X74652775Y31300000I227775J0D01*
G01*
G37*
G36*
G01*
X74652775Y34225000D02*
X75847225Y34225000D01*
G75*
G02*
X76075000Y33997225I0J-227775D01*
G01*
X76075000Y33427775D01*
G75*
G02*
X75847225Y33200000I-227775J0D01*
G01*
X74652775Y33200000D01*
G75*
G02*
X74425000Y33427775I0J227775D01*
G01*
X74425000Y33997225D01*
G75*
G02*
X74652775Y34225000I227775J0D01*
G01*
G37*
%TD*%
D11*
%TO.C,D16*%
X23000000Y6000000D03*
X23000000Y2000000D03*
%TD*%
%TO.C,R65*%
G36*
G01*
X40097225Y6200000D02*
X38902775Y6200000D01*
G75*
G02*
X38675000Y6427775I0J227775D01*
G01*
X38675000Y6997225D01*
G75*
G02*
X38902775Y7225000I227775J0D01*
G01*
X40097225Y7225000D01*
G75*
G02*
X40325000Y6997225I0J-227775D01*
G01*
X40325000Y6427775D01*
G75*
G02*
X40097225Y6200000I-227775J0D01*
G01*
G37*
G36*
G01*
X40097225Y3275000D02*
X38902775Y3275000D01*
G75*
G02*
X38675000Y3502775I0J227775D01*
G01*
X38675000Y4072225D01*
G75*
G02*
X38902775Y4300000I227775J0D01*
G01*
X40097225Y4300000D01*
G75*
G02*
X40325000Y4072225I0J-227775D01*
G01*
X40325000Y3502775D01*
G75*
G02*
X40097225Y3275000I-227775J0D01*
G01*
G37*
%TD*%
%TO.C,X4*%
G36*
G01*
X105896876Y2712387D02*
X104769245Y3122811D01*
G75*
G02*
X104410641Y3891839I205212J563816D01*
G01*
X105334096Y6429009D01*
G75*
G02*
X106103124Y6787613I563816J-205212D01*
G01*
X107230755Y6377189D01*
G75*
G02*
X107589359Y5608161I-205212J-563816D01*
G01*
X106665904Y3070991D01*
G75*
G02*
X105896876Y2712387I-563816J205212D01*
G01*
G37*
%TD*%
%TO.C,U11*%
G36*
G01*
X101720000Y71050000D02*
X101470000Y71050000D01*
G75*
G02*
X101345000Y71175000I0J125000D01*
G01*
X101345000Y72775000D01*
G75*
G02*
X101470000Y72900000I125000J0D01*
G01*
X101720000Y72900000D01*
G75*
G02*
X101845000Y72775000I0J-125000D01*
G01*
X101845000Y71175000D01*
G75*
G02*
X101720000Y71050000I-125000J0D01*
G01*
G37*
G36*
G01*
X102990000Y71050000D02*
X102740000Y71050000D01*
G75*
G02*
X102615000Y71175000I0J125000D01*
G01*
X102615000Y72775000D01*
G75*
G02*
X102740000Y72900000I125000J0D01*
G01*
X102990000Y72900000D01*
G75*
G02*
X103115000Y72775000I0J-125000D01*
G01*
X103115000Y71175000D01*
G75*
G02*
X102990000Y71050000I-125000J0D01*
G01*
G37*
G36*
G01*
X104260000Y71050000D02*
X104010000Y71050000D01*
G75*
G02*
X103885000Y71175000I0J125000D01*
G01*
X103885000Y72775000D01*
G75*
G02*
X104010000Y72900000I125000J0D01*
G01*
X104260000Y72900000D01*
G75*
G02*
X104385000Y72775000I0J-125000D01*
G01*
X104385000Y71175000D01*
G75*
G02*
X104260000Y71050000I-125000J0D01*
G01*
G37*
G36*
G01*
X105530000Y71050000D02*
X105280000Y71050000D01*
G75*
G02*
X105155000Y71175000I0J125000D01*
G01*
X105155000Y72775000D01*
G75*
G02*
X105280000Y72900000I125000J0D01*
G01*
X105530000Y72900000D01*
G75*
G02*
X105655000Y72775000I0J-125000D01*
G01*
X105655000Y71175000D01*
G75*
G02*
X105530000Y71050000I-125000J0D01*
G01*
G37*
G36*
G01*
X105530000Y66100000D02*
X105280000Y66100000D01*
G75*
G02*
X105155000Y66225000I0J125000D01*
G01*
X105155000Y67825000D01*
G75*
G02*
X105280000Y67950000I125000J0D01*
G01*
X105530000Y67950000D01*
G75*
G02*
X105655000Y67825000I0J-125000D01*
G01*
X105655000Y66225000D01*
G75*
G02*
X105530000Y66100000I-125000J0D01*
G01*
G37*
G36*
G01*
X104260000Y66100000D02*
X104010000Y66100000D01*
G75*
G02*
X103885000Y66225000I0J125000D01*
G01*
X103885000Y67825000D01*
G75*
G02*
X104010000Y67950000I125000J0D01*
G01*
X104260000Y67950000D01*
G75*
G02*
X104385000Y67825000I0J-125000D01*
G01*
X104385000Y66225000D01*
G75*
G02*
X104260000Y66100000I-125000J0D01*
G01*
G37*
G36*
G01*
X102990000Y66100000D02*
X102740000Y66100000D01*
G75*
G02*
X102615000Y66225000I0J125000D01*
G01*
X102615000Y67825000D01*
G75*
G02*
X102740000Y67950000I125000J0D01*
G01*
X102990000Y67950000D01*
G75*
G02*
X103115000Y67825000I0J-125000D01*
G01*
X103115000Y66225000D01*
G75*
G02*
X102990000Y66100000I-125000J0D01*
G01*
G37*
G36*
G01*
X101720000Y66100000D02*
X101470000Y66100000D01*
G75*
G02*
X101345000Y66225000I0J125000D01*
G01*
X101345000Y67825000D01*
G75*
G02*
X101470000Y67950000I125000J0D01*
G01*
X101720000Y67950000D01*
G75*
G02*
X101845000Y67825000I0J-125000D01*
G01*
X101845000Y66225000D01*
G75*
G02*
X101720000Y66100000I-125000J0D01*
G01*
G37*
%TD*%
%TO.C,C40*%
G36*
G01*
X89478259Y31300000D02*
X90721741Y31300000D01*
G75*
G02*
X90950000Y31071741I0J-228259D01*
G01*
X90950000Y30478259D01*
G75*
G02*
X90721741Y30250000I-228259J0D01*
G01*
X89478259Y30250000D01*
G75*
G02*
X89250000Y30478259I0J228259D01*
G01*
X89250000Y31071741D01*
G75*
G02*
X89478259Y31300000I228259J0D01*
G01*
G37*
G36*
G01*
X89478259Y34250000D02*
X90721741Y34250000D01*
G75*
G02*
X90950000Y34021741I0J-228259D01*
G01*
X90950000Y33428259D01*
G75*
G02*
X90721741Y33200000I-228259J0D01*
G01*
X89478259Y33200000D01*
G75*
G02*
X89250000Y33428259I0J228259D01*
G01*
X89250000Y34021741D01*
G75*
G02*
X89478259Y34250000I228259J0D01*
G01*
G37*
%TD*%
D12*
%TO.C,U12*%
X88500000Y26500000D03*
X86500000Y25550000D03*
X86500000Y27450000D03*
%TD*%
%TO.C,C12*%
G36*
G01*
X82878259Y50550000D02*
X84121741Y50550000D01*
G75*
G02*
X84350000Y50321741I0J-228259D01*
G01*
X84350000Y49728259D01*
G75*
G02*
X84121741Y49500000I-228259J0D01*
G01*
X82878259Y49500000D01*
G75*
G02*
X82650000Y49728259I0J228259D01*
G01*
X82650000Y50321741D01*
G75*
G02*
X82878259Y50550000I228259J0D01*
G01*
G37*
G36*
G01*
X82878259Y53500000D02*
X84121741Y53500000D01*
G75*
G02*
X84350000Y53271741I0J-228259D01*
G01*
X84350000Y52678259D01*
G75*
G02*
X84121741Y52450000I-228259J0D01*
G01*
X82878259Y52450000D01*
G75*
G02*
X82650000Y52678259I0J228259D01*
G01*
X82650000Y53271741D01*
G75*
G02*
X82878259Y53500000I228259J0D01*
G01*
G37*
%TD*%
%TO.C,C8*%
G36*
G01*
X82128259Y31300000D02*
X83371741Y31300000D01*
G75*
G02*
X83600000Y31071741I0J-228259D01*
G01*
X83600000Y30478259D01*
G75*
G02*
X83371741Y30250000I-228259J0D01*
G01*
X82128259Y30250000D01*
G75*
G02*
X81900000Y30478259I0J228259D01*
G01*
X81900000Y31071741D01*
G75*
G02*
X82128259Y31300000I228259J0D01*
G01*
G37*
G36*
G01*
X82128259Y34250000D02*
X83371741Y34250000D01*
G75*
G02*
X83600000Y34021741I0J-228259D01*
G01*
X83600000Y33428259D01*
G75*
G02*
X83371741Y33200000I-228259J0D01*
G01*
X82128259Y33200000D01*
G75*
G02*
X81900000Y33428259I0J228259D01*
G01*
X81900000Y34021741D01*
G75*
G02*
X82128259Y34250000I228259J0D01*
G01*
G37*
%TD*%
%TO.C,R64*%
G36*
G01*
X88347225Y22950000D02*
X87152775Y22950000D01*
G75*
G02*
X86925000Y23177775I0J227775D01*
G01*
X86925000Y23747225D01*
G75*
G02*
X87152775Y23975000I227775J0D01*
G01*
X88347225Y23975000D01*
G75*
G02*
X88575000Y23747225I0J-227775D01*
G01*
X88575000Y23177775D01*
G75*
G02*
X88347225Y22950000I-227775J0D01*
G01*
G37*
G36*
G01*
X88347225Y20025000D02*
X87152775Y20025000D01*
G75*
G02*
X86925000Y20252775I0J227775D01*
G01*
X86925000Y20822225D01*
G75*
G02*
X87152775Y21050000I227775J0D01*
G01*
X88347225Y21050000D01*
G75*
G02*
X88575000Y20822225I0J-227775D01*
G01*
X88575000Y20252775D01*
G75*
G02*
X88347225Y20025000I-227775J0D01*
G01*
G37*
%TD*%
%TO.C,R63*%
G36*
G01*
X90847225Y22950000D02*
X89652775Y22950000D01*
G75*
G02*
X89425000Y23177775I0J227775D01*
G01*
X89425000Y23747225D01*
G75*
G02*
X89652775Y23975000I227775J0D01*
G01*
X90847225Y23975000D01*
G75*
G02*
X91075000Y23747225I0J-227775D01*
G01*
X91075000Y23177775D01*
G75*
G02*
X90847225Y22950000I-227775J0D01*
G01*
G37*
G36*
G01*
X90847225Y20025000D02*
X89652775Y20025000D01*
G75*
G02*
X89425000Y20252775I0J227775D01*
G01*
X89425000Y20822225D01*
G75*
G02*
X89652775Y21050000I227775J0D01*
G01*
X90847225Y21050000D01*
G75*
G02*
X91075000Y20822225I0J-227775D01*
G01*
X91075000Y20252775D01*
G75*
G02*
X90847225Y20025000I-227775J0D01*
G01*
G37*
%TD*%
%TO.C,R62*%
G36*
G01*
X4847225Y45950000D02*
X3652775Y45950000D01*
G75*
G02*
X3425000Y46177775I0J227775D01*
G01*
X3425000Y46747225D01*
G75*
G02*
X3652775Y46975000I227775J0D01*
G01*
X4847225Y46975000D01*
G75*
G02*
X5075000Y46747225I0J-227775D01*
G01*
X5075000Y46177775D01*
G75*
G02*
X4847225Y45950000I-227775J0D01*
G01*
G37*
G36*
G01*
X4847225Y43025000D02*
X3652775Y43025000D01*
G75*
G02*
X3425000Y43252775I0J227775D01*
G01*
X3425000Y43822225D01*
G75*
G02*
X3652775Y44050000I227775J0D01*
G01*
X4847225Y44050000D01*
G75*
G02*
X5075000Y43822225I0J-227775D01*
G01*
X5075000Y43252775D01*
G75*
G02*
X4847225Y43025000I-227775J0D01*
G01*
G37*
%TD*%
%TO.C,R61*%
G36*
G01*
X2597225Y45950000D02*
X1402775Y45950000D01*
G75*
G02*
X1175000Y46177775I0J227775D01*
G01*
X1175000Y46747225D01*
G75*
G02*
X1402775Y46975000I227775J0D01*
G01*
X2597225Y46975000D01*
G75*
G02*
X2825000Y46747225I0J-227775D01*
G01*
X2825000Y46177775D01*
G75*
G02*
X2597225Y45950000I-227775J0D01*
G01*
G37*
G36*
G01*
X2597225Y43025000D02*
X1402775Y43025000D01*
G75*
G02*
X1175000Y43252775I0J227775D01*
G01*
X1175000Y43822225D01*
G75*
G02*
X1402775Y44050000I227775J0D01*
G01*
X2597225Y44050000D01*
G75*
G02*
X2825000Y43822225I0J-227775D01*
G01*
X2825000Y43252775D01*
G75*
G02*
X2597225Y43025000I-227775J0D01*
G01*
G37*
%TD*%
%TO.C,R60*%
G36*
G01*
X16347225Y26450000D02*
X15152775Y26450000D01*
G75*
G02*
X14925000Y26677775I0J227775D01*
G01*
X14925000Y27247225D01*
G75*
G02*
X15152775Y27475000I227775J0D01*
G01*
X16347225Y27475000D01*
G75*
G02*
X16575000Y27247225I0J-227775D01*
G01*
X16575000Y26677775D01*
G75*
G02*
X16347225Y26450000I-227775J0D01*
G01*
G37*
G36*
G01*
X16347225Y23525000D02*
X15152775Y23525000D01*
G75*
G02*
X14925000Y23752775I0J227775D01*
G01*
X14925000Y24322225D01*
G75*
G02*
X15152775Y24550000I227775J0D01*
G01*
X16347225Y24550000D01*
G75*
G02*
X16575000Y24322225I0J-227775D01*
G01*
X16575000Y23752775D01*
G75*
G02*
X16347225Y23525000I-227775J0D01*
G01*
G37*
%TD*%
%TO.C,R59*%
G36*
G01*
X14097225Y26450000D02*
X12902775Y26450000D01*
G75*
G02*
X12675000Y26677775I0J227775D01*
G01*
X12675000Y27247225D01*
G75*
G02*
X12902775Y27475000I227775J0D01*
G01*
X14097225Y27475000D01*
G75*
G02*
X14325000Y27247225I0J-227775D01*
G01*
X14325000Y26677775D01*
G75*
G02*
X14097225Y26450000I-227775J0D01*
G01*
G37*
G36*
G01*
X14097225Y23525000D02*
X12902775Y23525000D01*
G75*
G02*
X12675000Y23752775I0J227775D01*
G01*
X12675000Y24322225D01*
G75*
G02*
X12902775Y24550000I227775J0D01*
G01*
X14097225Y24550000D01*
G75*
G02*
X14325000Y24322225I0J-227775D01*
G01*
X14325000Y23752775D01*
G75*
G02*
X14097225Y23525000I-227775J0D01*
G01*
G37*
%TD*%
D10*
%TO.C,D5*%
X21250000Y25500000D03*
X22200000Y23500000D03*
X20300000Y23500000D03*
%TD*%
%TO.C,C41*%
G36*
G01*
X91878259Y31300000D02*
X93121741Y31300000D01*
G75*
G02*
X93350000Y31071741I0J-228259D01*
G01*
X93350000Y30478259D01*
G75*
G02*
X93121741Y30250000I-228259J0D01*
G01*
X91878259Y30250000D01*
G75*
G02*
X91650000Y30478259I0J228259D01*
G01*
X91650000Y31071741D01*
G75*
G02*
X91878259Y31300000I228259J0D01*
G01*
G37*
G36*
G01*
X91878259Y34250000D02*
X93121741Y34250000D01*
G75*
G02*
X93350000Y34021741I0J-228259D01*
G01*
X93350000Y33428259D01*
G75*
G02*
X93121741Y33200000I-228259J0D01*
G01*
X91878259Y33200000D01*
G75*
G02*
X91650000Y33428259I0J228259D01*
G01*
X91650000Y34021741D01*
G75*
G02*
X91878259Y34250000I228259J0D01*
G01*
G37*
%TD*%
D13*
%TO.C,SW5*%
X15000000Y39875000D03*
X9000000Y36125000D03*
X15000000Y36125000D03*
X9000000Y39875000D03*
%TD*%
%TO.C,SW6*%
X43000000Y72375000D03*
X37000000Y68625000D03*
X43000000Y68625000D03*
X37000000Y72375000D03*
%TD*%
%TO.C,SW4*%
X15000000Y51875000D03*
X9000000Y48125000D03*
X15000000Y48125000D03*
X9000000Y51875000D03*
%TD*%
%TO.C,SW3*%
X39000000Y51875000D03*
X33000000Y48125000D03*
X39000000Y48125000D03*
X33000000Y51875000D03*
%TD*%
%TO.C,SW2*%
X27000000Y39875000D03*
X21000000Y36125000D03*
X27000000Y36125000D03*
X21000000Y39875000D03*
%TD*%
%TO.C,SW1*%
X27000000Y63875000D03*
X21000000Y60125000D03*
X27000000Y60125000D03*
X21000000Y63875000D03*
%TD*%
%TO.C,R31*%
G36*
G01*
X30800000Y30975000D02*
X30800000Y31825000D01*
G75*
G02*
X31225000Y32250000I425000J0D01*
G01*
X32775000Y32250000D01*
G75*
G02*
X33200000Y31825000I0J-425000D01*
G01*
X33200000Y30975000D01*
G75*
G02*
X32775000Y30550000I-425000J0D01*
G01*
X31225000Y30550000D01*
G75*
G02*
X30800000Y30975000I0J425000D01*
G01*
G37*
G36*
G01*
X33700000Y30975000D02*
X33700000Y31825000D01*
G75*
G02*
X34125000Y32250000I425000J0D01*
G01*
X35675000Y32250000D01*
G75*
G02*
X36100000Y31825000I0J-425000D01*
G01*
X36100000Y30975000D01*
G75*
G02*
X35675000Y30550000I-425000J0D01*
G01*
X34125000Y30550000D01*
G75*
G02*
X33700000Y30975000I0J425000D01*
G01*
G37*
G36*
G01*
X33700000Y33175000D02*
X33700000Y34025000D01*
G75*
G02*
X34125000Y34450000I425000J0D01*
G01*
X35675000Y34450000D01*
G75*
G02*
X36100000Y34025000I0J-425000D01*
G01*
X36100000Y33175000D01*
G75*
G02*
X35675000Y32750000I-425000J0D01*
G01*
X34125000Y32750000D01*
G75*
G02*
X33700000Y33175000I0J425000D01*
G01*
G37*
G36*
G01*
X30800000Y33175000D02*
X30800000Y34025000D01*
G75*
G02*
X31225000Y34450000I425000J0D01*
G01*
X32775000Y34450000D01*
G75*
G02*
X33200000Y34025000I0J-425000D01*
G01*
X33200000Y33175000D01*
G75*
G02*
X32775000Y32750000I-425000J0D01*
G01*
X31225000Y32750000D01*
G75*
G02*
X30800000Y33175000I0J425000D01*
G01*
G37*
G36*
G01*
X30800000Y29850000D02*
X30800000Y30150000D01*
G75*
G02*
X30950000Y30300000I150000J0D01*
G01*
X33050000Y30300000D01*
G75*
G02*
X33200000Y30150000I0J-150000D01*
G01*
X33200000Y29850000D01*
G75*
G02*
X33050000Y29700000I-150000J0D01*
G01*
X30950000Y29700000D01*
G75*
G02*
X30800000Y29850000I0J150000D01*
G01*
G37*
G36*
G01*
X33700000Y29850000D02*
X33700000Y30150000D01*
G75*
G02*
X33850000Y30300000I150000J0D01*
G01*
X35950000Y30300000D01*
G75*
G02*
X36100000Y30150000I0J-150000D01*
G01*
X36100000Y29850000D01*
G75*
G02*
X35950000Y29700000I-150000J0D01*
G01*
X33850000Y29700000D01*
G75*
G02*
X33700000Y29850000I0J150000D01*
G01*
G37*
G36*
G01*
X33700000Y28175000D02*
X33700000Y29025000D01*
G75*
G02*
X34125000Y29450000I425000J0D01*
G01*
X35675000Y29450000D01*
G75*
G02*
X36100000Y29025000I0J-425000D01*
G01*
X36100000Y28175000D01*
G75*
G02*
X35675000Y27750000I-425000J0D01*
G01*
X34125000Y27750000D01*
G75*
G02*
X33700000Y28175000I0J425000D01*
G01*
G37*
G36*
G01*
X33700000Y25975000D02*
X33700000Y26825000D01*
G75*
G02*
X34125000Y27250000I425000J0D01*
G01*
X35675000Y27250000D01*
G75*
G02*
X36100000Y26825000I0J-425000D01*
G01*
X36100000Y25975000D01*
G75*
G02*
X35675000Y25550000I-425000J0D01*
G01*
X34125000Y25550000D01*
G75*
G02*
X33700000Y25975000I0J425000D01*
G01*
G37*
G36*
G01*
X30800000Y25975000D02*
X30800000Y26825000D01*
G75*
G02*
X31225000Y27250000I425000J0D01*
G01*
X32775000Y27250000D01*
G75*
G02*
X33200000Y26825000I0J-425000D01*
G01*
X33200000Y25975000D01*
G75*
G02*
X32775000Y25550000I-425000J0D01*
G01*
X31225000Y25550000D01*
G75*
G02*
X30800000Y25975000I0J425000D01*
G01*
G37*
G36*
G01*
X30800000Y28175000D02*
X30800000Y29025000D01*
G75*
G02*
X31225000Y29450000I425000J0D01*
G01*
X32775000Y29450000D01*
G75*
G02*
X33200000Y29025000I0J-425000D01*
G01*
X33200000Y28175000D01*
G75*
G02*
X32775000Y27750000I-425000J0D01*
G01*
X31225000Y27750000D01*
G75*
G02*
X30800000Y28175000I0J425000D01*
G01*
G37*
G36*
G01*
X41900000Y33175000D02*
X41900000Y34025000D01*
G75*
G02*
X42325000Y34450000I425000J0D01*
G01*
X43875000Y34450000D01*
G75*
G02*
X44300000Y34025000I0J-425000D01*
G01*
X44300000Y33175000D01*
G75*
G02*
X43875000Y32750000I-425000J0D01*
G01*
X42325000Y32750000D01*
G75*
G02*
X41900000Y33175000I0J425000D01*
G01*
G37*
G36*
G01*
X44800000Y33175000D02*
X44800000Y34025000D01*
G75*
G02*
X45225000Y34450000I425000J0D01*
G01*
X46775000Y34450000D01*
G75*
G02*
X47200000Y34025000I0J-425000D01*
G01*
X47200000Y33175000D01*
G75*
G02*
X46775000Y32750000I-425000J0D01*
G01*
X45225000Y32750000D01*
G75*
G02*
X44800000Y33175000I0J425000D01*
G01*
G37*
G36*
G01*
X44800000Y30975000D02*
X44800000Y31825000D01*
G75*
G02*
X45225000Y32250000I425000J0D01*
G01*
X46775000Y32250000D01*
G75*
G02*
X47200000Y31825000I0J-425000D01*
G01*
X47200000Y30975000D01*
G75*
G02*
X46775000Y30550000I-425000J0D01*
G01*
X45225000Y30550000D01*
G75*
G02*
X44800000Y30975000I0J425000D01*
G01*
G37*
G36*
G01*
X41900000Y30975000D02*
X41900000Y31825000D01*
G75*
G02*
X42325000Y32250000I425000J0D01*
G01*
X43875000Y32250000D01*
G75*
G02*
X44300000Y31825000I0J-425000D01*
G01*
X44300000Y30975000D01*
G75*
G02*
X43875000Y30550000I-425000J0D01*
G01*
X42325000Y30550000D01*
G75*
G02*
X41900000Y30975000I0J425000D01*
G01*
G37*
G36*
G01*
X41900000Y28175000D02*
X41900000Y29025000D01*
G75*
G02*
X42325000Y29450000I425000J0D01*
G01*
X43875000Y29450000D01*
G75*
G02*
X44300000Y29025000I0J-425000D01*
G01*
X44300000Y28175000D01*
G75*
G02*
X43875000Y27750000I-425000J0D01*
G01*
X42325000Y27750000D01*
G75*
G02*
X41900000Y28175000I0J425000D01*
G01*
G37*
G36*
G01*
X44800000Y28175000D02*
X44800000Y29025000D01*
G75*
G02*
X45225000Y29450000I425000J0D01*
G01*
X46775000Y29450000D01*
G75*
G02*
X47200000Y29025000I0J-425000D01*
G01*
X47200000Y28175000D01*
G75*
G02*
X46775000Y27750000I-425000J0D01*
G01*
X45225000Y27750000D01*
G75*
G02*
X44800000Y28175000I0J425000D01*
G01*
G37*
G36*
G01*
X44800000Y25975000D02*
X44800000Y26825000D01*
G75*
G02*
X45225000Y27250000I425000J0D01*
G01*
X46775000Y27250000D01*
G75*
G02*
X47200000Y26825000I0J-425000D01*
G01*
X47200000Y25975000D01*
G75*
G02*
X46775000Y25550000I-425000J0D01*
G01*
X45225000Y25550000D01*
G75*
G02*
X44800000Y25975000I0J425000D01*
G01*
G37*
G36*
G01*
X41900000Y25975000D02*
X41900000Y26825000D01*
G75*
G02*
X42325000Y27250000I425000J0D01*
G01*
X43875000Y27250000D01*
G75*
G02*
X44300000Y26825000I0J-425000D01*
G01*
X44300000Y25975000D01*
G75*
G02*
X43875000Y25550000I-425000J0D01*
G01*
X42325000Y25550000D01*
G75*
G02*
X41900000Y25975000I0J425000D01*
G01*
G37*
G36*
G01*
X44800000Y29850000D02*
X44800000Y30150000D01*
G75*
G02*
X44950000Y30300000I150000J0D01*
G01*
X47050000Y30300000D01*
G75*
G02*
X47200000Y30150000I0J-150000D01*
G01*
X47200000Y29850000D01*
G75*
G02*
X47050000Y29700000I-150000J0D01*
G01*
X44950000Y29700000D01*
G75*
G02*
X44800000Y29850000I0J150000D01*
G01*
G37*
G36*
G01*
X41900000Y29850000D02*
X41900000Y30150000D01*
G75*
G02*
X42050000Y30300000I150000J0D01*
G01*
X44150000Y30300000D01*
G75*
G02*
X44300000Y30150000I0J-150000D01*
G01*
X44300000Y29850000D01*
G75*
G02*
X44150000Y29700000I-150000J0D01*
G01*
X42050000Y29700000D01*
G75*
G02*
X41900000Y29850000I0J150000D01*
G01*
G37*
%TD*%
%TO.C,R58*%
G36*
G01*
X94402775Y79300000D02*
X95597225Y79300000D01*
G75*
G02*
X95825000Y79072225I0J-227775D01*
G01*
X95825000Y78502775D01*
G75*
G02*
X95597225Y78275000I-227775J0D01*
G01*
X94402775Y78275000D01*
G75*
G02*
X94175000Y78502775I0J227775D01*
G01*
X94175000Y79072225D01*
G75*
G02*
X94402775Y79300000I227775J0D01*
G01*
G37*
G36*
G01*
X94402775Y82225000D02*
X95597225Y82225000D01*
G75*
G02*
X95825000Y81997225I0J-227775D01*
G01*
X95825000Y81427775D01*
G75*
G02*
X95597225Y81200000I-227775J0D01*
G01*
X94402775Y81200000D01*
G75*
G02*
X94175000Y81427775I0J227775D01*
G01*
X94175000Y81997225D01*
G75*
G02*
X94402775Y82225000I227775J0D01*
G01*
G37*
%TD*%
%TO.C,R57*%
G36*
G01*
X89402775Y79300000D02*
X90597225Y79300000D01*
G75*
G02*
X90825000Y79072225I0J-227775D01*
G01*
X90825000Y78502775D01*
G75*
G02*
X90597225Y78275000I-227775J0D01*
G01*
X89402775Y78275000D01*
G75*
G02*
X89175000Y78502775I0J227775D01*
G01*
X89175000Y79072225D01*
G75*
G02*
X89402775Y79300000I227775J0D01*
G01*
G37*
G36*
G01*
X89402775Y82225000D02*
X90597225Y82225000D01*
G75*
G02*
X90825000Y81997225I0J-227775D01*
G01*
X90825000Y81427775D01*
G75*
G02*
X90597225Y81200000I-227775J0D01*
G01*
X89402775Y81200000D01*
G75*
G02*
X89175000Y81427775I0J227775D01*
G01*
X89175000Y81997225D01*
G75*
G02*
X89402775Y82225000I227775J0D01*
G01*
G37*
%TD*%
%TO.C,R56*%
G36*
G01*
X104950000Y74402775D02*
X104950000Y75597225D01*
G75*
G02*
X105177775Y75825000I227775J0D01*
G01*
X105747225Y75825000D01*
G75*
G02*
X105975000Y75597225I0J-227775D01*
G01*
X105975000Y74402775D01*
G75*
G02*
X105747225Y74175000I-227775J0D01*
G01*
X105177775Y74175000D01*
G75*
G02*
X104950000Y74402775I0J227775D01*
G01*
G37*
G36*
G01*
X102025000Y74402775D02*
X102025000Y75597225D01*
G75*
G02*
X102252775Y75825000I227775J0D01*
G01*
X102822225Y75825000D01*
G75*
G02*
X103050000Y75597225I0J-227775D01*
G01*
X103050000Y74402775D01*
G75*
G02*
X102822225Y74175000I-227775J0D01*
G01*
X102252775Y74175000D01*
G75*
G02*
X102025000Y74402775I0J227775D01*
G01*
G37*
%TD*%
%TO.C,R55*%
G36*
G01*
X103700000Y76652775D02*
X103700000Y77847225D01*
G75*
G02*
X103927775Y78075000I227775J0D01*
G01*
X104497225Y78075000D01*
G75*
G02*
X104725000Y77847225I0J-227775D01*
G01*
X104725000Y76652775D01*
G75*
G02*
X104497225Y76425000I-227775J0D01*
G01*
X103927775Y76425000D01*
G75*
G02*
X103700000Y76652775I0J227775D01*
G01*
G37*
G36*
G01*
X100775000Y76652775D02*
X100775000Y77847225D01*
G75*
G02*
X101002775Y78075000I227775J0D01*
G01*
X101572225Y78075000D01*
G75*
G02*
X101800000Y77847225I0J-227775D01*
G01*
X101800000Y76652775D01*
G75*
G02*
X101572225Y76425000I-227775J0D01*
G01*
X101002775Y76425000D01*
G75*
G02*
X100775000Y76652775I0J227775D01*
G01*
G37*
%TD*%
%TO.C,R54*%
G36*
G01*
X108197225Y70550000D02*
X107002775Y70550000D01*
G75*
G02*
X106775000Y70777775I0J227775D01*
G01*
X106775000Y71347225D01*
G75*
G02*
X107002775Y71575000I227775J0D01*
G01*
X108197225Y71575000D01*
G75*
G02*
X108425000Y71347225I0J-227775D01*
G01*
X108425000Y70777775D01*
G75*
G02*
X108197225Y70550000I-227775J0D01*
G01*
G37*
G36*
G01*
X108197225Y67625000D02*
X107002775Y67625000D01*
G75*
G02*
X106775000Y67852775I0J227775D01*
G01*
X106775000Y68422225D01*
G75*
G02*
X107002775Y68650000I227775J0D01*
G01*
X108197225Y68650000D01*
G75*
G02*
X108425000Y68422225I0J-227775D01*
G01*
X108425000Y67852775D01*
G75*
G02*
X108197225Y67625000I-227775J0D01*
G01*
G37*
%TD*%
%TO.C,C39*%
G36*
G01*
X100121741Y70450000D02*
X98878259Y70450000D01*
G75*
G02*
X98650000Y70678259I0J228259D01*
G01*
X98650000Y71271741D01*
G75*
G02*
X98878259Y71500000I228259J0D01*
G01*
X100121741Y71500000D01*
G75*
G02*
X100350000Y71271741I0J-228259D01*
G01*
X100350000Y70678259D01*
G75*
G02*
X100121741Y70450000I-228259J0D01*
G01*
G37*
G36*
G01*
X100121741Y67500000D02*
X98878259Y67500000D01*
G75*
G02*
X98650000Y67728259I0J228259D01*
G01*
X98650000Y68321741D01*
G75*
G02*
X98878259Y68550000I228259J0D01*
G01*
X100121741Y68550000D01*
G75*
G02*
X100350000Y68321741I0J-228259D01*
G01*
X100350000Y67728259D01*
G75*
G02*
X100121741Y67500000I-228259J0D01*
G01*
G37*
%TD*%
%TO.C,C38*%
G36*
G01*
X94700000Y37628259D02*
X94700000Y38871741D01*
G75*
G02*
X94928259Y39100000I228259J0D01*
G01*
X95521741Y39100000D01*
G75*
G02*
X95750000Y38871741I0J-228259D01*
G01*
X95750000Y37628259D01*
G75*
G02*
X95521741Y37400000I-228259J0D01*
G01*
X94928259Y37400000D01*
G75*
G02*
X94700000Y37628259I0J228259D01*
G01*
G37*
G36*
G01*
X91750000Y37628259D02*
X91750000Y38871741D01*
G75*
G02*
X91978259Y39100000I228259J0D01*
G01*
X92571741Y39100000D01*
G75*
G02*
X92800000Y38871741I0J-228259D01*
G01*
X92800000Y37628259D01*
G75*
G02*
X92571741Y37400000I-228259J0D01*
G01*
X91978259Y37400000D01*
G75*
G02*
X91750000Y37628259I0J228259D01*
G01*
G37*
%TD*%
%TO.C,U6*%
G36*
G01*
X2470000Y35050000D02*
X2220000Y35050000D01*
G75*
G02*
X2095000Y35175000I0J125000D01*
G01*
X2095000Y36775000D01*
G75*
G02*
X2220000Y36900000I125000J0D01*
G01*
X2470000Y36900000D01*
G75*
G02*
X2595000Y36775000I0J-125000D01*
G01*
X2595000Y35175000D01*
G75*
G02*
X2470000Y35050000I-125000J0D01*
G01*
G37*
G36*
G01*
X3740000Y35050000D02*
X3490000Y35050000D01*
G75*
G02*
X3365000Y35175000I0J125000D01*
G01*
X3365000Y36775000D01*
G75*
G02*
X3490000Y36900000I125000J0D01*
G01*
X3740000Y36900000D01*
G75*
G02*
X3865000Y36775000I0J-125000D01*
G01*
X3865000Y35175000D01*
G75*
G02*
X3740000Y35050000I-125000J0D01*
G01*
G37*
G36*
G01*
X5010000Y35050000D02*
X4760000Y35050000D01*
G75*
G02*
X4635000Y35175000I0J125000D01*
G01*
X4635000Y36775000D01*
G75*
G02*
X4760000Y36900000I125000J0D01*
G01*
X5010000Y36900000D01*
G75*
G02*
X5135000Y36775000I0J-125000D01*
G01*
X5135000Y35175000D01*
G75*
G02*
X5010000Y35050000I-125000J0D01*
G01*
G37*
G36*
G01*
X6280000Y35050000D02*
X6030000Y35050000D01*
G75*
G02*
X5905000Y35175000I0J125000D01*
G01*
X5905000Y36775000D01*
G75*
G02*
X6030000Y36900000I125000J0D01*
G01*
X6280000Y36900000D01*
G75*
G02*
X6405000Y36775000I0J-125000D01*
G01*
X6405000Y35175000D01*
G75*
G02*
X6280000Y35050000I-125000J0D01*
G01*
G37*
G36*
G01*
X6280000Y30100000D02*
X6030000Y30100000D01*
G75*
G02*
X5905000Y30225000I0J125000D01*
G01*
X5905000Y31825000D01*
G75*
G02*
X6030000Y31950000I125000J0D01*
G01*
X6280000Y31950000D01*
G75*
G02*
X6405000Y31825000I0J-125000D01*
G01*
X6405000Y30225000D01*
G75*
G02*
X6280000Y30100000I-125000J0D01*
G01*
G37*
G36*
G01*
X5010000Y30100000D02*
X4760000Y30100000D01*
G75*
G02*
X4635000Y30225000I0J125000D01*
G01*
X4635000Y31825000D01*
G75*
G02*
X4760000Y31950000I125000J0D01*
G01*
X5010000Y31950000D01*
G75*
G02*
X5135000Y31825000I0J-125000D01*
G01*
X5135000Y30225000D01*
G75*
G02*
X5010000Y30100000I-125000J0D01*
G01*
G37*
G36*
G01*
X3740000Y30100000D02*
X3490000Y30100000D01*
G75*
G02*
X3365000Y30225000I0J125000D01*
G01*
X3365000Y31825000D01*
G75*
G02*
X3490000Y31950000I125000J0D01*
G01*
X3740000Y31950000D01*
G75*
G02*
X3865000Y31825000I0J-125000D01*
G01*
X3865000Y30225000D01*
G75*
G02*
X3740000Y30100000I-125000J0D01*
G01*
G37*
G36*
G01*
X2470000Y30100000D02*
X2220000Y30100000D01*
G75*
G02*
X2095000Y30225000I0J125000D01*
G01*
X2095000Y31825000D01*
G75*
G02*
X2220000Y31950000I125000J0D01*
G01*
X2470000Y31950000D01*
G75*
G02*
X2595000Y31825000I0J-125000D01*
G01*
X2595000Y30225000D01*
G75*
G02*
X2470000Y30100000I-125000J0D01*
G01*
G37*
%TD*%
%TO.C,U3*%
G36*
G01*
X74780000Y21950000D02*
X75030000Y21950000D01*
G75*
G02*
X75155000Y21825000I0J-125000D01*
G01*
X75155000Y20225000D01*
G75*
G02*
X75030000Y20100000I-125000J0D01*
G01*
X74780000Y20100000D01*
G75*
G02*
X74655000Y20225000I0J125000D01*
G01*
X74655000Y21825000D01*
G75*
G02*
X74780000Y21950000I125000J0D01*
G01*
G37*
G36*
G01*
X73510000Y21950000D02*
X73760000Y21950000D01*
G75*
G02*
X73885000Y21825000I0J-125000D01*
G01*
X73885000Y20225000D01*
G75*
G02*
X73760000Y20100000I-125000J0D01*
G01*
X73510000Y20100000D01*
G75*
G02*
X73385000Y20225000I0J125000D01*
G01*
X73385000Y21825000D01*
G75*
G02*
X73510000Y21950000I125000J0D01*
G01*
G37*
G36*
G01*
X72240000Y21950000D02*
X72490000Y21950000D01*
G75*
G02*
X72615000Y21825000I0J-125000D01*
G01*
X72615000Y20225000D01*
G75*
G02*
X72490000Y20100000I-125000J0D01*
G01*
X72240000Y20100000D01*
G75*
G02*
X72115000Y20225000I0J125000D01*
G01*
X72115000Y21825000D01*
G75*
G02*
X72240000Y21950000I125000J0D01*
G01*
G37*
G36*
G01*
X70970000Y21950000D02*
X71220000Y21950000D01*
G75*
G02*
X71345000Y21825000I0J-125000D01*
G01*
X71345000Y20225000D01*
G75*
G02*
X71220000Y20100000I-125000J0D01*
G01*
X70970000Y20100000D01*
G75*
G02*
X70845000Y20225000I0J125000D01*
G01*
X70845000Y21825000D01*
G75*
G02*
X70970000Y21950000I125000J0D01*
G01*
G37*
G36*
G01*
X70970000Y26900000D02*
X71220000Y26900000D01*
G75*
G02*
X71345000Y26775000I0J-125000D01*
G01*
X71345000Y25175000D01*
G75*
G02*
X71220000Y25050000I-125000J0D01*
G01*
X70970000Y25050000D01*
G75*
G02*
X70845000Y25175000I0J125000D01*
G01*
X70845000Y26775000D01*
G75*
G02*
X70970000Y26900000I125000J0D01*
G01*
G37*
G36*
G01*
X72240000Y26900000D02*
X72490000Y26900000D01*
G75*
G02*
X72615000Y26775000I0J-125000D01*
G01*
X72615000Y25175000D01*
G75*
G02*
X72490000Y25050000I-125000J0D01*
G01*
X72240000Y25050000D01*
G75*
G02*
X72115000Y25175000I0J125000D01*
G01*
X72115000Y26775000D01*
G75*
G02*
X72240000Y26900000I125000J0D01*
G01*
G37*
G36*
G01*
X73510000Y26900000D02*
X73760000Y26900000D01*
G75*
G02*
X73885000Y26775000I0J-125000D01*
G01*
X73885000Y25175000D01*
G75*
G02*
X73760000Y25050000I-125000J0D01*
G01*
X73510000Y25050000D01*
G75*
G02*
X73385000Y25175000I0J125000D01*
G01*
X73385000Y26775000D01*
G75*
G02*
X73510000Y26900000I125000J0D01*
G01*
G37*
G36*
G01*
X74780000Y26900000D02*
X75030000Y26900000D01*
G75*
G02*
X75155000Y26775000I0J-125000D01*
G01*
X75155000Y25175000D01*
G75*
G02*
X75030000Y25050000I-125000J0D01*
G01*
X74780000Y25050000D01*
G75*
G02*
X74655000Y25175000I0J125000D01*
G01*
X74655000Y26775000D01*
G75*
G02*
X74780000Y26900000I125000J0D01*
G01*
G37*
%TD*%
%TO.C,R20*%
G36*
G01*
X23800000Y28097225D02*
X23800000Y26902775D01*
G75*
G02*
X23572225Y26675000I-227775J0D01*
G01*
X23002775Y26675000D01*
G75*
G02*
X22775000Y26902775I0J227775D01*
G01*
X22775000Y28097225D01*
G75*
G02*
X23002775Y28325000I227775J0D01*
G01*
X23572225Y28325000D01*
G75*
G02*
X23800000Y28097225I0J-227775D01*
G01*
G37*
G36*
G01*
X26725000Y28097225D02*
X26725000Y26902775D01*
G75*
G02*
X26497225Y26675000I-227775J0D01*
G01*
X25927775Y26675000D01*
G75*
G02*
X25700000Y26902775I0J227775D01*
G01*
X25700000Y28097225D01*
G75*
G02*
X25927775Y28325000I227775J0D01*
G01*
X26497225Y28325000D01*
G75*
G02*
X26725000Y28097225I0J-227775D01*
G01*
G37*
%TD*%
%TO.C,R19*%
G36*
G01*
X16050000Y20097225D02*
X16050000Y18902775D01*
G75*
G02*
X15822225Y18675000I-227775J0D01*
G01*
X15252775Y18675000D01*
G75*
G02*
X15025000Y18902775I0J227775D01*
G01*
X15025000Y20097225D01*
G75*
G02*
X15252775Y20325000I227775J0D01*
G01*
X15822225Y20325000D01*
G75*
G02*
X16050000Y20097225I0J-227775D01*
G01*
G37*
G36*
G01*
X18975000Y20097225D02*
X18975000Y18902775D01*
G75*
G02*
X18747225Y18675000I-227775J0D01*
G01*
X18177775Y18675000D01*
G75*
G02*
X17950000Y18902775I0J227775D01*
G01*
X17950000Y20097225D01*
G75*
G02*
X18177775Y20325000I227775J0D01*
G01*
X18747225Y20325000D01*
G75*
G02*
X18975000Y20097225I0J-227775D01*
G01*
G37*
%TD*%
%TO.C,R7*%
G36*
G01*
X63300000Y57597225D02*
X63300000Y56402775D01*
G75*
G02*
X63072225Y56175000I-227775J0D01*
G01*
X62502775Y56175000D01*
G75*
G02*
X62275000Y56402775I0J227775D01*
G01*
X62275000Y57597225D01*
G75*
G02*
X62502775Y57825000I227775J0D01*
G01*
X63072225Y57825000D01*
G75*
G02*
X63300000Y57597225I0J-227775D01*
G01*
G37*
G36*
G01*
X66225000Y57597225D02*
X66225000Y56402775D01*
G75*
G02*
X65997225Y56175000I-227775J0D01*
G01*
X65427775Y56175000D01*
G75*
G02*
X65200000Y56402775I0J227775D01*
G01*
X65200000Y57597225D01*
G75*
G02*
X65427775Y57825000I227775J0D01*
G01*
X65997225Y57825000D01*
G75*
G02*
X66225000Y57597225I0J-227775D01*
G01*
G37*
%TD*%
%TO.C,R6*%
G36*
G01*
X60450000Y56402775D02*
X60450000Y57597225D01*
G75*
G02*
X60677775Y57825000I227775J0D01*
G01*
X61247225Y57825000D01*
G75*
G02*
X61475000Y57597225I0J-227775D01*
G01*
X61475000Y56402775D01*
G75*
G02*
X61247225Y56175000I-227775J0D01*
G01*
X60677775Y56175000D01*
G75*
G02*
X60450000Y56402775I0J227775D01*
G01*
G37*
G36*
G01*
X57525000Y56402775D02*
X57525000Y57597225D01*
G75*
G02*
X57752775Y57825000I227775J0D01*
G01*
X58322225Y57825000D01*
G75*
G02*
X58550000Y57597225I0J-227775D01*
G01*
X58550000Y56402775D01*
G75*
G02*
X58322225Y56175000I-227775J0D01*
G01*
X57752775Y56175000D01*
G75*
G02*
X57525000Y56402775I0J227775D01*
G01*
G37*
%TD*%
D10*
%TO.C,D2*%
X64250000Y54750000D03*
X65200000Y52750000D03*
X63300000Y52750000D03*
%TD*%
%TO.C,C17*%
G36*
G01*
X18871741Y26450000D02*
X17628259Y26450000D01*
G75*
G02*
X17400000Y26678259I0J228259D01*
G01*
X17400000Y27271741D01*
G75*
G02*
X17628259Y27500000I228259J0D01*
G01*
X18871741Y27500000D01*
G75*
G02*
X19100000Y27271741I0J-228259D01*
G01*
X19100000Y26678259D01*
G75*
G02*
X18871741Y26450000I-228259J0D01*
G01*
G37*
G36*
G01*
X18871741Y23500000D02*
X17628259Y23500000D01*
G75*
G02*
X17400000Y23728259I0J228259D01*
G01*
X17400000Y24321741D01*
G75*
G02*
X17628259Y24550000I228259J0D01*
G01*
X18871741Y24550000D01*
G75*
G02*
X19100000Y24321741I0J-228259D01*
G01*
X19100000Y23728259D01*
G75*
G02*
X18871741Y23500000I-228259J0D01*
G01*
G37*
%TD*%
%TO.C,C5*%
G36*
G01*
X79628259Y31300000D02*
X80871741Y31300000D01*
G75*
G02*
X81100000Y31071741I0J-228259D01*
G01*
X81100000Y30478259D01*
G75*
G02*
X80871741Y30250000I-228259J0D01*
G01*
X79628259Y30250000D01*
G75*
G02*
X79400000Y30478259I0J228259D01*
G01*
X79400000Y31071741D01*
G75*
G02*
X79628259Y31300000I228259J0D01*
G01*
G37*
G36*
G01*
X79628259Y34250000D02*
X80871741Y34250000D01*
G75*
G02*
X81100000Y34021741I0J-228259D01*
G01*
X81100000Y33428259D01*
G75*
G02*
X80871741Y33200000I-228259J0D01*
G01*
X79628259Y33200000D01*
G75*
G02*
X79400000Y33428259I0J228259D01*
G01*
X79400000Y34021741D01*
G75*
G02*
X79628259Y34250000I228259J0D01*
G01*
G37*
%TD*%
%TO.C,C30*%
G36*
G01*
X69265625Y12350000D02*
X68234375Y12350000D01*
G75*
G02*
X68000000Y12584375I0J234375D01*
G01*
X68000000Y15515625D01*
G75*
G02*
X68234375Y15750000I234375J0D01*
G01*
X69265625Y15750000D01*
G75*
G02*
X69500000Y15515625I0J-234375D01*
G01*
X69500000Y12584375D01*
G75*
G02*
X69265625Y12350000I-234375J0D01*
G01*
G37*
G36*
G01*
X69265625Y6750000D02*
X68234375Y6750000D01*
G75*
G02*
X68000000Y6984375I0J234375D01*
G01*
X68000000Y9915625D01*
G75*
G02*
X68234375Y10150000I234375J0D01*
G01*
X69265625Y10150000D01*
G75*
G02*
X69500000Y9915625I0J-234375D01*
G01*
X69500000Y6984375D01*
G75*
G02*
X69265625Y6750000I-234375J0D01*
G01*
G37*
%TD*%
%TO.C,C32*%
G36*
G01*
X91515625Y13100000D02*
X90484375Y13100000D01*
G75*
G02*
X90250000Y13334375I0J234375D01*
G01*
X90250000Y16265625D01*
G75*
G02*
X90484375Y16500000I234375J0D01*
G01*
X91515625Y16500000D01*
G75*
G02*
X91750000Y16265625I0J-234375D01*
G01*
X91750000Y13334375D01*
G75*
G02*
X91515625Y13100000I-234375J0D01*
G01*
G37*
G36*
G01*
X91515625Y7500000D02*
X90484375Y7500000D01*
G75*
G02*
X90250000Y7734375I0J234375D01*
G01*
X90250000Y10665625D01*
G75*
G02*
X90484375Y10900000I234375J0D01*
G01*
X91515625Y10900000D01*
G75*
G02*
X91750000Y10665625I0J-234375D01*
G01*
X91750000Y7734375D01*
G75*
G02*
X91515625Y7500000I-234375J0D01*
G01*
G37*
%TD*%
%TO.C,C28*%
G36*
G01*
X62350000Y15484375D02*
X62350000Y16515625D01*
G75*
G02*
X62584375Y16750000I234375J0D01*
G01*
X65515625Y16750000D01*
G75*
G02*
X65750000Y16515625I0J-234375D01*
G01*
X65750000Y15484375D01*
G75*
G02*
X65515625Y15250000I-234375J0D01*
G01*
X62584375Y15250000D01*
G75*
G02*
X62350000Y15484375I0J234375D01*
G01*
G37*
G36*
G01*
X56750000Y15484375D02*
X56750000Y16515625D01*
G75*
G02*
X56984375Y16750000I234375J0D01*
G01*
X59915625Y16750000D01*
G75*
G02*
X60150000Y16515625I0J-234375D01*
G01*
X60150000Y15484375D01*
G75*
G02*
X59915625Y15250000I-234375J0D01*
G01*
X56984375Y15250000D01*
G75*
G02*
X56750000Y15484375I0J234375D01*
G01*
G37*
%TD*%
D14*
%TO.C,Y1*%
X76650000Y52350000D03*
X78850000Y52350000D03*
X78850000Y50650000D03*
X76650000Y50650000D03*
%TD*%
D15*
%TO.C,U5*%
X89000000Y44550000D03*
X89000000Y43750000D03*
X89000000Y42950000D03*
X89000000Y42150000D03*
X89000000Y41350000D03*
X89000000Y40550000D03*
X89000000Y39750000D03*
X89000000Y38950000D03*
D16*
X87550000Y37500000D03*
X86750000Y37500000D03*
X85950000Y37500000D03*
X85150000Y37500000D03*
X84350000Y37500000D03*
X83550000Y37500000D03*
X82750000Y37500000D03*
X81950000Y37500000D03*
D15*
X80500000Y38950000D03*
X80500000Y39750000D03*
X80500000Y40550000D03*
X80500000Y41350000D03*
X80500000Y42150000D03*
X80500000Y42950000D03*
X80500000Y43750000D03*
X80500000Y44550000D03*
D16*
X81950000Y46000000D03*
X82750000Y46000000D03*
X83550000Y46000000D03*
X84350000Y46000000D03*
X85150000Y46000000D03*
X85950000Y46000000D03*
X86750000Y46000000D03*
X87550000Y46000000D03*
%TD*%
%TO.C,U4*%
G36*
G01*
X102550000Y36570000D02*
X102550000Y36820000D01*
G75*
G02*
X102675000Y36945000I125000J0D01*
G01*
X104275000Y36945000D01*
G75*
G02*
X104400000Y36820000I0J-125000D01*
G01*
X104400000Y36570000D01*
G75*
G02*
X104275000Y36445000I-125000J0D01*
G01*
X102675000Y36445000D01*
G75*
G02*
X102550000Y36570000I0J125000D01*
G01*
G37*
G36*
G01*
X102550000Y35300000D02*
X102550000Y35550000D01*
G75*
G02*
X102675000Y35675000I125000J0D01*
G01*
X104275000Y35675000D01*
G75*
G02*
X104400000Y35550000I0J-125000D01*
G01*
X104400000Y35300000D01*
G75*
G02*
X104275000Y35175000I-125000J0D01*
G01*
X102675000Y35175000D01*
G75*
G02*
X102550000Y35300000I0J125000D01*
G01*
G37*
G36*
G01*
X102550000Y34030000D02*
X102550000Y34280000D01*
G75*
G02*
X102675000Y34405000I125000J0D01*
G01*
X104275000Y34405000D01*
G75*
G02*
X104400000Y34280000I0J-125000D01*
G01*
X104400000Y34030000D01*
G75*
G02*
X104275000Y33905000I-125000J0D01*
G01*
X102675000Y33905000D01*
G75*
G02*
X102550000Y34030000I0J125000D01*
G01*
G37*
G36*
G01*
X102550000Y32760000D02*
X102550000Y33010000D01*
G75*
G02*
X102675000Y33135000I125000J0D01*
G01*
X104275000Y33135000D01*
G75*
G02*
X104400000Y33010000I0J-125000D01*
G01*
X104400000Y32760000D01*
G75*
G02*
X104275000Y32635000I-125000J0D01*
G01*
X102675000Y32635000D01*
G75*
G02*
X102550000Y32760000I0J125000D01*
G01*
G37*
G36*
G01*
X102550000Y31490000D02*
X102550000Y31740000D01*
G75*
G02*
X102675000Y31865000I125000J0D01*
G01*
X104275000Y31865000D01*
G75*
G02*
X104400000Y31740000I0J-125000D01*
G01*
X104400000Y31490000D01*
G75*
G02*
X104275000Y31365000I-125000J0D01*
G01*
X102675000Y31365000D01*
G75*
G02*
X102550000Y31490000I0J125000D01*
G01*
G37*
G36*
G01*
X102550000Y30220000D02*
X102550000Y30470000D01*
G75*
G02*
X102675000Y30595000I125000J0D01*
G01*
X104275000Y30595000D01*
G75*
G02*
X104400000Y30470000I0J-125000D01*
G01*
X104400000Y30220000D01*
G75*
G02*
X104275000Y30095000I-125000J0D01*
G01*
X102675000Y30095000D01*
G75*
G02*
X102550000Y30220000I0J125000D01*
G01*
G37*
G36*
G01*
X102550000Y28950000D02*
X102550000Y29200000D01*
G75*
G02*
X102675000Y29325000I125000J0D01*
G01*
X104275000Y29325000D01*
G75*
G02*
X104400000Y29200000I0J-125000D01*
G01*
X104400000Y28950000D01*
G75*
G02*
X104275000Y28825000I-125000J0D01*
G01*
X102675000Y28825000D01*
G75*
G02*
X102550000Y28950000I0J125000D01*
G01*
G37*
G36*
G01*
X102550000Y27680000D02*
X102550000Y27930000D01*
G75*
G02*
X102675000Y28055000I125000J0D01*
G01*
X104275000Y28055000D01*
G75*
G02*
X104400000Y27930000I0J-125000D01*
G01*
X104400000Y27680000D01*
G75*
G02*
X104275000Y27555000I-125000J0D01*
G01*
X102675000Y27555000D01*
G75*
G02*
X102550000Y27680000I0J125000D01*
G01*
G37*
G36*
G01*
X97600000Y27680000D02*
X97600000Y27930000D01*
G75*
G02*
X97725000Y28055000I125000J0D01*
G01*
X99325000Y28055000D01*
G75*
G02*
X99450000Y27930000I0J-125000D01*
G01*
X99450000Y27680000D01*
G75*
G02*
X99325000Y27555000I-125000J0D01*
G01*
X97725000Y27555000D01*
G75*
G02*
X97600000Y27680000I0J125000D01*
G01*
G37*
G36*
G01*
X97600000Y28950000D02*
X97600000Y29200000D01*
G75*
G02*
X97725000Y29325000I125000J0D01*
G01*
X99325000Y29325000D01*
G75*
G02*
X99450000Y29200000I0J-125000D01*
G01*
X99450000Y28950000D01*
G75*
G02*
X99325000Y28825000I-125000J0D01*
G01*
X97725000Y28825000D01*
G75*
G02*
X97600000Y28950000I0J125000D01*
G01*
G37*
G36*
G01*
X97600000Y30220000D02*
X97600000Y30470000D01*
G75*
G02*
X97725000Y30595000I125000J0D01*
G01*
X99325000Y30595000D01*
G75*
G02*
X99450000Y30470000I0J-125000D01*
G01*
X99450000Y30220000D01*
G75*
G02*
X99325000Y30095000I-125000J0D01*
G01*
X97725000Y30095000D01*
G75*
G02*
X97600000Y30220000I0J125000D01*
G01*
G37*
G36*
G01*
X97600000Y31490000D02*
X97600000Y31740000D01*
G75*
G02*
X97725000Y31865000I125000J0D01*
G01*
X99325000Y31865000D01*
G75*
G02*
X99450000Y31740000I0J-125000D01*
G01*
X99450000Y31490000D01*
G75*
G02*
X99325000Y31365000I-125000J0D01*
G01*
X97725000Y31365000D01*
G75*
G02*
X97600000Y31490000I0J125000D01*
G01*
G37*
G36*
G01*
X97600000Y32760000D02*
X97600000Y33010000D01*
G75*
G02*
X97725000Y33135000I125000J0D01*
G01*
X99325000Y33135000D01*
G75*
G02*
X99450000Y33010000I0J-125000D01*
G01*
X99450000Y32760000D01*
G75*
G02*
X99325000Y32635000I-125000J0D01*
G01*
X97725000Y32635000D01*
G75*
G02*
X97600000Y32760000I0J125000D01*
G01*
G37*
G36*
G01*
X97600000Y34030000D02*
X97600000Y34280000D01*
G75*
G02*
X97725000Y34405000I125000J0D01*
G01*
X99325000Y34405000D01*
G75*
G02*
X99450000Y34280000I0J-125000D01*
G01*
X99450000Y34030000D01*
G75*
G02*
X99325000Y33905000I-125000J0D01*
G01*
X97725000Y33905000D01*
G75*
G02*
X97600000Y34030000I0J125000D01*
G01*
G37*
G36*
G01*
X97600000Y35300000D02*
X97600000Y35550000D01*
G75*
G02*
X97725000Y35675000I125000J0D01*
G01*
X99325000Y35675000D01*
G75*
G02*
X99450000Y35550000I0J-125000D01*
G01*
X99450000Y35300000D01*
G75*
G02*
X99325000Y35175000I-125000J0D01*
G01*
X97725000Y35175000D01*
G75*
G02*
X97600000Y35300000I0J125000D01*
G01*
G37*
G36*
G01*
X97600000Y36570000D02*
X97600000Y36820000D01*
G75*
G02*
X97725000Y36945000I125000J0D01*
G01*
X99325000Y36945000D01*
G75*
G02*
X99450000Y36820000I0J-125000D01*
G01*
X99450000Y36570000D01*
G75*
G02*
X99325000Y36445000I-125000J0D01*
G01*
X97725000Y36445000D01*
G75*
G02*
X97600000Y36570000I0J125000D01*
G01*
G37*
%TD*%
D17*
%TO.C,U2*%
X92650000Y59550000D03*
X92650000Y61450000D03*
X94850000Y61450000D03*
X94850000Y60500000D03*
X94850000Y59550000D03*
%TD*%
%TO.C,R18*%
G36*
G01*
X69652775Y31300000D02*
X70847225Y31300000D01*
G75*
G02*
X71075000Y31072225I0J-227775D01*
G01*
X71075000Y30502775D01*
G75*
G02*
X70847225Y30275000I-227775J0D01*
G01*
X69652775Y30275000D01*
G75*
G02*
X69425000Y30502775I0J227775D01*
G01*
X69425000Y31072225D01*
G75*
G02*
X69652775Y31300000I227775J0D01*
G01*
G37*
G36*
G01*
X69652775Y34225000D02*
X70847225Y34225000D01*
G75*
G02*
X71075000Y33997225I0J-227775D01*
G01*
X71075000Y33427775D01*
G75*
G02*
X70847225Y33200000I-227775J0D01*
G01*
X69652775Y33200000D01*
G75*
G02*
X69425000Y33427775I0J227775D01*
G01*
X69425000Y33997225D01*
G75*
G02*
X69652775Y34225000I227775J0D01*
G01*
G37*
%TD*%
%TO.C,R17*%
G36*
G01*
X94700000Y40152775D02*
X94700000Y41347225D01*
G75*
G02*
X94927775Y41575000I227775J0D01*
G01*
X95497225Y41575000D01*
G75*
G02*
X95725000Y41347225I0J-227775D01*
G01*
X95725000Y40152775D01*
G75*
G02*
X95497225Y39925000I-227775J0D01*
G01*
X94927775Y39925000D01*
G75*
G02*
X94700000Y40152775I0J227775D01*
G01*
G37*
G36*
G01*
X91775000Y40152775D02*
X91775000Y41347225D01*
G75*
G02*
X92002775Y41575000I227775J0D01*
G01*
X92572225Y41575000D01*
G75*
G02*
X92800000Y41347225I0J-227775D01*
G01*
X92800000Y40152775D01*
G75*
G02*
X92572225Y39925000I-227775J0D01*
G01*
X92002775Y39925000D01*
G75*
G02*
X91775000Y40152775I0J227775D01*
G01*
G37*
%TD*%
%TO.C,R15*%
G36*
G01*
X73347225Y33200000D02*
X72152775Y33200000D01*
G75*
G02*
X71925000Y33427775I0J227775D01*
G01*
X71925000Y33997225D01*
G75*
G02*
X72152775Y34225000I227775J0D01*
G01*
X73347225Y34225000D01*
G75*
G02*
X73575000Y33997225I0J-227775D01*
G01*
X73575000Y33427775D01*
G75*
G02*
X73347225Y33200000I-227775J0D01*
G01*
G37*
G36*
G01*
X73347225Y30275000D02*
X72152775Y30275000D01*
G75*
G02*
X71925000Y30502775I0J227775D01*
G01*
X71925000Y31072225D01*
G75*
G02*
X72152775Y31300000I227775J0D01*
G01*
X73347225Y31300000D01*
G75*
G02*
X73575000Y31072225I0J-227775D01*
G01*
X73575000Y30502775D01*
G75*
G02*
X73347225Y30275000I-227775J0D01*
G01*
G37*
%TD*%
%TO.C,R14*%
G36*
G01*
X94700000Y44652775D02*
X94700000Y45847225D01*
G75*
G02*
X94927775Y46075000I227775J0D01*
G01*
X95497225Y46075000D01*
G75*
G02*
X95725000Y45847225I0J-227775D01*
G01*
X95725000Y44652775D01*
G75*
G02*
X95497225Y44425000I-227775J0D01*
G01*
X94927775Y44425000D01*
G75*
G02*
X94700000Y44652775I0J227775D01*
G01*
G37*
G36*
G01*
X91775000Y44652775D02*
X91775000Y45847225D01*
G75*
G02*
X92002775Y46075000I227775J0D01*
G01*
X92572225Y46075000D01*
G75*
G02*
X92800000Y45847225I0J-227775D01*
G01*
X92800000Y44652775D01*
G75*
G02*
X92572225Y44425000I-227775J0D01*
G01*
X92002775Y44425000D01*
G75*
G02*
X91775000Y44652775I0J227775D01*
G01*
G37*
%TD*%
%TO.C,R13*%
G36*
G01*
X92800000Y43597225D02*
X92800000Y42402775D01*
G75*
G02*
X92572225Y42175000I-227775J0D01*
G01*
X92002775Y42175000D01*
G75*
G02*
X91775000Y42402775I0J227775D01*
G01*
X91775000Y43597225D01*
G75*
G02*
X92002775Y43825000I227775J0D01*
G01*
X92572225Y43825000D01*
G75*
G02*
X92800000Y43597225I0J-227775D01*
G01*
G37*
G36*
G01*
X95725000Y43597225D02*
X95725000Y42402775D01*
G75*
G02*
X95497225Y42175000I-227775J0D01*
G01*
X94927775Y42175000D01*
G75*
G02*
X94700000Y42402775I0J227775D01*
G01*
X94700000Y43597225D01*
G75*
G02*
X94927775Y43825000I227775J0D01*
G01*
X95497225Y43825000D01*
G75*
G02*
X95725000Y43597225I0J-227775D01*
G01*
G37*
%TD*%
%TO.C,R12*%
G36*
G01*
X108200000Y34902775D02*
X108200000Y36097225D01*
G75*
G02*
X108427775Y36325000I227775J0D01*
G01*
X108997225Y36325000D01*
G75*
G02*
X109225000Y36097225I0J-227775D01*
G01*
X109225000Y34902775D01*
G75*
G02*
X108997225Y34675000I-227775J0D01*
G01*
X108427775Y34675000D01*
G75*
G02*
X108200000Y34902775I0J227775D01*
G01*
G37*
G36*
G01*
X105275000Y34902775D02*
X105275000Y36097225D01*
G75*
G02*
X105502775Y36325000I227775J0D01*
G01*
X106072225Y36325000D01*
G75*
G02*
X106300000Y36097225I0J-227775D01*
G01*
X106300000Y34902775D01*
G75*
G02*
X106072225Y34675000I-227775J0D01*
G01*
X105502775Y34675000D01*
G75*
G02*
X105275000Y34902775I0J227775D01*
G01*
G37*
%TD*%
%TO.C,R11*%
G36*
G01*
X95450000Y47652775D02*
X95450000Y48847225D01*
G75*
G02*
X95677775Y49075000I227775J0D01*
G01*
X96247225Y49075000D01*
G75*
G02*
X96475000Y48847225I0J-227775D01*
G01*
X96475000Y47652775D01*
G75*
G02*
X96247225Y47425000I-227775J0D01*
G01*
X95677775Y47425000D01*
G75*
G02*
X95450000Y47652775I0J227775D01*
G01*
G37*
G36*
G01*
X92525000Y47652775D02*
X92525000Y48847225D01*
G75*
G02*
X92752775Y49075000I227775J0D01*
G01*
X93322225Y49075000D01*
G75*
G02*
X93550000Y48847225I0J-227775D01*
G01*
X93550000Y47652775D01*
G75*
G02*
X93322225Y47425000I-227775J0D01*
G01*
X92752775Y47425000D01*
G75*
G02*
X92525000Y47652775I0J227775D01*
G01*
G37*
%TD*%
%TO.C,R10*%
G36*
G01*
X100200000Y60902775D02*
X100200000Y62097225D01*
G75*
G02*
X100427775Y62325000I227775J0D01*
G01*
X100997225Y62325000D01*
G75*
G02*
X101225000Y62097225I0J-227775D01*
G01*
X101225000Y60902775D01*
G75*
G02*
X100997225Y60675000I-227775J0D01*
G01*
X100427775Y60675000D01*
G75*
G02*
X100200000Y60902775I0J227775D01*
G01*
G37*
G36*
G01*
X97275000Y60902775D02*
X97275000Y62097225D01*
G75*
G02*
X97502775Y62325000I227775J0D01*
G01*
X98072225Y62325000D01*
G75*
G02*
X98300000Y62097225I0J-227775D01*
G01*
X98300000Y60902775D01*
G75*
G02*
X98072225Y60675000I-227775J0D01*
G01*
X97502775Y60675000D01*
G75*
G02*
X97275000Y60902775I0J227775D01*
G01*
G37*
%TD*%
%TO.C,D3*%
G36*
G01*
X105175000Y61595000D02*
X105175000Y60405000D01*
G75*
G02*
X104945000Y60175000I-230000J0D01*
G01*
X104255000Y60175000D01*
G75*
G02*
X104025000Y60405000I0J230000D01*
G01*
X104025000Y61595000D01*
G75*
G02*
X104255000Y61825000I230000J0D01*
G01*
X104945000Y61825000D01*
G75*
G02*
X105175000Y61595000I0J-230000D01*
G01*
G37*
G36*
G01*
X107975000Y61595000D02*
X107975000Y60405000D01*
G75*
G02*
X107745000Y60175000I-230000J0D01*
G01*
X107055000Y60175000D01*
G75*
G02*
X106825000Y60405000I0J230000D01*
G01*
X106825000Y61595000D01*
G75*
G02*
X107055000Y61825000I230000J0D01*
G01*
X107745000Y61825000D01*
G75*
G02*
X107975000Y61595000I0J-230000D01*
G01*
G37*
%TD*%
%TO.C,C16*%
G36*
G01*
X75121741Y52450000D02*
X73878259Y52450000D01*
G75*
G02*
X73650000Y52678259I0J228259D01*
G01*
X73650000Y53271741D01*
G75*
G02*
X73878259Y53500000I228259J0D01*
G01*
X75121741Y53500000D01*
G75*
G02*
X75350000Y53271741I0J-228259D01*
G01*
X75350000Y52678259D01*
G75*
G02*
X75121741Y52450000I-228259J0D01*
G01*
G37*
G36*
G01*
X75121741Y49500000D02*
X73878259Y49500000D01*
G75*
G02*
X73650000Y49728259I0J228259D01*
G01*
X73650000Y50321741D01*
G75*
G02*
X73878259Y50550000I228259J0D01*
G01*
X75121741Y50550000D01*
G75*
G02*
X75350000Y50321741I0J-228259D01*
G01*
X75350000Y49728259D01*
G75*
G02*
X75121741Y49500000I-228259J0D01*
G01*
G37*
%TD*%
%TO.C,C15*%
G36*
G01*
X81621741Y52450000D02*
X80378259Y52450000D01*
G75*
G02*
X80150000Y52678259I0J228259D01*
G01*
X80150000Y53271741D01*
G75*
G02*
X80378259Y53500000I228259J0D01*
G01*
X81621741Y53500000D01*
G75*
G02*
X81850000Y53271741I0J-228259D01*
G01*
X81850000Y52678259D01*
G75*
G02*
X81621741Y52450000I-228259J0D01*
G01*
G37*
G36*
G01*
X81621741Y49500000D02*
X80378259Y49500000D01*
G75*
G02*
X80150000Y49728259I0J228259D01*
G01*
X80150000Y50321741D01*
G75*
G02*
X80378259Y50550000I228259J0D01*
G01*
X81621741Y50550000D01*
G75*
G02*
X81850000Y50321741I0J-228259D01*
G01*
X81850000Y49728259D01*
G75*
G02*
X81621741Y49500000I-228259J0D01*
G01*
G37*
%TD*%
%TO.C,C14*%
G36*
G01*
X108200000Y32128259D02*
X108200000Y33371741D01*
G75*
G02*
X108428259Y33600000I228259J0D01*
G01*
X109021741Y33600000D01*
G75*
G02*
X109250000Y33371741I0J-228259D01*
G01*
X109250000Y32128259D01*
G75*
G02*
X109021741Y31900000I-228259J0D01*
G01*
X108428259Y31900000D01*
G75*
G02*
X108200000Y32128259I0J228259D01*
G01*
G37*
G36*
G01*
X105250000Y32128259D02*
X105250000Y33371741D01*
G75*
G02*
X105478259Y33600000I228259J0D01*
G01*
X106071741Y33600000D01*
G75*
G02*
X106300000Y33371741I0J-228259D01*
G01*
X106300000Y32128259D01*
G75*
G02*
X106071741Y31900000I-228259J0D01*
G01*
X105478259Y31900000D01*
G75*
G02*
X105250000Y32128259I0J228259D01*
G01*
G37*
%TD*%
%TO.C,C13*%
G36*
G01*
X77128259Y31300000D02*
X78371741Y31300000D01*
G75*
G02*
X78600000Y31071741I0J-228259D01*
G01*
X78600000Y30478259D01*
G75*
G02*
X78371741Y30250000I-228259J0D01*
G01*
X77128259Y30250000D01*
G75*
G02*
X76900000Y30478259I0J228259D01*
G01*
X76900000Y31071741D01*
G75*
G02*
X77128259Y31300000I228259J0D01*
G01*
G37*
G36*
G01*
X77128259Y34250000D02*
X78371741Y34250000D01*
G75*
G02*
X78600000Y34021741I0J-228259D01*
G01*
X78600000Y33428259D01*
G75*
G02*
X78371741Y33200000I-228259J0D01*
G01*
X77128259Y33200000D01*
G75*
G02*
X76900000Y33428259I0J228259D01*
G01*
X76900000Y34021741D01*
G75*
G02*
X77128259Y34250000I228259J0D01*
G01*
G37*
%TD*%
%TO.C,C11*%
G36*
G01*
X103800000Y39371741D02*
X103800000Y38128259D01*
G75*
G02*
X103571741Y37900000I-228259J0D01*
G01*
X102978259Y37900000D01*
G75*
G02*
X102750000Y38128259I0J228259D01*
G01*
X102750000Y39371741D01*
G75*
G02*
X102978259Y39600000I228259J0D01*
G01*
X103571741Y39600000D01*
G75*
G02*
X103800000Y39371741I0J-228259D01*
G01*
G37*
G36*
G01*
X106750000Y39371741D02*
X106750000Y38128259D01*
G75*
G02*
X106521741Y37900000I-228259J0D01*
G01*
X105928259Y37900000D01*
G75*
G02*
X105700000Y38128259I0J228259D01*
G01*
X105700000Y39371741D01*
G75*
G02*
X105928259Y39600000I228259J0D01*
G01*
X106521741Y39600000D01*
G75*
G02*
X106750000Y39371741I0J-228259D01*
G01*
G37*
%TD*%
%TO.C,C10*%
G36*
G01*
X86621741Y52450000D02*
X85378259Y52450000D01*
G75*
G02*
X85150000Y52678259I0J228259D01*
G01*
X85150000Y53271741D01*
G75*
G02*
X85378259Y53500000I228259J0D01*
G01*
X86621741Y53500000D01*
G75*
G02*
X86850000Y53271741I0J-228259D01*
G01*
X86850000Y52678259D01*
G75*
G02*
X86621741Y52450000I-228259J0D01*
G01*
G37*
G36*
G01*
X86621741Y49500000D02*
X85378259Y49500000D01*
G75*
G02*
X85150000Y49728259I0J228259D01*
G01*
X85150000Y50321741D01*
G75*
G02*
X85378259Y50550000I228259J0D01*
G01*
X86621741Y50550000D01*
G75*
G02*
X86850000Y50321741I0J-228259D01*
G01*
X86850000Y49728259D01*
G75*
G02*
X86621741Y49500000I-228259J0D01*
G01*
G37*
%TD*%
%TO.C,C9*%
G36*
G01*
X95128259Y31300000D02*
X96371741Y31300000D01*
G75*
G02*
X96600000Y31071741I0J-228259D01*
G01*
X96600000Y30478259D01*
G75*
G02*
X96371741Y30250000I-228259J0D01*
G01*
X95128259Y30250000D01*
G75*
G02*
X94900000Y30478259I0J228259D01*
G01*
X94900000Y31071741D01*
G75*
G02*
X95128259Y31300000I228259J0D01*
G01*
G37*
G36*
G01*
X95128259Y34250000D02*
X96371741Y34250000D01*
G75*
G02*
X96600000Y34021741I0J-228259D01*
G01*
X96600000Y33428259D01*
G75*
G02*
X96371741Y33200000I-228259J0D01*
G01*
X95128259Y33200000D01*
G75*
G02*
X94900000Y33428259I0J228259D01*
G01*
X94900000Y34021741D01*
G75*
G02*
X95128259Y34250000I228259J0D01*
G01*
G37*
%TD*%
%TO.C,C7*%
G36*
G01*
X91371741Y53700000D02*
X90128259Y53700000D01*
G75*
G02*
X89900000Y53928259I0J228259D01*
G01*
X89900000Y54521741D01*
G75*
G02*
X90128259Y54750000I228259J0D01*
G01*
X91371741Y54750000D01*
G75*
G02*
X91600000Y54521741I0J-228259D01*
G01*
X91600000Y53928259D01*
G75*
G02*
X91371741Y53700000I-228259J0D01*
G01*
G37*
G36*
G01*
X91371741Y50750000D02*
X90128259Y50750000D01*
G75*
G02*
X89900000Y50978259I0J228259D01*
G01*
X89900000Y51571741D01*
G75*
G02*
X90128259Y51800000I228259J0D01*
G01*
X91371741Y51800000D01*
G75*
G02*
X91600000Y51571741I0J-228259D01*
G01*
X91600000Y50978259D01*
G75*
G02*
X91371741Y50750000I-228259J0D01*
G01*
G37*
%TD*%
%TO.C,U10*%
G36*
G01*
X63550000Y97070000D02*
X63550000Y97320000D01*
G75*
G02*
X63675000Y97445000I125000J0D01*
G01*
X65275000Y97445000D01*
G75*
G02*
X65400000Y97320000I0J-125000D01*
G01*
X65400000Y97070000D01*
G75*
G02*
X65275000Y96945000I-125000J0D01*
G01*
X63675000Y96945000D01*
G75*
G02*
X63550000Y97070000I0J125000D01*
G01*
G37*
G36*
G01*
X63550000Y95800000D02*
X63550000Y96050000D01*
G75*
G02*
X63675000Y96175000I125000J0D01*
G01*
X65275000Y96175000D01*
G75*
G02*
X65400000Y96050000I0J-125000D01*
G01*
X65400000Y95800000D01*
G75*
G02*
X65275000Y95675000I-125000J0D01*
G01*
X63675000Y95675000D01*
G75*
G02*
X63550000Y95800000I0J125000D01*
G01*
G37*
G36*
G01*
X63550000Y94530000D02*
X63550000Y94780000D01*
G75*
G02*
X63675000Y94905000I125000J0D01*
G01*
X65275000Y94905000D01*
G75*
G02*
X65400000Y94780000I0J-125000D01*
G01*
X65400000Y94530000D01*
G75*
G02*
X65275000Y94405000I-125000J0D01*
G01*
X63675000Y94405000D01*
G75*
G02*
X63550000Y94530000I0J125000D01*
G01*
G37*
G36*
G01*
X63550000Y93260000D02*
X63550000Y93510000D01*
G75*
G02*
X63675000Y93635000I125000J0D01*
G01*
X65275000Y93635000D01*
G75*
G02*
X65400000Y93510000I0J-125000D01*
G01*
X65400000Y93260000D01*
G75*
G02*
X65275000Y93135000I-125000J0D01*
G01*
X63675000Y93135000D01*
G75*
G02*
X63550000Y93260000I0J125000D01*
G01*
G37*
G36*
G01*
X63550000Y91990000D02*
X63550000Y92240000D01*
G75*
G02*
X63675000Y92365000I125000J0D01*
G01*
X65275000Y92365000D01*
G75*
G02*
X65400000Y92240000I0J-125000D01*
G01*
X65400000Y91990000D01*
G75*
G02*
X65275000Y91865000I-125000J0D01*
G01*
X63675000Y91865000D01*
G75*
G02*
X63550000Y91990000I0J125000D01*
G01*
G37*
G36*
G01*
X63550000Y90720000D02*
X63550000Y90970000D01*
G75*
G02*
X63675000Y91095000I125000J0D01*
G01*
X65275000Y91095000D01*
G75*
G02*
X65400000Y90970000I0J-125000D01*
G01*
X65400000Y90720000D01*
G75*
G02*
X65275000Y90595000I-125000J0D01*
G01*
X63675000Y90595000D01*
G75*
G02*
X63550000Y90720000I0J125000D01*
G01*
G37*
G36*
G01*
X63550000Y89450000D02*
X63550000Y89700000D01*
G75*
G02*
X63675000Y89825000I125000J0D01*
G01*
X65275000Y89825000D01*
G75*
G02*
X65400000Y89700000I0J-125000D01*
G01*
X65400000Y89450000D01*
G75*
G02*
X65275000Y89325000I-125000J0D01*
G01*
X63675000Y89325000D01*
G75*
G02*
X63550000Y89450000I0J125000D01*
G01*
G37*
G36*
G01*
X63550000Y88180000D02*
X63550000Y88430000D01*
G75*
G02*
X63675000Y88555000I125000J0D01*
G01*
X65275000Y88555000D01*
G75*
G02*
X65400000Y88430000I0J-125000D01*
G01*
X65400000Y88180000D01*
G75*
G02*
X65275000Y88055000I-125000J0D01*
G01*
X63675000Y88055000D01*
G75*
G02*
X63550000Y88180000I0J125000D01*
G01*
G37*
G36*
G01*
X58600000Y88180000D02*
X58600000Y88430000D01*
G75*
G02*
X58725000Y88555000I125000J0D01*
G01*
X60325000Y88555000D01*
G75*
G02*
X60450000Y88430000I0J-125000D01*
G01*
X60450000Y88180000D01*
G75*
G02*
X60325000Y88055000I-125000J0D01*
G01*
X58725000Y88055000D01*
G75*
G02*
X58600000Y88180000I0J125000D01*
G01*
G37*
G36*
G01*
X58600000Y89450000D02*
X58600000Y89700000D01*
G75*
G02*
X58725000Y89825000I125000J0D01*
G01*
X60325000Y89825000D01*
G75*
G02*
X60450000Y89700000I0J-125000D01*
G01*
X60450000Y89450000D01*
G75*
G02*
X60325000Y89325000I-125000J0D01*
G01*
X58725000Y89325000D01*
G75*
G02*
X58600000Y89450000I0J125000D01*
G01*
G37*
G36*
G01*
X58600000Y90720000D02*
X58600000Y90970000D01*
G75*
G02*
X58725000Y91095000I125000J0D01*
G01*
X60325000Y91095000D01*
G75*
G02*
X60450000Y90970000I0J-125000D01*
G01*
X60450000Y90720000D01*
G75*
G02*
X60325000Y90595000I-125000J0D01*
G01*
X58725000Y90595000D01*
G75*
G02*
X58600000Y90720000I0J125000D01*
G01*
G37*
G36*
G01*
X58600000Y91990000D02*
X58600000Y92240000D01*
G75*
G02*
X58725000Y92365000I125000J0D01*
G01*
X60325000Y92365000D01*
G75*
G02*
X60450000Y92240000I0J-125000D01*
G01*
X60450000Y91990000D01*
G75*
G02*
X60325000Y91865000I-125000J0D01*
G01*
X58725000Y91865000D01*
G75*
G02*
X58600000Y91990000I0J125000D01*
G01*
G37*
G36*
G01*
X58600000Y93260000D02*
X58600000Y93510000D01*
G75*
G02*
X58725000Y93635000I125000J0D01*
G01*
X60325000Y93635000D01*
G75*
G02*
X60450000Y93510000I0J-125000D01*
G01*
X60450000Y93260000D01*
G75*
G02*
X60325000Y93135000I-125000J0D01*
G01*
X58725000Y93135000D01*
G75*
G02*
X58600000Y93260000I0J125000D01*
G01*
G37*
G36*
G01*
X58600000Y94530000D02*
X58600000Y94780000D01*
G75*
G02*
X58725000Y94905000I125000J0D01*
G01*
X60325000Y94905000D01*
G75*
G02*
X60450000Y94780000I0J-125000D01*
G01*
X60450000Y94530000D01*
G75*
G02*
X60325000Y94405000I-125000J0D01*
G01*
X58725000Y94405000D01*
G75*
G02*
X58600000Y94530000I0J125000D01*
G01*
G37*
G36*
G01*
X58600000Y95800000D02*
X58600000Y96050000D01*
G75*
G02*
X58725000Y96175000I125000J0D01*
G01*
X60325000Y96175000D01*
G75*
G02*
X60450000Y96050000I0J-125000D01*
G01*
X60450000Y95800000D01*
G75*
G02*
X60325000Y95675000I-125000J0D01*
G01*
X58725000Y95675000D01*
G75*
G02*
X58600000Y95800000I0J125000D01*
G01*
G37*
G36*
G01*
X58600000Y97070000D02*
X58600000Y97320000D01*
G75*
G02*
X58725000Y97445000I125000J0D01*
G01*
X60325000Y97445000D01*
G75*
G02*
X60450000Y97320000I0J-125000D01*
G01*
X60450000Y97070000D01*
G75*
G02*
X60325000Y96945000I-125000J0D01*
G01*
X58725000Y96945000D01*
G75*
G02*
X58600000Y97070000I0J125000D01*
G01*
G37*
%TD*%
%TO.C,U9*%
G36*
G01*
X75970000Y10850000D02*
X75720000Y10850000D01*
G75*
G02*
X75595000Y10975000I0J125000D01*
G01*
X75595000Y12250000D01*
G75*
G02*
X75720000Y12375000I125000J0D01*
G01*
X75970000Y12375000D01*
G75*
G02*
X76095000Y12250000I0J-125000D01*
G01*
X76095000Y10975000D01*
G75*
G02*
X75970000Y10850000I-125000J0D01*
G01*
G37*
G36*
G01*
X77240000Y10850000D02*
X76990000Y10850000D01*
G75*
G02*
X76865000Y10975000I0J125000D01*
G01*
X76865000Y12250000D01*
G75*
G02*
X76990000Y12375000I125000J0D01*
G01*
X77240000Y12375000D01*
G75*
G02*
X77365000Y12250000I0J-125000D01*
G01*
X77365000Y10975000D01*
G75*
G02*
X77240000Y10850000I-125000J0D01*
G01*
G37*
G36*
G01*
X78510000Y10850000D02*
X78260000Y10850000D01*
G75*
G02*
X78135000Y10975000I0J125000D01*
G01*
X78135000Y12250000D01*
G75*
G02*
X78260000Y12375000I125000J0D01*
G01*
X78510000Y12375000D01*
G75*
G02*
X78635000Y12250000I0J-125000D01*
G01*
X78635000Y10975000D01*
G75*
G02*
X78510000Y10850000I-125000J0D01*
G01*
G37*
G36*
G01*
X79780000Y10850000D02*
X79530000Y10850000D01*
G75*
G02*
X79405000Y10975000I0J125000D01*
G01*
X79405000Y12250000D01*
G75*
G02*
X79530000Y12375000I125000J0D01*
G01*
X79780000Y12375000D01*
G75*
G02*
X79905000Y12250000I0J-125000D01*
G01*
X79905000Y10975000D01*
G75*
G02*
X79780000Y10850000I-125000J0D01*
G01*
G37*
G36*
G01*
X79780000Y16125000D02*
X79530000Y16125000D01*
G75*
G02*
X79405000Y16250000I0J125000D01*
G01*
X79405000Y17525000D01*
G75*
G02*
X79530000Y17650000I125000J0D01*
G01*
X79780000Y17650000D01*
G75*
G02*
X79905000Y17525000I0J-125000D01*
G01*
X79905000Y16250000D01*
G75*
G02*
X79780000Y16125000I-125000J0D01*
G01*
G37*
G36*
G01*
X78510000Y16125000D02*
X78260000Y16125000D01*
G75*
G02*
X78135000Y16250000I0J125000D01*
G01*
X78135000Y17525000D01*
G75*
G02*
X78260000Y17650000I125000J0D01*
G01*
X78510000Y17650000D01*
G75*
G02*
X78635000Y17525000I0J-125000D01*
G01*
X78635000Y16250000D01*
G75*
G02*
X78510000Y16125000I-125000J0D01*
G01*
G37*
G36*
G01*
X77240000Y16125000D02*
X76990000Y16125000D01*
G75*
G02*
X76865000Y16250000I0J125000D01*
G01*
X76865000Y17525000D01*
G75*
G02*
X76990000Y17650000I125000J0D01*
G01*
X77240000Y17650000D01*
G75*
G02*
X77365000Y17525000I0J-125000D01*
G01*
X77365000Y16250000D01*
G75*
G02*
X77240000Y16125000I-125000J0D01*
G01*
G37*
G36*
G01*
X75970000Y16125000D02*
X75720000Y16125000D01*
G75*
G02*
X75595000Y16250000I0J125000D01*
G01*
X75595000Y17525000D01*
G75*
G02*
X75720000Y17650000I125000J0D01*
G01*
X75970000Y17650000D01*
G75*
G02*
X76095000Y17525000I0J-125000D01*
G01*
X76095000Y16250000D01*
G75*
G02*
X75970000Y16125000I-125000J0D01*
G01*
G37*
G36*
G01*
X77370001Y13095000D02*
X76529999Y13095000D01*
G75*
G02*
X76280000Y13344999I0J249999D01*
G01*
X76280000Y13895001D01*
G75*
G02*
X76529999Y14145000I249999J0D01*
G01*
X77370001Y14145000D01*
G75*
G02*
X77620000Y13895001I0J-249999D01*
G01*
X77620000Y13344999D01*
G75*
G02*
X77370001Y13095000I-249999J0D01*
G01*
G37*
G36*
G01*
X78970001Y13095000D02*
X78129999Y13095000D01*
G75*
G02*
X77880000Y13344999I0J249999D01*
G01*
X77880000Y13895001D01*
G75*
G02*
X78129999Y14145000I249999J0D01*
G01*
X78970001Y14145000D01*
G75*
G02*
X79220000Y13895001I0J-249999D01*
G01*
X79220000Y13344999D01*
G75*
G02*
X78970001Y13095000I-249999J0D01*
G01*
G37*
G36*
G01*
X77370001Y14355000D02*
X76529999Y14355000D01*
G75*
G02*
X76280000Y14604999I0J249999D01*
G01*
X76280000Y15155001D01*
G75*
G02*
X76529999Y15405000I249999J0D01*
G01*
X77370001Y15405000D01*
G75*
G02*
X77620000Y15155001I0J-249999D01*
G01*
X77620000Y14604999D01*
G75*
G02*
X77370001Y14355000I-249999J0D01*
G01*
G37*
G36*
G01*
X78970001Y14355000D02*
X78129999Y14355000D01*
G75*
G02*
X77880000Y14604999I0J249999D01*
G01*
X77880000Y15155001D01*
G75*
G02*
X78129999Y15405000I249999J0D01*
G01*
X78970001Y15405000D01*
G75*
G02*
X79220000Y15155001I0J-249999D01*
G01*
X79220000Y14604999D01*
G75*
G02*
X78970001Y14355000I-249999J0D01*
G01*
G37*
%TD*%
%TO.C,U8*%
G36*
G01*
X60100000Y31030000D02*
X60100000Y31280000D01*
G75*
G02*
X60225000Y31405000I125000J0D01*
G01*
X61500000Y31405000D01*
G75*
G02*
X61625000Y31280000I0J-125000D01*
G01*
X61625000Y31030000D01*
G75*
G02*
X61500000Y30905000I-125000J0D01*
G01*
X60225000Y30905000D01*
G75*
G02*
X60100000Y31030000I0J125000D01*
G01*
G37*
G36*
G01*
X60100000Y29760000D02*
X60100000Y30010000D01*
G75*
G02*
X60225000Y30135000I125000J0D01*
G01*
X61500000Y30135000D01*
G75*
G02*
X61625000Y30010000I0J-125000D01*
G01*
X61625000Y29760000D01*
G75*
G02*
X61500000Y29635000I-125000J0D01*
G01*
X60225000Y29635000D01*
G75*
G02*
X60100000Y29760000I0J125000D01*
G01*
G37*
G36*
G01*
X60100000Y28490000D02*
X60100000Y28740000D01*
G75*
G02*
X60225000Y28865000I125000J0D01*
G01*
X61500000Y28865000D01*
G75*
G02*
X61625000Y28740000I0J-125000D01*
G01*
X61625000Y28490000D01*
G75*
G02*
X61500000Y28365000I-125000J0D01*
G01*
X60225000Y28365000D01*
G75*
G02*
X60100000Y28490000I0J125000D01*
G01*
G37*
G36*
G01*
X60100000Y27220000D02*
X60100000Y27470000D01*
G75*
G02*
X60225000Y27595000I125000J0D01*
G01*
X61500000Y27595000D01*
G75*
G02*
X61625000Y27470000I0J-125000D01*
G01*
X61625000Y27220000D01*
G75*
G02*
X61500000Y27095000I-125000J0D01*
G01*
X60225000Y27095000D01*
G75*
G02*
X60100000Y27220000I0J125000D01*
G01*
G37*
G36*
G01*
X65375000Y27220000D02*
X65375000Y27470000D01*
G75*
G02*
X65500000Y27595000I125000J0D01*
G01*
X66775000Y27595000D01*
G75*
G02*
X66900000Y27470000I0J-125000D01*
G01*
X66900000Y27220000D01*
G75*
G02*
X66775000Y27095000I-125000J0D01*
G01*
X65500000Y27095000D01*
G75*
G02*
X65375000Y27220000I0J125000D01*
G01*
G37*
G36*
G01*
X65375000Y28490000D02*
X65375000Y28740000D01*
G75*
G02*
X65500000Y28865000I125000J0D01*
G01*
X66775000Y28865000D01*
G75*
G02*
X66900000Y28740000I0J-125000D01*
G01*
X66900000Y28490000D01*
G75*
G02*
X66775000Y28365000I-125000J0D01*
G01*
X65500000Y28365000D01*
G75*
G02*
X65375000Y28490000I0J125000D01*
G01*
G37*
G36*
G01*
X65375000Y29760000D02*
X65375000Y30010000D01*
G75*
G02*
X65500000Y30135000I125000J0D01*
G01*
X66775000Y30135000D01*
G75*
G02*
X66900000Y30010000I0J-125000D01*
G01*
X66900000Y29760000D01*
G75*
G02*
X66775000Y29635000I-125000J0D01*
G01*
X65500000Y29635000D01*
G75*
G02*
X65375000Y29760000I0J125000D01*
G01*
G37*
G36*
G01*
X65375000Y31030000D02*
X65375000Y31280000D01*
G75*
G02*
X65500000Y31405000I125000J0D01*
G01*
X66775000Y31405000D01*
G75*
G02*
X66900000Y31280000I0J-125000D01*
G01*
X66900000Y31030000D01*
G75*
G02*
X66775000Y30905000I-125000J0D01*
G01*
X65500000Y30905000D01*
G75*
G02*
X65375000Y31030000I0J125000D01*
G01*
G37*
G36*
G01*
X62345000Y29629999D02*
X62345000Y30470001D01*
G75*
G02*
X62594999Y30720000I249999J0D01*
G01*
X63145001Y30720000D01*
G75*
G02*
X63395000Y30470001I0J-249999D01*
G01*
X63395000Y29629999D01*
G75*
G02*
X63145001Y29380000I-249999J0D01*
G01*
X62594999Y29380000D01*
G75*
G02*
X62345000Y29629999I0J249999D01*
G01*
G37*
G36*
G01*
X62345000Y28029999D02*
X62345000Y28870001D01*
G75*
G02*
X62594999Y29120000I249999J0D01*
G01*
X63145001Y29120000D01*
G75*
G02*
X63395000Y28870001I0J-249999D01*
G01*
X63395000Y28029999D01*
G75*
G02*
X63145001Y27780000I-249999J0D01*
G01*
X62594999Y27780000D01*
G75*
G02*
X62345000Y28029999I0J249999D01*
G01*
G37*
G36*
G01*
X63605000Y29629999D02*
X63605000Y30470001D01*
G75*
G02*
X63854999Y30720000I249999J0D01*
G01*
X64405001Y30720000D01*
G75*
G02*
X64655000Y30470001I0J-249999D01*
G01*
X64655000Y29629999D01*
G75*
G02*
X64405001Y29380000I-249999J0D01*
G01*
X63854999Y29380000D01*
G75*
G02*
X63605000Y29629999I0J249999D01*
G01*
G37*
G36*
G01*
X63605000Y28029999D02*
X63605000Y28870001D01*
G75*
G02*
X63854999Y29120000I249999J0D01*
G01*
X64405001Y29120000D01*
G75*
G02*
X64655000Y28870001I0J-249999D01*
G01*
X64655000Y28029999D01*
G75*
G02*
X64405001Y27780000I-249999J0D01*
G01*
X63854999Y27780000D01*
G75*
G02*
X63605000Y28029999I0J249999D01*
G01*
G37*
%TD*%
%TO.C,U7*%
G36*
G01*
X45950000Y2720000D02*
X45950000Y2470000D01*
G75*
G02*
X45825000Y2345000I-125000J0D01*
G01*
X44225000Y2345000D01*
G75*
G02*
X44100000Y2470000I0J125000D01*
G01*
X44100000Y2720000D01*
G75*
G02*
X44225000Y2845000I125000J0D01*
G01*
X45825000Y2845000D01*
G75*
G02*
X45950000Y2720000I0J-125000D01*
G01*
G37*
G36*
G01*
X45950000Y3990000D02*
X45950000Y3740000D01*
G75*
G02*
X45825000Y3615000I-125000J0D01*
G01*
X44225000Y3615000D01*
G75*
G02*
X44100000Y3740000I0J125000D01*
G01*
X44100000Y3990000D01*
G75*
G02*
X44225000Y4115000I125000J0D01*
G01*
X45825000Y4115000D01*
G75*
G02*
X45950000Y3990000I0J-125000D01*
G01*
G37*
G36*
G01*
X45950000Y5260000D02*
X45950000Y5010000D01*
G75*
G02*
X45825000Y4885000I-125000J0D01*
G01*
X44225000Y4885000D01*
G75*
G02*
X44100000Y5010000I0J125000D01*
G01*
X44100000Y5260000D01*
G75*
G02*
X44225000Y5385000I125000J0D01*
G01*
X45825000Y5385000D01*
G75*
G02*
X45950000Y5260000I0J-125000D01*
G01*
G37*
G36*
G01*
X45950000Y6530000D02*
X45950000Y6280000D01*
G75*
G02*
X45825000Y6155000I-125000J0D01*
G01*
X44225000Y6155000D01*
G75*
G02*
X44100000Y6280000I0J125000D01*
G01*
X44100000Y6530000D01*
G75*
G02*
X44225000Y6655000I125000J0D01*
G01*
X45825000Y6655000D01*
G75*
G02*
X45950000Y6530000I0J-125000D01*
G01*
G37*
G36*
G01*
X50900000Y6530000D02*
X50900000Y6280000D01*
G75*
G02*
X50775000Y6155000I-125000J0D01*
G01*
X49175000Y6155000D01*
G75*
G02*
X49050000Y6280000I0J125000D01*
G01*
X49050000Y6530000D01*
G75*
G02*
X49175000Y6655000I125000J0D01*
G01*
X50775000Y6655000D01*
G75*
G02*
X50900000Y6530000I0J-125000D01*
G01*
G37*
G36*
G01*
X50900000Y5260000D02*
X50900000Y5010000D01*
G75*
G02*
X50775000Y4885000I-125000J0D01*
G01*
X49175000Y4885000D01*
G75*
G02*
X49050000Y5010000I0J125000D01*
G01*
X49050000Y5260000D01*
G75*
G02*
X49175000Y5385000I125000J0D01*
G01*
X50775000Y5385000D01*
G75*
G02*
X50900000Y5260000I0J-125000D01*
G01*
G37*
G36*
G01*
X50900000Y3990000D02*
X50900000Y3740000D01*
G75*
G02*
X50775000Y3615000I-125000J0D01*
G01*
X49175000Y3615000D01*
G75*
G02*
X49050000Y3740000I0J125000D01*
G01*
X49050000Y3990000D01*
G75*
G02*
X49175000Y4115000I125000J0D01*
G01*
X50775000Y4115000D01*
G75*
G02*
X50900000Y3990000I0J-125000D01*
G01*
G37*
G36*
G01*
X50900000Y2720000D02*
X50900000Y2470000D01*
G75*
G02*
X50775000Y2345000I-125000J0D01*
G01*
X49175000Y2345000D01*
G75*
G02*
X49050000Y2470000I0J125000D01*
G01*
X49050000Y2720000D01*
G75*
G02*
X49175000Y2845000I125000J0D01*
G01*
X50775000Y2845000D01*
G75*
G02*
X50900000Y2720000I0J-125000D01*
G01*
G37*
%TD*%
%TO.C,R25*%
G36*
G01*
X7097225Y41200000D02*
X5902775Y41200000D01*
G75*
G02*
X5675000Y41427775I0J227775D01*
G01*
X5675000Y41997225D01*
G75*
G02*
X5902775Y42225000I227775J0D01*
G01*
X7097225Y42225000D01*
G75*
G02*
X7325000Y41997225I0J-227775D01*
G01*
X7325000Y41427775D01*
G75*
G02*
X7097225Y41200000I-227775J0D01*
G01*
G37*
G36*
G01*
X7097225Y38275000D02*
X5902775Y38275000D01*
G75*
G02*
X5675000Y38502775I0J227775D01*
G01*
X5675000Y39072225D01*
G75*
G02*
X5902775Y39300000I227775J0D01*
G01*
X7097225Y39300000D01*
G75*
G02*
X7325000Y39072225I0J-227775D01*
G01*
X7325000Y38502775D01*
G75*
G02*
X7097225Y38275000I-227775J0D01*
G01*
G37*
%TD*%
%TO.C,R53*%
G36*
G01*
X81847225Y95200000D02*
X80652775Y95200000D01*
G75*
G02*
X80425000Y95427775I0J227775D01*
G01*
X80425000Y95997225D01*
G75*
G02*
X80652775Y96225000I227775J0D01*
G01*
X81847225Y96225000D01*
G75*
G02*
X82075000Y95997225I0J-227775D01*
G01*
X82075000Y95427775D01*
G75*
G02*
X81847225Y95200000I-227775J0D01*
G01*
G37*
G36*
G01*
X81847225Y92275000D02*
X80652775Y92275000D01*
G75*
G02*
X80425000Y92502775I0J227775D01*
G01*
X80425000Y93072225D01*
G75*
G02*
X80652775Y93300000I227775J0D01*
G01*
X81847225Y93300000D01*
G75*
G02*
X82075000Y93072225I0J-227775D01*
G01*
X82075000Y92502775D01*
G75*
G02*
X81847225Y92275000I-227775J0D01*
G01*
G37*
%TD*%
%TO.C,R52*%
G36*
G01*
X78347225Y95200000D02*
X77152775Y95200000D01*
G75*
G02*
X76925000Y95427775I0J227775D01*
G01*
X76925000Y95997225D01*
G75*
G02*
X77152775Y96225000I227775J0D01*
G01*
X78347225Y96225000D01*
G75*
G02*
X78575000Y95997225I0J-227775D01*
G01*
X78575000Y95427775D01*
G75*
G02*
X78347225Y95200000I-227775J0D01*
G01*
G37*
G36*
G01*
X78347225Y92275000D02*
X77152775Y92275000D01*
G75*
G02*
X76925000Y92502775I0J227775D01*
G01*
X76925000Y93072225D01*
G75*
G02*
X77152775Y93300000I227775J0D01*
G01*
X78347225Y93300000D01*
G75*
G02*
X78575000Y93072225I0J-227775D01*
G01*
X78575000Y92502775D01*
G75*
G02*
X78347225Y92275000I-227775J0D01*
G01*
G37*
%TD*%
%TO.C,R51*%
G36*
G01*
X108847225Y19950000D02*
X107652775Y19950000D01*
G75*
G02*
X107425000Y20177775I0J227775D01*
G01*
X107425000Y20747225D01*
G75*
G02*
X107652775Y20975000I227775J0D01*
G01*
X108847225Y20975000D01*
G75*
G02*
X109075000Y20747225I0J-227775D01*
G01*
X109075000Y20177775D01*
G75*
G02*
X108847225Y19950000I-227775J0D01*
G01*
G37*
G36*
G01*
X108847225Y17025000D02*
X107652775Y17025000D01*
G75*
G02*
X107425000Y17252775I0J227775D01*
G01*
X107425000Y17822225D01*
G75*
G02*
X107652775Y18050000I227775J0D01*
G01*
X108847225Y18050000D01*
G75*
G02*
X109075000Y17822225I0J-227775D01*
G01*
X109075000Y17252775D01*
G75*
G02*
X108847225Y17025000I-227775J0D01*
G01*
G37*
%TD*%
%TO.C,R50*%
G36*
G01*
X86847225Y13200000D02*
X85652775Y13200000D01*
G75*
G02*
X85425000Y13427775I0J227775D01*
G01*
X85425000Y13997225D01*
G75*
G02*
X85652775Y14225000I227775J0D01*
G01*
X86847225Y14225000D01*
G75*
G02*
X87075000Y13997225I0J-227775D01*
G01*
X87075000Y13427775D01*
G75*
G02*
X86847225Y13200000I-227775J0D01*
G01*
G37*
G36*
G01*
X86847225Y10275000D02*
X85652775Y10275000D01*
G75*
G02*
X85425000Y10502775I0J227775D01*
G01*
X85425000Y11072225D01*
G75*
G02*
X85652775Y11300000I227775J0D01*
G01*
X86847225Y11300000D01*
G75*
G02*
X87075000Y11072225I0J-227775D01*
G01*
X87075000Y10502775D01*
G75*
G02*
X86847225Y10275000I-227775J0D01*
G01*
G37*
%TD*%
%TO.C,R49*%
G36*
G01*
X87847225Y6950000D02*
X86652775Y6950000D01*
G75*
G02*
X86425000Y7177775I0J227775D01*
G01*
X86425000Y7747225D01*
G75*
G02*
X86652775Y7975000I227775J0D01*
G01*
X87847225Y7975000D01*
G75*
G02*
X88075000Y7747225I0J-227775D01*
G01*
X88075000Y7177775D01*
G75*
G02*
X87847225Y6950000I-227775J0D01*
G01*
G37*
G36*
G01*
X87847225Y4025000D02*
X86652775Y4025000D01*
G75*
G02*
X86425000Y4252775I0J227775D01*
G01*
X86425000Y4822225D01*
G75*
G02*
X86652775Y5050000I227775J0D01*
G01*
X87847225Y5050000D01*
G75*
G02*
X88075000Y4822225I0J-227775D01*
G01*
X88075000Y4252775D01*
G75*
G02*
X87847225Y4025000I-227775J0D01*
G01*
G37*
%TD*%
%TO.C,R48*%
G36*
G01*
X81152775Y17550000D02*
X82347225Y17550000D01*
G75*
G02*
X82575000Y17322225I0J-227775D01*
G01*
X82575000Y16752775D01*
G75*
G02*
X82347225Y16525000I-227775J0D01*
G01*
X81152775Y16525000D01*
G75*
G02*
X80925000Y16752775I0J227775D01*
G01*
X80925000Y17322225D01*
G75*
G02*
X81152775Y17550000I227775J0D01*
G01*
G37*
G36*
G01*
X81152775Y20475000D02*
X82347225Y20475000D01*
G75*
G02*
X82575000Y20247225I0J-227775D01*
G01*
X82575000Y19677775D01*
G75*
G02*
X82347225Y19450000I-227775J0D01*
G01*
X81152775Y19450000D01*
G75*
G02*
X80925000Y19677775I0J227775D01*
G01*
X80925000Y20247225D01*
G75*
G02*
X81152775Y20475000I227775J0D01*
G01*
G37*
%TD*%
%TO.C,R47*%
G36*
G01*
X108847225Y13950000D02*
X107652775Y13950000D01*
G75*
G02*
X107425000Y14177775I0J227775D01*
G01*
X107425000Y14747225D01*
G75*
G02*
X107652775Y14975000I227775J0D01*
G01*
X108847225Y14975000D01*
G75*
G02*
X109075000Y14747225I0J-227775D01*
G01*
X109075000Y14177775D01*
G75*
G02*
X108847225Y13950000I-227775J0D01*
G01*
G37*
G36*
G01*
X108847225Y11025000D02*
X107652775Y11025000D01*
G75*
G02*
X107425000Y11252775I0J227775D01*
G01*
X107425000Y11822225D01*
G75*
G02*
X107652775Y12050000I227775J0D01*
G01*
X108847225Y12050000D01*
G75*
G02*
X109075000Y11822225I0J-227775D01*
G01*
X109075000Y11252775D01*
G75*
G02*
X108847225Y11025000I-227775J0D01*
G01*
G37*
%TD*%
%TO.C,R46*%
G36*
G01*
X62450000Y20152775D02*
X62450000Y21347225D01*
G75*
G02*
X62677775Y21575000I227775J0D01*
G01*
X63247225Y21575000D01*
G75*
G02*
X63475000Y21347225I0J-227775D01*
G01*
X63475000Y20152775D01*
G75*
G02*
X63247225Y19925000I-227775J0D01*
G01*
X62677775Y19925000D01*
G75*
G02*
X62450000Y20152775I0J227775D01*
G01*
G37*
G36*
G01*
X59525000Y20152775D02*
X59525000Y21347225D01*
G75*
G02*
X59752775Y21575000I227775J0D01*
G01*
X60322225Y21575000D01*
G75*
G02*
X60550000Y21347225I0J-227775D01*
G01*
X60550000Y20152775D01*
G75*
G02*
X60322225Y19925000I-227775J0D01*
G01*
X59752775Y19925000D01*
G75*
G02*
X59525000Y20152775I0J227775D01*
G01*
G37*
%TD*%
%TO.C,R45*%
G36*
G01*
X56200000Y21652775D02*
X56200000Y22847225D01*
G75*
G02*
X56427775Y23075000I227775J0D01*
G01*
X56997225Y23075000D01*
G75*
G02*
X57225000Y22847225I0J-227775D01*
G01*
X57225000Y21652775D01*
G75*
G02*
X56997225Y21425000I-227775J0D01*
G01*
X56427775Y21425000D01*
G75*
G02*
X56200000Y21652775I0J227775D01*
G01*
G37*
G36*
G01*
X53275000Y21652775D02*
X53275000Y22847225D01*
G75*
G02*
X53502775Y23075000I227775J0D01*
G01*
X54072225Y23075000D01*
G75*
G02*
X54300000Y22847225I0J-227775D01*
G01*
X54300000Y21652775D01*
G75*
G02*
X54072225Y21425000I-227775J0D01*
G01*
X53502775Y21425000D01*
G75*
G02*
X53275000Y21652775I0J227775D01*
G01*
G37*
%TD*%
%TO.C,R44*%
G36*
G01*
X65550000Y21347225D02*
X65550000Y20152775D01*
G75*
G02*
X65322225Y19925000I-227775J0D01*
G01*
X64752775Y19925000D01*
G75*
G02*
X64525000Y20152775I0J227775D01*
G01*
X64525000Y21347225D01*
G75*
G02*
X64752775Y21575000I227775J0D01*
G01*
X65322225Y21575000D01*
G75*
G02*
X65550000Y21347225I0J-227775D01*
G01*
G37*
G36*
G01*
X68475000Y21347225D02*
X68475000Y20152775D01*
G75*
G02*
X68247225Y19925000I-227775J0D01*
G01*
X67677775Y19925000D01*
G75*
G02*
X67450000Y20152775I0J227775D01*
G01*
X67450000Y21347225D01*
G75*
G02*
X67677775Y21575000I227775J0D01*
G01*
X68247225Y21575000D01*
G75*
G02*
X68475000Y21347225I0J-227775D01*
G01*
G37*
%TD*%
%TO.C,R43*%
G36*
G01*
X92800000Y4347225D02*
X92800000Y3152775D01*
G75*
G02*
X92572225Y2925000I-227775J0D01*
G01*
X92002775Y2925000D01*
G75*
G02*
X91775000Y3152775I0J227775D01*
G01*
X91775000Y4347225D01*
G75*
G02*
X92002775Y4575000I227775J0D01*
G01*
X92572225Y4575000D01*
G75*
G02*
X92800000Y4347225I0J-227775D01*
G01*
G37*
G36*
G01*
X95725000Y4347225D02*
X95725000Y3152775D01*
G75*
G02*
X95497225Y2925000I-227775J0D01*
G01*
X94927775Y2925000D01*
G75*
G02*
X94700000Y3152775I0J227775D01*
G01*
X94700000Y4347225D01*
G75*
G02*
X94927775Y4575000I227775J0D01*
G01*
X95497225Y4575000D01*
G75*
G02*
X95725000Y4347225I0J-227775D01*
G01*
G37*
%TD*%
%TO.C,R42*%
G36*
G01*
X54097225Y14200000D02*
X52902775Y14200000D01*
G75*
G02*
X52675000Y14427775I0J227775D01*
G01*
X52675000Y14997225D01*
G75*
G02*
X52902775Y15225000I227775J0D01*
G01*
X54097225Y15225000D01*
G75*
G02*
X54325000Y14997225I0J-227775D01*
G01*
X54325000Y14427775D01*
G75*
G02*
X54097225Y14200000I-227775J0D01*
G01*
G37*
G36*
G01*
X54097225Y11275000D02*
X52902775Y11275000D01*
G75*
G02*
X52675000Y11502775I0J227775D01*
G01*
X52675000Y12072225D01*
G75*
G02*
X52902775Y12300000I227775J0D01*
G01*
X54097225Y12300000D01*
G75*
G02*
X54325000Y12072225I0J-227775D01*
G01*
X54325000Y11502775D01*
G75*
G02*
X54097225Y11275000I-227775J0D01*
G01*
G37*
%TD*%
%TO.C,R41*%
G36*
G01*
X54347225Y42200000D02*
X53152775Y42200000D01*
G75*
G02*
X52925000Y42427775I0J227775D01*
G01*
X52925000Y42997225D01*
G75*
G02*
X53152775Y43225000I227775J0D01*
G01*
X54347225Y43225000D01*
G75*
G02*
X54575000Y42997225I0J-227775D01*
G01*
X54575000Y42427775D01*
G75*
G02*
X54347225Y42200000I-227775J0D01*
G01*
G37*
G36*
G01*
X54347225Y39275000D02*
X53152775Y39275000D01*
G75*
G02*
X52925000Y39502775I0J227775D01*
G01*
X52925000Y40072225D01*
G75*
G02*
X53152775Y40300000I227775J0D01*
G01*
X54347225Y40300000D01*
G75*
G02*
X54575000Y40072225I0J-227775D01*
G01*
X54575000Y39502775D01*
G75*
G02*
X54347225Y39275000I-227775J0D01*
G01*
G37*
%TD*%
%TO.C,R40*%
G36*
G01*
X87152775Y31300000D02*
X88347225Y31300000D01*
G75*
G02*
X88575000Y31072225I0J-227775D01*
G01*
X88575000Y30502775D01*
G75*
G02*
X88347225Y30275000I-227775J0D01*
G01*
X87152775Y30275000D01*
G75*
G02*
X86925000Y30502775I0J227775D01*
G01*
X86925000Y31072225D01*
G75*
G02*
X87152775Y31300000I227775J0D01*
G01*
G37*
G36*
G01*
X87152775Y34225000D02*
X88347225Y34225000D01*
G75*
G02*
X88575000Y33997225I0J-227775D01*
G01*
X88575000Y33427775D01*
G75*
G02*
X88347225Y33200000I-227775J0D01*
G01*
X87152775Y33200000D01*
G75*
G02*
X86925000Y33427775I0J227775D01*
G01*
X86925000Y33997225D01*
G75*
G02*
X87152775Y34225000I227775J0D01*
G01*
G37*
%TD*%
%TO.C,R39*%
G36*
G01*
X59700000Y46652775D02*
X59700000Y47847225D01*
G75*
G02*
X59927775Y48075000I227775J0D01*
G01*
X60497225Y48075000D01*
G75*
G02*
X60725000Y47847225I0J-227775D01*
G01*
X60725000Y46652775D01*
G75*
G02*
X60497225Y46425000I-227775J0D01*
G01*
X59927775Y46425000D01*
G75*
G02*
X59700000Y46652775I0J227775D01*
G01*
G37*
G36*
G01*
X56775000Y46652775D02*
X56775000Y47847225D01*
G75*
G02*
X57002775Y48075000I227775J0D01*
G01*
X57572225Y48075000D01*
G75*
G02*
X57800000Y47847225I0J-227775D01*
G01*
X57800000Y46652775D01*
G75*
G02*
X57572225Y46425000I-227775J0D01*
G01*
X57002775Y46425000D01*
G75*
G02*
X56775000Y46652775I0J227775D01*
G01*
G37*
%TD*%
%TO.C,R38*%
G36*
G01*
X15102775Y75450000D02*
X16297225Y75450000D01*
G75*
G02*
X16525000Y75222225I0J-227775D01*
G01*
X16525000Y74652775D01*
G75*
G02*
X16297225Y74425000I-227775J0D01*
G01*
X15102775Y74425000D01*
G75*
G02*
X14875000Y74652775I0J227775D01*
G01*
X14875000Y75222225D01*
G75*
G02*
X15102775Y75450000I227775J0D01*
G01*
G37*
G36*
G01*
X15102775Y78375000D02*
X16297225Y78375000D01*
G75*
G02*
X16525000Y78147225I0J-227775D01*
G01*
X16525000Y77577775D01*
G75*
G02*
X16297225Y77350000I-227775J0D01*
G01*
X15102775Y77350000D01*
G75*
G02*
X14875000Y77577775I0J227775D01*
G01*
X14875000Y78147225D01*
G75*
G02*
X15102775Y78375000I227775J0D01*
G01*
G37*
%TD*%
%TO.C,R37*%
G36*
G01*
X55200000Y52652775D02*
X55200000Y53847225D01*
G75*
G02*
X55427775Y54075000I227775J0D01*
G01*
X55997225Y54075000D01*
G75*
G02*
X56225000Y53847225I0J-227775D01*
G01*
X56225000Y52652775D01*
G75*
G02*
X55997225Y52425000I-227775J0D01*
G01*
X55427775Y52425000D01*
G75*
G02*
X55200000Y52652775I0J227775D01*
G01*
G37*
G36*
G01*
X52275000Y52652775D02*
X52275000Y53847225D01*
G75*
G02*
X52502775Y54075000I227775J0D01*
G01*
X53072225Y54075000D01*
G75*
G02*
X53300000Y53847225I0J-227775D01*
G01*
X53300000Y52652775D01*
G75*
G02*
X53072225Y52425000I-227775J0D01*
G01*
X52502775Y52425000D01*
G75*
G02*
X52275000Y52652775I0J227775D01*
G01*
G37*
%TD*%
%TO.C,R36*%
G36*
G01*
X30700000Y78902775D02*
X30700000Y80097225D01*
G75*
G02*
X30927775Y80325000I227775J0D01*
G01*
X31497225Y80325000D01*
G75*
G02*
X31725000Y80097225I0J-227775D01*
G01*
X31725000Y78902775D01*
G75*
G02*
X31497225Y78675000I-227775J0D01*
G01*
X30927775Y78675000D01*
G75*
G02*
X30700000Y78902775I0J227775D01*
G01*
G37*
G36*
G01*
X27775000Y78902775D02*
X27775000Y80097225D01*
G75*
G02*
X28002775Y80325000I227775J0D01*
G01*
X28572225Y80325000D01*
G75*
G02*
X28800000Y80097225I0J-227775D01*
G01*
X28800000Y78902775D01*
G75*
G02*
X28572225Y78675000I-227775J0D01*
G01*
X28002775Y78675000D01*
G75*
G02*
X27775000Y78902775I0J227775D01*
G01*
G37*
%TD*%
%TO.C,R35*%
G36*
G01*
X23800000Y80097225D02*
X23800000Y78902775D01*
G75*
G02*
X23572225Y78675000I-227775J0D01*
G01*
X23002775Y78675000D01*
G75*
G02*
X22775000Y78902775I0J227775D01*
G01*
X22775000Y80097225D01*
G75*
G02*
X23002775Y80325000I227775J0D01*
G01*
X23572225Y80325000D01*
G75*
G02*
X23800000Y80097225I0J-227775D01*
G01*
G37*
G36*
G01*
X26725000Y80097225D02*
X26725000Y78902775D01*
G75*
G02*
X26497225Y78675000I-227775J0D01*
G01*
X25927775Y78675000D01*
G75*
G02*
X25700000Y78902775I0J227775D01*
G01*
X25700000Y80097225D01*
G75*
G02*
X25927775Y80325000I227775J0D01*
G01*
X26497225Y80325000D01*
G75*
G02*
X26725000Y80097225I0J-227775D01*
G01*
G37*
%TD*%
%TO.C,R34*%
G36*
G01*
X35347225Y71450000D02*
X34152775Y71450000D01*
G75*
G02*
X33925000Y71677775I0J227775D01*
G01*
X33925000Y72247225D01*
G75*
G02*
X34152775Y72475000I227775J0D01*
G01*
X35347225Y72475000D01*
G75*
G02*
X35575000Y72247225I0J-227775D01*
G01*
X35575000Y71677775D01*
G75*
G02*
X35347225Y71450000I-227775J0D01*
G01*
G37*
G36*
G01*
X35347225Y68525000D02*
X34152775Y68525000D01*
G75*
G02*
X33925000Y68752775I0J227775D01*
G01*
X33925000Y69322225D01*
G75*
G02*
X34152775Y69550000I227775J0D01*
G01*
X35347225Y69550000D01*
G75*
G02*
X35575000Y69322225I0J-227775D01*
G01*
X35575000Y68752775D01*
G75*
G02*
X35347225Y68525000I-227775J0D01*
G01*
G37*
%TD*%
%TO.C,R33*%
G36*
G01*
X20152775Y82800000D02*
X21347225Y82800000D01*
G75*
G02*
X21575000Y82572225I0J-227775D01*
G01*
X21575000Y82002775D01*
G75*
G02*
X21347225Y81775000I-227775J0D01*
G01*
X20152775Y81775000D01*
G75*
G02*
X19925000Y82002775I0J227775D01*
G01*
X19925000Y82572225D01*
G75*
G02*
X20152775Y82800000I227775J0D01*
G01*
G37*
G36*
G01*
X20152775Y85725000D02*
X21347225Y85725000D01*
G75*
G02*
X21575000Y85497225I0J-227775D01*
G01*
X21575000Y84927775D01*
G75*
G02*
X21347225Y84700000I-227775J0D01*
G01*
X20152775Y84700000D01*
G75*
G02*
X19925000Y84927775I0J227775D01*
G01*
X19925000Y85497225D01*
G75*
G02*
X20152775Y85725000I227775J0D01*
G01*
G37*
%TD*%
%TO.C,R32*%
G36*
G01*
X14347225Y84700000D02*
X13152775Y84700000D01*
G75*
G02*
X12925000Y84927775I0J227775D01*
G01*
X12925000Y85497225D01*
G75*
G02*
X13152775Y85725000I227775J0D01*
G01*
X14347225Y85725000D01*
G75*
G02*
X14575000Y85497225I0J-227775D01*
G01*
X14575000Y84927775D01*
G75*
G02*
X14347225Y84700000I-227775J0D01*
G01*
G37*
G36*
G01*
X14347225Y81775000D02*
X13152775Y81775000D01*
G75*
G02*
X12925000Y82002775I0J227775D01*
G01*
X12925000Y82572225D01*
G75*
G02*
X13152775Y82800000I227775J0D01*
G01*
X14347225Y82800000D01*
G75*
G02*
X14575000Y82572225I0J-227775D01*
G01*
X14575000Y82002775D01*
G75*
G02*
X14347225Y81775000I-227775J0D01*
G01*
G37*
%TD*%
%TO.C,R30*%
G36*
G01*
X49950000Y7902775D02*
X49950000Y9097225D01*
G75*
G02*
X50177775Y9325000I227775J0D01*
G01*
X50747225Y9325000D01*
G75*
G02*
X50975000Y9097225I0J-227775D01*
G01*
X50975000Y7902775D01*
G75*
G02*
X50747225Y7675000I-227775J0D01*
G01*
X50177775Y7675000D01*
G75*
G02*
X49950000Y7902775I0J227775D01*
G01*
G37*
G36*
G01*
X47025000Y7902775D02*
X47025000Y9097225D01*
G75*
G02*
X47252775Y9325000I227775J0D01*
G01*
X47822225Y9325000D01*
G75*
G02*
X48050000Y9097225I0J-227775D01*
G01*
X48050000Y7902775D01*
G75*
G02*
X47822225Y7675000I-227775J0D01*
G01*
X47252775Y7675000D01*
G75*
G02*
X47025000Y7902775I0J227775D01*
G01*
G37*
%TD*%
%TO.C,R29*%
G36*
G01*
X41450000Y902775D02*
X41450000Y2097225D01*
G75*
G02*
X41677775Y2325000I227775J0D01*
G01*
X42247225Y2325000D01*
G75*
G02*
X42475000Y2097225I0J-227775D01*
G01*
X42475000Y902775D01*
G75*
G02*
X42247225Y675000I-227775J0D01*
G01*
X41677775Y675000D01*
G75*
G02*
X41450000Y902775I0J227775D01*
G01*
G37*
G36*
G01*
X38525000Y902775D02*
X38525000Y2097225D01*
G75*
G02*
X38752775Y2325000I227775J0D01*
G01*
X39322225Y2325000D01*
G75*
G02*
X39550000Y2097225I0J-227775D01*
G01*
X39550000Y902775D01*
G75*
G02*
X39322225Y675000I-227775J0D01*
G01*
X38752775Y675000D01*
G75*
G02*
X38525000Y902775I0J227775D01*
G01*
G37*
%TD*%
%TO.C,R28*%
G36*
G01*
X49950000Y10152775D02*
X49950000Y11347225D01*
G75*
G02*
X50177775Y11575000I227775J0D01*
G01*
X50747225Y11575000D01*
G75*
G02*
X50975000Y11347225I0J-227775D01*
G01*
X50975000Y10152775D01*
G75*
G02*
X50747225Y9925000I-227775J0D01*
G01*
X50177775Y9925000D01*
G75*
G02*
X49950000Y10152775I0J227775D01*
G01*
G37*
G36*
G01*
X47025000Y10152775D02*
X47025000Y11347225D01*
G75*
G02*
X47252775Y11575000I227775J0D01*
G01*
X47822225Y11575000D01*
G75*
G02*
X48050000Y11347225I0J-227775D01*
G01*
X48050000Y10152775D01*
G75*
G02*
X47822225Y9925000I-227775J0D01*
G01*
X47252775Y9925000D01*
G75*
G02*
X47025000Y10152775I0J227775D01*
G01*
G37*
%TD*%
%TO.C,R27*%
G36*
G01*
X58200000Y10652775D02*
X58200000Y11847225D01*
G75*
G02*
X58427775Y12075000I227775J0D01*
G01*
X58997225Y12075000D01*
G75*
G02*
X59225000Y11847225I0J-227775D01*
G01*
X59225000Y10652775D01*
G75*
G02*
X58997225Y10425000I-227775J0D01*
G01*
X58427775Y10425000D01*
G75*
G02*
X58200000Y10652775I0J227775D01*
G01*
G37*
G36*
G01*
X55275000Y10652775D02*
X55275000Y11847225D01*
G75*
G02*
X55502775Y12075000I227775J0D01*
G01*
X56072225Y12075000D01*
G75*
G02*
X56300000Y11847225I0J-227775D01*
G01*
X56300000Y10652775D01*
G75*
G02*
X56072225Y10425000I-227775J0D01*
G01*
X55502775Y10425000D01*
G75*
G02*
X55275000Y10652775I0J227775D01*
G01*
G37*
%TD*%
%TO.C,R26*%
G36*
G01*
X58200000Y8152775D02*
X58200000Y9347225D01*
G75*
G02*
X58427775Y9575000I227775J0D01*
G01*
X58997225Y9575000D01*
G75*
G02*
X59225000Y9347225I0J-227775D01*
G01*
X59225000Y8152775D01*
G75*
G02*
X58997225Y7925000I-227775J0D01*
G01*
X58427775Y7925000D01*
G75*
G02*
X58200000Y8152775I0J227775D01*
G01*
G37*
G36*
G01*
X55275000Y8152775D02*
X55275000Y9347225D01*
G75*
G02*
X55502775Y9575000I227775J0D01*
G01*
X56072225Y9575000D01*
G75*
G02*
X56300000Y9347225I0J-227775D01*
G01*
X56300000Y8152775D01*
G75*
G02*
X56072225Y7925000I-227775J0D01*
G01*
X55502775Y7925000D01*
G75*
G02*
X55275000Y8152775I0J227775D01*
G01*
G37*
%TD*%
%TO.C,R24*%
G36*
G01*
X3652775Y39300000D02*
X4847225Y39300000D01*
G75*
G02*
X5075000Y39072225I0J-227775D01*
G01*
X5075000Y38502775D01*
G75*
G02*
X4847225Y38275000I-227775J0D01*
G01*
X3652775Y38275000D01*
G75*
G02*
X3425000Y38502775I0J227775D01*
G01*
X3425000Y39072225D01*
G75*
G02*
X3652775Y39300000I227775J0D01*
G01*
G37*
G36*
G01*
X3652775Y42225000D02*
X4847225Y42225000D01*
G75*
G02*
X5075000Y41997225I0J-227775D01*
G01*
X5075000Y41427775D01*
G75*
G02*
X4847225Y41200000I-227775J0D01*
G01*
X3652775Y41200000D01*
G75*
G02*
X3425000Y41427775I0J227775D01*
G01*
X3425000Y41997225D01*
G75*
G02*
X3652775Y42225000I227775J0D01*
G01*
G37*
%TD*%
%TO.C,R23*%
G36*
G01*
X4847225Y26450000D02*
X3652775Y26450000D01*
G75*
G02*
X3425000Y26677775I0J227775D01*
G01*
X3425000Y27247225D01*
G75*
G02*
X3652775Y27475000I227775J0D01*
G01*
X4847225Y27475000D01*
G75*
G02*
X5075000Y27247225I0J-227775D01*
G01*
X5075000Y26677775D01*
G75*
G02*
X4847225Y26450000I-227775J0D01*
G01*
G37*
G36*
G01*
X4847225Y23525000D02*
X3652775Y23525000D01*
G75*
G02*
X3425000Y23752775I0J227775D01*
G01*
X3425000Y24322225D01*
G75*
G02*
X3652775Y24550000I227775J0D01*
G01*
X4847225Y24550000D01*
G75*
G02*
X5075000Y24322225I0J-227775D01*
G01*
X5075000Y23752775D01*
G75*
G02*
X4847225Y23525000I-227775J0D01*
G01*
G37*
%TD*%
%TO.C,R22*%
G36*
G01*
X1152775Y24550000D02*
X2347225Y24550000D01*
G75*
G02*
X2575000Y24322225I0J-227775D01*
G01*
X2575000Y23752775D01*
G75*
G02*
X2347225Y23525000I-227775J0D01*
G01*
X1152775Y23525000D01*
G75*
G02*
X925000Y23752775I0J227775D01*
G01*
X925000Y24322225D01*
G75*
G02*
X1152775Y24550000I227775J0D01*
G01*
G37*
G36*
G01*
X1152775Y27475000D02*
X2347225Y27475000D01*
G75*
G02*
X2575000Y27247225I0J-227775D01*
G01*
X2575000Y26677775D01*
G75*
G02*
X2347225Y26450000I-227775J0D01*
G01*
X1152775Y26450000D01*
G75*
G02*
X925000Y26677775I0J227775D01*
G01*
X925000Y27247225D01*
G75*
G02*
X1152775Y27475000I227775J0D01*
G01*
G37*
%TD*%
%TO.C,R21*%
G36*
G01*
X13200000Y18902775D02*
X13200000Y20097225D01*
G75*
G02*
X13427775Y20325000I227775J0D01*
G01*
X13997225Y20325000D01*
G75*
G02*
X14225000Y20097225I0J-227775D01*
G01*
X14225000Y18902775D01*
G75*
G02*
X13997225Y18675000I-227775J0D01*
G01*
X13427775Y18675000D01*
G75*
G02*
X13200000Y18902775I0J227775D01*
G01*
G37*
G36*
G01*
X10275000Y18902775D02*
X10275000Y20097225D01*
G75*
G02*
X10502775Y20325000I227775J0D01*
G01*
X11072225Y20325000D01*
G75*
G02*
X11300000Y20097225I0J-227775D01*
G01*
X11300000Y18902775D01*
G75*
G02*
X11072225Y18675000I-227775J0D01*
G01*
X10502775Y18675000D01*
G75*
G02*
X10275000Y18902775I0J227775D01*
G01*
G37*
%TD*%
%TO.C,R9*%
G36*
G01*
X80050000Y27597225D02*
X80050000Y26402775D01*
G75*
G02*
X79822225Y26175000I-227775J0D01*
G01*
X79252775Y26175000D01*
G75*
G02*
X79025000Y26402775I0J227775D01*
G01*
X79025000Y27597225D01*
G75*
G02*
X79252775Y27825000I227775J0D01*
G01*
X79822225Y27825000D01*
G75*
G02*
X80050000Y27597225I0J-227775D01*
G01*
G37*
G36*
G01*
X82975000Y27597225D02*
X82975000Y26402775D01*
G75*
G02*
X82747225Y26175000I-227775J0D01*
G01*
X82177775Y26175000D01*
G75*
G02*
X81950000Y26402775I0J227775D01*
G01*
X81950000Y27597225D01*
G75*
G02*
X82177775Y27825000I227775J0D01*
G01*
X82747225Y27825000D01*
G75*
G02*
X82975000Y27597225I0J-227775D01*
G01*
G37*
%TD*%
%TO.C,R8*%
G36*
G01*
X80050000Y25097225D02*
X80050000Y23902775D01*
G75*
G02*
X79822225Y23675000I-227775J0D01*
G01*
X79252775Y23675000D01*
G75*
G02*
X79025000Y23902775I0J227775D01*
G01*
X79025000Y25097225D01*
G75*
G02*
X79252775Y25325000I227775J0D01*
G01*
X79822225Y25325000D01*
G75*
G02*
X80050000Y25097225I0J-227775D01*
G01*
G37*
G36*
G01*
X82975000Y25097225D02*
X82975000Y23902775D01*
G75*
G02*
X82747225Y23675000I-227775J0D01*
G01*
X82177775Y23675000D01*
G75*
G02*
X81950000Y23902775I0J227775D01*
G01*
X81950000Y25097225D01*
G75*
G02*
X82177775Y25325000I227775J0D01*
G01*
X82747225Y25325000D01*
G75*
G02*
X82975000Y25097225I0J-227775D01*
G01*
G37*
%TD*%
%TO.C,R5*%
G36*
G01*
X48597225Y88950000D02*
X47402775Y88950000D01*
G75*
G02*
X47175000Y89177775I0J227775D01*
G01*
X47175000Y89747225D01*
G75*
G02*
X47402775Y89975000I227775J0D01*
G01*
X48597225Y89975000D01*
G75*
G02*
X48825000Y89747225I0J-227775D01*
G01*
X48825000Y89177775D01*
G75*
G02*
X48597225Y88950000I-227775J0D01*
G01*
G37*
G36*
G01*
X48597225Y86025000D02*
X47402775Y86025000D01*
G75*
G02*
X47175000Y86252775I0J227775D01*
G01*
X47175000Y86822225D01*
G75*
G02*
X47402775Y87050000I227775J0D01*
G01*
X48597225Y87050000D01*
G75*
G02*
X48825000Y86822225I0J-227775D01*
G01*
X48825000Y86252775D01*
G75*
G02*
X48597225Y86025000I-227775J0D01*
G01*
G37*
%TD*%
%TO.C,R4*%
G36*
G01*
X16402775Y49050000D02*
X17597225Y49050000D01*
G75*
G02*
X17825000Y48822225I0J-227775D01*
G01*
X17825000Y48252775D01*
G75*
G02*
X17597225Y48025000I-227775J0D01*
G01*
X16402775Y48025000D01*
G75*
G02*
X16175000Y48252775I0J227775D01*
G01*
X16175000Y48822225D01*
G75*
G02*
X16402775Y49050000I227775J0D01*
G01*
G37*
G36*
G01*
X16402775Y51975000D02*
X17597225Y51975000D01*
G75*
G02*
X17825000Y51747225I0J-227775D01*
G01*
X17825000Y51177775D01*
G75*
G02*
X17597225Y50950000I-227775J0D01*
G01*
X16402775Y50950000D01*
G75*
G02*
X16175000Y51177775I0J227775D01*
G01*
X16175000Y51747225D01*
G75*
G02*
X16402775Y51975000I227775J0D01*
G01*
G37*
%TD*%
%TO.C,R3*%
G36*
G01*
X38200000Y45152775D02*
X38200000Y46347225D01*
G75*
G02*
X38427775Y46575000I227775J0D01*
G01*
X38997225Y46575000D01*
G75*
G02*
X39225000Y46347225I0J-227775D01*
G01*
X39225000Y45152775D01*
G75*
G02*
X38997225Y44925000I-227775J0D01*
G01*
X38427775Y44925000D01*
G75*
G02*
X38200000Y45152775I0J227775D01*
G01*
G37*
G36*
G01*
X35275000Y45152775D02*
X35275000Y46347225D01*
G75*
G02*
X35502775Y46575000I227775J0D01*
G01*
X36072225Y46575000D01*
G75*
G02*
X36300000Y46347225I0J-227775D01*
G01*
X36300000Y45152775D01*
G75*
G02*
X36072225Y44925000I-227775J0D01*
G01*
X35502775Y44925000D01*
G75*
G02*
X35275000Y45152775I0J227775D01*
G01*
G37*
%TD*%
%TO.C,R2*%
G36*
G01*
X28652775Y37050000D02*
X29847225Y37050000D01*
G75*
G02*
X30075000Y36822225I0J-227775D01*
G01*
X30075000Y36252775D01*
G75*
G02*
X29847225Y36025000I-227775J0D01*
G01*
X28652775Y36025000D01*
G75*
G02*
X28425000Y36252775I0J227775D01*
G01*
X28425000Y36822225D01*
G75*
G02*
X28652775Y37050000I227775J0D01*
G01*
G37*
G36*
G01*
X28652775Y39975000D02*
X29847225Y39975000D01*
G75*
G02*
X30075000Y39747225I0J-227775D01*
G01*
X30075000Y39177775D01*
G75*
G02*
X29847225Y38950000I-227775J0D01*
G01*
X28652775Y38950000D01*
G75*
G02*
X28425000Y39177775I0J227775D01*
G01*
X28425000Y39747225D01*
G75*
G02*
X28652775Y39975000I227775J0D01*
G01*
G37*
%TD*%
%TO.C,R1*%
G36*
G01*
X28652775Y61050000D02*
X29847225Y61050000D01*
G75*
G02*
X30075000Y60822225I0J-227775D01*
G01*
X30075000Y60252775D01*
G75*
G02*
X29847225Y60025000I-227775J0D01*
G01*
X28652775Y60025000D01*
G75*
G02*
X28425000Y60252775I0J227775D01*
G01*
X28425000Y60822225D01*
G75*
G02*
X28652775Y61050000I227775J0D01*
G01*
G37*
G36*
G01*
X28652775Y63975000D02*
X29847225Y63975000D01*
G75*
G02*
X30075000Y63747225I0J-227775D01*
G01*
X30075000Y63177775D01*
G75*
G02*
X29847225Y62950000I-227775J0D01*
G01*
X28652775Y62950000D01*
G75*
G02*
X28425000Y63177775I0J227775D01*
G01*
X28425000Y63747225D01*
G75*
G02*
X28652775Y63975000I227775J0D01*
G01*
G37*
%TD*%
D12*
%TO.C,Q5*%
X55250000Y47250000D03*
X53250000Y46300000D03*
X53250000Y48200000D03*
%TD*%
%TO.C,Q4*%
X32750000Y84000000D03*
X30750000Y83050000D03*
X30750000Y84950000D03*
%TD*%
%TO.C,Q3*%
X29000000Y84000000D03*
X27000000Y83050000D03*
X27000000Y84950000D03*
%TD*%
%TO.C,Q2*%
X18000000Y83250000D03*
X16000000Y82300000D03*
X16000000Y84200000D03*
%TD*%
D18*
%TO.C,Q1*%
X31925000Y3975000D03*
X35275000Y7025000D03*
X31925000Y7025000D03*
X35275000Y3975000D03*
D19*
X27300000Y3220000D03*
X27300000Y7780000D03*
%TD*%
D20*
%TO.C,FID2*%
X108750000Y8000000D03*
%TD*%
%TO.C,FID1*%
X4500000Y97250000D03*
%TD*%
D11*
%TO.C,D15*%
X81250000Y86250000D03*
X81250000Y90250000D03*
%TD*%
%TO.C,D14*%
X77750000Y86250000D03*
X77750000Y90250000D03*
%TD*%
%TO.C,D13*%
G36*
G01*
X105405000Y18175000D02*
X106595000Y18175000D01*
G75*
G02*
X106825000Y17945000I0J-230000D01*
G01*
X106825000Y17255000D01*
G75*
G02*
X106595000Y17025000I-230000J0D01*
G01*
X105405000Y17025000D01*
G75*
G02*
X105175000Y17255000I0J230000D01*
G01*
X105175000Y17945000D01*
G75*
G02*
X105405000Y18175000I230000J0D01*
G01*
G37*
G36*
G01*
X105405000Y20975000D02*
X106595000Y20975000D01*
G75*
G02*
X106825000Y20745000I0J-230000D01*
G01*
X106825000Y20055000D01*
G75*
G02*
X106595000Y19825000I-230000J0D01*
G01*
X105405000Y19825000D01*
G75*
G02*
X105175000Y20055000I0J230000D01*
G01*
X105175000Y20745000D01*
G75*
G02*
X105405000Y20975000I230000J0D01*
G01*
G37*
%TD*%
%TO.C,D11*%
G36*
G01*
X105405000Y12175000D02*
X106595000Y12175000D01*
G75*
G02*
X106825000Y11945000I0J-230000D01*
G01*
X106825000Y11255000D01*
G75*
G02*
X106595000Y11025000I-230000J0D01*
G01*
X105405000Y11025000D01*
G75*
G02*
X105175000Y11255000I0J230000D01*
G01*
X105175000Y11945000D01*
G75*
G02*
X105405000Y12175000I230000J0D01*
G01*
G37*
G36*
G01*
X105405000Y14975000D02*
X106595000Y14975000D01*
G75*
G02*
X106825000Y14745000I0J-230000D01*
G01*
X106825000Y14055000D01*
G75*
G02*
X106595000Y13825000I-230000J0D01*
G01*
X105405000Y13825000D01*
G75*
G02*
X105175000Y14055000I0J230000D01*
G01*
X105175000Y14745000D01*
G75*
G02*
X105405000Y14975000I230000J0D01*
G01*
G37*
%TD*%
D21*
%TO.C,D8*%
X38350000Y22250000D03*
X45150000Y22250000D03*
%TD*%
D10*
%TO.C,D6*%
X8000000Y20750000D03*
X8950000Y18750000D03*
X7050000Y18750000D03*
%TD*%
%TO.C,D1*%
G36*
G01*
X45595000Y88825000D02*
X44405000Y88825000D01*
G75*
G02*
X44175000Y89055000I0J230000D01*
G01*
X44175000Y89745000D01*
G75*
G02*
X44405000Y89975000I230000J0D01*
G01*
X45595000Y89975000D01*
G75*
G02*
X45825000Y89745000I0J-230000D01*
G01*
X45825000Y89055000D01*
G75*
G02*
X45595000Y88825000I-230000J0D01*
G01*
G37*
G36*
G01*
X45595000Y86025000D02*
X44405000Y86025000D01*
G75*
G02*
X44175000Y86255000I0J230000D01*
G01*
X44175000Y86945000D01*
G75*
G02*
X44405000Y87175000I230000J0D01*
G01*
X45595000Y87175000D01*
G75*
G02*
X45825000Y86945000I0J-230000D01*
G01*
X45825000Y86255000D01*
G75*
G02*
X45595000Y86025000I-230000J0D01*
G01*
G37*
%TD*%
%TO.C,C37*%
G36*
G01*
X53621741Y96200000D02*
X52378259Y96200000D01*
G75*
G02*
X52150000Y96428259I0J228259D01*
G01*
X52150000Y97021741D01*
G75*
G02*
X52378259Y97250000I228259J0D01*
G01*
X53621741Y97250000D01*
G75*
G02*
X53850000Y97021741I0J-228259D01*
G01*
X53850000Y96428259D01*
G75*
G02*
X53621741Y96200000I-228259J0D01*
G01*
G37*
G36*
G01*
X53621741Y93250000D02*
X52378259Y93250000D01*
G75*
G02*
X52150000Y93478259I0J228259D01*
G01*
X52150000Y94071741D01*
G75*
G02*
X52378259Y94300000I228259J0D01*
G01*
X53621741Y94300000D01*
G75*
G02*
X53850000Y94071741I0J-228259D01*
G01*
X53850000Y93478259D01*
G75*
G02*
X53621741Y93250000I-228259J0D01*
G01*
G37*
%TD*%
%TO.C,C36*%
G36*
G01*
X52378259Y89550000D02*
X53621741Y89550000D01*
G75*
G02*
X53850000Y89321741I0J-228259D01*
G01*
X53850000Y88728259D01*
G75*
G02*
X53621741Y88500000I-228259J0D01*
G01*
X52378259Y88500000D01*
G75*
G02*
X52150000Y88728259I0J228259D01*
G01*
X52150000Y89321741D01*
G75*
G02*
X52378259Y89550000I228259J0D01*
G01*
G37*
G36*
G01*
X52378259Y92500000D02*
X53621741Y92500000D01*
G75*
G02*
X53850000Y92271741I0J-228259D01*
G01*
X53850000Y91678259D01*
G75*
G02*
X53621741Y91450000I-228259J0D01*
G01*
X52378259Y91450000D01*
G75*
G02*
X52150000Y91678259I0J228259D01*
G01*
X52150000Y92271741D01*
G75*
G02*
X52378259Y92500000I228259J0D01*
G01*
G37*
%TD*%
%TO.C,C35*%
G36*
G01*
X54878259Y89550000D02*
X56121741Y89550000D01*
G75*
G02*
X56350000Y89321741I0J-228259D01*
G01*
X56350000Y88728259D01*
G75*
G02*
X56121741Y88500000I-228259J0D01*
G01*
X54878259Y88500000D01*
G75*
G02*
X54650000Y88728259I0J228259D01*
G01*
X54650000Y89321741D01*
G75*
G02*
X54878259Y89550000I228259J0D01*
G01*
G37*
G36*
G01*
X54878259Y92500000D02*
X56121741Y92500000D01*
G75*
G02*
X56350000Y92271741I0J-228259D01*
G01*
X56350000Y91678259D01*
G75*
G02*
X56121741Y91450000I-228259J0D01*
G01*
X54878259Y91450000D01*
G75*
G02*
X54650000Y91678259I0J228259D01*
G01*
X54650000Y92271741D01*
G75*
G02*
X54878259Y92500000I228259J0D01*
G01*
G37*
%TD*%
%TO.C,C34*%
G36*
G01*
X69371741Y96200000D02*
X68128259Y96200000D01*
G75*
G02*
X67900000Y96428259I0J228259D01*
G01*
X67900000Y97021741D01*
G75*
G02*
X68128259Y97250000I228259J0D01*
G01*
X69371741Y97250000D01*
G75*
G02*
X69600000Y97021741I0J-228259D01*
G01*
X69600000Y96428259D01*
G75*
G02*
X69371741Y96200000I-228259J0D01*
G01*
G37*
G36*
G01*
X69371741Y93250000D02*
X68128259Y93250000D01*
G75*
G02*
X67900000Y93478259I0J228259D01*
G01*
X67900000Y94071741D01*
G75*
G02*
X68128259Y94300000I228259J0D01*
G01*
X69371741Y94300000D01*
G75*
G02*
X69600000Y94071741I0J-228259D01*
G01*
X69600000Y93478259D01*
G75*
G02*
X69371741Y93250000I-228259J0D01*
G01*
G37*
%TD*%
%TO.C,C33*%
G36*
G01*
X54878259Y94300000D02*
X56121741Y94300000D01*
G75*
G02*
X56350000Y94071741I0J-228259D01*
G01*
X56350000Y93478259D01*
G75*
G02*
X56121741Y93250000I-228259J0D01*
G01*
X54878259Y93250000D01*
G75*
G02*
X54650000Y93478259I0J228259D01*
G01*
X54650000Y94071741D01*
G75*
G02*
X54878259Y94300000I228259J0D01*
G01*
G37*
G36*
G01*
X54878259Y97250000D02*
X56121741Y97250000D01*
G75*
G02*
X56350000Y97021741I0J-228259D01*
G01*
X56350000Y96428259D01*
G75*
G02*
X56121741Y96200000I-228259J0D01*
G01*
X54878259Y96200000D01*
G75*
G02*
X54650000Y96428259I0J228259D01*
G01*
X54650000Y97021741D01*
G75*
G02*
X54878259Y97250000I228259J0D01*
G01*
G37*
%TD*%
%TO.C,C31*%
G36*
G01*
X85371741Y6950000D02*
X84128259Y6950000D01*
G75*
G02*
X83900000Y7178259I0J228259D01*
G01*
X83900000Y7771741D01*
G75*
G02*
X84128259Y8000000I228259J0D01*
G01*
X85371741Y8000000D01*
G75*
G02*
X85600000Y7771741I0J-228259D01*
G01*
X85600000Y7178259D01*
G75*
G02*
X85371741Y6950000I-228259J0D01*
G01*
G37*
G36*
G01*
X85371741Y4000000D02*
X84128259Y4000000D01*
G75*
G02*
X83900000Y4228259I0J228259D01*
G01*
X83900000Y4821741D01*
G75*
G02*
X84128259Y5050000I228259J0D01*
G01*
X85371741Y5050000D01*
G75*
G02*
X85600000Y4821741I0J-228259D01*
G01*
X85600000Y4228259D01*
G75*
G02*
X85371741Y4000000I-228259J0D01*
G01*
G37*
%TD*%
%TO.C,C29*%
G36*
G01*
X74371741Y13200000D02*
X73128259Y13200000D01*
G75*
G02*
X72900000Y13428259I0J228259D01*
G01*
X72900000Y14021741D01*
G75*
G02*
X73128259Y14250000I228259J0D01*
G01*
X74371741Y14250000D01*
G75*
G02*
X74600000Y14021741I0J-228259D01*
G01*
X74600000Y13428259D01*
G75*
G02*
X74371741Y13200000I-228259J0D01*
G01*
G37*
G36*
G01*
X74371741Y10250000D02*
X73128259Y10250000D01*
G75*
G02*
X72900000Y10478259I0J228259D01*
G01*
X72900000Y11071741D01*
G75*
G02*
X73128259Y11300000I228259J0D01*
G01*
X74371741Y11300000D01*
G75*
G02*
X74600000Y11071741I0J-228259D01*
G01*
X74600000Y10478259D01*
G75*
G02*
X74371741Y10250000I-228259J0D01*
G01*
G37*
%TD*%
%TO.C,C27*%
G36*
G01*
X56200000Y19128259D02*
X56200000Y20371741D01*
G75*
G02*
X56428259Y20600000I228259J0D01*
G01*
X57021741Y20600000D01*
G75*
G02*
X57250000Y20371741I0J-228259D01*
G01*
X57250000Y19128259D01*
G75*
G02*
X57021741Y18900000I-228259J0D01*
G01*
X56428259Y18900000D01*
G75*
G02*
X56200000Y19128259I0J228259D01*
G01*
G37*
G36*
G01*
X53250000Y19128259D02*
X53250000Y20371741D01*
G75*
G02*
X53478259Y20600000I228259J0D01*
G01*
X54071741Y20600000D01*
G75*
G02*
X54300000Y20371741I0J-228259D01*
G01*
X54300000Y19128259D01*
G75*
G02*
X54071741Y18900000I-228259J0D01*
G01*
X53478259Y18900000D01*
G75*
G02*
X53250000Y19128259I0J228259D01*
G01*
G37*
%TD*%
%TO.C,C26*%
G36*
G01*
X62300000Y38040000D02*
X62300000Y39960000D01*
G75*
G02*
X62540000Y40200000I240000J0D01*
G01*
X65460000Y40200000D01*
G75*
G02*
X65700000Y39960000I0J-240000D01*
G01*
X65700000Y38040000D01*
G75*
G02*
X65460000Y37800000I-240000J0D01*
G01*
X62540000Y37800000D01*
G75*
G02*
X62300000Y38040000I0J240000D01*
G01*
G37*
G36*
G01*
X55800000Y38040000D02*
X55800000Y39960000D01*
G75*
G02*
X56040000Y40200000I240000J0D01*
G01*
X58960000Y40200000D01*
G75*
G02*
X59200000Y39960000I0J-240000D01*
G01*
X59200000Y38040000D01*
G75*
G02*
X58960000Y37800000I-240000J0D01*
G01*
X56040000Y37800000D01*
G75*
G02*
X55800000Y38040000I0J240000D01*
G01*
G37*
%TD*%
%TO.C,C25*%
G36*
G01*
X63200000Y32628259D02*
X63200000Y33871741D01*
G75*
G02*
X63428259Y34100000I228259J0D01*
G01*
X64021741Y34100000D01*
G75*
G02*
X64250000Y33871741I0J-228259D01*
G01*
X64250000Y32628259D01*
G75*
G02*
X64021741Y32400000I-228259J0D01*
G01*
X63428259Y32400000D01*
G75*
G02*
X63200000Y32628259I0J228259D01*
G01*
G37*
G36*
G01*
X60250000Y32628259D02*
X60250000Y33871741D01*
G75*
G02*
X60478259Y34100000I228259J0D01*
G01*
X61071741Y34100000D01*
G75*
G02*
X61300000Y33871741I0J-228259D01*
G01*
X61300000Y32628259D01*
G75*
G02*
X61071741Y32400000I-228259J0D01*
G01*
X60478259Y32400000D01*
G75*
G02*
X60250000Y32628259I0J228259D01*
G01*
G37*
%TD*%
%TO.C,C24*%
G36*
G01*
X84628259Y31300000D02*
X85871741Y31300000D01*
G75*
G02*
X86100000Y31071741I0J-228259D01*
G01*
X86100000Y30478259D01*
G75*
G02*
X85871741Y30250000I-228259J0D01*
G01*
X84628259Y30250000D01*
G75*
G02*
X84400000Y30478259I0J228259D01*
G01*
X84400000Y31071741D01*
G75*
G02*
X84628259Y31300000I228259J0D01*
G01*
G37*
G36*
G01*
X84628259Y34250000D02*
X85871741Y34250000D01*
G75*
G02*
X86100000Y34021741I0J-228259D01*
G01*
X86100000Y33428259D01*
G75*
G02*
X85871741Y33200000I-228259J0D01*
G01*
X84628259Y33200000D01*
G75*
G02*
X84400000Y33428259I0J228259D01*
G01*
X84400000Y34021741D01*
G75*
G02*
X84628259Y34250000I228259J0D01*
G01*
G37*
%TD*%
%TO.C,C23*%
G36*
G01*
X55200000Y49628259D02*
X55200000Y50871741D01*
G75*
G02*
X55428259Y51100000I228259J0D01*
G01*
X56021741Y51100000D01*
G75*
G02*
X56250000Y50871741I0J-228259D01*
G01*
X56250000Y49628259D01*
G75*
G02*
X56021741Y49400000I-228259J0D01*
G01*
X55428259Y49400000D01*
G75*
G02*
X55200000Y49628259I0J228259D01*
G01*
G37*
G36*
G01*
X52250000Y49628259D02*
X52250000Y50871741D01*
G75*
G02*
X52478259Y51100000I228259J0D01*
G01*
X53071741Y51100000D01*
G75*
G02*
X53300000Y50871741I0J-228259D01*
G01*
X53300000Y49628259D01*
G75*
G02*
X53071741Y49400000I-228259J0D01*
G01*
X52478259Y49400000D01*
G75*
G02*
X52250000Y49628259I0J228259D01*
G01*
G37*
%TD*%
%TO.C,C22*%
G36*
G01*
X45871741Y71450000D02*
X44628259Y71450000D01*
G75*
G02*
X44400000Y71678259I0J228259D01*
G01*
X44400000Y72271741D01*
G75*
G02*
X44628259Y72500000I228259J0D01*
G01*
X45871741Y72500000D01*
G75*
G02*
X46100000Y72271741I0J-228259D01*
G01*
X46100000Y71678259D01*
G75*
G02*
X45871741Y71450000I-228259J0D01*
G01*
G37*
G36*
G01*
X45871741Y68500000D02*
X44628259Y68500000D01*
G75*
G02*
X44400000Y68728259I0J228259D01*
G01*
X44400000Y69321741D01*
G75*
G02*
X44628259Y69550000I228259J0D01*
G01*
X45871741Y69550000D01*
G75*
G02*
X46100000Y69321741I0J-228259D01*
G01*
X46100000Y68728259D01*
G75*
G02*
X45871741Y68500000I-228259J0D01*
G01*
G37*
%TD*%
%TO.C,C21*%
G36*
G01*
X42621741Y6200000D02*
X41378259Y6200000D01*
G75*
G02*
X41150000Y6428259I0J228259D01*
G01*
X41150000Y7021741D01*
G75*
G02*
X41378259Y7250000I228259J0D01*
G01*
X42621741Y7250000D01*
G75*
G02*
X42850000Y7021741I0J-228259D01*
G01*
X42850000Y6428259D01*
G75*
G02*
X42621741Y6200000I-228259J0D01*
G01*
G37*
G36*
G01*
X42621741Y3250000D02*
X41378259Y3250000D01*
G75*
G02*
X41150000Y3478259I0J228259D01*
G01*
X41150000Y4071741D01*
G75*
G02*
X41378259Y4300000I228259J0D01*
G01*
X42621741Y4300000D01*
G75*
G02*
X42850000Y4071741I0J-228259D01*
G01*
X42850000Y3478259D01*
G75*
G02*
X42621741Y3250000I-228259J0D01*
G01*
G37*
%TD*%
%TO.C,C20*%
G36*
G01*
X58200000Y5628259D02*
X58200000Y6871741D01*
G75*
G02*
X58428259Y7100000I228259J0D01*
G01*
X59021741Y7100000D01*
G75*
G02*
X59250000Y6871741I0J-228259D01*
G01*
X59250000Y5628259D01*
G75*
G02*
X59021741Y5400000I-228259J0D01*
G01*
X58428259Y5400000D01*
G75*
G02*
X58200000Y5628259I0J228259D01*
G01*
G37*
G36*
G01*
X55250000Y5628259D02*
X55250000Y6871741D01*
G75*
G02*
X55478259Y7100000I228259J0D01*
G01*
X56071741Y7100000D01*
G75*
G02*
X56300000Y6871741I0J-228259D01*
G01*
X56300000Y5628259D01*
G75*
G02*
X56071741Y5400000I-228259J0D01*
G01*
X55478259Y5400000D01*
G75*
G02*
X55250000Y5628259I0J228259D01*
G01*
G37*
%TD*%
%TO.C,C19*%
G36*
G01*
X1128259Y39300000D02*
X2371741Y39300000D01*
G75*
G02*
X2600000Y39071741I0J-228259D01*
G01*
X2600000Y38478259D01*
G75*
G02*
X2371741Y38250000I-228259J0D01*
G01*
X1128259Y38250000D01*
G75*
G02*
X900000Y38478259I0J228259D01*
G01*
X900000Y39071741D01*
G75*
G02*
X1128259Y39300000I228259J0D01*
G01*
G37*
G36*
G01*
X1128259Y42250000D02*
X2371741Y42250000D01*
G75*
G02*
X2600000Y42021741I0J-228259D01*
G01*
X2600000Y41428259D01*
G75*
G02*
X2371741Y41200000I-228259J0D01*
G01*
X1128259Y41200000D01*
G75*
G02*
X900000Y41428259I0J228259D01*
G01*
X900000Y42021741D01*
G75*
G02*
X1128259Y42250000I228259J0D01*
G01*
G37*
%TD*%
%TO.C,C18*%
G36*
G01*
X2800000Y20121741D02*
X2800000Y18878259D01*
G75*
G02*
X2571741Y18650000I-228259J0D01*
G01*
X1978259Y18650000D01*
G75*
G02*
X1750000Y18878259I0J228259D01*
G01*
X1750000Y20121741D01*
G75*
G02*
X1978259Y20350000I228259J0D01*
G01*
X2571741Y20350000D01*
G75*
G02*
X2800000Y20121741I0J-228259D01*
G01*
G37*
G36*
G01*
X5750000Y20121741D02*
X5750000Y18878259D01*
G75*
G02*
X5521741Y18650000I-228259J0D01*
G01*
X4928259Y18650000D01*
G75*
G02*
X4700000Y18878259I0J228259D01*
G01*
X4700000Y20121741D01*
G75*
G02*
X4928259Y20350000I228259J0D01*
G01*
X5521741Y20350000D01*
G75*
G02*
X5750000Y20121741I0J-228259D01*
G01*
G37*
%TD*%
%TO.C,C6*%
G36*
G01*
X77621741Y24200000D02*
X76378259Y24200000D01*
G75*
G02*
X76150000Y24428259I0J228259D01*
G01*
X76150000Y25021741D01*
G75*
G02*
X76378259Y25250000I228259J0D01*
G01*
X77621741Y25250000D01*
G75*
G02*
X77850000Y25021741I0J-228259D01*
G01*
X77850000Y24428259D01*
G75*
G02*
X77621741Y24200000I-228259J0D01*
G01*
G37*
G36*
G01*
X77621741Y21250000D02*
X76378259Y21250000D01*
G75*
G02*
X76150000Y21478259I0J228259D01*
G01*
X76150000Y22071741D01*
G75*
G02*
X76378259Y22300000I228259J0D01*
G01*
X77621741Y22300000D01*
G75*
G02*
X77850000Y22071741I0J-228259D01*
G01*
X77850000Y21478259D01*
G75*
G02*
X77621741Y21250000I-228259J0D01*
G01*
G37*
%TD*%
%TO.C,C4*%
G36*
G01*
X6378259Y49050000D02*
X7621741Y49050000D01*
G75*
G02*
X7850000Y48821741I0J-228259D01*
G01*
X7850000Y48228259D01*
G75*
G02*
X7621741Y48000000I-228259J0D01*
G01*
X6378259Y48000000D01*
G75*
G02*
X6150000Y48228259I0J228259D01*
G01*
X6150000Y48821741D01*
G75*
G02*
X6378259Y49050000I228259J0D01*
G01*
G37*
G36*
G01*
X6378259Y52000000D02*
X7621741Y52000000D01*
G75*
G02*
X7850000Y51771741I0J-228259D01*
G01*
X7850000Y51178259D01*
G75*
G02*
X7621741Y50950000I-228259J0D01*
G01*
X6378259Y50950000D01*
G75*
G02*
X6150000Y51178259I0J228259D01*
G01*
X6150000Y51771741D01*
G75*
G02*
X6378259Y52000000I228259J0D01*
G01*
G37*
%TD*%
%TO.C,C3*%
G36*
G01*
X30128259Y49050000D02*
X31371741Y49050000D01*
G75*
G02*
X31600000Y48821741I0J-228259D01*
G01*
X31600000Y48228259D01*
G75*
G02*
X31371741Y48000000I-228259J0D01*
G01*
X30128259Y48000000D01*
G75*
G02*
X29900000Y48228259I0J228259D01*
G01*
X29900000Y48821741D01*
G75*
G02*
X30128259Y49050000I228259J0D01*
G01*
G37*
G36*
G01*
X30128259Y52000000D02*
X31371741Y52000000D01*
G75*
G02*
X31600000Y51771741I0J-228259D01*
G01*
X31600000Y51178259D01*
G75*
G02*
X31371741Y50950000I-228259J0D01*
G01*
X30128259Y50950000D01*
G75*
G02*
X29900000Y51178259I0J228259D01*
G01*
X29900000Y51771741D01*
G75*
G02*
X30128259Y52000000I228259J0D01*
G01*
G37*
%TD*%
%TO.C,C2*%
G36*
G01*
X18128259Y37050000D02*
X19371741Y37050000D01*
G75*
G02*
X19600000Y36821741I0J-228259D01*
G01*
X19600000Y36228259D01*
G75*
G02*
X19371741Y36000000I-228259J0D01*
G01*
X18128259Y36000000D01*
G75*
G02*
X17900000Y36228259I0J228259D01*
G01*
X17900000Y36821741D01*
G75*
G02*
X18128259Y37050000I228259J0D01*
G01*
G37*
G36*
G01*
X18128259Y40000000D02*
X19371741Y40000000D01*
G75*
G02*
X19600000Y39771741I0J-228259D01*
G01*
X19600000Y39178259D01*
G75*
G02*
X19371741Y38950000I-228259J0D01*
G01*
X18128259Y38950000D01*
G75*
G02*
X17900000Y39178259I0J228259D01*
G01*
X17900000Y39771741D01*
G75*
G02*
X18128259Y40000000I228259J0D01*
G01*
G37*
%TD*%
%TO.C,C1*%
G36*
G01*
X18128259Y61050000D02*
X19371741Y61050000D01*
G75*
G02*
X19600000Y60821741I0J-228259D01*
G01*
X19600000Y60228259D01*
G75*
G02*
X19371741Y60000000I-228259J0D01*
G01*
X18128259Y60000000D01*
G75*
G02*
X17900000Y60228259I0J228259D01*
G01*
X17900000Y60821741D01*
G75*
G02*
X18128259Y61050000I228259J0D01*
G01*
G37*
G36*
G01*
X18128259Y64000000D02*
X19371741Y64000000D01*
G75*
G02*
X19600000Y63771741I0J-228259D01*
G01*
X19600000Y63178259D01*
G75*
G02*
X19371741Y62950000I-228259J0D01*
G01*
X18128259Y62950000D01*
G75*
G02*
X17900000Y63178259I0J228259D01*
G01*
X17900000Y63771741D01*
G75*
G02*
X18128259Y64000000I228259J0D01*
G01*
G37*
%TD*%
%TO.C,L2*%
G36*
G01*
X74900000Y1537500D02*
X74900000Y7462500D01*
G75*
G02*
X75387500Y7950000I487500J0D01*
G01*
X78312500Y7950000D01*
G75*
G02*
X78800000Y7462500I0J-487500D01*
G01*
X78800000Y1537500D01*
G75*
G02*
X78312500Y1050000I-487500J0D01*
G01*
X75387500Y1050000D01*
G75*
G02*
X74900000Y1537500I0J487500D01*
G01*
G37*
G36*
G01*
X79700000Y1537500D02*
X79700000Y7462500D01*
G75*
G02*
X80187500Y7950000I487500J0D01*
G01*
X83112500Y7950000D01*
G75*
G02*
X83600000Y7462500I0J-487500D01*
G01*
X83600000Y1537500D01*
G75*
G02*
X83112500Y1050000I-487500J0D01*
G01*
X80187500Y1050000D01*
G75*
G02*
X79700000Y1537500I0J487500D01*
G01*
G37*
%TD*%
%TO.C,L1*%
G36*
G01*
X50787500Y32100000D02*
X56712500Y32100000D01*
G75*
G02*
X57200000Y31612500I0J-487500D01*
G01*
X57200000Y28687500D01*
G75*
G02*
X56712500Y28200000I-487500J0D01*
G01*
X50787500Y28200000D01*
G75*
G02*
X50300000Y28687500I0J487500D01*
G01*
X50300000Y31612500D01*
G75*
G02*
X50787500Y32100000I487500J0D01*
G01*
G37*
G36*
G01*
X50787500Y27300000D02*
X56712500Y27300000D01*
G75*
G02*
X57200000Y26812500I0J-487500D01*
G01*
X57200000Y23887500D01*
G75*
G02*
X56712500Y23400000I-487500J0D01*
G01*
X50787500Y23400000D01*
G75*
G02*
X50300000Y23887500I0J487500D01*
G01*
X50300000Y26812500D01*
G75*
G02*
X50787500Y27300000I487500J0D01*
G01*
G37*
%TD*%
D11*
%TO.C,D12*%
X82750000Y10250000D03*
X82750000Y14250000D03*
%TD*%
D22*
%TO.C,D10*%
X59500000Y24250000D03*
X63500000Y24250000D03*
%TD*%
%TO.C,D7*%
X54250000Y2750000D03*
X58250000Y2750000D03*
%TD*%
D11*
%TO.C,D4*%
X94250000Y55250000D03*
X94250000Y51250000D03*
%TD*%
M02*
