%TF.GenerationSoftware,KiCad,Pcbnew,5.1.10-88a1d61d58~90~ubuntu20.04.1*%
%TF.CreationDate,2021-10-09T22:51:23+02:00*%
%TF.ProjectId,jbc-miniregler,6a62632d-6d69-46e6-9972-65676c65722e,21.0.1*%
%TF.SameCoordinates,PX56c8cc0PY88601c0*%
%TF.FileFunction,Legend,Bot*%
%TF.FilePolarity,Positive*%
%FSLAX46Y46*%
G04 Gerber Fmt 4.6, Leading zero omitted, Abs format (unit mm)*
G04 Created by KiCad (PCBNEW 5.1.10-88a1d61d58~90~ubuntu20.04.1) date 2021-10-09 22:51:23*
%MOMM*%
%LPD*%
G01*
G04 APERTURE LIST*
%ADD10C,0.150000*%
%ADD11C,0.100000*%
G04 APERTURE END LIST*
D10*
X5347619Y15895239D02*
X6347619Y15895239D01*
X5871428Y15895239D02*
X5871428Y16466667D01*
X5347619Y16466667D02*
X6347619Y16466667D01*
X5728571Y16942858D02*
X5728571Y17704762D01*
X5347619Y17323810D02*
X6109523Y17323810D01*
X11447619Y15695239D02*
X11447619Y16266667D01*
X10447619Y15980953D02*
X11447619Y15980953D01*
X10542857Y17171429D02*
X10495238Y17123810D01*
X10447619Y16980953D01*
X10447619Y16885715D01*
X10495238Y16742858D01*
X10590476Y16647620D01*
X10685714Y16600000D01*
X10876190Y16552381D01*
X11019047Y16552381D01*
X11209523Y16600000D01*
X11304761Y16647620D01*
X11400000Y16742858D01*
X11447619Y16885715D01*
X11447619Y16980953D01*
X11400000Y17123810D01*
X11352380Y17171429D01*
X10828571Y17600000D02*
X10828571Y18361905D01*
X10447619Y17980953D02*
X11209523Y17980953D01*
X15547619Y15814286D02*
X16547619Y15814286D01*
X16071428Y15814286D02*
X16071428Y16385715D01*
X15547619Y16385715D02*
X16547619Y16385715D01*
X16547619Y16719048D02*
X16547619Y17290477D01*
X15547619Y17004762D02*
X16547619Y17004762D01*
X15642857Y18195239D02*
X15595238Y18147620D01*
X15547619Y18004762D01*
X15547619Y17909524D01*
X15595238Y17766667D01*
X15690476Y17671429D01*
X15785714Y17623810D01*
X15976190Y17576191D01*
X16119047Y17576191D01*
X16309523Y17623810D01*
X16404761Y17671429D01*
X16500000Y17766667D01*
X16547619Y17909524D01*
X16547619Y18004762D01*
X16500000Y18147620D01*
X16452380Y18195239D01*
X15928571Y18623810D02*
X15928571Y19385715D01*
X38623809Y38071429D02*
X38480952Y38023810D01*
X38433333Y37976191D01*
X38385714Y37880953D01*
X38385714Y37738096D01*
X38433333Y37642858D01*
X38480952Y37595239D01*
X38576190Y37547620D01*
X38957142Y37547620D01*
X38957142Y38547620D01*
X38623809Y38547620D01*
X38528571Y38500000D01*
X38480952Y38452381D01*
X38433333Y38357143D01*
X38433333Y38261905D01*
X38480952Y38166667D01*
X38528571Y38119048D01*
X38623809Y38071429D01*
X38957142Y38071429D01*
X37433333Y37547620D02*
X38004761Y37547620D01*
X37719047Y37547620D02*
X37719047Y38547620D01*
X37814285Y38404762D01*
X37909523Y38309524D01*
X38004761Y38261905D01*
X37004761Y37928572D02*
X36242857Y37928572D01*
X38723809Y43971429D02*
X38580952Y43923810D01*
X38533333Y43876191D01*
X38485714Y43780953D01*
X38485714Y43638096D01*
X38533333Y43542858D01*
X38580952Y43495239D01*
X38676190Y43447620D01*
X39057142Y43447620D01*
X39057142Y44447620D01*
X38723809Y44447620D01*
X38628571Y44400000D01*
X38580952Y44352381D01*
X38533333Y44257143D01*
X38533333Y44161905D01*
X38580952Y44066667D01*
X38628571Y44019048D01*
X38723809Y43971429D01*
X39057142Y43971429D01*
X38104761Y44352381D02*
X38057142Y44400000D01*
X37961904Y44447620D01*
X37723809Y44447620D01*
X37628571Y44400000D01*
X37580952Y44352381D01*
X37533333Y44257143D01*
X37533333Y44161905D01*
X37580952Y44019048D01*
X38152380Y43447620D01*
X37533333Y43447620D01*
X37104761Y43828572D02*
X36342857Y43828572D01*
X38823809Y55871429D02*
X38680952Y55823810D01*
X38633333Y55776191D01*
X38585714Y55680953D01*
X38585714Y55538096D01*
X38633333Y55442858D01*
X38680952Y55395239D01*
X38776190Y55347620D01*
X39157142Y55347620D01*
X39157142Y56347620D01*
X38823809Y56347620D01*
X38728571Y56300000D01*
X38680952Y56252381D01*
X38633333Y56157143D01*
X38633333Y56061905D01*
X38680952Y55966667D01*
X38728571Y55919048D01*
X38823809Y55871429D01*
X39157142Y55871429D01*
X37633333Y55347620D02*
X38204761Y55347620D01*
X37919047Y55347620D02*
X37919047Y56347620D01*
X38014285Y56204762D01*
X38109523Y56109524D01*
X38204761Y56061905D01*
X37204761Y55728572D02*
X36442857Y55728572D01*
X36823809Y55347620D02*
X36823809Y56109524D01*
X38723809Y62071429D02*
X38580952Y62023810D01*
X38533333Y61976191D01*
X38485714Y61880953D01*
X38485714Y61738096D01*
X38533333Y61642858D01*
X38580952Y61595239D01*
X38676190Y61547620D01*
X39057142Y61547620D01*
X39057142Y62547620D01*
X38723809Y62547620D01*
X38628571Y62500000D01*
X38580952Y62452381D01*
X38533333Y62357143D01*
X38533333Y62261905D01*
X38580952Y62166667D01*
X38628571Y62119048D01*
X38723809Y62071429D01*
X39057142Y62071429D01*
X38104761Y62452381D02*
X38057142Y62500000D01*
X37961904Y62547620D01*
X37723809Y62547620D01*
X37628571Y62500000D01*
X37580952Y62452381D01*
X37533333Y62357143D01*
X37533333Y62261905D01*
X37580952Y62119048D01*
X38152380Y61547620D01*
X37533333Y61547620D01*
X37104761Y61928572D02*
X36342857Y61928572D01*
X36723809Y61547620D02*
X36723809Y62309524D01*
X22566666Y27447620D02*
X22566666Y28447620D01*
X22233333Y27733334D01*
X21900000Y28447620D01*
X21900000Y27447620D01*
X20995238Y27447620D02*
X20995238Y27971429D01*
X21042857Y28066667D01*
X21138095Y28114286D01*
X21328571Y28114286D01*
X21423809Y28066667D01*
X20995238Y27495239D02*
X21090476Y27447620D01*
X21328571Y27447620D01*
X21423809Y27495239D01*
X21471428Y27590477D01*
X21471428Y27685715D01*
X21423809Y27780953D01*
X21328571Y27828572D01*
X21090476Y27828572D01*
X20995238Y27876191D01*
X20519047Y27447620D02*
X20519047Y28447620D01*
X20423809Y27828572D02*
X20138095Y27447620D01*
X20138095Y28114286D02*
X20519047Y27733334D01*
X19709523Y27447620D02*
X19709523Y28114286D01*
X19709523Y28447620D02*
X19757142Y28400000D01*
X19709523Y28352381D01*
X19661904Y28400000D01*
X19709523Y28447620D01*
X19709523Y28352381D01*
X19376190Y28114286D02*
X18995238Y28114286D01*
X19233333Y28447620D02*
X19233333Y27590477D01*
X19185714Y27495239D01*
X19090476Y27447620D01*
X18995238Y27447620D01*
X18233333Y27447620D02*
X18233333Y27971429D01*
X18280952Y28066667D01*
X18376190Y28114286D01*
X18566666Y28114286D01*
X18661904Y28066667D01*
X18233333Y27495239D02*
X18328571Y27447620D01*
X18566666Y27447620D01*
X18661904Y27495239D01*
X18709523Y27590477D01*
X18709523Y27685715D01*
X18661904Y27780953D01*
X18566666Y27828572D01*
X18328571Y27828572D01*
X18233333Y27876191D01*
X16995238Y27447620D02*
X16995238Y28447620D01*
X16614285Y28447620D01*
X16519047Y28400000D01*
X16471428Y28352381D01*
X16423809Y28257143D01*
X16423809Y28114286D01*
X16471428Y28019048D01*
X16519047Y27971429D01*
X16614285Y27923810D01*
X16995238Y27923810D01*
X15852380Y27447620D02*
X15947619Y27495239D01*
X15995238Y27590477D01*
X15995238Y28447620D01*
X15042857Y28114286D02*
X15042857Y27447620D01*
X15471428Y28114286D02*
X15471428Y27590477D01*
X15423809Y27495239D01*
X15328571Y27447620D01*
X15185714Y27447620D01*
X15090476Y27495239D01*
X15042857Y27542858D01*
X14614285Y27495239D02*
X14519047Y27447620D01*
X14328571Y27447620D01*
X14233333Y27495239D01*
X14185714Y27590477D01*
X14185714Y27638096D01*
X14233333Y27733334D01*
X14328571Y27780953D01*
X14471428Y27780953D01*
X14566666Y27828572D01*
X14614285Y27923810D01*
X14614285Y27971429D01*
X14566666Y28066667D01*
X14471428Y28114286D01*
X14328571Y28114286D01*
X14233333Y28066667D01*
X22966666Y66247620D02*
X22966666Y67247620D01*
X22633333Y66533334D01*
X22300000Y67247620D01*
X22300000Y66247620D01*
X21395238Y66247620D02*
X21395238Y66771429D01*
X21442857Y66866667D01*
X21538095Y66914286D01*
X21728571Y66914286D01*
X21823809Y66866667D01*
X21395238Y66295239D02*
X21490476Y66247620D01*
X21728571Y66247620D01*
X21823809Y66295239D01*
X21871428Y66390477D01*
X21871428Y66485715D01*
X21823809Y66580953D01*
X21728571Y66628572D01*
X21490476Y66628572D01*
X21395238Y66676191D01*
X20919047Y66247620D02*
X20919047Y67247620D01*
X20823809Y66628572D02*
X20538095Y66247620D01*
X20538095Y66914286D02*
X20919047Y66533334D01*
X20109523Y66247620D02*
X20109523Y66914286D01*
X20109523Y67247620D02*
X20157142Y67200000D01*
X20109523Y67152381D01*
X20061904Y67200000D01*
X20109523Y67247620D01*
X20109523Y67152381D01*
X19776190Y66914286D02*
X19395238Y66914286D01*
X19633333Y67247620D02*
X19633333Y66390477D01*
X19585714Y66295239D01*
X19490476Y66247620D01*
X19395238Y66247620D01*
X18633333Y66247620D02*
X18633333Y66771429D01*
X18680952Y66866667D01*
X18776190Y66914286D01*
X18966666Y66914286D01*
X19061904Y66866667D01*
X18633333Y66295239D02*
X18728571Y66247620D01*
X18966666Y66247620D01*
X19061904Y66295239D01*
X19109523Y66390477D01*
X19109523Y66485715D01*
X19061904Y66580953D01*
X18966666Y66628572D01*
X18728571Y66628572D01*
X18633333Y66676191D01*
X17395238Y66247620D02*
X17395238Y67247620D01*
X17061904Y66533334D01*
X16728571Y67247620D01*
X16728571Y66247620D01*
X16252380Y66247620D02*
X16252380Y66914286D01*
X16252380Y67247620D02*
X16300000Y67200000D01*
X16252380Y67152381D01*
X16204761Y67200000D01*
X16252380Y67247620D01*
X16252380Y67152381D01*
X15776190Y66914286D02*
X15776190Y66247620D01*
X15776190Y66819048D02*
X15728571Y66866667D01*
X15633333Y66914286D01*
X15490476Y66914286D01*
X15395238Y66866667D01*
X15347619Y66771429D01*
X15347619Y66247620D01*
X14442857Y66914286D02*
X14442857Y66247620D01*
X14871428Y66914286D02*
X14871428Y66390477D01*
X14823809Y66295239D01*
X14728571Y66247620D01*
X14585714Y66247620D01*
X14490476Y66295239D01*
X14442857Y66342858D01*
X14014285Y66295239D02*
X13919047Y66247620D01*
X13728571Y66247620D01*
X13633333Y66295239D01*
X13585714Y66390477D01*
X13585714Y66438096D01*
X13633333Y66533334D01*
X13728571Y66580953D01*
X13871428Y66580953D01*
X13966666Y66628572D01*
X14014285Y66723810D01*
X14014285Y66771429D01*
X13966666Y66866667D01*
X13871428Y66914286D01*
X13728571Y66914286D01*
X13633333Y66866667D01*
X6152380Y94647620D02*
X5961904Y94647620D01*
X5866666Y94600000D01*
X5771428Y94504762D01*
X5723809Y94314286D01*
X5723809Y93980953D01*
X5771428Y93790477D01*
X5866666Y93695239D01*
X5961904Y93647620D01*
X6152380Y93647620D01*
X6247619Y93695239D01*
X6342857Y93790477D01*
X6390476Y93980953D01*
X6390476Y94314286D01*
X6342857Y94504762D01*
X6247619Y94600000D01*
X6152380Y94647620D01*
X4819047Y93647620D02*
X5295238Y93647620D01*
X5295238Y94647620D01*
X4485714Y94171429D02*
X4152380Y94171429D01*
X4009523Y93647620D02*
X4485714Y93647620D01*
X4485714Y94647620D01*
X4009523Y94647620D01*
X3580952Y93647620D02*
X3580952Y94647620D01*
X3342857Y94647620D01*
X3200000Y94600000D01*
X3104761Y94504762D01*
X3057142Y94409524D01*
X3009523Y94219048D01*
X3009523Y94076191D01*
X3057142Y93885715D01*
X3104761Y93790477D01*
X3200000Y93695239D01*
X3342857Y93647620D01*
X3580952Y93647620D01*
X10061904Y84700000D02*
X10157142Y84747620D01*
X10300000Y84747620D01*
X10442857Y84700000D01*
X10538095Y84604762D01*
X10585714Y84509524D01*
X10633333Y84319048D01*
X10633333Y84176191D01*
X10585714Y83985715D01*
X10538095Y83890477D01*
X10442857Y83795239D01*
X10300000Y83747620D01*
X10204761Y83747620D01*
X10061904Y83795239D01*
X10014285Y83842858D01*
X10014285Y84176191D01*
X10204761Y84176191D01*
X9585714Y83747620D02*
X9585714Y84747620D01*
X9014285Y83747620D01*
X9014285Y84747620D01*
X8538095Y83747620D02*
X8538095Y84747620D01*
X8300000Y84747620D01*
X8157142Y84700000D01*
X8061904Y84604762D01*
X8014285Y84509524D01*
X7966666Y84319048D01*
X7966666Y84176191D01*
X8014285Y83985715D01*
X8061904Y83890477D01*
X8157142Y83795239D01*
X8300000Y83747620D01*
X8538095Y83747620D01*
X9590476Y87247620D02*
X10066666Y87247620D01*
X10114285Y86771429D01*
X10066666Y86819048D01*
X9971428Y86866667D01*
X9733333Y86866667D01*
X9638095Y86819048D01*
X9590476Y86771429D01*
X9542857Y86676191D01*
X9542857Y86438096D01*
X9590476Y86342858D01*
X9638095Y86295239D01*
X9733333Y86247620D01*
X9971428Y86247620D01*
X10066666Y86295239D01*
X10114285Y86342858D01*
X9257142Y87247620D02*
X8923809Y86247620D01*
X8590476Y87247620D01*
X10590476Y88895239D02*
X10447619Y88847620D01*
X10209523Y88847620D01*
X10114285Y88895239D01*
X10066666Y88942858D01*
X10019047Y89038096D01*
X10019047Y89133334D01*
X10066666Y89228572D01*
X10114285Y89276191D01*
X10209523Y89323810D01*
X10400000Y89371429D01*
X10495238Y89419048D01*
X10542857Y89466667D01*
X10590476Y89561905D01*
X10590476Y89657143D01*
X10542857Y89752381D01*
X10495238Y89800000D01*
X10400000Y89847620D01*
X10161904Y89847620D01*
X10019047Y89800000D01*
X9019047Y88942858D02*
X9066666Y88895239D01*
X9209523Y88847620D01*
X9304761Y88847620D01*
X9447619Y88895239D01*
X9542857Y88990477D01*
X9590476Y89085715D01*
X9638095Y89276191D01*
X9638095Y89419048D01*
X9590476Y89609524D01*
X9542857Y89704762D01*
X9447619Y89800000D01*
X9304761Y89847620D01*
X9209523Y89847620D01*
X9066666Y89800000D01*
X9019047Y89752381D01*
X8114285Y88847620D02*
X8590476Y88847620D01*
X8590476Y89847620D01*
X10514285Y91395239D02*
X10371428Y91347620D01*
X10133333Y91347620D01*
X10038095Y91395239D01*
X9990476Y91442858D01*
X9942857Y91538096D01*
X9942857Y91633334D01*
X9990476Y91728572D01*
X10038095Y91776191D01*
X10133333Y91823810D01*
X10323809Y91871429D01*
X10419047Y91919048D01*
X10466666Y91966667D01*
X10514285Y92061905D01*
X10514285Y92157143D01*
X10466666Y92252381D01*
X10419047Y92300000D01*
X10323809Y92347620D01*
X10085714Y92347620D01*
X9942857Y92300000D01*
X9514285Y91347620D02*
X9514285Y92347620D01*
X9276190Y92347620D01*
X9133333Y92300000D01*
X9038095Y92204762D01*
X8990476Y92109524D01*
X8942857Y91919048D01*
X8942857Y91776191D01*
X8990476Y91585715D01*
X9038095Y91490477D01*
X9133333Y91395239D01*
X9276190Y91347620D01*
X9514285Y91347620D01*
X8561904Y91633334D02*
X8085714Y91633334D01*
X8657142Y91347620D02*
X8323809Y92347620D01*
X7990476Y91347620D01*
X107061904Y18915000D02*
X106061904Y18915000D01*
X106252380Y17547620D02*
X106585714Y18023810D01*
X106823809Y17547620D02*
X106823809Y18547620D01*
X106442857Y18547620D01*
X106347619Y18500000D01*
X106300000Y18452381D01*
X106252380Y18357143D01*
X106252380Y18214286D01*
X106300000Y18119048D01*
X106347619Y18071429D01*
X106442857Y18023810D01*
X106823809Y18023810D01*
X106061904Y18915000D02*
X105157142Y18915000D01*
X105823809Y18071429D02*
X105490476Y18071429D01*
X105347619Y17547620D02*
X105823809Y17547620D01*
X105823809Y18547620D01*
X105347619Y18547620D01*
X105157142Y18915000D02*
X104204761Y18915000D01*
X104966666Y17595239D02*
X104823809Y17547620D01*
X104585714Y17547620D01*
X104490476Y17595239D01*
X104442857Y17642858D01*
X104395238Y17738096D01*
X104395238Y17833334D01*
X104442857Y17928572D01*
X104490476Y17976191D01*
X104585714Y18023810D01*
X104776190Y18071429D01*
X104871428Y18119048D01*
X104919047Y18166667D01*
X104966666Y18261905D01*
X104966666Y18357143D01*
X104919047Y18452381D01*
X104871428Y18500000D01*
X104776190Y18547620D01*
X104538095Y18547620D01*
X104395238Y18500000D01*
X104204761Y18915000D02*
X103300000Y18915000D01*
X103966666Y18071429D02*
X103633333Y18071429D01*
X103490476Y17547620D02*
X103966666Y17547620D01*
X103966666Y18547620D01*
X103490476Y18547620D01*
X103300000Y18915000D02*
X102538095Y18915000D01*
X103204761Y18547620D02*
X102633333Y18547620D01*
X102919047Y17547620D02*
X102919047Y18547620D01*
X105385714Y14995239D02*
X105242857Y14947620D01*
X105004761Y14947620D01*
X104909523Y14995239D01*
X104861904Y15042858D01*
X104814285Y15138096D01*
X104814285Y15233334D01*
X104861904Y15328572D01*
X104909523Y15376191D01*
X105004761Y15423810D01*
X105195238Y15471429D01*
X105290476Y15519048D01*
X105338095Y15566667D01*
X105385714Y15661905D01*
X105385714Y15757143D01*
X105338095Y15852381D01*
X105290476Y15900000D01*
X105195238Y15947620D01*
X104957142Y15947620D01*
X104814285Y15900000D01*
X103814285Y15042858D02*
X103861904Y14995239D01*
X104004761Y14947620D01*
X104100000Y14947620D01*
X104242857Y14995239D01*
X104338095Y15090477D01*
X104385714Y15185715D01*
X104433333Y15376191D01*
X104433333Y15519048D01*
X104385714Y15709524D01*
X104338095Y15804762D01*
X104242857Y15900000D01*
X104100000Y15947620D01*
X104004761Y15947620D01*
X103861904Y15900000D01*
X103814285Y15852381D01*
X103385714Y14947620D02*
X103385714Y15947620D01*
X102814285Y14947620D02*
X103242857Y15519048D01*
X102814285Y15947620D02*
X103385714Y15376191D01*
X106071428Y12547620D02*
X106071428Y13547620D01*
X105738095Y12833334D01*
X105404761Y13547620D01*
X105404761Y12547620D01*
X104928571Y12547620D02*
X104928571Y13547620D01*
X104500000Y12595239D02*
X104357142Y12547620D01*
X104119047Y12547620D01*
X104023809Y12595239D01*
X103976190Y12642858D01*
X103928571Y12738096D01*
X103928571Y12833334D01*
X103976190Y12928572D01*
X104023809Y12976191D01*
X104119047Y13023810D01*
X104309523Y13071429D01*
X104404761Y13119048D01*
X104452380Y13166667D01*
X104500000Y13261905D01*
X104500000Y13357143D01*
X104452380Y13452381D01*
X104404761Y13500000D01*
X104309523Y13547620D01*
X104071428Y13547620D01*
X103928571Y13500000D01*
X103309523Y13547620D02*
X103119047Y13547620D01*
X103023809Y13500000D01*
X102928571Y13404762D01*
X102880952Y13214286D01*
X102880952Y12880953D01*
X102928571Y12690477D01*
X103023809Y12595239D01*
X103119047Y12547620D01*
X103309523Y12547620D01*
X103404761Y12595239D01*
X103500000Y12690477D01*
X103547619Y12880953D01*
X103547619Y13214286D01*
X103500000Y13404762D01*
X103404761Y13500000D01*
X103309523Y13547620D01*
X92690476Y13447620D02*
X93166666Y13447620D01*
X93214285Y12971429D01*
X93166666Y13019048D01*
X93071428Y13066667D01*
X92833333Y13066667D01*
X92738095Y13019048D01*
X92690476Y12971429D01*
X92642857Y12876191D01*
X92642857Y12638096D01*
X92690476Y12542858D01*
X92738095Y12495239D01*
X92833333Y12447620D01*
X93071428Y12447620D01*
X93166666Y12495239D01*
X93214285Y12542858D01*
X92357142Y13447620D02*
X92023809Y12447620D01*
X91690476Y13447620D01*
X93271428Y14947620D02*
X93271428Y15947620D01*
X92938095Y15233334D01*
X92604761Y15947620D01*
X92604761Y14947620D01*
X91938095Y15947620D02*
X91747619Y15947620D01*
X91652380Y15900000D01*
X91557142Y15804762D01*
X91509523Y15614286D01*
X91509523Y15280953D01*
X91557142Y15090477D01*
X91652380Y14995239D01*
X91747619Y14947620D01*
X91938095Y14947620D01*
X92033333Y14995239D01*
X92128571Y15090477D01*
X92176190Y15280953D01*
X92176190Y15614286D01*
X92128571Y15804762D01*
X92033333Y15900000D01*
X91938095Y15947620D01*
X91128571Y14995239D02*
X90985714Y14947620D01*
X90747619Y14947620D01*
X90652380Y14995239D01*
X90604761Y15042858D01*
X90557142Y15138096D01*
X90557142Y15233334D01*
X90604761Y15328572D01*
X90652380Y15376191D01*
X90747619Y15423810D01*
X90938095Y15471429D01*
X91033333Y15519048D01*
X91080952Y15566667D01*
X91128571Y15661905D01*
X91128571Y15757143D01*
X91080952Y15852381D01*
X91033333Y15900000D01*
X90938095Y15947620D01*
X90700000Y15947620D01*
X90557142Y15900000D01*
X90128571Y14947620D02*
X90128571Y15947620D01*
X92761904Y18800000D02*
X92857142Y18847620D01*
X93000000Y18847620D01*
X93142857Y18800000D01*
X93238095Y18704762D01*
X93285714Y18609524D01*
X93333333Y18419048D01*
X93333333Y18276191D01*
X93285714Y18085715D01*
X93238095Y17990477D01*
X93142857Y17895239D01*
X93000000Y17847620D01*
X92904761Y17847620D01*
X92761904Y17895239D01*
X92714285Y17942858D01*
X92714285Y18276191D01*
X92904761Y18276191D01*
X92285714Y17847620D02*
X92285714Y18847620D01*
X91714285Y17847620D01*
X91714285Y18847620D01*
X91238095Y17847620D02*
X91238095Y18847620D01*
X91000000Y18847620D01*
X90857142Y18800000D01*
X90761904Y18704762D01*
X90714285Y18609524D01*
X90666666Y18419048D01*
X90666666Y18276191D01*
X90714285Y18085715D01*
X90761904Y17990477D01*
X90857142Y17895239D01*
X91000000Y17847620D01*
X91238095Y17847620D01*
X90647619Y82257143D02*
X90647619Y82828572D01*
X89647619Y82542858D02*
X90647619Y82542858D01*
X89647619Y83066667D02*
X90314285Y83590477D01*
X90314285Y83066667D02*
X89647619Y83590477D01*
X89647619Y83971429D02*
X90647619Y83971429D01*
X90647619Y84209524D01*
X90600000Y84352381D01*
X90504761Y84447620D01*
X90409523Y84495239D01*
X90219047Y84542858D01*
X90076190Y84542858D01*
X89885714Y84495239D01*
X89790476Y84447620D01*
X89695238Y84352381D01*
X89647619Y84209524D01*
X89647619Y83971429D01*
X90695238Y85685715D02*
X89409523Y84828572D01*
X89933333Y85971429D02*
X89933333Y86447620D01*
X89647619Y85876191D02*
X90647619Y86209524D01*
X89647619Y86542858D01*
X94647619Y82680953D02*
X95123809Y82347620D01*
X94647619Y82109524D02*
X95647619Y82109524D01*
X95647619Y82490477D01*
X95600000Y82585715D01*
X95552380Y82633334D01*
X95457142Y82680953D01*
X95314285Y82680953D01*
X95219047Y82633334D01*
X95171428Y82585715D01*
X95123809Y82490477D01*
X95123809Y82109524D01*
X94647619Y83014286D02*
X95314285Y83538096D01*
X95314285Y83014286D02*
X94647619Y83538096D01*
X94647619Y83919048D02*
X95647619Y83919048D01*
X95647619Y84157143D01*
X95600000Y84300000D01*
X95504761Y84395239D01*
X95409523Y84442858D01*
X95219047Y84490477D01*
X95076190Y84490477D01*
X94885714Y84442858D01*
X94790476Y84395239D01*
X94695238Y84300000D01*
X94647619Y84157143D01*
X94647619Y83919048D01*
X95695238Y85633334D02*
X94409523Y84776191D01*
X95171428Y86300000D02*
X95123809Y86442858D01*
X95076190Y86490477D01*
X94980952Y86538096D01*
X94838095Y86538096D01*
X94742857Y86490477D01*
X94695238Y86442858D01*
X94647619Y86347620D01*
X94647619Y85966667D01*
X95647619Y85966667D01*
X95647619Y86300000D01*
X95600000Y86395239D01*
X95552380Y86442858D01*
X95457142Y86490477D01*
X95361904Y86490477D01*
X95266666Y86442858D01*
X95219047Y86395239D01*
X95171428Y86300000D01*
X95171428Y85966667D01*
X100700000Y83938096D02*
X100747619Y83842858D01*
X100747619Y83700000D01*
X100700000Y83557143D01*
X100604761Y83461905D01*
X100509523Y83414286D01*
X100319047Y83366667D01*
X100176190Y83366667D01*
X99985714Y83414286D01*
X99890476Y83461905D01*
X99795238Y83557143D01*
X99747619Y83700000D01*
X99747619Y83795239D01*
X99795238Y83938096D01*
X99842857Y83985715D01*
X100176190Y83985715D01*
X100176190Y83795239D01*
X99747619Y84414286D02*
X100747619Y84414286D01*
X99747619Y84985715D01*
X100747619Y84985715D01*
X99747619Y85461905D02*
X100747619Y85461905D01*
X100747619Y85700000D01*
X100700000Y85842858D01*
X100604761Y85938096D01*
X100509523Y85985715D01*
X100319047Y86033334D01*
X100176190Y86033334D01*
X99985714Y85985715D01*
X99890476Y85938096D01*
X99795238Y85842858D01*
X99747619Y85700000D01*
X99747619Y85461905D01*
X67657142Y62071429D02*
X67514285Y62023810D01*
X67466666Y61976191D01*
X67419047Y61880953D01*
X67419047Y61738096D01*
X67466666Y61642858D01*
X67514285Y61595239D01*
X67609523Y61547620D01*
X67990476Y61547620D01*
X67990476Y62547620D01*
X67657142Y62547620D01*
X67561904Y62500000D01*
X67514285Y62452381D01*
X67466666Y62357143D01*
X67466666Y62261905D01*
X67514285Y62166667D01*
X67561904Y62119048D01*
X67657142Y62071429D01*
X67990476Y62071429D01*
X67038095Y61833334D02*
X66561904Y61833334D01*
X67133333Y61547620D02*
X66800000Y62547620D01*
X66466666Y61547620D01*
X66276190Y62547620D02*
X65704761Y62547620D01*
X65990476Y61547620D02*
X65990476Y62547620D01*
X65371428Y61928572D02*
X64609523Y61928572D01*
X64990476Y61547620D02*
X64990476Y62309524D01*
X67061904Y67500000D02*
X67157142Y67547620D01*
X67300000Y67547620D01*
X67442857Y67500000D01*
X67538095Y67404762D01*
X67585714Y67309524D01*
X67633333Y67119048D01*
X67633333Y66976191D01*
X67585714Y66785715D01*
X67538095Y66690477D01*
X67442857Y66595239D01*
X67300000Y66547620D01*
X67204761Y66547620D01*
X67061904Y66595239D01*
X67014285Y66642858D01*
X67014285Y66976191D01*
X67204761Y66976191D01*
X66585714Y66547620D02*
X66585714Y67547620D01*
X66014285Y66547620D01*
X66014285Y67547620D01*
X65538095Y66547620D02*
X65538095Y67547620D01*
X65300000Y67547620D01*
X65157142Y67500000D01*
X65061904Y67404762D01*
X65014285Y67309524D01*
X64966666Y67119048D01*
X64966666Y66976191D01*
X65014285Y66785715D01*
X65061904Y66690477D01*
X65157142Y66595239D01*
X65300000Y66547620D01*
X65538095Y66547620D01*
X70571428Y71695239D02*
X70428571Y71647620D01*
X70190476Y71647620D01*
X70095238Y71695239D01*
X70047619Y71742858D01*
X70000000Y71838096D01*
X70000000Y71933334D01*
X70047619Y72028572D01*
X70095238Y72076191D01*
X70190476Y72123810D01*
X70380952Y72171429D01*
X70476190Y72219048D01*
X70523809Y72266667D01*
X70571428Y72361905D01*
X70571428Y72457143D01*
X70523809Y72552381D01*
X70476190Y72600000D01*
X70380952Y72647620D01*
X70142857Y72647620D01*
X70000000Y72600000D01*
X69714285Y72647620D02*
X69142857Y72647620D01*
X69428571Y71647620D02*
X69428571Y72647620D01*
X68857142Y71933334D02*
X68380952Y71933334D01*
X68952380Y71647620D02*
X68619047Y72647620D01*
X68285714Y71647620D01*
X68809523Y72980953D02*
X68761904Y72933334D01*
X68809523Y72885715D01*
X68857142Y72933334D01*
X68809523Y72980953D01*
X68809523Y72885715D01*
X68428571Y72980953D02*
X68380952Y72933334D01*
X68428571Y72885715D01*
X68476190Y72933334D01*
X68428571Y72980953D01*
X68428571Y72885715D01*
X67952380Y71647620D02*
X67952380Y72647620D01*
X67380952Y71647620D01*
X67380952Y72647620D01*
X66904761Y71647620D02*
X66904761Y72647620D01*
X66666666Y72647620D01*
X66523809Y72600000D01*
X66428571Y72504762D01*
X66380952Y72409524D01*
X66333333Y72219048D01*
X66333333Y72076191D01*
X66380952Y71885715D01*
X66428571Y71790477D01*
X66523809Y71695239D01*
X66666666Y71647620D01*
X66904761Y71647620D01*
X65904761Y72171429D02*
X65571428Y72171429D01*
X65428571Y71647620D02*
X65904761Y71647620D01*
X65904761Y72647620D01*
X65428571Y72647620D01*
X64428571Y71647620D02*
X64761904Y72123810D01*
X65000000Y71647620D02*
X65000000Y72647620D01*
X64619047Y72647620D01*
X64523809Y72600000D01*
X64476190Y72552381D01*
X64428571Y72457143D01*
X64428571Y72314286D01*
X64476190Y72219048D01*
X64523809Y72171429D01*
X64619047Y72123810D01*
X65000000Y72123810D01*
D11*
%TO.C,J6*%
X49485000Y60730000D02*
X49485000Y63270000D01*
X40595000Y63270000D02*
X49485000Y63270000D01*
X40595000Y60730000D02*
X49485000Y60730000D01*
X40595000Y60730000D02*
X40595000Y63270000D01*
%TO.C,J2*%
X28485000Y68230000D02*
X28485000Y70770000D01*
X19595000Y70770000D02*
X28485000Y70770000D01*
X19595000Y68230000D02*
X28485000Y68230000D01*
X19595000Y68230000D02*
X19595000Y70770000D01*
%TO.C,J1*%
X28485000Y29230000D02*
X28485000Y31770000D01*
X19595000Y31770000D02*
X28485000Y31770000D01*
X19595000Y29230000D02*
X28485000Y29230000D01*
X19595000Y29230000D02*
X19595000Y31770000D01*
%TO.C,J13*%
X50985000Y36730000D02*
X50985000Y39270000D01*
X42095000Y39270000D02*
X50985000Y39270000D01*
X42095000Y36730000D02*
X50985000Y36730000D01*
X42095000Y36730000D02*
X42095000Y39270000D01*
%TO.C,J12*%
X49485000Y42730000D02*
X49485000Y45270000D01*
X40595000Y45270000D02*
X49485000Y45270000D01*
X40595000Y42730000D02*
X49485000Y42730000D01*
X40595000Y42730000D02*
X40595000Y45270000D01*
%TO.C,J10*%
X17485000Y68230000D02*
X17485000Y70770000D01*
X8595000Y70770000D02*
X17485000Y70770000D01*
X8595000Y68230000D02*
X17485000Y68230000D01*
X8595000Y68230000D02*
X8595000Y70770000D01*
%TO.C,J8*%
X17485000Y29230000D02*
X17485000Y31770000D01*
X8595000Y31770000D02*
X17485000Y31770000D01*
X8595000Y29230000D02*
X17485000Y29230000D01*
X8595000Y29230000D02*
X8595000Y31770000D01*
%TO.C,J7*%
X50985000Y54730000D02*
X50985000Y57270000D01*
X42095000Y57270000D02*
X50985000Y57270000D01*
X42095000Y54730000D02*
X50985000Y54730000D01*
X42095000Y54730000D02*
X42095000Y57270000D01*
%TO.C,J6*%
X45346666Y64547620D02*
X45346666Y63833334D01*
X45384761Y63690477D01*
X45460952Y63595239D01*
X45575238Y63547620D01*
X45651428Y63547620D01*
X44622857Y64547620D02*
X44775238Y64547620D01*
X44851428Y64500000D01*
X44889523Y64452381D01*
X44965714Y64309524D01*
X45003809Y64119048D01*
X45003809Y63738096D01*
X44965714Y63642858D01*
X44927619Y63595239D01*
X44851428Y63547620D01*
X44699047Y63547620D01*
X44622857Y63595239D01*
X44584761Y63642858D01*
X44546666Y63738096D01*
X44546666Y63976191D01*
X44584761Y64071429D01*
X44622857Y64119048D01*
X44699047Y64166667D01*
X44851428Y64166667D01*
X44927619Y64119048D01*
X44965714Y64071429D01*
X45003809Y63976191D01*
%TO.C,J2*%
X24346666Y72047620D02*
X24346666Y71333334D01*
X24384761Y71190477D01*
X24460952Y71095239D01*
X24575238Y71047620D01*
X24651428Y71047620D01*
X24003809Y71952381D02*
X23965714Y72000000D01*
X23889523Y72047620D01*
X23699047Y72047620D01*
X23622857Y72000000D01*
X23584761Y71952381D01*
X23546666Y71857143D01*
X23546666Y71761905D01*
X23584761Y71619048D01*
X24041904Y71047620D01*
X23546666Y71047620D01*
%TO.C,J1*%
X24346666Y33047620D02*
X24346666Y32333334D01*
X24384761Y32190477D01*
X24460952Y32095239D01*
X24575238Y32047620D01*
X24651428Y32047620D01*
X23546666Y32047620D02*
X24003809Y32047620D01*
X23775238Y32047620D02*
X23775238Y33047620D01*
X23851428Y32904762D01*
X23927619Y32809524D01*
X24003809Y32761905D01*
%TO.C,J13*%
X47227619Y40547620D02*
X47227619Y39833334D01*
X47265714Y39690477D01*
X47341904Y39595239D01*
X47456190Y39547620D01*
X47532380Y39547620D01*
X46427619Y39547620D02*
X46884761Y39547620D01*
X46656190Y39547620D02*
X46656190Y40547620D01*
X46732380Y40404762D01*
X46808571Y40309524D01*
X46884761Y40261905D01*
X46160952Y40547620D02*
X45665714Y40547620D01*
X45932380Y40166667D01*
X45818095Y40166667D01*
X45741904Y40119048D01*
X45703809Y40071429D01*
X45665714Y39976191D01*
X45665714Y39738096D01*
X45703809Y39642858D01*
X45741904Y39595239D01*
X45818095Y39547620D01*
X46046666Y39547620D01*
X46122857Y39595239D01*
X46160952Y39642858D01*
%TO.C,J12*%
X45727619Y46547620D02*
X45727619Y45833334D01*
X45765714Y45690477D01*
X45841904Y45595239D01*
X45956190Y45547620D01*
X46032380Y45547620D01*
X44927619Y45547620D02*
X45384761Y45547620D01*
X45156190Y45547620D02*
X45156190Y46547620D01*
X45232380Y46404762D01*
X45308571Y46309524D01*
X45384761Y46261905D01*
X44622857Y46452381D02*
X44584761Y46500000D01*
X44508571Y46547620D01*
X44318095Y46547620D01*
X44241904Y46500000D01*
X44203809Y46452381D01*
X44165714Y46357143D01*
X44165714Y46261905D01*
X44203809Y46119048D01*
X44660952Y45547620D01*
X44165714Y45547620D01*
%TO.C,J10*%
X13727619Y72047620D02*
X13727619Y71333334D01*
X13765714Y71190477D01*
X13841904Y71095239D01*
X13956190Y71047620D01*
X14032380Y71047620D01*
X12927619Y71047620D02*
X13384761Y71047620D01*
X13156190Y71047620D02*
X13156190Y72047620D01*
X13232380Y71904762D01*
X13308571Y71809524D01*
X13384761Y71761905D01*
X12432380Y72047620D02*
X12356190Y72047620D01*
X12280000Y72000000D01*
X12241904Y71952381D01*
X12203809Y71857143D01*
X12165714Y71666667D01*
X12165714Y71428572D01*
X12203809Y71238096D01*
X12241904Y71142858D01*
X12280000Y71095239D01*
X12356190Y71047620D01*
X12432380Y71047620D01*
X12508571Y71095239D01*
X12546666Y71142858D01*
X12584761Y71238096D01*
X12622857Y71428572D01*
X12622857Y71666667D01*
X12584761Y71857143D01*
X12546666Y71952381D01*
X12508571Y72000000D01*
X12432380Y72047620D01*
%TO.C,J8*%
X13346666Y33047620D02*
X13346666Y32333334D01*
X13384761Y32190477D01*
X13460952Y32095239D01*
X13575238Y32047620D01*
X13651428Y32047620D01*
X12851428Y32619048D02*
X12927619Y32666667D01*
X12965714Y32714286D01*
X13003809Y32809524D01*
X13003809Y32857143D01*
X12965714Y32952381D01*
X12927619Y33000000D01*
X12851428Y33047620D01*
X12699047Y33047620D01*
X12622857Y33000000D01*
X12584761Y32952381D01*
X12546666Y32857143D01*
X12546666Y32809524D01*
X12584761Y32714286D01*
X12622857Y32666667D01*
X12699047Y32619048D01*
X12851428Y32619048D01*
X12927619Y32571429D01*
X12965714Y32523810D01*
X13003809Y32428572D01*
X13003809Y32238096D01*
X12965714Y32142858D01*
X12927619Y32095239D01*
X12851428Y32047620D01*
X12699047Y32047620D01*
X12622857Y32095239D01*
X12584761Y32142858D01*
X12546666Y32238096D01*
X12546666Y32428572D01*
X12584761Y32523810D01*
X12622857Y32571429D01*
X12699047Y32619048D01*
%TO.C,J7*%
X46846666Y58547620D02*
X46846666Y57833334D01*
X46884761Y57690477D01*
X46960952Y57595239D01*
X47075238Y57547620D01*
X47151428Y57547620D01*
X46541904Y58547620D02*
X46008571Y58547620D01*
X46351428Y57547620D01*
%TD*%
M02*
