M48
; DRILL file {KiCad 5.1.10-88a1d61d58~90~ubuntu20.04.1} date Sat Oct  9 22:51:34 2021
; FORMAT={-:-/ absolute / metric / decimal}
; #@! TF.CreationDate,2021-10-09T22:51:34+02:00
; #@! TF.GenerationSoftware,Kicad,Pcbnew,5.1.10-88a1d61d58~90~ubuntu20.04.1
; #@! TF.FileFunction,Plated,1,2,PTH
FMAT,2
METRIC
T1C0.300
T2C0.400
T3C0.500
T4C0.762
T5C0.950
T6C1.000
T7C1.300
T8C1.400
T9C2.300
%
G90
G05
T1
X1.0Y58.25
X1.25Y78.75
X1.25Y22.25
X1.5Y48.25
X2.0Y44.6
X2.1Y88.0
X2.4Y32.6
X3.0Y63.9
X3.8Y63.1
X4.4Y75.6
X4.7Y65.7
X4.8Y62.2
X5.0Y22.25
X5.5Y60.0
X5.7Y65.0
X6.0Y46.8
X6.0Y33.0
X6.6Y63.9
X7.4Y88.6
X7.6Y81.9
X8.0Y73.0
X8.1Y63.0
X8.25Y33.75
X10.1Y97.4
X12.4Y80.8
X13.4Y87.6
X13.4Y57.4
X14.0Y63.0
X14.6Y73.0
X14.9Y80.8
X15.0Y41.25
X15.0Y22.0
X16.0Y34.25
X16.3Y46.7
X16.4Y91.2
X16.75Y39.0
X16.9Y73.2
X18.1Y59.0
X18.9Y81.1
X19.1Y83.3
X19.1Y86.2
X19.5Y54.0
X19.5Y34.7
X19.6Y50.6
X19.633Y46.866
X20.6Y49.4
X20.7Y97.4
X21.4Y45.6
X22.0Y80.9
X22.8Y47.2
X22.8Y39.0
X23.0Y48.8
X24.6Y81.3
X25.7Y44.5
X26.3Y47.2
X28.9Y91.0
X29.9Y81.3
X29.9Y58.9
X31.5Y87.6
X32.2Y85.0
X32.5Y81.6
X32.6Y87.0
X33.0Y77.3
X33.3Y85.9
X33.5Y36.9
X33.9Y75.4
X34.0Y97.4
X34.0Y78.0
X34.1Y76.725
X34.6Y84.7
X34.7Y41.0
X34.795Y86.795
X36.7Y76.725
X36.7Y75.4
X36.8Y78.0
X37.511Y77.589
X37.8Y80.2
X38.6Y41.9
X38.7Y88.2
X41.2Y76.5
X45.0Y85.3
X46.3Y97.1
X46.6Y77.4
X46.8Y88.0
X47.9Y1.1
X49.2Y24.0
X50.0Y13.3
X50.6Y1.1
X50.9Y87.7
X51.1Y98.7
X51.1Y55.6
X53.75Y10.25
X54.1Y55.2
X54.5Y4.5
X56.4Y12.7
X56.5Y14.0
X56.65Y21.15
X57.3Y55.0
X58.0Y87.6
X58.7Y12.3
X59.7Y27.35
X59.735Y28.615
X59.9Y53.0
X60.7Y98.8
X61.482Y83.475
X61.5Y81.925
X61.6Y54.6
X61.7Y79.575
X63.0Y82.75
X63.8Y82.3
X64.2Y12.2
X64.4Y8.1
X65.5Y83.6
X65.8Y1.0
X66.961Y78.456
X67.0Y4.5
X67.14Y75.852
X67.141Y76.602
X67.261Y77.343
X67.3Y83.2
X67.314Y75.123
X67.4Y73.7
X67.9Y22.75
X68.3Y52.8
X68.5Y45.9
X69.1Y46.5
X69.443Y41.108
X70.35Y54.411
X70.4Y39.7
X70.9Y42.6
X71.2Y39.6
X72.0Y78.5
X72.275Y76.4
X72.275Y75.2
X72.293Y42.107
X72.419Y80.219
X72.8Y73.7
X73.0Y42.849
X73.0Y91.3
X73.3Y78.4
X73.775Y75.475
X74.4Y70.5
X74.4Y65.0
X74.4Y35.1
X74.5Y59.3
X74.6Y74.9
X74.9Y99.0
X74.9Y43.4
X75.5Y36.6
X75.6Y48.8
X75.707Y41.207
X75.9Y39.5
X76.1Y54.8
X76.575Y41.575
X77.0Y79.0
X77.2Y66.5
X77.348Y73.523
X78.0Y27.8
X78.3Y35.1
X78.45Y10.45
X79.3Y58.1
X79.65Y10.45
X79.9Y69.5
X80.4Y46.1
X80.45Y19.85
X80.7Y36.8
X80.9Y62.7
X80.9Y25.6
X81.6Y62.0
X81.8Y81.0
X82.2Y44.1
X82.2Y22.7
X82.7Y42.6
X82.8Y39.6
X82.8Y32.8
X82.9Y41.5
X83.0Y40.5
X83.1Y64.0
X83.2Y65.3
X83.6Y20.0
X84.4Y38.9
X84.6Y71.0
X84.75Y22.0
X84.8Y57.8
X84.8Y42.3
X84.8Y27.9
X84.9Y98.7
X85.1Y68.2
X85.25Y26.5
X85.4Y81.1
X86.0Y56.7
X86.0Y7.45
X86.1Y89.4
X86.2Y44.2
X86.3Y76.5
X86.8Y63.7
X87.368Y58.068
X87.7Y82.6
X87.7Y60.3
X88.4Y78.6
X88.6Y47.8
X88.7Y37.3
X89.6Y61.8
X89.6Y32.2
X89.7Y58.0
X90.0Y57.0
X90.1Y26.6
X90.2Y65.4
X90.2Y55.6
X90.4Y59.2
X91.1Y75.7
X92.0Y79.5
X92.5Y82.3
X92.7Y58.4
X92.9Y68.1
X92.9Y57.6
X93.5Y20.4
X94.3Y58.7
X94.4Y47.0
X94.5Y15.2
X94.5Y11.2
X94.7Y35.4
X94.925Y57.675
X95.4Y76.5
X95.7Y71.0
X95.7Y49.7
X96.1Y58.2
X96.1Y52.9
X96.3Y9.2
X96.5Y3.5
X96.6Y13.0
X96.9Y31.2
X97.3Y50.0
X97.6Y72.2
X97.9Y79.8
X97.9Y6.0
X98.1Y76.5
X98.9Y1.3
X99.2Y56.2
X99.5Y25.9
X99.6Y45.1
X99.604Y2.791
X99.7Y42.8
X99.9Y93.3
X100.3Y74.0
X100.4Y10.1
X101.0Y3.8
X101.3Y22.6
X101.4Y28.9
X101.7Y20.5
X102.1Y25.8
X102.5Y69.6
X102.7Y84.8
X102.9Y22.0
X103.3Y9.9
X105.1Y49.7
X105.4Y9.1
X105.7Y1.9
X105.9Y98.7
X105.9Y63.9
X106.0Y21.6
X106.0Y15.75
X106.1Y80.7
X106.3Y25.4
X107.6Y31.3
X108.4Y93.8
X108.5Y87.9
X108.5Y76.4
X108.5Y44.7
X108.6Y52.2
X108.8Y63.9
X108.9Y27.4
X108.9Y24.7
X108.9Y6.6
T2
X4.75Y82.5
X5.5Y51.5
X9.0Y41.0
X17.0Y63.0
X18.75Y41.0
X28.4Y27.5
X29.0Y51.5
X30.3Y30.0
X33.75Y79.75
X35.75Y79.25
X37.0Y45.75
X39.0Y31.0
X39.0Y30.0
X39.0Y29.0
X51.4Y93.8
X51.4Y91.9
X51.5Y46.3
X57.0Y6.25
X58.25Y53.0
X60.5Y1.5
X62.7Y43.0
X62.7Y42.0
X62.7Y42.0
X63.7Y43.0
X64.2Y5.5
X64.25Y56.5
X68.2Y85.7
X68.5Y42.75
X68.7Y92.6
X70.75Y96.75
X71.25Y24.25
X71.25Y23.0
X72.4Y81.8
X72.5Y23.0
X73.75Y23.0
X73.8Y85.9
X74.5Y54.25
X76.25Y86.25
X76.75Y53.5
X77.0Y25.825
X78.25Y29.85
X78.75Y49.5
X80.5Y29.75
X81.0Y54.2
X81.25Y84.25
X82.75Y29.75
X83.2Y54.2
X84.25Y27.0
X84.25Y24.5
X84.35Y48.021
X85.0Y29.75
X85.25Y36.0
X85.5Y54.2
X86.05Y51.3
X86.075Y47.75
X87.25Y29.75
X87.75Y75.75
X89.25Y77.25
X89.75Y73.25
X90.5Y46.0
X90.5Y40.8
X92.069Y55.577
X92.2Y32.2
X93.0Y63.75
X93.8Y1.6
X94.0Y40.75
X94.75Y63.75
X95.25Y36.5
X95.5Y29.5
X96.0Y61.5
X96.0Y46.75
X98.0Y71.0
X98.5Y37.7
X98.5Y23.1
X99.4Y66.8
X99.5Y77.25
X102.0Y38.75
X104.0Y70.5
X104.0Y21.3
X105.3Y30.4
X105.3Y29.1
X106.8Y75.0
X107.4Y38.7
X107.6Y72.2
X108.5Y61.0
X108.7Y37.2
T3
X25.25Y5.25
X25.25Y4.25
X25.25Y3.25
X25.25Y2.25
X25.25Y1.25
X26.25Y5.25
X26.25Y1.25
X27.25Y5.25
X27.25Y1.25
X28.25Y5.25
X28.25Y1.25
X29.0Y6.75
X29.25Y5.25
X29.25Y4.25
X29.25Y3.25
X29.25Y2.25
X29.25Y1.25
X35.75Y1.75
X42.0Y7.75
X43.255Y2.595
X51.75Y10.75
X51.75Y8.5
X51.8Y6.4
X52.25Y2.75
X58.65Y4.6
X60.2Y7.5
X60.2Y5.3
X60.299Y10.426
T4
X4.7Y91.82
X4.7Y89.28
X4.7Y86.74
X4.7Y84.2
T5
X99.0Y51.27
X99.0Y48.77
X101.0Y51.27
X101.0Y48.77
T6
X98.46Y18.08
X98.46Y15.54
X98.46Y13.0
X101.0Y18.08
X101.0Y15.54
X101.0Y13.0
T7
X5.84Y12.62
X5.84Y5.0
X10.92Y12.62
X10.92Y5.0
X16.0Y12.62
X16.0Y5.0
X54.0Y72.16
X54.0Y67.08
X54.0Y62.0
X61.62Y72.16
X61.62Y67.08
X61.62Y62.0
X90.0Y97.0
X90.0Y89.38
X95.08Y97.0
X95.08Y89.38
X100.16Y97.0
X100.16Y89.38
T8
X10.5Y69.5
X10.5Y30.5
X15.58Y69.5
X15.58Y30.5
X21.5Y69.5
X21.5Y30.5
X23.0Y15.0
X26.58Y69.5
X26.58Y30.5
X28.3Y15.0
X38.7Y15.0
X42.5Y62.0
X42.5Y44.0
X44.0Y56.0
X44.0Y38.0
X44.0Y15.0
X47.58Y62.0
X47.58Y44.0
X49.08Y56.0
X49.08Y38.0
T9
X103.86Y56.02
X103.86Y44.02
T0
M30
